%TF.GenerationSoftware,KiCad,Pcbnew,8.0.3-8.0.3-0~ubuntu23.10.1*%
%TF.CreationDate,2024-10-17T21:53:55-04:00*%
%TF.ProjectId,INA333,494e4133-3333-42e6-9b69-6361645f7063,rev?*%
%TF.SameCoordinates,Original*%
%TF.FileFunction,Copper,L1,Top*%
%TF.FilePolarity,Positive*%
%FSLAX46Y46*%
G04 Gerber Fmt 4.6, Leading zero omitted, Abs format (unit mm)*
G04 Created by KiCad (PCBNEW 8.0.3-8.0.3-0~ubuntu23.10.1) date 2024-10-17 21:53:55*
%MOMM*%
%LPD*%
G01*
G04 APERTURE LIST*
G04 Aperture macros list*
%AMRoundRect*
0 Rectangle with rounded corners*
0 $1 Rounding radius*
0 $2 $3 $4 $5 $6 $7 $8 $9 X,Y pos of 4 corners*
0 Add a 4 corners polygon primitive as box body*
4,1,4,$2,$3,$4,$5,$6,$7,$8,$9,$2,$3,0*
0 Add four circle primitives for the rounded corners*
1,1,$1+$1,$2,$3*
1,1,$1+$1,$4,$5*
1,1,$1+$1,$6,$7*
1,1,$1+$1,$8,$9*
0 Add four rect primitives between the rounded corners*
20,1,$1+$1,$2,$3,$4,$5,0*
20,1,$1+$1,$4,$5,$6,$7,0*
20,1,$1+$1,$6,$7,$8,$9,0*
20,1,$1+$1,$8,$9,$2,$3,0*%
G04 Aperture macros list end*
%TA.AperFunction,SMDPad,CuDef*%
%ADD10RoundRect,0.160000X0.197500X0.160000X-0.197500X0.160000X-0.197500X-0.160000X0.197500X-0.160000X0*%
%TD*%
%TA.AperFunction,SMDPad,CuDef*%
%ADD11RoundRect,0.150000X-0.587500X-0.150000X0.587500X-0.150000X0.587500X0.150000X-0.587500X0.150000X0*%
%TD*%
%TA.AperFunction,SMDPad,CuDef*%
%ADD12RoundRect,0.140000X-0.140000X-0.170000X0.140000X-0.170000X0.140000X0.170000X-0.140000X0.170000X0*%
%TD*%
%TA.AperFunction,SMDPad,CuDef*%
%ADD13RoundRect,0.140000X-0.170000X0.140000X-0.170000X-0.140000X0.170000X-0.140000X0.170000X0.140000X0*%
%TD*%
%TA.AperFunction,SMDPad,CuDef*%
%ADD14RoundRect,0.125000X0.687500X0.125000X-0.687500X0.125000X-0.687500X-0.125000X0.687500X-0.125000X0*%
%TD*%
%TA.AperFunction,SMDPad,CuDef*%
%ADD15R,1.200000X2.500000*%
%TD*%
%TA.AperFunction,ComponentPad*%
%ADD16R,1.700000X1.700000*%
%TD*%
%TA.AperFunction,ComponentPad*%
%ADD17O,1.700000X1.700000*%
%TD*%
%TA.AperFunction,ViaPad*%
%ADD18C,0.600000*%
%TD*%
%TA.AperFunction,Conductor*%
%ADD19C,0.200000*%
%TD*%
G04 APERTURE END LIST*
D10*
%TO.P,R1,2*%
%TO.N,Net-(R1-Pad2)*%
X122302500Y-92300000D03*
%TO.P,R1,1*%
%TO.N,Net-(R1-Pad1)*%
X123497500Y-92300000D03*
%TD*%
D11*
%TO.P,U3,1,IN*%
%TO.N,VIN*%
X122962500Y-84450000D03*
%TO.P,U3,2,OUT*%
%TO.N,Net-(U1-Ref)*%
X122962500Y-86350000D03*
%TO.P,U3,3,GND*%
%TO.N,GND*%
X124837500Y-85400000D03*
%TD*%
D12*
%TO.P,C2,1*%
%TO.N,Net-(U1-Ref)*%
X122420000Y-87700000D03*
%TO.P,C2,2*%
%TO.N,GND*%
X123380000Y-87700000D03*
%TD*%
D13*
%TO.P,C1,1*%
%TO.N,VIN*%
X119200000Y-90620000D03*
%TO.P,C1,2*%
%TO.N,GND*%
X119200000Y-91580000D03*
%TD*%
D14*
%TO.P,U1,1,Rg*%
%TO.N,Net-(R1-Pad1)*%
X125012500Y-90975000D03*
%TO.P,U1,2,-*%
%TO.N,Net-(U1--)*%
X125012500Y-90325000D03*
%TO.P,U1,3,+*%
%TO.N,Net-(U1-+)*%
X125012500Y-89675000D03*
%TO.P,U1,4,V-*%
%TO.N,GND*%
X125012500Y-89025000D03*
%TO.P,U1,5,Ref*%
%TO.N,Net-(U1-Ref)*%
X120787500Y-89025000D03*
%TO.P,U1,6*%
%TO.N,/IN0+*%
X120787500Y-89675000D03*
%TO.P,U1,7,V+*%
%TO.N,VIN*%
X120787500Y-90325000D03*
%TO.P,U1,8,Rg*%
%TO.N,Net-(R1-Pad2)*%
X120787500Y-90975000D03*
%TD*%
D15*
%TO.P,J3,R1*%
%TO.N,Net-(U1--)*%
X135345000Y-93255000D03*
%TO.P,J3,R2*%
%TO.N,unconnected-(J3-PadR2)*%
X138345000Y-93255000D03*
%TO.P,J3,S*%
%TO.N,GND*%
X130245000Y-86755000D03*
%TO.P,J3,T*%
%TO.N,Net-(U1-+)*%
X131345000Y-93255000D03*
%TD*%
D16*
%TO.P,J1,1,Pin_1*%
%TO.N,/SDA{slash}A4*%
X115650000Y-103975000D03*
D17*
%TO.P,J1,2,Pin_2*%
%TO.N,/SCL{slash}A5*%
X113110000Y-103975000D03*
%TO.P,J1,3,Pin_3*%
%TO.N,GND*%
X115650000Y-101435000D03*
%TO.P,J1,4,Pin_4*%
X113110000Y-101435000D03*
%TO.P,J1,5,Pin_5*%
%TO.N,/IN0+*%
X115650000Y-98895000D03*
%TO.P,J1,6,Pin_6*%
%TO.N,GND*%
X113110000Y-98895000D03*
%TO.P,J1,7,Pin_7*%
%TO.N,/IN1-*%
X115650000Y-96355000D03*
%TO.P,J1,8,Pin_8*%
%TO.N,/IN1+*%
X113110000Y-96355000D03*
%TO.P,J1,9,Pin_9*%
%TO.N,/IN2+*%
X115650000Y-93815000D03*
%TO.P,J1,10,Pin_10*%
%TO.N,/IN2-*%
X113110000Y-93815000D03*
%TO.P,J1,11,Pin_11*%
%TO.N,/IN3-*%
X115650000Y-91275000D03*
%TO.P,J1,12,Pin_12*%
%TO.N,/IN3+*%
X113110000Y-91275000D03*
%TO.P,J1,13,Pin_13*%
%TO.N,/IN4+*%
X115650000Y-88735000D03*
%TO.P,J1,14,Pin_14*%
%TO.N,/IN4-*%
X113110000Y-88735000D03*
%TO.P,J1,15,Pin_15*%
%TO.N,/IN5-*%
X115650000Y-86195000D03*
%TO.P,J1,16,Pin_16*%
%TO.N,/IN5+*%
X113110000Y-86195000D03*
%TO.P,J1,17,Pin_17*%
%TO.N,/IN6+*%
X115650000Y-83655000D03*
%TO.P,J1,18,Pin_18*%
%TO.N,/IN6-*%
X113110000Y-83655000D03*
%TO.P,J1,19,Pin_19*%
%TO.N,/IN7-*%
X115650000Y-81115000D03*
%TO.P,J1,20,Pin_20*%
%TO.N,/IN7+*%
X113110000Y-81115000D03*
%TO.P,J1,21,Pin_21*%
%TO.N,GND*%
X115650000Y-78575000D03*
%TO.P,J1,22,Pin_22*%
X113110000Y-78575000D03*
%TO.P,J1,23,Pin_23*%
%TO.N,/A0*%
X115650000Y-76035000D03*
%TO.P,J1,24,Pin_24*%
%TO.N,VIN*%
X113110000Y-76035000D03*
%TD*%
D18*
%TO.N,VIN*%
X122000000Y-90350000D03*
X120400000Y-92800000D03*
%TO.N,GND*%
X119200000Y-92200000D03*
X126300000Y-85400000D03*
X124000000Y-87700000D03*
X125000000Y-88000000D03*
%TD*%
D19*
%TO.N,Net-(R1-Pad1)*%
X123497500Y-92300000D02*
X124600000Y-92300000D01*
%TO.N,Net-(R1-Pad2)*%
X122302500Y-92300000D02*
X121300000Y-92300000D01*
%TO.N,VIN*%
X110800000Y-76450000D02*
X110800000Y-99200000D01*
X119100000Y-99700000D02*
X120400000Y-98400000D01*
X110800000Y-99200000D02*
X111750000Y-100150000D01*
X111750000Y-100150000D02*
X113550000Y-100150000D01*
X113550000Y-100150000D02*
X118650000Y-100150000D01*
X118650000Y-100150000D02*
X119100000Y-99700000D01*
X122000000Y-90350000D02*
X120812500Y-90350000D01*
X120812500Y-90350000D02*
X120787500Y-90325000D01*
X120400000Y-98400000D02*
X120400000Y-92800000D01*
X113110000Y-76035000D02*
X111215000Y-76035000D01*
X111215000Y-76035000D02*
X110800000Y-76450000D01*
X113110000Y-76035000D02*
X114325000Y-77250000D01*
X122962500Y-80262500D02*
X122962500Y-84450000D01*
X114325000Y-77250000D02*
X119950000Y-77250000D01*
X119950000Y-77250000D02*
X122962500Y-80262500D01*
%TO.N,/IN0+*%
X120787500Y-89675000D02*
X118725000Y-89675000D01*
X117305000Y-98895000D02*
X115650000Y-98895000D01*
X118725000Y-89675000D02*
X117900000Y-90500000D01*
X117900000Y-90500000D02*
X117900000Y-98300000D01*
X117900000Y-98300000D02*
X117305000Y-98895000D01*
%TO.N,VIN*%
X120787500Y-90325000D02*
X119875000Y-90325000D01*
X119875000Y-90325000D02*
X119580000Y-90620000D01*
X119580000Y-90620000D02*
X119200000Y-90620000D01*
%TO.N,GND*%
X119200000Y-91580000D02*
X119200000Y-92200000D01*
%TO.N,Net-(U1-Ref)*%
X122420000Y-87700000D02*
X122420000Y-88580000D01*
X122420000Y-88580000D02*
X121975000Y-89025000D01*
X121975000Y-89025000D02*
X120787500Y-89025000D01*
X122962500Y-86350000D02*
X121750000Y-86350000D01*
X121750000Y-86350000D02*
X120787500Y-87312500D01*
X120787500Y-87312500D02*
X120787500Y-89025000D01*
%TO.N,GND*%
X124837500Y-85400000D02*
X126300000Y-85400000D01*
X125000000Y-88000000D02*
X124500000Y-88000000D01*
X124500000Y-88000000D02*
X124200000Y-87700000D01*
X124200000Y-87700000D02*
X123380000Y-87700000D01*
X125012500Y-89025000D02*
X125012500Y-88012500D01*
X125012500Y-88012500D02*
X125000000Y-88000000D01*
%TO.N,Net-(R1-Pad1)*%
X125012500Y-91887500D02*
X125012500Y-90975000D01*
X124600000Y-92300000D02*
X125012500Y-91887500D01*
%TO.N,Net-(R1-Pad2)*%
X120787500Y-90975000D02*
X120787500Y-91787500D01*
X120787500Y-91787500D02*
X121300000Y-92300000D01*
%TO.N,Net-(U1-+)*%
X131345000Y-93255000D02*
X131345000Y-95655000D01*
X131345000Y-95655000D02*
X131100000Y-95900000D01*
X131100000Y-95900000D02*
X129100000Y-95900000D01*
X129100000Y-95900000D02*
X128500000Y-95300000D01*
X128500000Y-95300000D02*
X128500000Y-91100000D01*
X128500000Y-91100000D02*
X127075000Y-89675000D01*
X127075000Y-89675000D02*
X125012500Y-89675000D01*
%TO.N,GND*%
X115650000Y-101435000D02*
X113110000Y-101435000D01*
%TO.N,Net-(U1--)*%
X135345000Y-96955000D02*
X135345000Y-93255000D01*
X125012500Y-90325000D02*
X126325000Y-90325000D01*
X126900000Y-90900000D02*
X126900000Y-96100000D01*
X126325000Y-90325000D02*
X126900000Y-90900000D01*
X126900000Y-96100000D02*
X128500000Y-97700000D01*
X128500000Y-97700000D02*
X134600000Y-97700000D01*
X134600000Y-97700000D02*
X135345000Y-96955000D01*
%TD*%
%TA.AperFunction,Conductor*%
%TO.N,GND*%
G36*
X112236643Y-75225185D02*
G01*
X112282398Y-75277989D01*
X112292342Y-75347147D01*
X112265458Y-75408164D01*
X112232317Y-75448546D01*
X112134769Y-75631043D01*
X112134768Y-75631046D01*
X112130081Y-75646497D01*
X112091783Y-75704935D01*
X112027970Y-75733391D01*
X112011421Y-75734500D01*
X111175438Y-75734500D01*
X111099010Y-75754978D01*
X111030489Y-75794540D01*
X111030486Y-75794542D01*
X110559541Y-76265487D01*
X110559535Y-76265495D01*
X110519982Y-76334004D01*
X110519979Y-76334009D01*
X110514305Y-76355185D01*
X110499500Y-76410438D01*
X110499500Y-99239562D01*
X110507857Y-99270750D01*
X110519979Y-99315990D01*
X110519980Y-99315991D01*
X110536998Y-99345467D01*
X110559540Y-99384511D01*
X111509540Y-100334511D01*
X111565489Y-100390460D01*
X111565491Y-100390461D01*
X111565495Y-100390464D01*
X111634004Y-100430017D01*
X111634011Y-100430021D01*
X111710438Y-100450500D01*
X111710440Y-100450500D01*
X111913107Y-100450500D01*
X111980146Y-100470185D01*
X112025901Y-100522989D01*
X112035845Y-100592147D01*
X112014682Y-100645623D01*
X111936400Y-100757420D01*
X111936399Y-100757422D01*
X111836570Y-100971507D01*
X111836567Y-100971513D01*
X111779364Y-101184999D01*
X111779364Y-101185000D01*
X112676988Y-101185000D01*
X112644075Y-101242007D01*
X112610000Y-101369174D01*
X112610000Y-101500826D01*
X112644075Y-101627993D01*
X112676988Y-101685000D01*
X111779364Y-101685000D01*
X111836567Y-101898486D01*
X111836570Y-101898492D01*
X111936399Y-102112578D01*
X112071894Y-102306082D01*
X112238917Y-102473105D01*
X112432421Y-102608600D01*
X112646507Y-102708429D01*
X112646516Y-102708433D01*
X112768649Y-102741158D01*
X112828310Y-102777523D01*
X112858839Y-102840369D01*
X112850545Y-102909745D01*
X112806059Y-102963623D01*
X112772552Y-102979593D01*
X112706046Y-102999767D01*
X112618112Y-103046770D01*
X112523550Y-103097315D01*
X112523548Y-103097316D01*
X112523547Y-103097317D01*
X112363589Y-103228589D01*
X112232317Y-103388547D01*
X112134769Y-103571043D01*
X112074699Y-103769067D01*
X112054417Y-103975000D01*
X112074699Y-104180932D01*
X112074700Y-104180934D01*
X112134768Y-104378954D01*
X112211081Y-104521725D01*
X112232317Y-104561453D01*
X112265458Y-104601836D01*
X112292770Y-104666146D01*
X112280978Y-104735014D01*
X112233826Y-104786573D01*
X112169604Y-104804500D01*
X110016962Y-104804500D01*
X110003078Y-104803720D01*
X109990553Y-104802308D01*
X109912735Y-104793540D01*
X109885666Y-104787362D01*
X109806462Y-104759648D01*
X109781444Y-104747600D01*
X109710395Y-104702957D01*
X109688686Y-104685644D01*
X109629355Y-104626313D01*
X109612042Y-104604604D01*
X109584928Y-104561453D01*
X109567398Y-104533553D01*
X109555351Y-104508537D01*
X109527637Y-104429333D01*
X109521459Y-104402263D01*
X109511280Y-104311922D01*
X109510500Y-104298038D01*
X109510500Y-75711961D01*
X109511280Y-75698077D01*
X109517092Y-75646497D01*
X109521459Y-75607731D01*
X109527635Y-75580670D01*
X109555353Y-75501456D01*
X109567396Y-75476450D01*
X109612046Y-75405389D01*
X109629351Y-75383690D01*
X109688690Y-75324351D01*
X109710389Y-75307046D01*
X109781450Y-75262396D01*
X109806456Y-75250353D01*
X109885670Y-75222635D01*
X109912733Y-75216459D01*
X109975419Y-75209396D01*
X110003079Y-75206280D01*
X110016962Y-75205500D01*
X110075892Y-75205500D01*
X112169604Y-75205500D01*
X112236643Y-75225185D01*
G37*
%TD.AperFunction*%
%TA.AperFunction,Conductor*%
G36*
X142751922Y-75206280D02*
G01*
X142842266Y-75216459D01*
X142869331Y-75222636D01*
X142948540Y-75250352D01*
X142973553Y-75262398D01*
X143044606Y-75307043D01*
X143066313Y-75324355D01*
X143125644Y-75383686D01*
X143142957Y-75405395D01*
X143187600Y-75476444D01*
X143199648Y-75501462D01*
X143227362Y-75580666D01*
X143233540Y-75607735D01*
X143243720Y-75698076D01*
X143244500Y-75711961D01*
X143244500Y-104298038D01*
X143243720Y-104311923D01*
X143233540Y-104402264D01*
X143227362Y-104429333D01*
X143199648Y-104508537D01*
X143187600Y-104533555D01*
X143142957Y-104604604D01*
X143125644Y-104626313D01*
X143066313Y-104685644D01*
X143044604Y-104702957D01*
X142973555Y-104747600D01*
X142948537Y-104759648D01*
X142869333Y-104787362D01*
X142842264Y-104793540D01*
X142762075Y-104802576D01*
X142751921Y-104803720D01*
X142738038Y-104804500D01*
X116824500Y-104804500D01*
X116757461Y-104784815D01*
X116711706Y-104732011D01*
X116700500Y-104680500D01*
X116700500Y-103105249D01*
X116700499Y-103105247D01*
X116688868Y-103046770D01*
X116688867Y-103046769D01*
X116644552Y-102980447D01*
X116578230Y-102936132D01*
X116578229Y-102936131D01*
X116519752Y-102924500D01*
X116519748Y-102924500D01*
X116209457Y-102924500D01*
X116142418Y-102904815D01*
X116096663Y-102852011D01*
X116086719Y-102782853D01*
X116115744Y-102719297D01*
X116157052Y-102688118D01*
X116327578Y-102608600D01*
X116521082Y-102473105D01*
X116688105Y-102306082D01*
X116823600Y-102112578D01*
X116923429Y-101898492D01*
X116923432Y-101898486D01*
X116980636Y-101685000D01*
X116083012Y-101685000D01*
X116115925Y-101627993D01*
X116150000Y-101500826D01*
X116150000Y-101369174D01*
X116115925Y-101242007D01*
X116083012Y-101185000D01*
X116980636Y-101185000D01*
X116980635Y-101184999D01*
X116923432Y-100971513D01*
X116923429Y-100971507D01*
X116823600Y-100757422D01*
X116823599Y-100757420D01*
X116745318Y-100645623D01*
X116722991Y-100579417D01*
X116740001Y-100511650D01*
X116790949Y-100463837D01*
X116846893Y-100450500D01*
X118689560Y-100450500D01*
X118689562Y-100450500D01*
X118765989Y-100430021D01*
X118834511Y-100390460D01*
X118890460Y-100334511D01*
X119340460Y-99884511D01*
X120640460Y-98584511D01*
X120680022Y-98515988D01*
X120700500Y-98439562D01*
X120700500Y-98360438D01*
X120700500Y-93263738D01*
X120720185Y-93196699D01*
X120730787Y-93182535D01*
X120731124Y-93182144D01*
X120731128Y-93182143D01*
X120825377Y-93073373D01*
X120885165Y-92942457D01*
X120905647Y-92800000D01*
X120885165Y-92657543D01*
X120878658Y-92643296D01*
X120868715Y-92574141D01*
X120897739Y-92510585D01*
X120956516Y-92472809D01*
X121026386Y-92472808D01*
X121079134Y-92504105D01*
X121115489Y-92540460D01*
X121115491Y-92540461D01*
X121115495Y-92540464D01*
X121156757Y-92564286D01*
X121184011Y-92580021D01*
X121260438Y-92600500D01*
X121339562Y-92600500D01*
X121695008Y-92600500D01*
X121762047Y-92620185D01*
X121801252Y-92664244D01*
X121801579Y-92664012D01*
X121803743Y-92667044D01*
X121806408Y-92670038D01*
X121807551Y-92672376D01*
X121892624Y-92757449D01*
X121892627Y-92757451D01*
X121996201Y-92808084D01*
X122000714Y-92810291D01*
X122070785Y-92820500D01*
X122534214Y-92820499D01*
X122604286Y-92810291D01*
X122604290Y-92810289D01*
X122604291Y-92810289D01*
X122712372Y-92757451D01*
X122712375Y-92757449D01*
X122797447Y-92672377D01*
X122797448Y-92672376D01*
X122797449Y-92672375D01*
X122797450Y-92672372D01*
X122799083Y-92670087D01*
X122802120Y-92667704D01*
X122804715Y-92665110D01*
X122805028Y-92665423D01*
X122854058Y-92626966D01*
X122923620Y-92620411D01*
X122985682Y-92652505D01*
X123000917Y-92670087D01*
X123002552Y-92672377D01*
X123087624Y-92757449D01*
X123087627Y-92757451D01*
X123191201Y-92808084D01*
X123195714Y-92810291D01*
X123265785Y-92820500D01*
X123729214Y-92820499D01*
X123799286Y-92810291D01*
X123799290Y-92810289D01*
X123799291Y-92810289D01*
X123907372Y-92757451D01*
X123907375Y-92757449D01*
X123992448Y-92672376D01*
X123992449Y-92672375D01*
X123993592Y-92670038D01*
X123996000Y-92667401D01*
X123998421Y-92664012D01*
X123998830Y-92664304D01*
X124040721Y-92618456D01*
X124104992Y-92600500D01*
X124639560Y-92600500D01*
X124639562Y-92600500D01*
X124645070Y-92599024D01*
X124714917Y-92600685D01*
X124772781Y-92639845D01*
X124800288Y-92704073D01*
X124801165Y-92718718D01*
X124803391Y-96186951D01*
X124815702Y-96342733D01*
X124815705Y-96342756D01*
X124842704Y-96513221D01*
X124879332Y-96665793D01*
X124879333Y-96665797D01*
X124879336Y-96665807D01*
X124879337Y-96665810D01*
X124932677Y-96829972D01*
X124992727Y-96974943D01*
X124992731Y-96974951D01*
X124992732Y-96974953D01*
X125026339Y-97040911D01*
X125026339Y-97040912D01*
X125071086Y-97128732D01*
X125071098Y-97128753D01*
X125153068Y-97262517D01*
X125153090Y-97262549D01*
X125254532Y-97402173D01*
X125254534Y-97402176D01*
X125261433Y-97410582D01*
X125329239Y-97493203D01*
X125384032Y-97552476D01*
X125387886Y-97556645D01*
X125416077Y-97585923D01*
X125416095Y-97585941D01*
X125416097Y-97585943D01*
X127079521Y-99244573D01*
X127197822Y-99345464D01*
X127337467Y-99446922D01*
X127337471Y-99446924D01*
X127337476Y-99446928D01*
X127471245Y-99528902D01*
X127471250Y-99528905D01*
X127471255Y-99528907D01*
X127471264Y-99528913D01*
X127625061Y-99607276D01*
X127770033Y-99667325D01*
X127934194Y-99720664D01*
X128086771Y-99757295D01*
X128257256Y-99784298D01*
X128323777Y-99789533D01*
X128336398Y-99794343D01*
X128374460Y-99795838D01*
X128374460Y-99795839D01*
X128419457Y-99797606D01*
X128460708Y-99799228D01*
X128460720Y-99799228D01*
X128460740Y-99799229D01*
X128500548Y-99800000D01*
X128500559Y-99799999D01*
X128500560Y-99800000D01*
X132035579Y-99798062D01*
X134686853Y-99796609D01*
X134842738Y-99784297D01*
X135013223Y-99757295D01*
X135165810Y-99720663D01*
X135329972Y-99667323D01*
X135474943Y-99607273D01*
X135628739Y-99528910D01*
X135762529Y-99446924D01*
X135902174Y-99345467D01*
X135993203Y-99270761D01*
X136056627Y-99212131D01*
X136087024Y-99182817D01*
X136890485Y-98374561D01*
X136890484Y-98374560D01*
X136909290Y-98355642D01*
X136910096Y-98352867D01*
X136920449Y-98338908D01*
X136990467Y-98257174D01*
X137091924Y-98117529D01*
X137173910Y-97983739D01*
X137252273Y-97829943D01*
X137312323Y-97684972D01*
X137365663Y-97520810D01*
X137402295Y-97368223D01*
X137429297Y-97197738D01*
X137440838Y-97080566D01*
X137444229Y-96994261D01*
X137445000Y-96954104D01*
X137443049Y-94776478D01*
X137462674Y-94709424D01*
X137515437Y-94663622D01*
X137584586Y-94653616D01*
X137635940Y-94673268D01*
X137666769Y-94693867D01*
X137666770Y-94693868D01*
X137725247Y-94705499D01*
X137725250Y-94705500D01*
X137725252Y-94705500D01*
X138964750Y-94705500D01*
X138964751Y-94705499D01*
X138979568Y-94702552D01*
X139023229Y-94693868D01*
X139023229Y-94693867D01*
X139023231Y-94693867D01*
X139089552Y-94649552D01*
X139133867Y-94583231D01*
X139133867Y-94583229D01*
X139133868Y-94583229D01*
X139145499Y-94524752D01*
X139145500Y-94524750D01*
X139145500Y-91985249D01*
X139145499Y-91985247D01*
X139133868Y-91926770D01*
X139133867Y-91926769D01*
X139089552Y-91860447D01*
X139023230Y-91816132D01*
X139023229Y-91816131D01*
X138964752Y-91804500D01*
X138964748Y-91804500D01*
X137725252Y-91804500D01*
X137725247Y-91804500D01*
X137666770Y-91816131D01*
X137666769Y-91816132D01*
X137600447Y-91860447D01*
X137556132Y-91926769D01*
X137556131Y-91926770D01*
X137544500Y-91985247D01*
X137544500Y-92462162D01*
X137524815Y-92529201D01*
X137472011Y-92574956D01*
X137402853Y-92584900D01*
X137339297Y-92555875D01*
X137305939Y-92509616D01*
X137303656Y-92504105D01*
X137252273Y-92380057D01*
X137173910Y-92226261D01*
X137091924Y-92092471D01*
X137091909Y-92092450D01*
X136990473Y-91952833D01*
X136888557Y-91833503D01*
X136766496Y-91711442D01*
X136647166Y-91609526D01*
X136507549Y-91508090D01*
X136507537Y-91508082D01*
X136507529Y-91508076D01*
X136373739Y-91426090D01*
X136219943Y-91347727D01*
X136079564Y-91289579D01*
X136074980Y-91287680D01*
X136074974Y-91287678D01*
X136074975Y-91287678D01*
X136074972Y-91287677D01*
X135910810Y-91234337D01*
X135910807Y-91234336D01*
X135910797Y-91234333D01*
X135910793Y-91234332D01*
X135758221Y-91197704D01*
X135587747Y-91170704D01*
X135587738Y-91170703D01*
X135587736Y-91170702D01*
X135587728Y-91170702D01*
X135431310Y-91158391D01*
X135431305Y-91158391D01*
X135258695Y-91158391D01*
X135258689Y-91158391D01*
X135102271Y-91170702D01*
X135102252Y-91170704D01*
X134931778Y-91197704D01*
X134779206Y-91234332D01*
X134779202Y-91234333D01*
X134615025Y-91287678D01*
X134615019Y-91287680D01*
X134512853Y-91330000D01*
X134470057Y-91347727D01*
X134316261Y-91426090D01*
X134316256Y-91426092D01*
X134316256Y-91426093D01*
X134316252Y-91426095D01*
X134182475Y-91508073D01*
X134182450Y-91508090D01*
X134042833Y-91609526D01*
X133923503Y-91711442D01*
X133801442Y-91833503D01*
X133699526Y-91952833D01*
X133598090Y-92092450D01*
X133598073Y-92092475D01*
X133516095Y-92226252D01*
X133516092Y-92226256D01*
X133514327Y-92229721D01*
X133455483Y-92345207D01*
X133407510Y-92396002D01*
X133339689Y-92412797D01*
X133273554Y-92390259D01*
X133234516Y-92345207D01*
X133173910Y-92226261D01*
X133091924Y-92092471D01*
X133091909Y-92092450D01*
X132990473Y-91952833D01*
X132888557Y-91833503D01*
X132766496Y-91711442D01*
X132647166Y-91609526D01*
X132507549Y-91508090D01*
X132507537Y-91508082D01*
X132507529Y-91508076D01*
X132373739Y-91426090D01*
X132219943Y-91347727D01*
X132079564Y-91289579D01*
X132074980Y-91287680D01*
X132074974Y-91287678D01*
X132074975Y-91287678D01*
X132074972Y-91287677D01*
X131910810Y-91234337D01*
X131910807Y-91234336D01*
X131910797Y-91234333D01*
X131910793Y-91234332D01*
X131758221Y-91197704D01*
X131587747Y-91170704D01*
X131587738Y-91170703D01*
X131587736Y-91170702D01*
X131587728Y-91170702D01*
X131431310Y-91158391D01*
X131431305Y-91158391D01*
X131258695Y-91158391D01*
X131258689Y-91158391D01*
X131102271Y-91170702D01*
X131102252Y-91170704D01*
X130931778Y-91197704D01*
X130779208Y-91234331D01*
X130779190Y-91234337D01*
X130759009Y-91240894D01*
X130689170Y-91242888D01*
X130629338Y-91206806D01*
X130598511Y-91144105D01*
X130596696Y-91123070D01*
X130596609Y-91012904D01*
X130584297Y-90857262D01*
X130557295Y-90686777D01*
X130520663Y-90534190D01*
X130467323Y-90370028D01*
X130407274Y-90225058D01*
X130373572Y-90158914D01*
X130357711Y-90127785D01*
X130357692Y-90127750D01*
X130345359Y-90103543D01*
X131944499Y-90103543D01*
X131982947Y-90296829D01*
X131982950Y-90296839D01*
X132058364Y-90478907D01*
X132058371Y-90478920D01*
X132167860Y-90642781D01*
X132167863Y-90642785D01*
X132307214Y-90782136D01*
X132307218Y-90782139D01*
X132471079Y-90891628D01*
X132471092Y-90891635D01*
X132653160Y-90967049D01*
X132653165Y-90967051D01*
X132653169Y-90967051D01*
X132653170Y-90967052D01*
X132846456Y-91005500D01*
X132846459Y-91005500D01*
X133043543Y-91005500D01*
X133173582Y-90979632D01*
X133236835Y-90967051D01*
X133418914Y-90891632D01*
X133582782Y-90782139D01*
X133722139Y-90642782D01*
X133831632Y-90478914D01*
X133907051Y-90296835D01*
X133921326Y-90225071D01*
X133945500Y-90103543D01*
X138944499Y-90103543D01*
X138982947Y-90296829D01*
X138982950Y-90296839D01*
X139058364Y-90478907D01*
X139058371Y-90478920D01*
X139167860Y-90642781D01*
X139167863Y-90642785D01*
X139307214Y-90782136D01*
X139307218Y-90782139D01*
X139471079Y-90891628D01*
X139471092Y-90891635D01*
X139653160Y-90967049D01*
X139653165Y-90967051D01*
X139653169Y-90967051D01*
X139653170Y-90967052D01*
X139846456Y-91005500D01*
X139846459Y-91005500D01*
X140043543Y-91005500D01*
X140173582Y-90979632D01*
X140236835Y-90967051D01*
X140418914Y-90891632D01*
X140582782Y-90782139D01*
X140722139Y-90642782D01*
X140831632Y-90478914D01*
X140907051Y-90296835D01*
X140921326Y-90225071D01*
X140945500Y-90103543D01*
X140945500Y-89906456D01*
X140907052Y-89713170D01*
X140907051Y-89713169D01*
X140907051Y-89713165D01*
X140904413Y-89706796D01*
X140831635Y-89531092D01*
X140831628Y-89531079D01*
X140722139Y-89367218D01*
X140722136Y-89367214D01*
X140582785Y-89227863D01*
X140582781Y-89227860D01*
X140418920Y-89118371D01*
X140418907Y-89118364D01*
X140236839Y-89042950D01*
X140236829Y-89042947D01*
X140043543Y-89004500D01*
X140043541Y-89004500D01*
X139846459Y-89004500D01*
X139846457Y-89004500D01*
X139653170Y-89042947D01*
X139653160Y-89042950D01*
X139471092Y-89118364D01*
X139471079Y-89118371D01*
X139307218Y-89227860D01*
X139307214Y-89227863D01*
X139167863Y-89367214D01*
X139167860Y-89367218D01*
X139058371Y-89531079D01*
X139058364Y-89531092D01*
X138982950Y-89713160D01*
X138982947Y-89713170D01*
X138944500Y-89906456D01*
X138944500Y-89906459D01*
X138944500Y-90103541D01*
X138944500Y-90103543D01*
X138944499Y-90103543D01*
X133945500Y-90103543D01*
X133945500Y-89906456D01*
X133907052Y-89713170D01*
X133907051Y-89713169D01*
X133907051Y-89713165D01*
X133904413Y-89706796D01*
X133831635Y-89531092D01*
X133831628Y-89531079D01*
X133722139Y-89367218D01*
X133722136Y-89367214D01*
X133582785Y-89227863D01*
X133582781Y-89227860D01*
X133418920Y-89118371D01*
X133418907Y-89118364D01*
X133236839Y-89042950D01*
X133236829Y-89042947D01*
X133043543Y-89004500D01*
X133043541Y-89004500D01*
X132846459Y-89004500D01*
X132846457Y-89004500D01*
X132653170Y-89042947D01*
X132653160Y-89042950D01*
X132471092Y-89118364D01*
X132471079Y-89118371D01*
X132307218Y-89227860D01*
X132307214Y-89227863D01*
X132167863Y-89367214D01*
X132167860Y-89367218D01*
X132058371Y-89531079D01*
X132058364Y-89531092D01*
X131982950Y-89713160D01*
X131982947Y-89713170D01*
X131944500Y-89906456D01*
X131944500Y-89906459D01*
X131944500Y-90103541D01*
X131944500Y-90103543D01*
X131944499Y-90103543D01*
X130345359Y-90103543D01*
X130328922Y-90071282D01*
X130328916Y-90071272D01*
X130328912Y-90071264D01*
X130246918Y-89937461D01*
X130232588Y-89917738D01*
X130176793Y-89840943D01*
X130176791Y-89840941D01*
X130145471Y-89797832D01*
X130145466Y-89797825D01*
X130102148Y-89747106D01*
X130096622Y-89734775D01*
X130012141Y-89643383D01*
X129983806Y-89613959D01*
X129743573Y-89374500D01*
X128495358Y-88130306D01*
X128404513Y-88052844D01*
X129145000Y-88052844D01*
X129151401Y-88112372D01*
X129151403Y-88112379D01*
X129201645Y-88247086D01*
X129201649Y-88247093D01*
X129287809Y-88362187D01*
X129287812Y-88362190D01*
X129402906Y-88448350D01*
X129402913Y-88448354D01*
X129537620Y-88498596D01*
X129537627Y-88498598D01*
X129597155Y-88504999D01*
X129597172Y-88505000D01*
X129995000Y-88505000D01*
X130495000Y-88505000D01*
X130892828Y-88505000D01*
X130892844Y-88504999D01*
X130952372Y-88498598D01*
X130952379Y-88498596D01*
X131087086Y-88448354D01*
X131087093Y-88448350D01*
X131202187Y-88362190D01*
X131202190Y-88362187D01*
X131288350Y-88247093D01*
X131288354Y-88247086D01*
X131338596Y-88112379D01*
X131338598Y-88112372D01*
X131344999Y-88052844D01*
X131345000Y-88052827D01*
X131345000Y-87005000D01*
X130495000Y-87005000D01*
X130495000Y-88505000D01*
X129995000Y-88505000D01*
X129995000Y-87005000D01*
X129145000Y-87005000D01*
X129145000Y-88052844D01*
X128404513Y-88052844D01*
X128377174Y-88029533D01*
X128377161Y-88029524D01*
X128377153Y-88029517D01*
X128237549Y-87928090D01*
X128237537Y-87928082D01*
X128237529Y-87928076D01*
X128103739Y-87846090D01*
X127949943Y-87767727D01*
X127861897Y-87731256D01*
X127804980Y-87707680D01*
X127804974Y-87707678D01*
X127804975Y-87707678D01*
X127804972Y-87707677D01*
X127640810Y-87654337D01*
X127640807Y-87654336D01*
X127640797Y-87654333D01*
X127640793Y-87654332D01*
X127488221Y-87617704D01*
X127317760Y-87590706D01*
X127317725Y-87590701D01*
X127200560Y-87579161D01*
X127200545Y-87579160D01*
X127114282Y-87575771D01*
X127073427Y-87575000D01*
X124948286Y-87578354D01*
X124924617Y-87578392D01*
X124924605Y-87578392D01*
X124769763Y-87590702D01*
X124599278Y-87617704D01*
X124446706Y-87654332D01*
X124446702Y-87654333D01*
X124446690Y-87654337D01*
X124322315Y-87694749D01*
X124252476Y-87696744D01*
X124192643Y-87660664D01*
X124161815Y-87597963D01*
X124159999Y-87576818D01*
X124159999Y-87465375D01*
X124159998Y-87465350D01*
X124157145Y-87429089D01*
X124112030Y-87273803D01*
X124029721Y-87134625D01*
X124029714Y-87134616D01*
X123915383Y-87020285D01*
X123915375Y-87020279D01*
X123807922Y-86956732D01*
X123760239Y-86905663D01*
X123747735Y-86836922D01*
X123774380Y-86772332D01*
X123783353Y-86762327D01*
X123839198Y-86706483D01*
X123890573Y-86601393D01*
X123900500Y-86533260D01*
X123900500Y-86290489D01*
X123920185Y-86223450D01*
X123972989Y-86177695D01*
X124042147Y-86167751D01*
X124059096Y-86171413D01*
X124147507Y-86197099D01*
X124147510Y-86197100D01*
X124184350Y-86199999D01*
X124184366Y-86200000D01*
X124587500Y-86200000D01*
X125087500Y-86200000D01*
X125490634Y-86200000D01*
X125490649Y-86199999D01*
X125527489Y-86197100D01*
X125527495Y-86197099D01*
X125685193Y-86151283D01*
X125685196Y-86151282D01*
X125826552Y-86067685D01*
X125826561Y-86067678D01*
X125942678Y-85951561D01*
X125942685Y-85951552D01*
X126026281Y-85810198D01*
X126072100Y-85652486D01*
X126072295Y-85650001D01*
X126072295Y-85650000D01*
X125087500Y-85650000D01*
X125087500Y-86200000D01*
X124587500Y-86200000D01*
X124587500Y-85650000D01*
X123602705Y-85650000D01*
X123602704Y-85650001D01*
X123602899Y-85652486D01*
X123614061Y-85690905D01*
X123613861Y-85760775D01*
X123575918Y-85819445D01*
X123512280Y-85848288D01*
X123494984Y-85849500D01*
X122341739Y-85849500D01*
X122273608Y-85859426D01*
X122168514Y-85910803D01*
X122085805Y-85993512D01*
X122082923Y-85997550D01*
X122027949Y-86040674D01*
X121982003Y-86049500D01*
X121710438Y-86049500D01*
X121634010Y-86069978D01*
X121565489Y-86109540D01*
X121565486Y-86109542D01*
X120547041Y-87127987D01*
X120547035Y-87127995D01*
X120507482Y-87196504D01*
X120507479Y-87196509D01*
X120487000Y-87272939D01*
X120487000Y-88450500D01*
X120467315Y-88517539D01*
X120414511Y-88563294D01*
X120363000Y-88574500D01*
X120061867Y-88574500D01*
X120046839Y-88576478D01*
X120014455Y-88580741D01*
X120014453Y-88580742D01*
X120014451Y-88580742D01*
X119910420Y-88629253D01*
X119829253Y-88710420D01*
X119780740Y-88814456D01*
X119774500Y-88861859D01*
X119774500Y-89188132D01*
X119774501Y-89188138D01*
X119780579Y-89234319D01*
X119769812Y-89303353D01*
X119723430Y-89355608D01*
X119657640Y-89374500D01*
X118685438Y-89374500D01*
X118634486Y-89388152D01*
X118609010Y-89394979D01*
X118573214Y-89415645D01*
X118544437Y-89432260D01*
X118544434Y-89432262D01*
X118540492Y-89434537D01*
X118540488Y-89434540D01*
X117659541Y-90315487D01*
X117659535Y-90315495D01*
X117619982Y-90384004D01*
X117619979Y-90384009D01*
X117599500Y-90460439D01*
X117599500Y-98124167D01*
X117579815Y-98191206D01*
X117563181Y-98211848D01*
X117216848Y-98558181D01*
X117155525Y-98591666D01*
X117129167Y-98594500D01*
X116748579Y-98594500D01*
X116681540Y-98574815D01*
X116635785Y-98522011D01*
X116629919Y-98506497D01*
X116626401Y-98494901D01*
X116625232Y-98491046D01*
X116527685Y-98308550D01*
X116431384Y-98191206D01*
X116396410Y-98148589D01*
X116278677Y-98051969D01*
X116236450Y-98017315D01*
X116053954Y-97919768D01*
X115855934Y-97859700D01*
X115855932Y-97859699D01*
X115855934Y-97859699D01*
X115650000Y-97839417D01*
X115444067Y-97859699D01*
X115246043Y-97919769D01*
X115135898Y-97978643D01*
X115063550Y-98017315D01*
X115063548Y-98017316D01*
X115063547Y-98017317D01*
X114903589Y-98148589D01*
X114772317Y-98308547D01*
X114772315Y-98308550D01*
X114755740Y-98339560D01*
X114674767Y-98491046D01*
X114654593Y-98557552D01*
X114616296Y-98615990D01*
X114552483Y-98644447D01*
X114483416Y-98633886D01*
X114431023Y-98587661D01*
X114416158Y-98553649D01*
X114383433Y-98431516D01*
X114383428Y-98431502D01*
X114283600Y-98217422D01*
X114283599Y-98217420D01*
X114148113Y-98023926D01*
X114148108Y-98023920D01*
X113981082Y-97856894D01*
X113787578Y-97721399D01*
X113573492Y-97621570D01*
X113573486Y-97621567D01*
X113451349Y-97588841D01*
X113391689Y-97552476D01*
X113361160Y-97489629D01*
X113369455Y-97420253D01*
X113413940Y-97366375D01*
X113447444Y-97350407D01*
X113513954Y-97330232D01*
X113696450Y-97232685D01*
X113856410Y-97101410D01*
X113987685Y-96941450D01*
X114085232Y-96758954D01*
X114145300Y-96560934D01*
X114165583Y-96355000D01*
X114594417Y-96355000D01*
X114614699Y-96560932D01*
X114614700Y-96560934D01*
X114674768Y-96758954D01*
X114772315Y-96941450D01*
X114772317Y-96941452D01*
X114903589Y-97101410D01*
X115000209Y-97180702D01*
X115063550Y-97232685D01*
X115246046Y-97330232D01*
X115444066Y-97390300D01*
X115444065Y-97390300D01*
X115462529Y-97392118D01*
X115650000Y-97410583D01*
X115855934Y-97390300D01*
X116053954Y-97330232D01*
X116236450Y-97232685D01*
X116396410Y-97101410D01*
X116527685Y-96941450D01*
X116625232Y-96758954D01*
X116685300Y-96560934D01*
X116705583Y-96355000D01*
X116685300Y-96149066D01*
X116625232Y-95951046D01*
X116527685Y-95768550D01*
X116475702Y-95705209D01*
X116396410Y-95608589D01*
X116236452Y-95477317D01*
X116236453Y-95477317D01*
X116236450Y-95477315D01*
X116053954Y-95379768D01*
X115855934Y-95319700D01*
X115855932Y-95319699D01*
X115855934Y-95319699D01*
X115650000Y-95299417D01*
X115444067Y-95319699D01*
X115246043Y-95379769D01*
X115135898Y-95438643D01*
X115063550Y-95477315D01*
X115063548Y-95477316D01*
X115063547Y-95477317D01*
X114903589Y-95608589D01*
X114772317Y-95768547D01*
X114674769Y-95951043D01*
X114614699Y-96149067D01*
X114594417Y-96355000D01*
X114165583Y-96355000D01*
X114145300Y-96149066D01*
X114085232Y-95951046D01*
X113987685Y-95768550D01*
X113935702Y-95705209D01*
X113856410Y-95608589D01*
X113696452Y-95477317D01*
X113696453Y-95477317D01*
X113696450Y-95477315D01*
X113513954Y-95379768D01*
X113315934Y-95319700D01*
X113315932Y-95319699D01*
X113315934Y-95319699D01*
X113110000Y-95299417D01*
X112904067Y-95319699D01*
X112706043Y-95379769D01*
X112595898Y-95438643D01*
X112523550Y-95477315D01*
X112523548Y-95477316D01*
X112523547Y-95477317D01*
X112363589Y-95608589D01*
X112232317Y-95768547D01*
X112134769Y-95951043D01*
X112074699Y-96149067D01*
X112054417Y-96355000D01*
X112074699Y-96560932D01*
X112074700Y-96560934D01*
X112134768Y-96758954D01*
X112232315Y-96941450D01*
X112232317Y-96941452D01*
X112363589Y-97101410D01*
X112460209Y-97180702D01*
X112523550Y-97232685D01*
X112706046Y-97330232D01*
X112772551Y-97350405D01*
X112830989Y-97388702D01*
X112859446Y-97452514D01*
X112848887Y-97521581D01*
X112802663Y-97573975D01*
X112768650Y-97588841D01*
X112646514Y-97621567D01*
X112646507Y-97621570D01*
X112432422Y-97721399D01*
X112432420Y-97721400D01*
X112238926Y-97856886D01*
X112238920Y-97856891D01*
X112071891Y-98023920D01*
X112071886Y-98023926D01*
X111936400Y-98217420D01*
X111936399Y-98217422D01*
X111836572Y-98431502D01*
X111836567Y-98431513D01*
X111779364Y-98644999D01*
X111779364Y-98645000D01*
X112676988Y-98645000D01*
X112644075Y-98702007D01*
X112610000Y-98829174D01*
X112610000Y-98960826D01*
X112644075Y-99087993D01*
X112676988Y-99145000D01*
X111779364Y-99145000D01*
X111836567Y-99358486D01*
X111836570Y-99358492D01*
X111935265Y-99570145D01*
X111945757Y-99639223D01*
X111917237Y-99703007D01*
X111858761Y-99741246D01*
X111788893Y-99741801D01*
X111735202Y-99710231D01*
X111136819Y-99111848D01*
X111103334Y-99050525D01*
X111100500Y-99024167D01*
X111100500Y-93815000D01*
X112054417Y-93815000D01*
X112074699Y-94020932D01*
X112074700Y-94020934D01*
X112134768Y-94218954D01*
X112232315Y-94401450D01*
X112232317Y-94401452D01*
X112363589Y-94561410D01*
X112460209Y-94640702D01*
X112523550Y-94692685D01*
X112706046Y-94790232D01*
X112904066Y-94850300D01*
X112904065Y-94850300D01*
X112922529Y-94852118D01*
X113110000Y-94870583D01*
X113315934Y-94850300D01*
X113513954Y-94790232D01*
X113696450Y-94692685D01*
X113856410Y-94561410D01*
X113987685Y-94401450D01*
X114085232Y-94218954D01*
X114145300Y-94020934D01*
X114165583Y-93815000D01*
X114594417Y-93815000D01*
X114614699Y-94020932D01*
X114614700Y-94020934D01*
X114674768Y-94218954D01*
X114772315Y-94401450D01*
X114772317Y-94401452D01*
X114903589Y-94561410D01*
X115000209Y-94640702D01*
X115063550Y-94692685D01*
X115246046Y-94790232D01*
X115444066Y-94850300D01*
X115444065Y-94850300D01*
X115462529Y-94852118D01*
X115650000Y-94870583D01*
X115855934Y-94850300D01*
X116053954Y-94790232D01*
X116236450Y-94692685D01*
X116396410Y-94561410D01*
X116527685Y-94401450D01*
X116625232Y-94218954D01*
X116685300Y-94020934D01*
X116705583Y-93815000D01*
X116685300Y-93609066D01*
X116625232Y-93411046D01*
X116527685Y-93228550D01*
X116475702Y-93165209D01*
X116396410Y-93068589D01*
X116278677Y-92971969D01*
X116236450Y-92937315D01*
X116053954Y-92839768D01*
X115855934Y-92779700D01*
X115855932Y-92779699D01*
X115855934Y-92779699D01*
X115650000Y-92759417D01*
X115444067Y-92779699D01*
X115246043Y-92839769D01*
X115135898Y-92898643D01*
X115063550Y-92937315D01*
X115063548Y-92937316D01*
X115063547Y-92937317D01*
X114903589Y-93068589D01*
X114772317Y-93228547D01*
X114772315Y-93228550D01*
X114733643Y-93300898D01*
X114674769Y-93411043D01*
X114614699Y-93609067D01*
X114594417Y-93815000D01*
X114165583Y-93815000D01*
X114145300Y-93609066D01*
X114085232Y-93411046D01*
X113987685Y-93228550D01*
X113935702Y-93165209D01*
X113856410Y-93068589D01*
X113738677Y-92971969D01*
X113696450Y-92937315D01*
X113513954Y-92839768D01*
X113315934Y-92779700D01*
X113315932Y-92779699D01*
X113315934Y-92779699D01*
X113110000Y-92759417D01*
X112904067Y-92779699D01*
X112706043Y-92839769D01*
X112595898Y-92898643D01*
X112523550Y-92937315D01*
X112523548Y-92937316D01*
X112523547Y-92937317D01*
X112363589Y-93068589D01*
X112232317Y-93228547D01*
X112232315Y-93228550D01*
X112193643Y-93300898D01*
X112134769Y-93411043D01*
X112074699Y-93609067D01*
X112054417Y-93815000D01*
X111100500Y-93815000D01*
X111100500Y-91275000D01*
X112054417Y-91275000D01*
X112074699Y-91480932D01*
X112095499Y-91549499D01*
X112134768Y-91678954D01*
X112232315Y-91861450D01*
X112232317Y-91861452D01*
X112363589Y-92021410D01*
X112450183Y-92092475D01*
X112523550Y-92152685D01*
X112706046Y-92250232D01*
X112904066Y-92310300D01*
X112904065Y-92310300D01*
X112921641Y-92312031D01*
X113110000Y-92330583D01*
X113315934Y-92310300D01*
X113513954Y-92250232D01*
X113696450Y-92152685D01*
X113856410Y-92021410D01*
X113987685Y-91861450D01*
X114085232Y-91678954D01*
X114145300Y-91480934D01*
X114165583Y-91275000D01*
X114594417Y-91275000D01*
X114614699Y-91480932D01*
X114635499Y-91549499D01*
X114674768Y-91678954D01*
X114772315Y-91861450D01*
X114772317Y-91861452D01*
X114903589Y-92021410D01*
X114990183Y-92092475D01*
X115063550Y-92152685D01*
X115246046Y-92250232D01*
X115444066Y-92310300D01*
X115444065Y-92310300D01*
X115461641Y-92312031D01*
X115650000Y-92330583D01*
X115855934Y-92310300D01*
X116053954Y-92250232D01*
X116236450Y-92152685D01*
X116396410Y-92021410D01*
X116527685Y-91861450D01*
X116625232Y-91678954D01*
X116685300Y-91480934D01*
X116705583Y-91275000D01*
X116685300Y-91069066D01*
X116625232Y-90871046D01*
X116527685Y-90688550D01*
X116445291Y-90588152D01*
X116396410Y-90528589D01*
X116278677Y-90431969D01*
X116236450Y-90397315D01*
X116053954Y-90299768D01*
X115855934Y-90239700D01*
X115855932Y-90239699D01*
X115855934Y-90239699D01*
X115650000Y-90219417D01*
X115444067Y-90239699D01*
X115246043Y-90299769D01*
X115152069Y-90350000D01*
X115063550Y-90397315D01*
X115063548Y-90397316D01*
X115063547Y-90397317D01*
X114903589Y-90528589D01*
X114772317Y-90688547D01*
X114674769Y-90871043D01*
X114614699Y-91069067D01*
X114594417Y-91275000D01*
X114165583Y-91275000D01*
X114145300Y-91069066D01*
X114085232Y-90871046D01*
X113987685Y-90688550D01*
X113905291Y-90588152D01*
X113856410Y-90528589D01*
X113738677Y-90431969D01*
X113696450Y-90397315D01*
X113513954Y-90299768D01*
X113315934Y-90239700D01*
X113315932Y-90239699D01*
X113315934Y-90239699D01*
X113110000Y-90219417D01*
X112904067Y-90239699D01*
X112706043Y-90299769D01*
X112612069Y-90350000D01*
X112523550Y-90397315D01*
X112523548Y-90397316D01*
X112523547Y-90397317D01*
X112363589Y-90528589D01*
X112232317Y-90688547D01*
X112134769Y-90871043D01*
X112074699Y-91069067D01*
X112054417Y-91275000D01*
X111100500Y-91275000D01*
X111100500Y-88735000D01*
X112054417Y-88735000D01*
X112074699Y-88940932D01*
X112074700Y-88940934D01*
X112134768Y-89138954D01*
X112232315Y-89321450D01*
X112266969Y-89363677D01*
X112363589Y-89481410D01*
X112424128Y-89531092D01*
X112523550Y-89612685D01*
X112706046Y-89710232D01*
X112904066Y-89770300D01*
X112904065Y-89770300D01*
X112922529Y-89772118D01*
X113110000Y-89790583D01*
X113315934Y-89770300D01*
X113513954Y-89710232D01*
X113696450Y-89612685D01*
X113856410Y-89481410D01*
X113987685Y-89321450D01*
X114085232Y-89138954D01*
X114145300Y-88940934D01*
X114165583Y-88735000D01*
X114594417Y-88735000D01*
X114614699Y-88940932D01*
X114614700Y-88940934D01*
X114674768Y-89138954D01*
X114772315Y-89321450D01*
X114806969Y-89363677D01*
X114903589Y-89481410D01*
X114964128Y-89531092D01*
X115063550Y-89612685D01*
X115246046Y-89710232D01*
X115444066Y-89770300D01*
X115444065Y-89770300D01*
X115462529Y-89772118D01*
X115650000Y-89790583D01*
X115855934Y-89770300D01*
X116053954Y-89710232D01*
X116236450Y-89612685D01*
X116396410Y-89481410D01*
X116527685Y-89321450D01*
X116625232Y-89138954D01*
X116685300Y-88940934D01*
X116705583Y-88735000D01*
X116685300Y-88529066D01*
X116625232Y-88331046D01*
X116527685Y-88148550D01*
X116430011Y-88029533D01*
X116396410Y-87988589D01*
X116236452Y-87857317D01*
X116236453Y-87857317D01*
X116236450Y-87857315D01*
X116053954Y-87759768D01*
X115855934Y-87699700D01*
X115855932Y-87699699D01*
X115855934Y-87699699D01*
X115650000Y-87679417D01*
X115444067Y-87699699D01*
X115246043Y-87759769D01*
X115135898Y-87818643D01*
X115063550Y-87857315D01*
X115063548Y-87857316D01*
X115063547Y-87857317D01*
X114903589Y-87988589D01*
X114772317Y-88148547D01*
X114674769Y-88331043D01*
X114614699Y-88529067D01*
X114594417Y-88735000D01*
X114165583Y-88735000D01*
X114145300Y-88529066D01*
X114085232Y-88331046D01*
X113987685Y-88148550D01*
X113890011Y-88029533D01*
X113856410Y-87988589D01*
X113696452Y-87857317D01*
X113696453Y-87857317D01*
X113696450Y-87857315D01*
X113513954Y-87759768D01*
X113315934Y-87699700D01*
X113315932Y-87699699D01*
X113315934Y-87699699D01*
X113110000Y-87679417D01*
X112904067Y-87699699D01*
X112706043Y-87759769D01*
X112595898Y-87818643D01*
X112523550Y-87857315D01*
X112523548Y-87857316D01*
X112523547Y-87857317D01*
X112363589Y-87988589D01*
X112232317Y-88148547D01*
X112134769Y-88331043D01*
X112074699Y-88529067D01*
X112054417Y-88735000D01*
X111100500Y-88735000D01*
X111100500Y-86195000D01*
X112054417Y-86195000D01*
X112074699Y-86400932D01*
X112074700Y-86400934D01*
X112134768Y-86598954D01*
X112232315Y-86781450D01*
X112232317Y-86781452D01*
X112363589Y-86941410D01*
X112441075Y-87005000D01*
X112523550Y-87072685D01*
X112706046Y-87170232D01*
X112904066Y-87230300D01*
X112904065Y-87230300D01*
X112922529Y-87232118D01*
X113110000Y-87250583D01*
X113315934Y-87230300D01*
X113513954Y-87170232D01*
X113696450Y-87072685D01*
X113856410Y-86941410D01*
X113987685Y-86781450D01*
X114085232Y-86598954D01*
X114145300Y-86400934D01*
X114165583Y-86195000D01*
X114594417Y-86195000D01*
X114614699Y-86400932D01*
X114614700Y-86400934D01*
X114674768Y-86598954D01*
X114772315Y-86781450D01*
X114772317Y-86781452D01*
X114903589Y-86941410D01*
X114981075Y-87005000D01*
X115063550Y-87072685D01*
X115246046Y-87170232D01*
X115444066Y-87230300D01*
X115444065Y-87230300D01*
X115462529Y-87232118D01*
X115650000Y-87250583D01*
X115855934Y-87230300D01*
X116053954Y-87170232D01*
X116236450Y-87072685D01*
X116396410Y-86941410D01*
X116527685Y-86781450D01*
X116625232Y-86598954D01*
X116685300Y-86400934D01*
X116705583Y-86195000D01*
X116685300Y-85989066D01*
X116625232Y-85791046D01*
X116527685Y-85608550D01*
X116475702Y-85545209D01*
X116403440Y-85457155D01*
X129145000Y-85457155D01*
X129145000Y-86505000D01*
X129995000Y-86505000D01*
X130495000Y-86505000D01*
X131345000Y-86505000D01*
X131345000Y-85457172D01*
X131344999Y-85457155D01*
X131338598Y-85397627D01*
X131338596Y-85397620D01*
X131288354Y-85262913D01*
X131288350Y-85262906D01*
X131202190Y-85147812D01*
X131202187Y-85147809D01*
X131087093Y-85061649D01*
X131087086Y-85061645D01*
X130952379Y-85011403D01*
X130952372Y-85011401D01*
X130892844Y-85005000D01*
X130495000Y-85005000D01*
X130495000Y-86505000D01*
X129995000Y-86505000D01*
X129995000Y-85005000D01*
X129597155Y-85005000D01*
X129537627Y-85011401D01*
X129537620Y-85011403D01*
X129402913Y-85061645D01*
X129402906Y-85061649D01*
X129287812Y-85147809D01*
X129287809Y-85147812D01*
X129201649Y-85262906D01*
X129201645Y-85262913D01*
X129151403Y-85397620D01*
X129151401Y-85397627D01*
X129145000Y-85457155D01*
X116403440Y-85457155D01*
X116396410Y-85448589D01*
X116236452Y-85317317D01*
X116236453Y-85317317D01*
X116236450Y-85317315D01*
X116053954Y-85219768D01*
X115855934Y-85159700D01*
X115855932Y-85159699D01*
X115855934Y-85159699D01*
X115650000Y-85139417D01*
X115444067Y-85159699D01*
X115246043Y-85219769D01*
X115165341Y-85262906D01*
X115063550Y-85317315D01*
X115063548Y-85317316D01*
X115063547Y-85317317D01*
X114903589Y-85448589D01*
X114772317Y-85608547D01*
X114674769Y-85791043D01*
X114614699Y-85989067D01*
X114594417Y-86195000D01*
X114165583Y-86195000D01*
X114145300Y-85989066D01*
X114085232Y-85791046D01*
X113987685Y-85608550D01*
X113935702Y-85545209D01*
X113856410Y-85448589D01*
X113696452Y-85317317D01*
X113696453Y-85317317D01*
X113696450Y-85317315D01*
X113513954Y-85219768D01*
X113315934Y-85159700D01*
X113315932Y-85159699D01*
X113315934Y-85159699D01*
X113110000Y-85139417D01*
X112904067Y-85159699D01*
X112706043Y-85219769D01*
X112625341Y-85262906D01*
X112523550Y-85317315D01*
X112523548Y-85317316D01*
X112523547Y-85317317D01*
X112363589Y-85448589D01*
X112232317Y-85608547D01*
X112134769Y-85791043D01*
X112074699Y-85989067D01*
X112054417Y-86195000D01*
X111100500Y-86195000D01*
X111100500Y-83655000D01*
X112054417Y-83655000D01*
X112074699Y-83860932D01*
X112098167Y-83938294D01*
X112134768Y-84058954D01*
X112232315Y-84241450D01*
X112232317Y-84241452D01*
X112363589Y-84401410D01*
X112460209Y-84480702D01*
X112523550Y-84532685D01*
X112706046Y-84630232D01*
X112904066Y-84690300D01*
X112904065Y-84690300D01*
X112922529Y-84692118D01*
X113110000Y-84710583D01*
X113315934Y-84690300D01*
X113513954Y-84630232D01*
X113696450Y-84532685D01*
X113856410Y-84401410D01*
X113987685Y-84241450D01*
X114085232Y-84058954D01*
X114145300Y-83860934D01*
X114165583Y-83655000D01*
X114594417Y-83655000D01*
X114614699Y-83860932D01*
X114638167Y-83938294D01*
X114674768Y-84058954D01*
X114772315Y-84241450D01*
X114772317Y-84241452D01*
X114903589Y-84401410D01*
X115000209Y-84480702D01*
X115063550Y-84532685D01*
X115246046Y-84630232D01*
X115444066Y-84690300D01*
X115444065Y-84690300D01*
X115462529Y-84692118D01*
X115650000Y-84710583D01*
X115855934Y-84690300D01*
X116053954Y-84630232D01*
X116236450Y-84532685D01*
X116396410Y-84401410D01*
X116527685Y-84241450D01*
X116625232Y-84058954D01*
X116685300Y-83860934D01*
X116705583Y-83655000D01*
X116685300Y-83449066D01*
X116625232Y-83251046D01*
X116527685Y-83068550D01*
X116475702Y-83005209D01*
X116396410Y-82908589D01*
X116236452Y-82777317D01*
X116236453Y-82777317D01*
X116236450Y-82777315D01*
X116053954Y-82679768D01*
X115855934Y-82619700D01*
X115855932Y-82619699D01*
X115855934Y-82619699D01*
X115650000Y-82599417D01*
X115444067Y-82619699D01*
X115246043Y-82679769D01*
X115135898Y-82738643D01*
X115063550Y-82777315D01*
X115063548Y-82777316D01*
X115063547Y-82777317D01*
X114903589Y-82908589D01*
X114772317Y-83068547D01*
X114674769Y-83251043D01*
X114614699Y-83449067D01*
X114594417Y-83655000D01*
X114165583Y-83655000D01*
X114145300Y-83449066D01*
X114085232Y-83251046D01*
X113987685Y-83068550D01*
X113935702Y-83005209D01*
X113856410Y-82908589D01*
X113696452Y-82777317D01*
X113696453Y-82777317D01*
X113696450Y-82777315D01*
X113513954Y-82679768D01*
X113315934Y-82619700D01*
X113315932Y-82619699D01*
X113315934Y-82619699D01*
X113110000Y-82599417D01*
X112904067Y-82619699D01*
X112706043Y-82679769D01*
X112595898Y-82738643D01*
X112523550Y-82777315D01*
X112523548Y-82777316D01*
X112523547Y-82777317D01*
X112363589Y-82908589D01*
X112232317Y-83068547D01*
X112134769Y-83251043D01*
X112074699Y-83449067D01*
X112054417Y-83655000D01*
X111100500Y-83655000D01*
X111100500Y-76625833D01*
X111120185Y-76558794D01*
X111136819Y-76538152D01*
X111303152Y-76371819D01*
X111364475Y-76338334D01*
X111390833Y-76335500D01*
X112011421Y-76335500D01*
X112078460Y-76355185D01*
X112124215Y-76407989D01*
X112130081Y-76423503D01*
X112134768Y-76438954D01*
X112232315Y-76621450D01*
X112235912Y-76625833D01*
X112363589Y-76781410D01*
X112399822Y-76811145D01*
X112523550Y-76912685D01*
X112706046Y-77010232D01*
X112772551Y-77030405D01*
X112830989Y-77068702D01*
X112859446Y-77132514D01*
X112848887Y-77201581D01*
X112802663Y-77253975D01*
X112768650Y-77268841D01*
X112646514Y-77301567D01*
X112646507Y-77301570D01*
X112432422Y-77401399D01*
X112432420Y-77401400D01*
X112238926Y-77536886D01*
X112238920Y-77536891D01*
X112071891Y-77703920D01*
X112071886Y-77703926D01*
X111936400Y-77897420D01*
X111936399Y-77897422D01*
X111836570Y-78111507D01*
X111836567Y-78111513D01*
X111779364Y-78324999D01*
X111779364Y-78325000D01*
X112676988Y-78325000D01*
X112644075Y-78382007D01*
X112610000Y-78509174D01*
X112610000Y-78640826D01*
X112644075Y-78767993D01*
X112676988Y-78825000D01*
X111779364Y-78825000D01*
X111836567Y-79038486D01*
X111836570Y-79038492D01*
X111936399Y-79252578D01*
X112071894Y-79446082D01*
X112238917Y-79613105D01*
X112432421Y-79748600D01*
X112646507Y-79848429D01*
X112646516Y-79848433D01*
X112768649Y-79881158D01*
X112828310Y-79917523D01*
X112858839Y-79980369D01*
X112850545Y-80049745D01*
X112806059Y-80103623D01*
X112772552Y-80119593D01*
X112706046Y-80139767D01*
X112575358Y-80209622D01*
X112523550Y-80237315D01*
X112523548Y-80237316D01*
X112523547Y-80237317D01*
X112363589Y-80368589D01*
X112232317Y-80528547D01*
X112134769Y-80711043D01*
X112074699Y-80909067D01*
X112054417Y-81115000D01*
X112074699Y-81320932D01*
X112074700Y-81320934D01*
X112134768Y-81518954D01*
X112232315Y-81701450D01*
X112232317Y-81701452D01*
X112363589Y-81861410D01*
X112460209Y-81940702D01*
X112523550Y-81992685D01*
X112706046Y-82090232D01*
X112904066Y-82150300D01*
X112904065Y-82150300D01*
X112922529Y-82152118D01*
X113110000Y-82170583D01*
X113315934Y-82150300D01*
X113513954Y-82090232D01*
X113696450Y-81992685D01*
X113856410Y-81861410D01*
X113987685Y-81701450D01*
X114085232Y-81518954D01*
X114145300Y-81320934D01*
X114165583Y-81115000D01*
X114145300Y-80909066D01*
X114085232Y-80711046D01*
X113987685Y-80528550D01*
X113871495Y-80386971D01*
X113856410Y-80368589D01*
X113696452Y-80237317D01*
X113696453Y-80237317D01*
X113696450Y-80237315D01*
X113513954Y-80139768D01*
X113447447Y-80119593D01*
X113389009Y-80081296D01*
X113360553Y-80017484D01*
X113371113Y-79948417D01*
X113417337Y-79896023D01*
X113451350Y-79881158D01*
X113573483Y-79848433D01*
X113573492Y-79848429D01*
X113787578Y-79748600D01*
X113981082Y-79613105D01*
X114148105Y-79446082D01*
X114278425Y-79259968D01*
X114333002Y-79216344D01*
X114402501Y-79209151D01*
X114464855Y-79240673D01*
X114481575Y-79259968D01*
X114611894Y-79446082D01*
X114778917Y-79613105D01*
X114972421Y-79748600D01*
X115186507Y-79848429D01*
X115186516Y-79848433D01*
X115308649Y-79881158D01*
X115368310Y-79917523D01*
X115398839Y-79980369D01*
X115390545Y-80049745D01*
X115346059Y-80103623D01*
X115312552Y-80119593D01*
X115246046Y-80139767D01*
X115115358Y-80209622D01*
X115063550Y-80237315D01*
X115063548Y-80237316D01*
X115063547Y-80237317D01*
X114903589Y-80368589D01*
X114772317Y-80528547D01*
X114674769Y-80711043D01*
X114614699Y-80909067D01*
X114594417Y-81115000D01*
X114614699Y-81320932D01*
X114614700Y-81320934D01*
X114674768Y-81518954D01*
X114772315Y-81701450D01*
X114772317Y-81701452D01*
X114903589Y-81861410D01*
X115000209Y-81940702D01*
X115063550Y-81992685D01*
X115246046Y-82090232D01*
X115444066Y-82150300D01*
X115444065Y-82150300D01*
X115462529Y-82152118D01*
X115650000Y-82170583D01*
X115855934Y-82150300D01*
X116053954Y-82090232D01*
X116236450Y-81992685D01*
X116396410Y-81861410D01*
X116527685Y-81701450D01*
X116625232Y-81518954D01*
X116685300Y-81320934D01*
X116705583Y-81115000D01*
X116685300Y-80909066D01*
X116625232Y-80711046D01*
X116527685Y-80528550D01*
X116411495Y-80386971D01*
X116396410Y-80368589D01*
X116236452Y-80237317D01*
X116236453Y-80237317D01*
X116236450Y-80237315D01*
X116053954Y-80139768D01*
X115987447Y-80119593D01*
X115929009Y-80081296D01*
X115900553Y-80017484D01*
X115911113Y-79948417D01*
X115957337Y-79896023D01*
X115991350Y-79881158D01*
X116113483Y-79848433D01*
X116113492Y-79848429D01*
X116327578Y-79748600D01*
X116521082Y-79613105D01*
X116688105Y-79446082D01*
X116823600Y-79252578D01*
X116923429Y-79038492D01*
X116923432Y-79038486D01*
X116980636Y-78825000D01*
X116083012Y-78825000D01*
X116115925Y-78767993D01*
X116150000Y-78640826D01*
X116150000Y-78509174D01*
X116115925Y-78382007D01*
X116083012Y-78325000D01*
X116980636Y-78325000D01*
X116980635Y-78324999D01*
X116923432Y-78111513D01*
X116923429Y-78111507D01*
X116823600Y-77897422D01*
X116823599Y-77897420D01*
X116717310Y-77745623D01*
X116694983Y-77679417D01*
X116711993Y-77611650D01*
X116762941Y-77563837D01*
X116818885Y-77550500D01*
X119774167Y-77550500D01*
X119841206Y-77570185D01*
X119861848Y-77586819D01*
X122625681Y-80350652D01*
X122659166Y-80411975D01*
X122662000Y-80438333D01*
X122662000Y-83825500D01*
X122642315Y-83892539D01*
X122589511Y-83938294D01*
X122538000Y-83949500D01*
X122341739Y-83949500D01*
X122273608Y-83959426D01*
X122168514Y-84010803D01*
X122085803Y-84093514D01*
X122034426Y-84198608D01*
X122024500Y-84266739D01*
X122024500Y-84633260D01*
X122034426Y-84701391D01*
X122085803Y-84806485D01*
X122168514Y-84889196D01*
X122168515Y-84889196D01*
X122168517Y-84889198D01*
X122273607Y-84940573D01*
X122307673Y-84945536D01*
X122341739Y-84950500D01*
X123494984Y-84950500D01*
X123562023Y-84970185D01*
X123607778Y-85022989D01*
X123617722Y-85092147D01*
X123614061Y-85109095D01*
X123602899Y-85147513D01*
X123602704Y-85149998D01*
X123602705Y-85150000D01*
X124587500Y-85150000D01*
X125087500Y-85150000D01*
X126072295Y-85150000D01*
X126072295Y-85149998D01*
X126072100Y-85147513D01*
X126026281Y-84989801D01*
X125942685Y-84848447D01*
X125942678Y-84848438D01*
X125826561Y-84732321D01*
X125826552Y-84732314D01*
X125685196Y-84648717D01*
X125685193Y-84648716D01*
X125527495Y-84602900D01*
X125527489Y-84602899D01*
X125490649Y-84600000D01*
X125087500Y-84600000D01*
X125087500Y-85150000D01*
X124587500Y-85150000D01*
X124587500Y-84600000D01*
X124184350Y-84600000D01*
X124147510Y-84602899D01*
X124147504Y-84602900D01*
X124059095Y-84628586D01*
X123989225Y-84628387D01*
X123930555Y-84590445D01*
X123901712Y-84526806D01*
X123900500Y-84509510D01*
X123900500Y-84266739D01*
X123890573Y-84198608D01*
X123890573Y-84198607D01*
X123839198Y-84093517D01*
X123839196Y-84093515D01*
X123839196Y-84093514D01*
X123756485Y-84010803D01*
X123651391Y-83959426D01*
X123583261Y-83949500D01*
X123583260Y-83949500D01*
X123387000Y-83949500D01*
X123319961Y-83929815D01*
X123274206Y-83877011D01*
X123263000Y-83825500D01*
X123263000Y-80222939D01*
X123242520Y-80146509D01*
X123242517Y-80146504D01*
X123202964Y-80077995D01*
X123202958Y-80077987D01*
X120134512Y-77009541D01*
X120134504Y-77009535D01*
X120065995Y-76969982D01*
X120065990Y-76969979D01*
X120040513Y-76963152D01*
X119989562Y-76949500D01*
X119989560Y-76949500D01*
X116520638Y-76949500D01*
X116453599Y-76929815D01*
X116407844Y-76877011D01*
X116397900Y-76807853D01*
X116424785Y-76746835D01*
X116452596Y-76712945D01*
X116527685Y-76621450D01*
X116625232Y-76438954D01*
X116685300Y-76240934D01*
X116705583Y-76035000D01*
X116685300Y-75829066D01*
X116625232Y-75631046D01*
X116527685Y-75448550D01*
X116527682Y-75448546D01*
X116494542Y-75408164D01*
X116467230Y-75343854D01*
X116479022Y-75274986D01*
X116526174Y-75223427D01*
X116590396Y-75205500D01*
X142679108Y-75205500D01*
X142738038Y-75205500D01*
X142751922Y-75206280D01*
G37*
%TD.AperFunction*%
%TA.AperFunction,Conductor*%
G36*
X115184075Y-101242007D02*
G01*
X115150000Y-101369174D01*
X115150000Y-101500826D01*
X115184075Y-101627993D01*
X115216988Y-101685000D01*
X113543012Y-101685000D01*
X113575925Y-101627993D01*
X113610000Y-101500826D01*
X113610000Y-101369174D01*
X113575925Y-101242007D01*
X113543012Y-101185000D01*
X115216988Y-101185000D01*
X115184075Y-101242007D01*
G37*
%TD.AperFunction*%
%TA.AperFunction,Conductor*%
G36*
X113303039Y-100470185D02*
G01*
X113348794Y-100522989D01*
X113360000Y-100574500D01*
X113360000Y-101001988D01*
X113302993Y-100969075D01*
X113175826Y-100935000D01*
X113044174Y-100935000D01*
X112917007Y-100969075D01*
X112860000Y-101001988D01*
X112860000Y-100574500D01*
X112879685Y-100507461D01*
X112932489Y-100461706D01*
X112984000Y-100450500D01*
X113236000Y-100450500D01*
X113303039Y-100470185D01*
G37*
%TD.AperFunction*%
%TA.AperFunction,Conductor*%
G36*
X113360000Y-99725500D02*
G01*
X113340315Y-99792539D01*
X113287511Y-99838294D01*
X113236000Y-99849500D01*
X112984000Y-99849500D01*
X112916961Y-99829815D01*
X112871206Y-99777011D01*
X112860000Y-99725500D01*
X112860000Y-99328012D01*
X112917007Y-99360925D01*
X113044174Y-99395000D01*
X113175826Y-99395000D01*
X113302993Y-99360925D01*
X113360000Y-99328012D01*
X113360000Y-99725500D01*
G37*
%TD.AperFunction*%
%TA.AperFunction,Conductor*%
G36*
X119885351Y-91349685D02*
G01*
X119905993Y-91366319D01*
X119910421Y-91370747D01*
X120014455Y-91419259D01*
X120061861Y-91425500D01*
X120363000Y-91425499D01*
X120430039Y-91445183D01*
X120475794Y-91497987D01*
X120487000Y-91549499D01*
X120487000Y-91827062D01*
X120507479Y-91903489D01*
X120507480Y-91903490D01*
X120520920Y-91926770D01*
X120547037Y-91972007D01*
X120547041Y-91972012D01*
X120698336Y-92123307D01*
X120731821Y-92184630D01*
X120726837Y-92254322D01*
X120684965Y-92310255D01*
X120619501Y-92334672D01*
X120575721Y-92329965D01*
X120471964Y-92299500D01*
X120471961Y-92299500D01*
X120328039Y-92299500D01*
X120328036Y-92299500D01*
X120189949Y-92340045D01*
X120068873Y-92417856D01*
X119974623Y-92526626D01*
X119974622Y-92526628D01*
X119914834Y-92657543D01*
X119894353Y-92800000D01*
X119914834Y-92942456D01*
X119946714Y-93012262D01*
X119974623Y-93073373D01*
X120068872Y-93182143D01*
X120068875Y-93182144D01*
X120069213Y-93182535D01*
X120098238Y-93246091D01*
X120099500Y-93263738D01*
X120099500Y-98224167D01*
X120079815Y-98291206D01*
X120063181Y-98311848D01*
X118561848Y-99813181D01*
X118500525Y-99846666D01*
X118474167Y-99849500D01*
X116487683Y-99849500D01*
X116420644Y-99829815D01*
X116374889Y-99777011D01*
X116364945Y-99707853D01*
X116392975Y-99646473D01*
X116392545Y-99646120D01*
X116393880Y-99644492D01*
X116393970Y-99644297D01*
X116394569Y-99643653D01*
X116398205Y-99639223D01*
X116527685Y-99481450D01*
X116625232Y-99298954D01*
X116629919Y-99283503D01*
X116668217Y-99225065D01*
X116732030Y-99196609D01*
X116748579Y-99195500D01*
X117344560Y-99195500D01*
X117344562Y-99195500D01*
X117420989Y-99175021D01*
X117489511Y-99135460D01*
X117545460Y-99079511D01*
X118140460Y-98484511D01*
X118179677Y-98416584D01*
X118179682Y-98416587D01*
X118179713Y-98416521D01*
X118180021Y-98415989D01*
X118200500Y-98339562D01*
X118200500Y-92026211D01*
X118220185Y-91959172D01*
X118272989Y-91913417D01*
X118342147Y-91903473D01*
X118405703Y-91932498D01*
X118433171Y-91969968D01*
X118433997Y-91969480D01*
X118520278Y-92115374D01*
X118520285Y-92115383D01*
X118634616Y-92229714D01*
X118634625Y-92229721D01*
X118773804Y-92312031D01*
X118929089Y-92357145D01*
X118950000Y-92358789D01*
X119450000Y-92358789D01*
X119470910Y-92357145D01*
X119626195Y-92312031D01*
X119765374Y-92229721D01*
X119765383Y-92229714D01*
X119879714Y-92115383D01*
X119879721Y-92115374D01*
X119962031Y-91976195D01*
X120004504Y-91830000D01*
X119450000Y-91830000D01*
X119450000Y-92358789D01*
X118950000Y-92358789D01*
X118950000Y-91454000D01*
X118969685Y-91386961D01*
X119022489Y-91341206D01*
X119074000Y-91330000D01*
X119818312Y-91330000D01*
X119885351Y-91349685D01*
G37*
%TD.AperFunction*%
%TA.AperFunction,Conductor*%
G36*
X115184075Y-78382007D02*
G01*
X115150000Y-78509174D01*
X115150000Y-78640826D01*
X115184075Y-78767993D01*
X115216988Y-78825000D01*
X113543012Y-78825000D01*
X113575925Y-78767993D01*
X113610000Y-78640826D01*
X113610000Y-78509174D01*
X113575925Y-78382007D01*
X113543012Y-78325000D01*
X115216988Y-78325000D01*
X115184075Y-78382007D01*
G37*
%TD.AperFunction*%
%TD*%
M02*
