M48
; DRILL file {KiCad 8.0.3-8.0.3-0~ubuntu23.10.1} date 2024-10-17T21:53:55-0400
; FORMAT={-:-/ absolute / inch / decimal}
; #@! TF.CreationDate,2024-10-17T21:53:55-04:00
; #@! TF.GenerationSoftware,Kicad,Pcbnew,8.0.3-8.0.3-0~ubuntu23.10.1
; #@! TF.FileFunction,Plated,1,2,PTH
FMAT,2
INCH
; #@! TA.AperFunction,Plated,PTH,ViaDrill
T1C0.0118
; #@! TA.AperFunction,Plated,PTH,ComponentDrill
T2C0.0394
%
G90
G05
T1
X4.6929Y-3.6299
X4.7402Y-3.6535
X4.8031Y-3.5571
X4.8819Y-3.4528
X4.9213Y-3.4646
X4.9724Y-3.3622
T2
X4.4531Y-2.9935
X4.4531Y-3.0935
X4.4531Y-3.1935
X4.4531Y-3.2935
X4.4531Y-3.3935
X4.4531Y-3.4935
X4.4531Y-3.5935
X4.4531Y-3.6935
X4.4531Y-3.7935
X4.4531Y-3.8935
X4.4531Y-3.9935
X4.4531Y-4.0935
X4.5531Y-2.9935
X4.5531Y-3.0935
X4.5531Y-3.1935
X4.5531Y-3.2935
X4.5531Y-3.3935
X4.5531Y-3.4935
X4.5531Y-3.5935
X4.5531Y-3.6935
X4.5531Y-3.7935
X4.5531Y-3.8935
X4.5531Y-3.9935
X4.5531Y-4.0935
M30
