%TF.GenerationSoftware,KiCad,Pcbnew,8.0.3-8.0.3-0~ubuntu23.10.1*%
%TF.CreationDate,2024-10-17T21:53:55-04:00*%
%TF.ProjectId,INA333,494e4133-3333-42e6-9b69-6361645f7063,rev?*%
%TF.SameCoordinates,Original*%
%TF.FileFunction,Copper,L2,Bot*%
%TF.FilePolarity,Positive*%
%FSLAX46Y46*%
G04 Gerber Fmt 4.6, Leading zero omitted, Abs format (unit mm)*
G04 Created by KiCad (PCBNEW 8.0.3-8.0.3-0~ubuntu23.10.1) date 2024-10-17 21:53:55*
%MOMM*%
%LPD*%
G01*
G04 APERTURE LIST*
%TA.AperFunction,ComponentPad*%
%ADD10R,1.700000X1.700000*%
%TD*%
%TA.AperFunction,ComponentPad*%
%ADD11O,1.700000X1.700000*%
%TD*%
%TA.AperFunction,ViaPad*%
%ADD12C,0.600000*%
%TD*%
%TA.AperFunction,Conductor*%
%ADD13C,0.200000*%
%TD*%
G04 APERTURE END LIST*
D10*
%TO.P,J1,1,Pin_1*%
%TO.N,/SDA{slash}A4*%
X115650000Y-103975000D03*
D11*
%TO.P,J1,2,Pin_2*%
%TO.N,/SCL{slash}A5*%
X113110000Y-103975000D03*
%TO.P,J1,3,Pin_3*%
%TO.N,GND*%
X115650000Y-101435000D03*
%TO.P,J1,4,Pin_4*%
X113110000Y-101435000D03*
%TO.P,J1,5,Pin_5*%
%TO.N,/IN0+*%
X115650000Y-98895000D03*
%TO.P,J1,6,Pin_6*%
%TO.N,GND*%
X113110000Y-98895000D03*
%TO.P,J1,7,Pin_7*%
%TO.N,/IN1-*%
X115650000Y-96355000D03*
%TO.P,J1,8,Pin_8*%
%TO.N,/IN1+*%
X113110000Y-96355000D03*
%TO.P,J1,9,Pin_9*%
%TO.N,/IN2+*%
X115650000Y-93815000D03*
%TO.P,J1,10,Pin_10*%
%TO.N,/IN2-*%
X113110000Y-93815000D03*
%TO.P,J1,11,Pin_11*%
%TO.N,/IN3-*%
X115650000Y-91275000D03*
%TO.P,J1,12,Pin_12*%
%TO.N,/IN3+*%
X113110000Y-91275000D03*
%TO.P,J1,13,Pin_13*%
%TO.N,/IN4+*%
X115650000Y-88735000D03*
%TO.P,J1,14,Pin_14*%
%TO.N,/IN4-*%
X113110000Y-88735000D03*
%TO.P,J1,15,Pin_15*%
%TO.N,/IN5-*%
X115650000Y-86195000D03*
%TO.P,J1,16,Pin_16*%
%TO.N,/IN5+*%
X113110000Y-86195000D03*
%TO.P,J1,17,Pin_17*%
%TO.N,/IN6+*%
X115650000Y-83655000D03*
%TO.P,J1,18,Pin_18*%
%TO.N,/IN6-*%
X113110000Y-83655000D03*
%TO.P,J1,19,Pin_19*%
%TO.N,/IN7-*%
X115650000Y-81115000D03*
%TO.P,J1,20,Pin_20*%
%TO.N,/IN7+*%
X113110000Y-81115000D03*
%TO.P,J1,21,Pin_21*%
%TO.N,GND*%
X115650000Y-78575000D03*
%TO.P,J1,22,Pin_22*%
X113110000Y-78575000D03*
%TO.P,J1,23,Pin_23*%
%TO.N,/A0*%
X115650000Y-76035000D03*
%TO.P,J1,24,Pin_24*%
%TO.N,VIN*%
X113110000Y-76035000D03*
%TD*%
D12*
%TO.N,VIN*%
X122000000Y-90350000D03*
X120400000Y-92800000D03*
%TO.N,GND*%
X119200000Y-92200000D03*
X126300000Y-85400000D03*
X124000000Y-87700000D03*
X125000000Y-88000000D03*
%TD*%
D13*
%TO.N,VIN*%
X120400000Y-91950000D02*
X122000000Y-90350000D01*
X120400000Y-92800000D02*
X120400000Y-91950000D01*
%TD*%
%TA.AperFunction,Conductor*%
%TO.N,GND*%
G36*
X112236643Y-75225185D02*
G01*
X112282398Y-75277989D01*
X112292342Y-75347147D01*
X112265458Y-75408164D01*
X112232317Y-75448546D01*
X112134769Y-75631043D01*
X112134768Y-75631045D01*
X112134768Y-75631046D01*
X112127898Y-75653692D01*
X112074699Y-75829067D01*
X112054417Y-76035000D01*
X112074699Y-76240932D01*
X112074700Y-76240934D01*
X112134768Y-76438954D01*
X112232315Y-76621450D01*
X112232317Y-76621452D01*
X112363589Y-76781410D01*
X112460209Y-76860702D01*
X112523550Y-76912685D01*
X112706046Y-77010232D01*
X112772551Y-77030405D01*
X112830989Y-77068702D01*
X112859446Y-77132514D01*
X112848887Y-77201581D01*
X112802663Y-77253975D01*
X112768650Y-77268841D01*
X112646514Y-77301567D01*
X112646507Y-77301570D01*
X112432422Y-77401399D01*
X112432420Y-77401400D01*
X112238926Y-77536886D01*
X112238920Y-77536891D01*
X112071891Y-77703920D01*
X112071886Y-77703926D01*
X111936400Y-77897420D01*
X111936399Y-77897422D01*
X111836570Y-78111507D01*
X111836567Y-78111513D01*
X111779364Y-78324999D01*
X111779364Y-78325000D01*
X112676988Y-78325000D01*
X112644075Y-78382007D01*
X112610000Y-78509174D01*
X112610000Y-78640826D01*
X112644075Y-78767993D01*
X112676988Y-78825000D01*
X111779364Y-78825000D01*
X111836567Y-79038486D01*
X111836570Y-79038492D01*
X111936399Y-79252578D01*
X112071894Y-79446082D01*
X112238917Y-79613105D01*
X112432421Y-79748600D01*
X112646507Y-79848429D01*
X112646516Y-79848433D01*
X112768649Y-79881158D01*
X112828310Y-79917523D01*
X112858839Y-79980369D01*
X112850545Y-80049745D01*
X112806059Y-80103623D01*
X112772552Y-80119593D01*
X112706046Y-80139767D01*
X112575358Y-80209622D01*
X112523550Y-80237315D01*
X112523548Y-80237316D01*
X112523547Y-80237317D01*
X112363589Y-80368589D01*
X112232317Y-80528547D01*
X112134769Y-80711043D01*
X112074699Y-80909067D01*
X112054417Y-81115000D01*
X112074699Y-81320932D01*
X112074700Y-81320934D01*
X112134768Y-81518954D01*
X112232315Y-81701450D01*
X112232317Y-81701452D01*
X112363589Y-81861410D01*
X112460209Y-81940702D01*
X112523550Y-81992685D01*
X112706046Y-82090232D01*
X112904066Y-82150300D01*
X112904065Y-82150300D01*
X112922529Y-82152118D01*
X113110000Y-82170583D01*
X113315934Y-82150300D01*
X113513954Y-82090232D01*
X113696450Y-81992685D01*
X113856410Y-81861410D01*
X113987685Y-81701450D01*
X114085232Y-81518954D01*
X114145300Y-81320934D01*
X114165583Y-81115000D01*
X114145300Y-80909066D01*
X114085232Y-80711046D01*
X113987685Y-80528550D01*
X113935702Y-80465209D01*
X113856410Y-80368589D01*
X113696452Y-80237317D01*
X113696453Y-80237317D01*
X113696450Y-80237315D01*
X113513954Y-80139768D01*
X113447447Y-80119593D01*
X113389009Y-80081296D01*
X113360553Y-80017484D01*
X113371113Y-79948417D01*
X113417337Y-79896023D01*
X113451350Y-79881158D01*
X113573483Y-79848433D01*
X113573492Y-79848429D01*
X113787578Y-79748600D01*
X113981082Y-79613105D01*
X114148105Y-79446082D01*
X114278425Y-79259968D01*
X114333002Y-79216344D01*
X114402501Y-79209151D01*
X114464855Y-79240673D01*
X114481575Y-79259968D01*
X114611894Y-79446082D01*
X114778917Y-79613105D01*
X114972421Y-79748600D01*
X115186507Y-79848429D01*
X115186516Y-79848433D01*
X115308649Y-79881158D01*
X115368310Y-79917523D01*
X115398839Y-79980369D01*
X115390545Y-80049745D01*
X115346059Y-80103623D01*
X115312552Y-80119593D01*
X115246046Y-80139767D01*
X115115358Y-80209622D01*
X115063550Y-80237315D01*
X115063548Y-80237316D01*
X115063547Y-80237317D01*
X114903589Y-80368589D01*
X114772317Y-80528547D01*
X114674769Y-80711043D01*
X114614699Y-80909067D01*
X114594417Y-81115000D01*
X114614699Y-81320932D01*
X114614700Y-81320934D01*
X114674768Y-81518954D01*
X114772315Y-81701450D01*
X114772317Y-81701452D01*
X114903589Y-81861410D01*
X115000209Y-81940702D01*
X115063550Y-81992685D01*
X115246046Y-82090232D01*
X115444066Y-82150300D01*
X115444065Y-82150300D01*
X115462529Y-82152118D01*
X115650000Y-82170583D01*
X115855934Y-82150300D01*
X116053954Y-82090232D01*
X116236450Y-81992685D01*
X116396410Y-81861410D01*
X116527685Y-81701450D01*
X116625232Y-81518954D01*
X116685300Y-81320934D01*
X116705583Y-81115000D01*
X116685300Y-80909066D01*
X116625232Y-80711046D01*
X116527685Y-80528550D01*
X116475702Y-80465209D01*
X116396410Y-80368589D01*
X116236452Y-80237317D01*
X116236453Y-80237317D01*
X116236450Y-80237315D01*
X116053954Y-80139768D01*
X115987447Y-80119593D01*
X115929009Y-80081296D01*
X115900553Y-80017484D01*
X115911113Y-79948417D01*
X115957337Y-79896023D01*
X115991350Y-79881158D01*
X116113483Y-79848433D01*
X116113492Y-79848429D01*
X116327578Y-79748600D01*
X116521082Y-79613105D01*
X116688105Y-79446082D01*
X116823600Y-79252578D01*
X116923429Y-79038492D01*
X116923432Y-79038486D01*
X116980636Y-78825000D01*
X116083012Y-78825000D01*
X116115925Y-78767993D01*
X116150000Y-78640826D01*
X116150000Y-78509174D01*
X116115925Y-78382007D01*
X116083012Y-78325000D01*
X116980636Y-78325000D01*
X116980635Y-78324999D01*
X116923432Y-78111513D01*
X116923429Y-78111507D01*
X116823600Y-77897422D01*
X116823599Y-77897420D01*
X116688113Y-77703926D01*
X116688108Y-77703920D01*
X116521082Y-77536894D01*
X116327578Y-77401399D01*
X116113492Y-77301570D01*
X116113486Y-77301567D01*
X115991349Y-77268841D01*
X115931689Y-77232476D01*
X115901160Y-77169629D01*
X115909455Y-77100253D01*
X115953940Y-77046375D01*
X115987444Y-77030407D01*
X116053954Y-77010232D01*
X116236450Y-76912685D01*
X116396410Y-76781410D01*
X116527685Y-76621450D01*
X116625232Y-76438954D01*
X116685300Y-76240934D01*
X116705583Y-76035000D01*
X116685300Y-75829066D01*
X116625232Y-75631046D01*
X116527685Y-75448550D01*
X116527682Y-75448546D01*
X116494542Y-75408164D01*
X116467230Y-75343854D01*
X116479022Y-75274986D01*
X116526174Y-75223427D01*
X116590396Y-75205500D01*
X142679108Y-75205500D01*
X142738038Y-75205500D01*
X142751922Y-75206280D01*
X142842266Y-75216459D01*
X142869331Y-75222636D01*
X142948540Y-75250352D01*
X142973553Y-75262398D01*
X143044606Y-75307043D01*
X143066313Y-75324355D01*
X143125644Y-75383686D01*
X143142957Y-75405395D01*
X143187600Y-75476444D01*
X143199648Y-75501462D01*
X143227362Y-75580666D01*
X143233540Y-75607735D01*
X143243720Y-75698076D01*
X143244500Y-75711961D01*
X143244500Y-104298038D01*
X143243720Y-104311923D01*
X143233540Y-104402264D01*
X143227362Y-104429333D01*
X143199648Y-104508537D01*
X143187600Y-104533555D01*
X143142957Y-104604604D01*
X143125644Y-104626313D01*
X143066313Y-104685644D01*
X143044604Y-104702957D01*
X142973555Y-104747600D01*
X142948537Y-104759648D01*
X142869333Y-104787362D01*
X142842264Y-104793540D01*
X142762075Y-104802576D01*
X142751921Y-104803720D01*
X142738038Y-104804500D01*
X116824500Y-104804500D01*
X116757461Y-104784815D01*
X116711706Y-104732011D01*
X116700500Y-104680500D01*
X116700500Y-103105249D01*
X116700499Y-103105247D01*
X116688868Y-103046770D01*
X116688867Y-103046769D01*
X116644552Y-102980447D01*
X116578230Y-102936132D01*
X116578229Y-102936131D01*
X116519752Y-102924500D01*
X116519748Y-102924500D01*
X116209457Y-102924500D01*
X116142418Y-102904815D01*
X116096663Y-102852011D01*
X116086719Y-102782853D01*
X116115744Y-102719297D01*
X116157052Y-102688118D01*
X116327578Y-102608600D01*
X116521082Y-102473105D01*
X116688105Y-102306082D01*
X116823600Y-102112578D01*
X116923429Y-101898492D01*
X116923432Y-101898486D01*
X116980636Y-101685000D01*
X116083012Y-101685000D01*
X116115925Y-101627993D01*
X116150000Y-101500826D01*
X116150000Y-101369174D01*
X116115925Y-101242007D01*
X116083012Y-101185000D01*
X116980636Y-101185000D01*
X116980635Y-101184999D01*
X116923432Y-100971513D01*
X116923429Y-100971507D01*
X116823600Y-100757422D01*
X116823599Y-100757420D01*
X116688113Y-100563926D01*
X116688108Y-100563920D01*
X116521082Y-100396894D01*
X116327578Y-100261399D01*
X116113492Y-100161570D01*
X116113486Y-100161567D01*
X115991349Y-100128841D01*
X115931689Y-100092476D01*
X115901160Y-100029629D01*
X115909455Y-99960253D01*
X115953940Y-99906375D01*
X115987444Y-99890407D01*
X116053954Y-99870232D01*
X116236450Y-99772685D01*
X116396410Y-99641410D01*
X116527685Y-99481450D01*
X116625232Y-99298954D01*
X116685300Y-99100934D01*
X116705583Y-98895000D01*
X116685300Y-98689066D01*
X116625232Y-98491046D01*
X116527685Y-98308550D01*
X116452897Y-98217420D01*
X116396410Y-98148589D01*
X116278677Y-98051969D01*
X116236450Y-98017315D01*
X116053954Y-97919768D01*
X115855934Y-97859700D01*
X115855932Y-97859699D01*
X115855934Y-97859699D01*
X115650000Y-97839417D01*
X115444067Y-97859699D01*
X115246043Y-97919769D01*
X115135898Y-97978643D01*
X115063550Y-98017315D01*
X115063548Y-98017316D01*
X115063547Y-98017317D01*
X114903589Y-98148589D01*
X114772317Y-98308547D01*
X114772315Y-98308550D01*
X114748627Y-98352867D01*
X114674767Y-98491046D01*
X114654593Y-98557552D01*
X114616296Y-98615990D01*
X114552483Y-98644447D01*
X114483416Y-98633886D01*
X114431023Y-98587661D01*
X114416158Y-98553649D01*
X114383433Y-98431516D01*
X114383429Y-98431507D01*
X114283600Y-98217422D01*
X114283599Y-98217420D01*
X114148113Y-98023926D01*
X114148108Y-98023920D01*
X113981082Y-97856894D01*
X113787578Y-97721399D01*
X113573492Y-97621570D01*
X113573486Y-97621567D01*
X113451349Y-97588841D01*
X113391689Y-97552476D01*
X113361160Y-97489629D01*
X113369455Y-97420253D01*
X113413940Y-97366375D01*
X113447444Y-97350407D01*
X113513954Y-97330232D01*
X113696450Y-97232685D01*
X113856410Y-97101410D01*
X113987685Y-96941450D01*
X114085232Y-96758954D01*
X114145300Y-96560934D01*
X114165583Y-96355000D01*
X114594417Y-96355000D01*
X114614699Y-96560932D01*
X114614700Y-96560934D01*
X114674768Y-96758954D01*
X114772315Y-96941450D01*
X114772317Y-96941452D01*
X114903589Y-97101410D01*
X115000209Y-97180702D01*
X115063550Y-97232685D01*
X115246046Y-97330232D01*
X115444066Y-97390300D01*
X115444065Y-97390300D01*
X115462529Y-97392118D01*
X115650000Y-97410583D01*
X115855934Y-97390300D01*
X116053954Y-97330232D01*
X116236450Y-97232685D01*
X116396410Y-97101410D01*
X116527685Y-96941450D01*
X116625232Y-96758954D01*
X116685300Y-96560934D01*
X116705583Y-96355000D01*
X116685300Y-96149066D01*
X116625232Y-95951046D01*
X116527685Y-95768550D01*
X116475702Y-95705209D01*
X116396410Y-95608589D01*
X116236452Y-95477317D01*
X116236453Y-95477317D01*
X116236450Y-95477315D01*
X116053954Y-95379768D01*
X115855934Y-95319700D01*
X115855932Y-95319699D01*
X115855934Y-95319699D01*
X115650000Y-95299417D01*
X115444067Y-95319699D01*
X115246043Y-95379769D01*
X115135898Y-95438643D01*
X115063550Y-95477315D01*
X115063548Y-95477316D01*
X115063547Y-95477317D01*
X114903589Y-95608589D01*
X114772317Y-95768547D01*
X114674769Y-95951043D01*
X114614699Y-96149067D01*
X114594417Y-96355000D01*
X114165583Y-96355000D01*
X114145300Y-96149066D01*
X114085232Y-95951046D01*
X113987685Y-95768550D01*
X113935702Y-95705209D01*
X113856410Y-95608589D01*
X113696452Y-95477317D01*
X113696453Y-95477317D01*
X113696450Y-95477315D01*
X113513954Y-95379768D01*
X113315934Y-95319700D01*
X113315932Y-95319699D01*
X113315934Y-95319699D01*
X113110000Y-95299417D01*
X112904067Y-95319699D01*
X112706043Y-95379769D01*
X112595898Y-95438643D01*
X112523550Y-95477315D01*
X112523548Y-95477316D01*
X112523547Y-95477317D01*
X112363589Y-95608589D01*
X112232317Y-95768547D01*
X112134769Y-95951043D01*
X112074699Y-96149067D01*
X112054417Y-96355000D01*
X112074699Y-96560932D01*
X112074700Y-96560934D01*
X112134768Y-96758954D01*
X112232315Y-96941450D01*
X112232317Y-96941452D01*
X112363589Y-97101410D01*
X112460209Y-97180702D01*
X112523550Y-97232685D01*
X112706046Y-97330232D01*
X112772551Y-97350405D01*
X112830989Y-97388702D01*
X112859446Y-97452514D01*
X112848887Y-97521581D01*
X112802663Y-97573975D01*
X112768650Y-97588841D01*
X112646514Y-97621567D01*
X112646507Y-97621570D01*
X112432422Y-97721399D01*
X112432420Y-97721400D01*
X112238926Y-97856886D01*
X112238920Y-97856891D01*
X112071891Y-98023920D01*
X112071886Y-98023926D01*
X111936400Y-98217420D01*
X111936399Y-98217422D01*
X111836570Y-98431507D01*
X111836567Y-98431513D01*
X111779364Y-98644999D01*
X111779364Y-98645000D01*
X112676988Y-98645000D01*
X112644075Y-98702007D01*
X112610000Y-98829174D01*
X112610000Y-98960826D01*
X112644075Y-99087993D01*
X112676988Y-99145000D01*
X111779364Y-99145000D01*
X111836567Y-99358486D01*
X111836570Y-99358492D01*
X111936399Y-99572578D01*
X112071894Y-99766082D01*
X112238917Y-99933105D01*
X112425031Y-100063425D01*
X112468656Y-100118003D01*
X112475848Y-100187501D01*
X112444326Y-100249856D01*
X112425031Y-100266575D01*
X112238922Y-100396890D01*
X112238920Y-100396891D01*
X112071891Y-100563920D01*
X112071886Y-100563926D01*
X111936400Y-100757420D01*
X111936399Y-100757422D01*
X111836570Y-100971507D01*
X111836567Y-100971513D01*
X111779364Y-101184999D01*
X111779364Y-101185000D01*
X112676988Y-101185000D01*
X112644075Y-101242007D01*
X112610000Y-101369174D01*
X112610000Y-101500826D01*
X112644075Y-101627993D01*
X112676988Y-101685000D01*
X111779364Y-101685000D01*
X111836567Y-101898486D01*
X111836570Y-101898492D01*
X111936399Y-102112578D01*
X112071894Y-102306082D01*
X112238917Y-102473105D01*
X112432421Y-102608600D01*
X112646507Y-102708429D01*
X112646516Y-102708433D01*
X112768649Y-102741158D01*
X112828310Y-102777523D01*
X112858839Y-102840369D01*
X112850545Y-102909745D01*
X112806059Y-102963623D01*
X112772552Y-102979593D01*
X112706046Y-102999767D01*
X112618112Y-103046770D01*
X112523550Y-103097315D01*
X112523548Y-103097316D01*
X112523547Y-103097317D01*
X112363589Y-103228589D01*
X112232317Y-103388547D01*
X112134769Y-103571043D01*
X112074699Y-103769067D01*
X112054417Y-103975000D01*
X112074699Y-104180932D01*
X112074700Y-104180934D01*
X112134768Y-104378954D01*
X112211081Y-104521725D01*
X112232317Y-104561453D01*
X112265458Y-104601836D01*
X112292770Y-104666146D01*
X112280978Y-104735014D01*
X112233826Y-104786573D01*
X112169604Y-104804500D01*
X110016962Y-104804500D01*
X110003078Y-104803720D01*
X109990553Y-104802308D01*
X109912735Y-104793540D01*
X109885666Y-104787362D01*
X109806462Y-104759648D01*
X109781444Y-104747600D01*
X109710395Y-104702957D01*
X109688686Y-104685644D01*
X109629355Y-104626313D01*
X109612042Y-104604604D01*
X109584928Y-104561453D01*
X109567398Y-104533553D01*
X109555351Y-104508537D01*
X109527637Y-104429333D01*
X109521459Y-104402263D01*
X109511280Y-104311922D01*
X109510500Y-104298038D01*
X109510500Y-93815000D01*
X112054417Y-93815000D01*
X112074699Y-94020932D01*
X112074700Y-94020934D01*
X112134768Y-94218954D01*
X112232315Y-94401450D01*
X112232317Y-94401452D01*
X112363589Y-94561410D01*
X112460209Y-94640702D01*
X112523550Y-94692685D01*
X112706046Y-94790232D01*
X112904066Y-94850300D01*
X112904065Y-94850300D01*
X112922529Y-94852118D01*
X113110000Y-94870583D01*
X113315934Y-94850300D01*
X113513954Y-94790232D01*
X113696450Y-94692685D01*
X113856410Y-94561410D01*
X113987685Y-94401450D01*
X114085232Y-94218954D01*
X114145300Y-94020934D01*
X114165583Y-93815000D01*
X114594417Y-93815000D01*
X114614699Y-94020932D01*
X114614700Y-94020934D01*
X114674768Y-94218954D01*
X114772315Y-94401450D01*
X114772317Y-94401452D01*
X114903589Y-94561410D01*
X115000209Y-94640702D01*
X115063550Y-94692685D01*
X115246046Y-94790232D01*
X115444066Y-94850300D01*
X115444065Y-94850300D01*
X115462529Y-94852118D01*
X115650000Y-94870583D01*
X115855934Y-94850300D01*
X116053954Y-94790232D01*
X116236450Y-94692685D01*
X116396410Y-94561410D01*
X116527685Y-94401450D01*
X116625232Y-94218954D01*
X116685300Y-94020934D01*
X116705583Y-93815000D01*
X116685300Y-93609066D01*
X116625232Y-93411046D01*
X116527685Y-93228550D01*
X116475702Y-93165209D01*
X116396410Y-93068589D01*
X116278677Y-92971969D01*
X116236450Y-92937315D01*
X116066554Y-92846502D01*
X116053956Y-92839769D01*
X116053955Y-92839768D01*
X116053954Y-92839768D01*
X115922855Y-92800000D01*
X119894353Y-92800000D01*
X119914834Y-92942456D01*
X119946709Y-93012251D01*
X119974623Y-93073373D01*
X120068872Y-93182143D01*
X120189947Y-93259953D01*
X120189950Y-93259954D01*
X120189949Y-93259954D01*
X120328036Y-93300499D01*
X120328038Y-93300500D01*
X120328039Y-93300500D01*
X120471962Y-93300500D01*
X120471962Y-93300499D01*
X120610053Y-93259953D01*
X120731128Y-93182143D01*
X120825377Y-93073373D01*
X120885165Y-92942457D01*
X120905647Y-92800000D01*
X120885165Y-92657543D01*
X120825377Y-92526627D01*
X120825375Y-92526625D01*
X120825374Y-92526622D01*
X120730787Y-92417462D01*
X120701762Y-92353906D01*
X120700500Y-92336260D01*
X120700500Y-92125832D01*
X120720185Y-92058793D01*
X120736814Y-92038155D01*
X121888151Y-90886818D01*
X121949474Y-90853334D01*
X121975832Y-90850500D01*
X122071962Y-90850500D01*
X122071962Y-90850499D01*
X122210053Y-90809953D01*
X122331128Y-90732143D01*
X122425377Y-90623373D01*
X122485165Y-90492457D01*
X122505647Y-90350000D01*
X122485165Y-90207543D01*
X122425377Y-90076627D01*
X122331128Y-89967857D01*
X122210053Y-89890047D01*
X122210051Y-89890046D01*
X122210049Y-89890045D01*
X122210050Y-89890045D01*
X122071963Y-89849500D01*
X122071961Y-89849500D01*
X121928039Y-89849500D01*
X121928036Y-89849500D01*
X121789949Y-89890045D01*
X121668873Y-89967856D01*
X121574623Y-90076626D01*
X121574622Y-90076628D01*
X121514834Y-90207543D01*
X121494353Y-90350000D01*
X121494353Y-90350001D01*
X121495661Y-90359103D01*
X121485713Y-90428261D01*
X121460603Y-90464424D01*
X120215489Y-91709540D01*
X120159541Y-91765487D01*
X120159535Y-91765495D01*
X120119982Y-91834004D01*
X120119979Y-91834009D01*
X120099500Y-91910439D01*
X120099500Y-92336260D01*
X120079815Y-92403299D01*
X120069213Y-92417462D01*
X119974625Y-92526622D01*
X119974622Y-92526628D01*
X119914834Y-92657543D01*
X119894353Y-92800000D01*
X115922855Y-92800000D01*
X115855934Y-92779700D01*
X115855932Y-92779699D01*
X115855934Y-92779699D01*
X115650000Y-92759417D01*
X115444067Y-92779699D01*
X115246043Y-92839769D01*
X115135898Y-92898643D01*
X115063550Y-92937315D01*
X115063548Y-92937316D01*
X115063547Y-92937317D01*
X114903589Y-93068589D01*
X114772317Y-93228547D01*
X114674769Y-93411043D01*
X114614699Y-93609067D01*
X114594417Y-93815000D01*
X114165583Y-93815000D01*
X114145300Y-93609066D01*
X114085232Y-93411046D01*
X113987685Y-93228550D01*
X113935702Y-93165209D01*
X113856410Y-93068589D01*
X113738677Y-92971969D01*
X113696450Y-92937315D01*
X113526554Y-92846502D01*
X113513956Y-92839769D01*
X113513955Y-92839768D01*
X113513954Y-92839768D01*
X113315934Y-92779700D01*
X113315932Y-92779699D01*
X113315934Y-92779699D01*
X113110000Y-92759417D01*
X112904067Y-92779699D01*
X112706043Y-92839769D01*
X112595898Y-92898643D01*
X112523550Y-92937315D01*
X112523548Y-92937316D01*
X112523547Y-92937317D01*
X112363589Y-93068589D01*
X112232317Y-93228547D01*
X112134769Y-93411043D01*
X112074699Y-93609067D01*
X112054417Y-93815000D01*
X109510500Y-93815000D01*
X109510500Y-91275000D01*
X112054417Y-91275000D01*
X112074699Y-91480932D01*
X112104734Y-91579944D01*
X112134768Y-91678954D01*
X112232315Y-91861450D01*
X112232317Y-91861452D01*
X112363589Y-92021410D01*
X112450183Y-92092475D01*
X112523550Y-92152685D01*
X112706046Y-92250232D01*
X112904066Y-92310300D01*
X112904065Y-92310300D01*
X112922529Y-92312118D01*
X113110000Y-92330583D01*
X113315934Y-92310300D01*
X113513954Y-92250232D01*
X113696450Y-92152685D01*
X113856410Y-92021410D01*
X113987685Y-91861450D01*
X114085232Y-91678954D01*
X114145300Y-91480934D01*
X114165583Y-91275000D01*
X114594417Y-91275000D01*
X114614699Y-91480932D01*
X114644734Y-91579944D01*
X114674768Y-91678954D01*
X114772315Y-91861450D01*
X114772317Y-91861452D01*
X114903589Y-92021410D01*
X114990183Y-92092475D01*
X115063550Y-92152685D01*
X115246046Y-92250232D01*
X115444066Y-92310300D01*
X115444065Y-92310300D01*
X115462529Y-92312118D01*
X115650000Y-92330583D01*
X115855934Y-92310300D01*
X116053954Y-92250232D01*
X116236450Y-92152685D01*
X116396410Y-92021410D01*
X116527685Y-91861450D01*
X116625232Y-91678954D01*
X116685300Y-91480934D01*
X116705583Y-91275000D01*
X116685300Y-91069066D01*
X116625232Y-90871046D01*
X116527685Y-90688550D01*
X116474194Y-90623371D01*
X116396410Y-90528589D01*
X116274158Y-90428261D01*
X116236450Y-90397315D01*
X116053954Y-90299768D01*
X115855934Y-90239700D01*
X115855932Y-90239699D01*
X115855934Y-90239699D01*
X115650000Y-90219417D01*
X115444067Y-90239699D01*
X115246043Y-90299769D01*
X115152069Y-90350000D01*
X115063550Y-90397315D01*
X115063548Y-90397316D01*
X115063547Y-90397317D01*
X114903589Y-90528589D01*
X114772317Y-90688547D01*
X114674769Y-90871043D01*
X114614699Y-91069067D01*
X114594417Y-91275000D01*
X114165583Y-91275000D01*
X114145300Y-91069066D01*
X114085232Y-90871046D01*
X113987685Y-90688550D01*
X113934194Y-90623371D01*
X113856410Y-90528589D01*
X113734158Y-90428261D01*
X113696450Y-90397315D01*
X113513954Y-90299768D01*
X113315934Y-90239700D01*
X113315932Y-90239699D01*
X113315934Y-90239699D01*
X113110000Y-90219417D01*
X112904067Y-90239699D01*
X112706043Y-90299769D01*
X112612069Y-90350000D01*
X112523550Y-90397315D01*
X112523548Y-90397316D01*
X112523547Y-90397317D01*
X112363589Y-90528589D01*
X112232317Y-90688547D01*
X112134769Y-90871043D01*
X112074699Y-91069067D01*
X112054417Y-91275000D01*
X109510500Y-91275000D01*
X109510500Y-88735000D01*
X112054417Y-88735000D01*
X112074699Y-88940932D01*
X112074700Y-88940934D01*
X112134768Y-89138954D01*
X112232315Y-89321450D01*
X112232317Y-89321452D01*
X112363589Y-89481410D01*
X112424128Y-89531092D01*
X112523550Y-89612685D01*
X112706046Y-89710232D01*
X112904066Y-89770300D01*
X112904065Y-89770300D01*
X112922529Y-89772118D01*
X113110000Y-89790583D01*
X113315934Y-89770300D01*
X113513954Y-89710232D01*
X113696450Y-89612685D01*
X113856410Y-89481410D01*
X113987685Y-89321450D01*
X114085232Y-89138954D01*
X114145300Y-88940934D01*
X114165583Y-88735000D01*
X114594417Y-88735000D01*
X114614699Y-88940932D01*
X114614700Y-88940934D01*
X114674768Y-89138954D01*
X114772315Y-89321450D01*
X114772317Y-89321452D01*
X114903589Y-89481410D01*
X114964128Y-89531092D01*
X115063550Y-89612685D01*
X115246046Y-89710232D01*
X115444066Y-89770300D01*
X115444065Y-89770300D01*
X115462529Y-89772118D01*
X115650000Y-89790583D01*
X115855934Y-89770300D01*
X116053954Y-89710232D01*
X116236450Y-89612685D01*
X116265689Y-89588689D01*
X122915891Y-89588689D01*
X122915891Y-89761310D01*
X122928202Y-89917727D01*
X122928202Y-89917734D01*
X122938159Y-89980605D01*
X122938159Y-90019395D01*
X122928202Y-90082265D01*
X122928202Y-90082272D01*
X122915891Y-90238689D01*
X122915891Y-90411310D01*
X122928202Y-90567728D01*
X122928204Y-90567747D01*
X122955204Y-90738221D01*
X122991832Y-90890793D01*
X122991833Y-90890797D01*
X122991836Y-90890807D01*
X122991837Y-90890810D01*
X123045177Y-91054972D01*
X123105227Y-91199943D01*
X123183590Y-91353739D01*
X123261533Y-91480932D01*
X123265573Y-91487524D01*
X123265590Y-91487549D01*
X123367026Y-91627166D01*
X123468942Y-91746496D01*
X123591003Y-91868557D01*
X123710333Y-91970473D01*
X123849950Y-92071909D01*
X123849971Y-92071924D01*
X123983761Y-92153910D01*
X124137557Y-92232273D01*
X124282528Y-92292323D01*
X124446690Y-92345663D01*
X124446700Y-92345665D01*
X124446702Y-92345666D01*
X124446706Y-92345667D01*
X124474274Y-92352285D01*
X124599277Y-92382295D01*
X124696435Y-92397683D01*
X124759570Y-92427612D01*
X124796502Y-92486923D01*
X124801038Y-92520076D01*
X124803391Y-96186951D01*
X124815702Y-96342733D01*
X124815705Y-96342756D01*
X124842704Y-96513221D01*
X124879332Y-96665793D01*
X124879333Y-96665797D01*
X124879336Y-96665807D01*
X124879337Y-96665810D01*
X124932677Y-96829972D01*
X124992727Y-96974943D01*
X124992731Y-96974951D01*
X124992732Y-96974953D01*
X125026339Y-97040911D01*
X125026339Y-97040912D01*
X125071086Y-97128732D01*
X125071098Y-97128753D01*
X125153068Y-97262517D01*
X125153090Y-97262549D01*
X125254532Y-97402173D01*
X125254534Y-97402176D01*
X125261433Y-97410582D01*
X125329239Y-97493203D01*
X125384032Y-97552476D01*
X125387886Y-97556645D01*
X125416077Y-97585923D01*
X125416095Y-97585941D01*
X125416097Y-97585943D01*
X127079521Y-99244573D01*
X127197822Y-99345464D01*
X127337467Y-99446922D01*
X127337471Y-99446924D01*
X127337476Y-99446928D01*
X127471245Y-99528902D01*
X127471250Y-99528905D01*
X127471255Y-99528907D01*
X127471264Y-99528913D01*
X127625061Y-99607276D01*
X127770033Y-99667325D01*
X127934194Y-99720664D01*
X128086771Y-99757295D01*
X128257256Y-99784298D01*
X128323777Y-99789533D01*
X128336398Y-99794343D01*
X128374460Y-99795838D01*
X128374460Y-99795839D01*
X128419457Y-99797606D01*
X128460708Y-99799228D01*
X128460720Y-99799228D01*
X128460740Y-99799229D01*
X128500548Y-99800000D01*
X128500559Y-99799999D01*
X128500560Y-99800000D01*
X132035579Y-99798062D01*
X134686853Y-99796609D01*
X134842738Y-99784297D01*
X135013223Y-99757295D01*
X135165810Y-99720663D01*
X135329972Y-99667323D01*
X135474943Y-99607273D01*
X135628739Y-99528910D01*
X135762529Y-99446924D01*
X135902174Y-99345467D01*
X135993203Y-99270761D01*
X136056627Y-99212131D01*
X136087024Y-99182817D01*
X136890485Y-98374561D01*
X136890484Y-98374560D01*
X136909290Y-98355642D01*
X136910096Y-98352867D01*
X136920449Y-98338908D01*
X136990467Y-98257174D01*
X137091924Y-98117529D01*
X137173910Y-97983739D01*
X137252273Y-97829943D01*
X137312323Y-97684972D01*
X137365663Y-97520810D01*
X137402295Y-97368223D01*
X137429297Y-97197738D01*
X137440838Y-97080566D01*
X137444229Y-96994261D01*
X137445000Y-96954104D01*
X137441609Y-93167799D01*
X137429297Y-93012262D01*
X137402295Y-92841777D01*
X137365663Y-92689190D01*
X137312323Y-92525028D01*
X137252273Y-92380057D01*
X137173910Y-92226261D01*
X137091924Y-92092471D01*
X137091909Y-92092450D01*
X136990473Y-91952833D01*
X136888557Y-91833503D01*
X136766496Y-91711442D01*
X136647166Y-91609526D01*
X136507549Y-91508090D01*
X136507537Y-91508082D01*
X136507529Y-91508076D01*
X136373739Y-91426090D01*
X136219943Y-91347727D01*
X136093168Y-91295214D01*
X136074980Y-91287680D01*
X136074974Y-91287678D01*
X136074975Y-91287678D01*
X136074972Y-91287677D01*
X135910810Y-91234337D01*
X135910807Y-91234336D01*
X135910797Y-91234333D01*
X135910793Y-91234332D01*
X135758221Y-91197704D01*
X135587747Y-91170704D01*
X135587738Y-91170703D01*
X135587736Y-91170702D01*
X135587728Y-91170702D01*
X135431310Y-91158391D01*
X135431305Y-91158391D01*
X135258695Y-91158391D01*
X135258689Y-91158391D01*
X135102271Y-91170702D01*
X135102252Y-91170704D01*
X134931778Y-91197704D01*
X134779206Y-91234332D01*
X134779202Y-91234333D01*
X134615025Y-91287678D01*
X134615019Y-91287680D01*
X134482960Y-91342382D01*
X134470057Y-91347727D01*
X134316261Y-91426090D01*
X134316256Y-91426092D01*
X134316256Y-91426093D01*
X134316252Y-91426095D01*
X134182475Y-91508073D01*
X134182450Y-91508090D01*
X134042833Y-91609526D01*
X133923503Y-91711442D01*
X133801442Y-91833503D01*
X133699526Y-91952833D01*
X133598090Y-92092450D01*
X133598073Y-92092475D01*
X133516095Y-92226252D01*
X133516092Y-92226256D01*
X133513026Y-92232274D01*
X133455483Y-92345207D01*
X133407510Y-92396002D01*
X133339689Y-92412797D01*
X133273554Y-92390259D01*
X133234516Y-92345207D01*
X133173910Y-92226261D01*
X133091924Y-92092471D01*
X133091909Y-92092450D01*
X132990473Y-91952833D01*
X132888557Y-91833503D01*
X132766496Y-91711442D01*
X132647166Y-91609526D01*
X132507549Y-91508090D01*
X132507537Y-91508082D01*
X132507529Y-91508076D01*
X132373739Y-91426090D01*
X132219943Y-91347727D01*
X132093168Y-91295214D01*
X132074980Y-91287680D01*
X132074974Y-91287678D01*
X132074975Y-91287678D01*
X132074972Y-91287677D01*
X131910810Y-91234337D01*
X131910807Y-91234336D01*
X131910797Y-91234333D01*
X131910793Y-91234332D01*
X131758221Y-91197704D01*
X131587747Y-91170704D01*
X131587738Y-91170703D01*
X131587736Y-91170702D01*
X131587728Y-91170702D01*
X131431310Y-91158391D01*
X131431305Y-91158391D01*
X131258695Y-91158391D01*
X131258689Y-91158391D01*
X131102271Y-91170702D01*
X131102252Y-91170704D01*
X130931778Y-91197704D01*
X130779208Y-91234331D01*
X130779190Y-91234337D01*
X130759009Y-91240894D01*
X130689170Y-91242888D01*
X130629338Y-91206806D01*
X130598511Y-91144105D01*
X130596696Y-91123070D01*
X130596609Y-91012904D01*
X130584297Y-90857262D01*
X130557295Y-90686777D01*
X130520663Y-90534190D01*
X130467323Y-90370028D01*
X130407274Y-90225058D01*
X130373572Y-90158914D01*
X130357711Y-90127785D01*
X130357692Y-90127750D01*
X130345359Y-90103543D01*
X131944499Y-90103543D01*
X131982947Y-90296829D01*
X131982950Y-90296839D01*
X132058364Y-90478907D01*
X132058371Y-90478920D01*
X132167860Y-90642781D01*
X132167863Y-90642785D01*
X132307214Y-90782136D01*
X132307218Y-90782139D01*
X132471079Y-90891628D01*
X132471092Y-90891635D01*
X132653160Y-90967049D01*
X132653165Y-90967051D01*
X132653169Y-90967051D01*
X132653170Y-90967052D01*
X132846456Y-91005500D01*
X132846459Y-91005500D01*
X133043543Y-91005500D01*
X133173582Y-90979632D01*
X133236835Y-90967051D01*
X133418914Y-90891632D01*
X133582782Y-90782139D01*
X133722139Y-90642782D01*
X133831632Y-90478914D01*
X133907051Y-90296835D01*
X133921326Y-90225071D01*
X133945500Y-90103543D01*
X138944499Y-90103543D01*
X138982947Y-90296829D01*
X138982950Y-90296839D01*
X139058364Y-90478907D01*
X139058371Y-90478920D01*
X139167860Y-90642781D01*
X139167863Y-90642785D01*
X139307214Y-90782136D01*
X139307218Y-90782139D01*
X139471079Y-90891628D01*
X139471092Y-90891635D01*
X139653160Y-90967049D01*
X139653165Y-90967051D01*
X139653169Y-90967051D01*
X139653170Y-90967052D01*
X139846456Y-91005500D01*
X139846459Y-91005500D01*
X140043543Y-91005500D01*
X140173582Y-90979632D01*
X140236835Y-90967051D01*
X140418914Y-90891632D01*
X140582782Y-90782139D01*
X140722139Y-90642782D01*
X140831632Y-90478914D01*
X140907051Y-90296835D01*
X140921326Y-90225071D01*
X140945500Y-90103543D01*
X140945500Y-89906456D01*
X140907052Y-89713170D01*
X140907051Y-89713169D01*
X140907051Y-89713165D01*
X140904413Y-89706796D01*
X140831635Y-89531092D01*
X140831628Y-89531079D01*
X140722139Y-89367218D01*
X140722136Y-89367214D01*
X140582785Y-89227863D01*
X140582781Y-89227860D01*
X140418920Y-89118371D01*
X140418907Y-89118364D01*
X140236839Y-89042950D01*
X140236829Y-89042947D01*
X140043543Y-89004500D01*
X140043541Y-89004500D01*
X139846459Y-89004500D01*
X139846457Y-89004500D01*
X139653170Y-89042947D01*
X139653160Y-89042950D01*
X139471092Y-89118364D01*
X139471079Y-89118371D01*
X139307218Y-89227860D01*
X139307214Y-89227863D01*
X139167863Y-89367214D01*
X139167860Y-89367218D01*
X139058371Y-89531079D01*
X139058364Y-89531092D01*
X138982950Y-89713160D01*
X138982947Y-89713170D01*
X138944500Y-89906456D01*
X138944500Y-89906459D01*
X138944500Y-90103541D01*
X138944500Y-90103543D01*
X138944499Y-90103543D01*
X133945500Y-90103543D01*
X133945500Y-89906456D01*
X133907052Y-89713170D01*
X133907051Y-89713169D01*
X133907051Y-89713165D01*
X133904413Y-89706796D01*
X133831635Y-89531092D01*
X133831628Y-89531079D01*
X133722139Y-89367218D01*
X133722136Y-89367214D01*
X133582785Y-89227863D01*
X133582781Y-89227860D01*
X133418920Y-89118371D01*
X133418907Y-89118364D01*
X133236839Y-89042950D01*
X133236829Y-89042947D01*
X133043543Y-89004500D01*
X133043541Y-89004500D01*
X132846459Y-89004500D01*
X132846457Y-89004500D01*
X132653170Y-89042947D01*
X132653160Y-89042950D01*
X132471092Y-89118364D01*
X132471079Y-89118371D01*
X132307218Y-89227860D01*
X132307214Y-89227863D01*
X132167863Y-89367214D01*
X132167860Y-89367218D01*
X132058371Y-89531079D01*
X132058364Y-89531092D01*
X131982950Y-89713160D01*
X131982947Y-89713170D01*
X131944500Y-89906456D01*
X131944500Y-89906459D01*
X131944500Y-90103541D01*
X131944500Y-90103543D01*
X131944499Y-90103543D01*
X130345359Y-90103543D01*
X130328922Y-90071282D01*
X130328916Y-90071272D01*
X130328912Y-90071264D01*
X130246918Y-89937461D01*
X130232588Y-89917738D01*
X130176793Y-89840943D01*
X130176791Y-89840941D01*
X130145471Y-89797832D01*
X130145466Y-89797825D01*
X130102148Y-89747106D01*
X130096622Y-89734775D01*
X130012141Y-89643383D01*
X129983806Y-89613959D01*
X129801512Y-89432252D01*
X128495358Y-88130306D01*
X128377174Y-88029533D01*
X128377161Y-88029524D01*
X128377153Y-88029517D01*
X128237549Y-87928090D01*
X128237537Y-87928082D01*
X128237529Y-87928076D01*
X128103739Y-87846090D01*
X127949943Y-87767727D01*
X127861897Y-87731256D01*
X127804980Y-87707680D01*
X127804974Y-87707678D01*
X127804975Y-87707678D01*
X127804972Y-87707677D01*
X127640810Y-87654337D01*
X127640807Y-87654336D01*
X127640797Y-87654333D01*
X127640793Y-87654332D01*
X127488221Y-87617704D01*
X127317760Y-87590706D01*
X127317725Y-87590701D01*
X127200560Y-87579161D01*
X127200545Y-87579160D01*
X127114282Y-87575771D01*
X127073427Y-87575000D01*
X124948286Y-87578354D01*
X124924617Y-87578392D01*
X124924605Y-87578392D01*
X124769763Y-87590702D01*
X124599278Y-87617704D01*
X124446706Y-87654332D01*
X124446702Y-87654333D01*
X124282525Y-87707678D01*
X124282519Y-87707680D01*
X124156771Y-87759768D01*
X124137557Y-87767727D01*
X123983761Y-87846090D01*
X123983756Y-87846092D01*
X123983756Y-87846093D01*
X123983752Y-87846095D01*
X123849975Y-87928073D01*
X123849950Y-87928090D01*
X123710333Y-88029526D01*
X123591003Y-88131442D01*
X123468942Y-88253503D01*
X123367026Y-88372833D01*
X123265590Y-88512450D01*
X123265573Y-88512475D01*
X123183595Y-88646252D01*
X123183593Y-88646256D01*
X123105227Y-88800057D01*
X123105225Y-88800062D01*
X123045180Y-88945019D01*
X123045178Y-88945025D01*
X122991833Y-89109202D01*
X122991832Y-89109206D01*
X122955204Y-89261778D01*
X122928204Y-89432252D01*
X122928202Y-89432271D01*
X122915891Y-89588689D01*
X116265689Y-89588689D01*
X116396410Y-89481410D01*
X116527685Y-89321450D01*
X116625232Y-89138954D01*
X116685300Y-88940934D01*
X116705583Y-88735000D01*
X116685300Y-88529066D01*
X116625232Y-88331046D01*
X116527685Y-88148550D01*
X116430011Y-88029533D01*
X116396410Y-87988589D01*
X116236452Y-87857317D01*
X116236453Y-87857317D01*
X116236450Y-87857315D01*
X116053954Y-87759768D01*
X115855934Y-87699700D01*
X115855932Y-87699699D01*
X115855934Y-87699699D01*
X115650000Y-87679417D01*
X115444067Y-87699699D01*
X115246043Y-87759769D01*
X115135898Y-87818643D01*
X115063550Y-87857315D01*
X115063548Y-87857316D01*
X115063547Y-87857317D01*
X114903589Y-87988589D01*
X114772317Y-88148547D01*
X114674769Y-88331043D01*
X114614699Y-88529067D01*
X114594417Y-88735000D01*
X114165583Y-88735000D01*
X114145300Y-88529066D01*
X114085232Y-88331046D01*
X113987685Y-88148550D01*
X113890011Y-88029533D01*
X113856410Y-87988589D01*
X113696452Y-87857317D01*
X113696453Y-87857317D01*
X113696450Y-87857315D01*
X113513954Y-87759768D01*
X113315934Y-87699700D01*
X113315932Y-87699699D01*
X113315934Y-87699699D01*
X113110000Y-87679417D01*
X112904067Y-87699699D01*
X112706043Y-87759769D01*
X112595898Y-87818643D01*
X112523550Y-87857315D01*
X112523548Y-87857316D01*
X112523547Y-87857317D01*
X112363589Y-87988589D01*
X112232317Y-88148547D01*
X112134769Y-88331043D01*
X112074699Y-88529067D01*
X112054417Y-88735000D01*
X109510500Y-88735000D01*
X109510500Y-86195000D01*
X112054417Y-86195000D01*
X112074699Y-86400932D01*
X112074700Y-86400934D01*
X112134768Y-86598954D01*
X112232315Y-86781450D01*
X112232317Y-86781452D01*
X112363589Y-86941410D01*
X112460209Y-87020702D01*
X112523550Y-87072685D01*
X112706046Y-87170232D01*
X112904066Y-87230300D01*
X112904065Y-87230300D01*
X112922529Y-87232118D01*
X113110000Y-87250583D01*
X113315934Y-87230300D01*
X113513954Y-87170232D01*
X113696450Y-87072685D01*
X113856410Y-86941410D01*
X113987685Y-86781450D01*
X114085232Y-86598954D01*
X114145300Y-86400934D01*
X114165583Y-86195000D01*
X114594417Y-86195000D01*
X114614699Y-86400932D01*
X114614700Y-86400934D01*
X114674768Y-86598954D01*
X114772315Y-86781450D01*
X114772317Y-86781452D01*
X114903589Y-86941410D01*
X115000209Y-87020702D01*
X115063550Y-87072685D01*
X115246046Y-87170232D01*
X115444066Y-87230300D01*
X115444065Y-87230300D01*
X115462529Y-87232118D01*
X115650000Y-87250583D01*
X115855934Y-87230300D01*
X116053954Y-87170232D01*
X116236450Y-87072685D01*
X116396410Y-86941410D01*
X116527685Y-86781450D01*
X116625232Y-86598954D01*
X116685300Y-86400934D01*
X116705583Y-86195000D01*
X116685300Y-85989066D01*
X116625232Y-85791046D01*
X116527685Y-85608550D01*
X116475702Y-85545209D01*
X116396410Y-85448589D01*
X116236452Y-85317317D01*
X116236453Y-85317317D01*
X116236450Y-85317315D01*
X116053954Y-85219768D01*
X115855934Y-85159700D01*
X115855932Y-85159699D01*
X115855934Y-85159699D01*
X115650000Y-85139417D01*
X115444067Y-85159699D01*
X115246043Y-85219769D01*
X115135898Y-85278643D01*
X115063550Y-85317315D01*
X115063548Y-85317316D01*
X115063547Y-85317317D01*
X114903589Y-85448589D01*
X114772317Y-85608547D01*
X114674769Y-85791043D01*
X114614699Y-85989067D01*
X114594417Y-86195000D01*
X114165583Y-86195000D01*
X114145300Y-85989066D01*
X114085232Y-85791046D01*
X113987685Y-85608550D01*
X113935702Y-85545209D01*
X113856410Y-85448589D01*
X113696452Y-85317317D01*
X113696453Y-85317317D01*
X113696450Y-85317315D01*
X113513954Y-85219768D01*
X113315934Y-85159700D01*
X113315932Y-85159699D01*
X113315934Y-85159699D01*
X113110000Y-85139417D01*
X112904067Y-85159699D01*
X112706043Y-85219769D01*
X112595898Y-85278643D01*
X112523550Y-85317315D01*
X112523548Y-85317316D01*
X112523547Y-85317317D01*
X112363589Y-85448589D01*
X112232317Y-85608547D01*
X112134769Y-85791043D01*
X112074699Y-85989067D01*
X112054417Y-86195000D01*
X109510500Y-86195000D01*
X109510500Y-83655000D01*
X112054417Y-83655000D01*
X112074699Y-83860932D01*
X112074700Y-83860934D01*
X112134768Y-84058954D01*
X112232315Y-84241450D01*
X112232317Y-84241452D01*
X112363589Y-84401410D01*
X112460209Y-84480702D01*
X112523550Y-84532685D01*
X112706046Y-84630232D01*
X112904066Y-84690300D01*
X112904065Y-84690300D01*
X112922529Y-84692118D01*
X113110000Y-84710583D01*
X113315934Y-84690300D01*
X113513954Y-84630232D01*
X113696450Y-84532685D01*
X113856410Y-84401410D01*
X113987685Y-84241450D01*
X114085232Y-84058954D01*
X114145300Y-83860934D01*
X114165583Y-83655000D01*
X114594417Y-83655000D01*
X114614699Y-83860932D01*
X114614700Y-83860934D01*
X114674768Y-84058954D01*
X114772315Y-84241450D01*
X114772317Y-84241452D01*
X114903589Y-84401410D01*
X115000209Y-84480702D01*
X115063550Y-84532685D01*
X115246046Y-84630232D01*
X115444066Y-84690300D01*
X115444065Y-84690300D01*
X115462529Y-84692118D01*
X115650000Y-84710583D01*
X115855934Y-84690300D01*
X116053954Y-84630232D01*
X116236450Y-84532685D01*
X116396410Y-84401410D01*
X116527685Y-84241450D01*
X116625232Y-84058954D01*
X116685300Y-83860934D01*
X116705583Y-83655000D01*
X116685300Y-83449066D01*
X116625232Y-83251046D01*
X116527685Y-83068550D01*
X116475702Y-83005209D01*
X116396410Y-82908589D01*
X116236452Y-82777317D01*
X116236453Y-82777317D01*
X116236450Y-82777315D01*
X116053954Y-82679768D01*
X115855934Y-82619700D01*
X115855932Y-82619699D01*
X115855934Y-82619699D01*
X115650000Y-82599417D01*
X115444067Y-82619699D01*
X115246043Y-82679769D01*
X115135898Y-82738643D01*
X115063550Y-82777315D01*
X115063548Y-82777316D01*
X115063547Y-82777317D01*
X114903589Y-82908589D01*
X114772317Y-83068547D01*
X114674769Y-83251043D01*
X114614699Y-83449067D01*
X114594417Y-83655000D01*
X114165583Y-83655000D01*
X114145300Y-83449066D01*
X114085232Y-83251046D01*
X113987685Y-83068550D01*
X113935702Y-83005209D01*
X113856410Y-82908589D01*
X113696452Y-82777317D01*
X113696453Y-82777317D01*
X113696450Y-82777315D01*
X113513954Y-82679768D01*
X113315934Y-82619700D01*
X113315932Y-82619699D01*
X113315934Y-82619699D01*
X113110000Y-82599417D01*
X112904067Y-82619699D01*
X112706043Y-82679769D01*
X112595898Y-82738643D01*
X112523550Y-82777315D01*
X112523548Y-82777316D01*
X112523547Y-82777317D01*
X112363589Y-82908589D01*
X112232317Y-83068547D01*
X112134769Y-83251043D01*
X112074699Y-83449067D01*
X112054417Y-83655000D01*
X109510500Y-83655000D01*
X109510500Y-75711961D01*
X109511280Y-75698077D01*
X109511280Y-75698076D01*
X109521459Y-75607731D01*
X109527635Y-75580670D01*
X109555353Y-75501456D01*
X109567396Y-75476450D01*
X109612046Y-75405389D01*
X109629351Y-75383690D01*
X109688690Y-75324351D01*
X109710389Y-75307046D01*
X109781450Y-75262396D01*
X109806456Y-75250353D01*
X109885670Y-75222635D01*
X109912733Y-75216459D01*
X109975419Y-75209396D01*
X110003079Y-75206280D01*
X110016962Y-75205500D01*
X110075892Y-75205500D01*
X112169604Y-75205500D01*
X112236643Y-75225185D01*
G37*
%TD.AperFunction*%
%TA.AperFunction,Conductor*%
G36*
X115184075Y-101242007D02*
G01*
X115150000Y-101369174D01*
X115150000Y-101500826D01*
X115184075Y-101627993D01*
X115216988Y-101685000D01*
X113543012Y-101685000D01*
X113575925Y-101627993D01*
X113610000Y-101500826D01*
X113610000Y-101369174D01*
X113575925Y-101242007D01*
X113543012Y-101185000D01*
X115216988Y-101185000D01*
X115184075Y-101242007D01*
G37*
%TD.AperFunction*%
%TA.AperFunction,Conductor*%
G36*
X113360000Y-101001988D02*
G01*
X113302993Y-100969075D01*
X113175826Y-100935000D01*
X113044174Y-100935000D01*
X112917007Y-100969075D01*
X112860000Y-101001988D01*
X112860000Y-99328012D01*
X112917007Y-99360925D01*
X113044174Y-99395000D01*
X113175826Y-99395000D01*
X113302993Y-99360925D01*
X113360000Y-99328012D01*
X113360000Y-101001988D01*
G37*
%TD.AperFunction*%
%TA.AperFunction,Conductor*%
G36*
X115184075Y-78382007D02*
G01*
X115150000Y-78509174D01*
X115150000Y-78640826D01*
X115184075Y-78767993D01*
X115216988Y-78825000D01*
X113543012Y-78825000D01*
X113575925Y-78767993D01*
X113610000Y-78640826D01*
X113610000Y-78509174D01*
X113575925Y-78382007D01*
X113543012Y-78325000D01*
X115216988Y-78325000D01*
X115184075Y-78382007D01*
G37*
%TD.AperFunction*%
%TD*%
M02*
