%TF.GenerationSoftware,KiCad,Pcbnew,8.99.0-unknown-77b1d367df~178~ubuntu23.10.1*%
%TF.CreationDate,2024-11-09T00:31:48-05:00*%
%TF.ProjectId,24PinINA333,32345069-6e49-44e4-9133-33332e6b6963,rev?*%
%TF.SameCoordinates,Original*%
%TF.FileFunction,Soldermask,Top*%
%TF.FilePolarity,Negative*%
%FSLAX46Y46*%
G04 Gerber Fmt 4.6, Leading zero omitted, Abs format (unit mm)*
G04 Created by KiCad (PCBNEW 8.99.0-unknown-77b1d367df~178~ubuntu23.10.1) date 2024-11-09 00:31:48*
%MOMM*%
%LPD*%
G01*
G04 APERTURE LIST*
G04 Aperture macros list*
%AMRoundRect*
0 Rectangle with rounded corners*
0 $1 Rounding radius*
0 $2 $3 $4 $5 $6 $7 $8 $9 X,Y pos of 4 corners*
0 Add a 4 corners polygon primitive as box body*
4,1,4,$2,$3,$4,$5,$6,$7,$8,$9,$2,$3,0*
0 Add four circle primitives for the rounded corners*
1,1,$1+$1,$2,$3*
1,1,$1+$1,$4,$5*
1,1,$1+$1,$6,$7*
1,1,$1+$1,$8,$9*
0 Add four rect primitives between the rounded corners*
20,1,$1+$1,$2,$3,$4,$5,0*
20,1,$1+$1,$4,$5,$6,$7,0*
20,1,$1+$1,$6,$7,$8,$9,0*
20,1,$1+$1,$8,$9,$2,$3,0*%
G04 Aperture macros list end*
%ADD10RoundRect,0.225000X-0.250000X0.225000X-0.250000X-0.225000X0.250000X-0.225000X0.250000X0.225000X0*%
%ADD11RoundRect,0.225000X-0.225000X-0.250000X0.225000X-0.250000X0.225000X0.250000X-0.225000X0.250000X0*%
%ADD12RoundRect,0.150000X-0.512500X-0.150000X0.512500X-0.150000X0.512500X0.150000X-0.512500X0.150000X0*%
%ADD13RoundRect,0.125000X0.687500X0.125000X-0.687500X0.125000X-0.687500X-0.125000X0.687500X-0.125000X0*%
%ADD14RoundRect,0.250000X0.312500X0.625000X-0.312500X0.625000X-0.312500X-0.625000X0.312500X-0.625000X0*%
%ADD15RoundRect,0.225000X0.225000X0.250000X-0.225000X0.250000X-0.225000X-0.250000X0.225000X-0.250000X0*%
%ADD16R,1.250000X0.300000*%
%ADD17R,3.000000X2.000000*%
%ADD18RoundRect,0.200000X0.200000X0.275000X-0.200000X0.275000X-0.200000X-0.275000X0.200000X-0.275000X0*%
%ADD19R,1.700000X1.700000*%
%ADD20O,1.700000X1.700000*%
G04 APERTURE END LIST*
D10*
%TO.C,C6*%
X122600000Y-78825000D03*
X122600000Y-80375000D03*
%TD*%
D11*
%TO.C,C4*%
X130725000Y-83925000D03*
X132275000Y-83925000D03*
%TD*%
D12*
%TO.C,U4*%
X118662500Y-77650000D03*
X118662500Y-78600000D03*
X118662500Y-79550000D03*
X120937500Y-79550000D03*
X120937500Y-78600000D03*
X120937500Y-77650000D03*
%TD*%
D13*
%TO.C,U1*%
X133612500Y-94475000D03*
X133612500Y-93825000D03*
X133612500Y-93175000D03*
X133612500Y-92525000D03*
X129387500Y-92525000D03*
X129387500Y-93175000D03*
X129387500Y-93825000D03*
X129387500Y-94475000D03*
%TD*%
D14*
%TO.C,R1*%
X132955000Y-96425000D03*
X130030000Y-96425000D03*
%TD*%
D15*
%TO.C,C5*%
X120575000Y-81100000D03*
X119025000Y-81100000D03*
%TD*%
D13*
%TO.C,U2*%
X133612500Y-87475000D03*
X133612500Y-86825000D03*
X133612500Y-86175000D03*
X133612500Y-85525000D03*
X129387500Y-85525000D03*
X129387500Y-86175000D03*
X129387500Y-86825000D03*
X129387500Y-87475000D03*
%TD*%
D11*
%TO.C,C2*%
X130617500Y-90925000D03*
X132167500Y-90925000D03*
%TD*%
D10*
%TO.C,C3*%
X127500000Y-87350000D03*
X127500000Y-88900000D03*
%TD*%
D16*
%TO.C,J2*%
X138650000Y-95750000D03*
X138650000Y-95250000D03*
X138650000Y-94750000D03*
X138650000Y-94250000D03*
X138650000Y-93750000D03*
X138650000Y-93250000D03*
X138650000Y-92750000D03*
X138650000Y-92250000D03*
X138650000Y-91750000D03*
X138650000Y-91250000D03*
X138650000Y-90750000D03*
X138650000Y-90250000D03*
X138650000Y-89750000D03*
X138650000Y-89250000D03*
X138650000Y-88750000D03*
X138650000Y-88250000D03*
X138650000Y-87750000D03*
X138650000Y-87250000D03*
X138650000Y-86750000D03*
X138650000Y-86250000D03*
X138650000Y-85750000D03*
X138650000Y-85250000D03*
X138650000Y-84750000D03*
X138650000Y-84250000D03*
D17*
X140975000Y-97290000D03*
X140975000Y-82710000D03*
%TD*%
D15*
%TO.C,C7*%
X120575000Y-76100000D03*
X119025000Y-76100000D03*
%TD*%
D18*
%TO.C,R2*%
X132325000Y-89025000D03*
X130675000Y-89025000D03*
%TD*%
D10*
%TO.C,C1*%
X127492500Y-94350000D03*
X127492500Y-95900000D03*
%TD*%
D19*
%TO.C,J1*%
X115650000Y-103975000D03*
D20*
X113110000Y-103975000D03*
X115650000Y-101435000D03*
X113110000Y-101435000D03*
X115650000Y-98895000D03*
X113110000Y-98895000D03*
X115650000Y-96355000D03*
X113110000Y-96355000D03*
X115650000Y-93815000D03*
X113110000Y-93815000D03*
X115650000Y-91275000D03*
X113110000Y-91275000D03*
X115650000Y-88735000D03*
X113110000Y-88735000D03*
X115650000Y-86195000D03*
X113110000Y-86195000D03*
X115650000Y-83655000D03*
X113110000Y-83655000D03*
X115650000Y-81115000D03*
X113110000Y-81115000D03*
X115650000Y-78575000D03*
X113110000Y-78575000D03*
X115650000Y-76035000D03*
X113110000Y-76035000D03*
%TD*%
M02*
