M48
; DRILL file {KiCad 8.99.0-unknown-77b1d367df~178~ubuntu23.10.1} date 2024-11-09T00:31:48-0500
; FORMAT={-:-/ absolute / inch / decimal}
; #@! TF.CreationDate,2024-11-09T00:31:48-05:00
; #@! TF.GenerationSoftware,Kicad,Pcbnew,8.99.0-unknown-77b1d367df~178~ubuntu23.10.1
; #@! TF.FileFunction,Plated,1,4,PTH
FMAT,2
INCH
; #@! TA.AperFunction,Plated,PTH,ViaDrill
T1C0.0118
; #@! TA.AperFunction,Plated,PTH,ComponentDrill
T2C0.0394
%
G90
G05
T1
X4.6303Y-3.0567
X4.6315Y-3.0945
X4.6488Y-3.1929
X4.6535Y-2.9957
X4.7472Y-3.2276
X4.8114Y-3.0571
X4.8272Y-3.1953
X4.9819Y-3.7146
X4.9843Y-3.439
X5.0193Y-3.8102
X5.0197Y-3.5319
X5.1421Y-3.5472
X5.1469Y-3.2685
X5.2406Y-3.5799
X5.2457Y-3.3039
X5.3138Y-3.3539
X5.3177Y-3.6252
T2
X4.4531Y-2.9935
X4.4531Y-3.0935
X4.4531Y-3.1935
X4.4531Y-3.2935
X4.4531Y-3.3935
X4.4531Y-3.4935
X4.4531Y-3.5935
X4.4531Y-3.6935
X4.4531Y-3.7935
X4.4531Y-3.8935
X4.4531Y-3.9935
X4.4531Y-4.0935
X4.5531Y-2.9935
X4.5531Y-3.0935
X4.5531Y-3.1935
X4.5531Y-3.2935
X4.5531Y-3.3935
X4.5531Y-3.4935
X4.5531Y-3.5935
X4.5531Y-3.6935
X4.5531Y-3.7935
X4.5531Y-3.8935
X4.5531Y-3.9935
X4.5531Y-4.0935
M30
