%TF.GenerationSoftware,KiCad,Pcbnew,8.0.3-8.0.3-0~ubuntu23.10.1*%
%TF.CreationDate,2024-10-20T15:16:08-04:00*%
%TF.ProjectId,24Pin,32345069-6e2e-46b6-9963-61645f706362,rev?*%
%TF.SameCoordinates,Original*%
%TF.FileFunction,Legend,Top*%
%TF.FilePolarity,Positive*%
%FSLAX46Y46*%
G04 Gerber Fmt 4.6, Leading zero omitted, Abs format (unit mm)*
G04 Created by KiCad (PCBNEW 8.0.3-8.0.3-0~ubuntu23.10.1) date 2024-10-20 15:16:08*
%MOMM*%
%LPD*%
G01*
G04 APERTURE LIST*
%ADD10C,0.150000*%
%ADD11C,0.120000*%
%ADD12R,1.250000X0.300000*%
%ADD13R,3.000000X2.000000*%
%ADD14R,1.700000X1.700000*%
%ADD15O,1.700000X1.700000*%
G04 APERTURE END LIST*
D10*
X109661666Y-105699819D02*
X109661666Y-106414104D01*
X109661666Y-106414104D02*
X109614047Y-106556961D01*
X109614047Y-106556961D02*
X109518809Y-106652200D01*
X109518809Y-106652200D02*
X109375952Y-106699819D01*
X109375952Y-106699819D02*
X109280714Y-106699819D01*
X110661666Y-106699819D02*
X110090238Y-106699819D01*
X110375952Y-106699819D02*
X110375952Y-105699819D01*
X110375952Y-105699819D02*
X110280714Y-105842676D01*
X110280714Y-105842676D02*
X110185476Y-105937914D01*
X110185476Y-105937914D02*
X110090238Y-105985533D01*
D11*
%TO.C,J2*%
X139450000Y-95550000D02*
X139450000Y-95950000D01*
X139450000Y-95950000D02*
X139850000Y-95750000D01*
X139850000Y-95750000D02*
X139450000Y-95550000D01*
X142040000Y-81175000D02*
X142640000Y-81175000D01*
X142040000Y-81285000D02*
X142040000Y-81175000D01*
X142040000Y-98715000D02*
X142040000Y-98825000D01*
X142040000Y-98825000D02*
X142640000Y-98825000D01*
%TO.C,J1*%
X103010000Y-75655000D02*
X109010000Y-75655000D01*
X103010000Y-76415000D02*
X103010000Y-75655000D01*
X103010000Y-78195000D02*
X109010000Y-78195000D01*
X103010000Y-78955000D02*
X103010000Y-78195000D01*
X103010000Y-80735000D02*
X109010000Y-80735000D01*
X103010000Y-81495000D02*
X103010000Y-80735000D01*
X103010000Y-83275000D02*
X109010000Y-83275000D01*
X103010000Y-84035000D02*
X103010000Y-83275000D01*
X103010000Y-85815000D02*
X109010000Y-85815000D01*
X103010000Y-86575000D02*
X103010000Y-85815000D01*
X103010000Y-88355000D02*
X109010000Y-88355000D01*
X103010000Y-89115000D02*
X103010000Y-88355000D01*
X103010000Y-90895000D02*
X109010000Y-90895000D01*
X103010000Y-91655000D02*
X103010000Y-90895000D01*
X103010000Y-93435000D02*
X109010000Y-93435000D01*
X103010000Y-94195000D02*
X103010000Y-93435000D01*
X103010000Y-95975000D02*
X109010000Y-95975000D01*
X103010000Y-96735000D02*
X103010000Y-95975000D01*
X103010000Y-98515000D02*
X109010000Y-98515000D01*
X103010000Y-99275000D02*
X103010000Y-98515000D01*
X103010000Y-101055000D02*
X109010000Y-101055000D01*
X103010000Y-101815000D02*
X103010000Y-101055000D01*
X103010000Y-103595000D02*
X109010000Y-103595000D01*
X103010000Y-104355000D02*
X103010000Y-103595000D01*
X109010000Y-74705000D02*
X109010000Y-105305000D01*
X109010000Y-76415000D02*
X103010000Y-76415000D01*
X109010000Y-78955000D02*
X103010000Y-78955000D01*
X109010000Y-81495000D02*
X103010000Y-81495000D01*
X109010000Y-84035000D02*
X103010000Y-84035000D01*
X109010000Y-86575000D02*
X103010000Y-86575000D01*
X109010000Y-89115000D02*
X103010000Y-89115000D01*
X109010000Y-91655000D02*
X103010000Y-91655000D01*
X109010000Y-94195000D02*
X103010000Y-94195000D01*
X109010000Y-96735000D02*
X103010000Y-96735000D01*
X109010000Y-99275000D02*
X103010000Y-99275000D01*
X109010000Y-101815000D02*
X103010000Y-101815000D01*
X109010000Y-103695000D02*
X103010000Y-103695000D01*
X109010000Y-103815000D02*
X103010000Y-103815000D01*
X109010000Y-103935000D02*
X103010000Y-103935000D01*
X109010000Y-104055000D02*
X103010000Y-104055000D01*
X109010000Y-104175000D02*
X103010000Y-104175000D01*
X109010000Y-104295000D02*
X103010000Y-104295000D01*
X109010000Y-104355000D02*
X103010000Y-104355000D01*
X109010000Y-105305000D02*
X111670000Y-105305000D01*
X111670000Y-74705000D02*
X109010000Y-74705000D01*
X111670000Y-77305000D02*
X109010000Y-77305000D01*
X111670000Y-79845000D02*
X109010000Y-79845000D01*
X111670000Y-82385000D02*
X109010000Y-82385000D01*
X111670000Y-84925000D02*
X109010000Y-84925000D01*
X111670000Y-87465000D02*
X109010000Y-87465000D01*
X111670000Y-90005000D02*
X109010000Y-90005000D01*
X111670000Y-92545000D02*
X109010000Y-92545000D01*
X111670000Y-95085000D02*
X109010000Y-95085000D01*
X111670000Y-97625000D02*
X109010000Y-97625000D01*
X111670000Y-100165000D02*
X109010000Y-100165000D01*
X111670000Y-102705000D02*
X109010000Y-102705000D01*
X111670000Y-105305000D02*
X111670000Y-74705000D01*
X112067071Y-75655000D02*
X111670000Y-75655000D01*
X112067071Y-76415000D02*
X111670000Y-76415000D01*
X112067071Y-78195000D02*
X111670000Y-78195000D01*
X112067071Y-78955000D02*
X111670000Y-78955000D01*
X112067071Y-80735000D02*
X111670000Y-80735000D01*
X112067071Y-81495000D02*
X111670000Y-81495000D01*
X112067071Y-83275000D02*
X111670000Y-83275000D01*
X112067071Y-84035000D02*
X111670000Y-84035000D01*
X112067071Y-85815000D02*
X111670000Y-85815000D01*
X112067071Y-86575000D02*
X111670000Y-86575000D01*
X112067071Y-88355000D02*
X111670000Y-88355000D01*
X112067071Y-89115000D02*
X111670000Y-89115000D01*
X112067071Y-90895000D02*
X111670000Y-90895000D01*
X112067071Y-91655000D02*
X111670000Y-91655000D01*
X112067071Y-93435000D02*
X111670000Y-93435000D01*
X112067071Y-94195000D02*
X111670000Y-94195000D01*
X112067071Y-95975000D02*
X111670000Y-95975000D01*
X112067071Y-96735000D02*
X111670000Y-96735000D01*
X112067071Y-98515000D02*
X111670000Y-98515000D01*
X112067071Y-99275000D02*
X111670000Y-99275000D01*
X112067071Y-101055000D02*
X111670000Y-101055000D01*
X112067071Y-101815000D02*
X111670000Y-101815000D01*
X112067071Y-103595000D02*
X111670000Y-103595000D01*
X112067071Y-104355000D02*
X111670000Y-104355000D01*
X114540000Y-103595000D02*
X114152929Y-103595000D01*
X114540000Y-104355000D02*
X114152929Y-104355000D01*
X114607071Y-75655000D02*
X114152929Y-75655000D01*
X114607071Y-76415000D02*
X114152929Y-76415000D01*
X114607071Y-78195000D02*
X114152929Y-78195000D01*
X114607071Y-78955000D02*
X114152929Y-78955000D01*
X114607071Y-80735000D02*
X114152929Y-80735000D01*
X114607071Y-81495000D02*
X114152929Y-81495000D01*
X114607071Y-83275000D02*
X114152929Y-83275000D01*
X114607071Y-84035000D02*
X114152929Y-84035000D01*
X114607071Y-85815000D02*
X114152929Y-85815000D01*
X114607071Y-86575000D02*
X114152929Y-86575000D01*
X114607071Y-88355000D02*
X114152929Y-88355000D01*
X114607071Y-89115000D02*
X114152929Y-89115000D01*
X114607071Y-90895000D02*
X114152929Y-90895000D01*
X114607071Y-91655000D02*
X114152929Y-91655000D01*
X114607071Y-93435000D02*
X114152929Y-93435000D01*
X114607071Y-94195000D02*
X114152929Y-94195000D01*
X114607071Y-95975000D02*
X114152929Y-95975000D01*
X114607071Y-96735000D02*
X114152929Y-96735000D01*
X114607071Y-98515000D02*
X114152929Y-98515000D01*
X114607071Y-99275000D02*
X114152929Y-99275000D01*
X114607071Y-101055000D02*
X114152929Y-101055000D01*
X114607071Y-101815000D02*
X114152929Y-101815000D01*
X116920000Y-103975000D02*
X116920000Y-105245000D01*
X116920000Y-105245000D02*
X115650000Y-105245000D01*
%TD*%
%LPC*%
D12*
%TO.C,J2*%
X138650000Y-95750000D03*
X138650000Y-95250000D03*
X138650000Y-94750000D03*
X138650000Y-94250000D03*
X138650000Y-93750000D03*
X138650000Y-93250000D03*
X138650000Y-92750000D03*
X138650000Y-92250000D03*
X138650000Y-91750000D03*
X138650000Y-91250000D03*
X138650000Y-90750000D03*
X138650000Y-90250000D03*
X138650000Y-89750000D03*
X138650000Y-89250000D03*
X138650000Y-88750000D03*
X138650000Y-88250000D03*
X138650000Y-87750000D03*
X138650000Y-87250000D03*
X138650000Y-86750000D03*
X138650000Y-86250000D03*
X138650000Y-85750000D03*
X138650000Y-85250000D03*
X138650000Y-84750000D03*
X138650000Y-84250000D03*
D13*
X140975000Y-97290000D03*
X140975000Y-82710000D03*
%TD*%
D14*
%TO.C,J1*%
X115650000Y-103975000D03*
D15*
X113110000Y-103975000D03*
X115650000Y-101435000D03*
X113110000Y-101435000D03*
X115650000Y-98895000D03*
X113110000Y-98895000D03*
X115650000Y-96355000D03*
X113110000Y-96355000D03*
X115650000Y-93815000D03*
X113110000Y-93815000D03*
X115650000Y-91275000D03*
X113110000Y-91275000D03*
X115650000Y-88735000D03*
X113110000Y-88735000D03*
X115650000Y-86195000D03*
X113110000Y-86195000D03*
X115650000Y-83655000D03*
X113110000Y-83655000D03*
X115650000Y-81115000D03*
X113110000Y-81115000D03*
X115650000Y-78575000D03*
X113110000Y-78575000D03*
X115650000Y-76035000D03*
X113110000Y-76035000D03*
%TD*%
%LPD*%
M02*
