%TF.GenerationSoftware,KiCad,Pcbnew,8.0.3-8.0.3-0~ubuntu23.10.1*%
%TF.CreationDate,2024-10-20T15:16:08-04:00*%
%TF.ProjectId,24Pin,32345069-6e2e-46b6-9963-61645f706362,rev?*%
%TF.SameCoordinates,Original*%
%TF.FileFunction,Soldermask,Top*%
%TF.FilePolarity,Negative*%
%FSLAX46Y46*%
G04 Gerber Fmt 4.6, Leading zero omitted, Abs format (unit mm)*
G04 Created by KiCad (PCBNEW 8.0.3-8.0.3-0~ubuntu23.10.1) date 2024-10-20 15:16:08*
%MOMM*%
%LPD*%
G01*
G04 APERTURE LIST*
%ADD10R,1.250000X0.300000*%
%ADD11R,3.000000X2.000000*%
%ADD12R,1.700000X1.700000*%
%ADD13O,1.700000X1.700000*%
G04 APERTURE END LIST*
D10*
%TO.C,J2*%
X138650000Y-95750000D03*
X138650000Y-95250000D03*
X138650000Y-94750000D03*
X138650000Y-94250000D03*
X138650000Y-93750000D03*
X138650000Y-93250000D03*
X138650000Y-92750000D03*
X138650000Y-92250000D03*
X138650000Y-91750000D03*
X138650000Y-91250000D03*
X138650000Y-90750000D03*
X138650000Y-90250000D03*
X138650000Y-89750000D03*
X138650000Y-89250000D03*
X138650000Y-88750000D03*
X138650000Y-88250000D03*
X138650000Y-87750000D03*
X138650000Y-87250000D03*
X138650000Y-86750000D03*
X138650000Y-86250000D03*
X138650000Y-85750000D03*
X138650000Y-85250000D03*
X138650000Y-84750000D03*
X138650000Y-84250000D03*
D11*
X140975000Y-97290000D03*
X140975000Y-82710000D03*
%TD*%
D12*
%TO.C,J1*%
X115650000Y-103975000D03*
D13*
X113110000Y-103975000D03*
X115650000Y-101435000D03*
X113110000Y-101435000D03*
X115650000Y-98895000D03*
X113110000Y-98895000D03*
X115650000Y-96355000D03*
X113110000Y-96355000D03*
X115650000Y-93815000D03*
X113110000Y-93815000D03*
X115650000Y-91275000D03*
X113110000Y-91275000D03*
X115650000Y-88735000D03*
X113110000Y-88735000D03*
X115650000Y-86195000D03*
X113110000Y-86195000D03*
X115650000Y-83655000D03*
X113110000Y-83655000D03*
X115650000Y-81115000D03*
X113110000Y-81115000D03*
X115650000Y-78575000D03*
X113110000Y-78575000D03*
X115650000Y-76035000D03*
X113110000Y-76035000D03*
%TD*%
M02*
