M48
; DRILL file {KiCad 8.0.3-8.0.3-0~ubuntu23.10.1} date 2024-10-20T15:16:08-0400
; FORMAT={-:-/ absolute / inch / decimal}
; #@! TF.CreationDate,2024-10-20T15:16:08-04:00
; #@! TF.GenerationSoftware,Kicad,Pcbnew,8.0.3-8.0.3-0~ubuntu23.10.1
; #@! TF.FileFunction,Plated,1,2,PTH
FMAT,2
INCH
; #@! TA.AperFunction,Plated,PTH,ViaDrill
T1C0.0118
; #@! TA.AperFunction,Plated,PTH,ComponentDrill
T2C0.0394
%
G90
G05
T1
X4.3928Y-3.0346
X4.3928Y-3.1346
X4.3928Y-3.2346
X4.3928Y-3.3346
X4.3928Y-3.4346
X4.3928Y-3.5346
X4.3928Y-3.6346
X4.3928Y-3.7346
X4.3928Y-3.8346
X4.3928Y-3.9346
X4.3928Y-4.0346
X4.685Y-3.5433
X4.6928Y-3.0346
X4.6928Y-4.0346
X4.7928Y-3.0346
X4.7928Y-4.0346
X4.8031Y-3.5433
X4.8928Y-3.0346
X4.8928Y-4.0346
X4.9213Y-3.5433
X4.9928Y-3.0346
X4.9928Y-4.0346
X5.0928Y-3.0346
X5.0928Y-4.0346
X5.1928Y-3.0346
X5.1928Y-3.1346
X5.1928Y-3.9346
X5.1928Y-4.0346
X5.2928Y-3.0346
X5.2928Y-3.2346
X5.2928Y-3.8346
X5.2928Y-3.9346
X5.2928Y-4.0346
X5.3928Y-3.0346
X5.3928Y-3.1346
X5.3928Y-3.8346
X5.3928Y-4.0346
X5.3937Y-3.3465
X5.3937Y-3.7402
X5.4928Y-3.0346
X5.4928Y-3.1346
X5.4928Y-3.9346
X5.4928Y-4.0346
X5.5928Y-3.0346
X5.5928Y-3.1346
X5.5928Y-3.3346
X5.5928Y-3.4346
X5.5928Y-3.5346
X5.5928Y-3.6346
X5.5928Y-3.7346
X5.5928Y-3.9346
X5.5928Y-4.0346
T2
X4.4531Y-2.9935
X4.4531Y-3.0935
X4.4531Y-3.1935
X4.4531Y-3.2935
X4.4531Y-3.3935
X4.4531Y-3.4935
X4.4531Y-3.5935
X4.4531Y-3.6935
X4.4531Y-3.7935
X4.4531Y-3.8935
X4.4531Y-3.9935
X4.4531Y-4.0935
X4.5531Y-2.9935
X4.5531Y-3.0935
X4.5531Y-3.1935
X4.5531Y-3.2935
X4.5531Y-3.3935
X4.5531Y-3.4935
X4.5531Y-3.5935
X4.5531Y-3.6935
X4.5531Y-3.7935
X4.5531Y-3.8935
X4.5531Y-3.9935
X4.5531Y-4.0935
M30
