%TF.GenerationSoftware,KiCad,Pcbnew,8.0.3-8.0.3-0~ubuntu23.10.1*%
%TF.CreationDate,2024-10-20T15:16:08-04:00*%
%TF.ProjectId,24Pin,32345069-6e2e-46b6-9963-61645f706362,rev?*%
%TF.SameCoordinates,Original*%
%TF.FileFunction,Copper,L1,Top*%
%TF.FilePolarity,Positive*%
%FSLAX46Y46*%
G04 Gerber Fmt 4.6, Leading zero omitted, Abs format (unit mm)*
G04 Created by KiCad (PCBNEW 8.0.3-8.0.3-0~ubuntu23.10.1) date 2024-10-20 15:16:08*
%MOMM*%
%LPD*%
G01*
G04 APERTURE LIST*
%TA.AperFunction,SMDPad,CuDef*%
%ADD10R,1.250000X0.300000*%
%TD*%
%TA.AperFunction,SMDPad,CuDef*%
%ADD11R,3.000000X2.000000*%
%TD*%
%TA.AperFunction,ComponentPad*%
%ADD12R,1.700000X1.700000*%
%TD*%
%TA.AperFunction,ComponentPad*%
%ADD13O,1.700000X1.700000*%
%TD*%
%TA.AperFunction,ViaPad*%
%ADD14C,0.600000*%
%TD*%
%TA.AperFunction,Conductor*%
%ADD15C,0.200000*%
%TD*%
G04 APERTURE END LIST*
D10*
%TO.P,J2,1,Pin_1*%
%TO.N,GND*%
X138650000Y-95750000D03*
%TO.P,J2,2,Pin_2*%
X138650000Y-95250000D03*
%TO.P,J2,3,Pin_3*%
X138650000Y-94750000D03*
%TO.P,J2,4,Pin_4*%
X138650000Y-94250000D03*
%TO.P,J2,5,Pin_5*%
%TO.N,/IN0-*%
X138650000Y-93750000D03*
%TO.P,J2,6,Pin_6*%
%TO.N,/IN0+*%
X138650000Y-93250000D03*
%TO.P,J2,7,Pin_7*%
%TO.N,/IN1+*%
X138650000Y-92750000D03*
%TO.P,J2,8,Pin_8*%
%TO.N,/IN1-*%
X138650000Y-92250000D03*
%TO.P,J2,9,Pin_9*%
%TO.N,/IN2-*%
X138650000Y-91750000D03*
%TO.P,J2,10,Pin_10*%
%TO.N,/IN2+*%
X138650000Y-91250000D03*
%TO.P,J2,11,Pin_11*%
%TO.N,/IN3+*%
X138650000Y-90750000D03*
%TO.P,J2,12,Pin_12*%
%TO.N,/IN3-*%
X138650000Y-90250000D03*
%TO.P,J2,13,Pin_13*%
%TO.N,/IN4+*%
X138650000Y-89750000D03*
%TO.P,J2,14,Pin_14*%
%TO.N,/IN4-*%
X138650000Y-89250000D03*
%TO.P,J2,15,Pin_15*%
%TO.N,/IN5-*%
X138650000Y-88750000D03*
%TO.P,J2,16,Pin_16*%
%TO.N,/IN5+*%
X138650000Y-88250000D03*
%TO.P,J2,17,Pin_17*%
%TO.N,/IN6+*%
X138650000Y-87750000D03*
%TO.P,J2,18,Pin_18*%
%TO.N,/IN6-*%
X138650000Y-87250000D03*
%TO.P,J2,19,Pin_19*%
%TO.N,/IN7-*%
X138650000Y-86750000D03*
%TO.P,J2,20,Pin_20*%
%TO.N,/IN7+*%
X138650000Y-86250000D03*
%TO.P,J2,21,Pin_21*%
%TO.N,GND*%
X138650000Y-85750000D03*
%TO.P,J2,22,Pin_22*%
X138650000Y-85250000D03*
%TO.P,J2,23,Pin_23*%
X138650000Y-84750000D03*
%TO.P,J2,24,Pin_24*%
X138650000Y-84250000D03*
D11*
%TO.P,J2,MP,MountPin*%
X140975000Y-97290000D03*
X140975000Y-82710000D03*
%TD*%
D12*
%TO.P,J1,1,Pin_1*%
%TO.N,/SDA{slash}A4*%
X115650000Y-103975000D03*
D13*
%TO.P,J1,2,Pin_2*%
%TO.N,/SCL{slash}A5*%
X113110000Y-103975000D03*
%TO.P,J1,3,Pin_3*%
%TO.N,GND*%
X115650000Y-101435000D03*
%TO.P,J1,4,Pin_4*%
X113110000Y-101435000D03*
%TO.P,J1,5,Pin_5*%
%TO.N,/IN0+*%
X115650000Y-98895000D03*
%TO.P,J1,6,Pin_6*%
%TO.N,/IN0-*%
X113110000Y-98895000D03*
%TO.P,J1,7,Pin_7*%
%TO.N,/IN1-*%
X115650000Y-96355000D03*
%TO.P,J1,8,Pin_8*%
%TO.N,/IN1+*%
X113110000Y-96355000D03*
%TO.P,J1,9,Pin_9*%
%TO.N,/IN2+*%
X115650000Y-93815000D03*
%TO.P,J1,10,Pin_10*%
%TO.N,/IN2-*%
X113110000Y-93815000D03*
%TO.P,J1,11,Pin_11*%
%TO.N,/IN3-*%
X115650000Y-91275000D03*
%TO.P,J1,12,Pin_12*%
%TO.N,/IN3+*%
X113110000Y-91275000D03*
%TO.P,J1,13,Pin_13*%
%TO.N,/IN4+*%
X115650000Y-88735000D03*
%TO.P,J1,14,Pin_14*%
%TO.N,/IN4-*%
X113110000Y-88735000D03*
%TO.P,J1,15,Pin_15*%
%TO.N,/IN5-*%
X115650000Y-86195000D03*
%TO.P,J1,16,Pin_16*%
%TO.N,/IN5+*%
X113110000Y-86195000D03*
%TO.P,J1,17,Pin_17*%
%TO.N,/IN6+*%
X115650000Y-83655000D03*
%TO.P,J1,18,Pin_18*%
%TO.N,/IN6-*%
X113110000Y-83655000D03*
%TO.P,J1,19,Pin_19*%
%TO.N,/IN7-*%
X115650000Y-81115000D03*
%TO.P,J1,20,Pin_20*%
%TO.N,/IN7+*%
X113110000Y-81115000D03*
%TO.P,J1,21,Pin_21*%
%TO.N,GND*%
X115650000Y-78575000D03*
%TO.P,J1,22,Pin_22*%
X113110000Y-78575000D03*
%TO.P,J1,23,Pin_23*%
%TO.N,/A0*%
X115650000Y-76035000D03*
%TO.P,J1,24,Pin_24*%
%TO.N,VIN*%
X113110000Y-76035000D03*
%TD*%
D14*
%TO.N,GND*%
X142057618Y-102480000D03*
X142057618Y-99940000D03*
X142057618Y-94860000D03*
X142057618Y-92320000D03*
X142057618Y-89780000D03*
X142057618Y-87240000D03*
X142057618Y-84700000D03*
X142057618Y-79620000D03*
X142057618Y-77080000D03*
X139517618Y-102480000D03*
X139517618Y-99940000D03*
X139517618Y-79620000D03*
X139517618Y-77080000D03*
X136977618Y-102480000D03*
X136977618Y-97400000D03*
X136977618Y-79620000D03*
X136977618Y-77080000D03*
X134437618Y-102480000D03*
X134437618Y-99940000D03*
X134437618Y-97400000D03*
X134437618Y-82160000D03*
X134437618Y-77080000D03*
X131897618Y-102480000D03*
X131897618Y-99940000D03*
X131897618Y-79620000D03*
X131897618Y-77080000D03*
X129357618Y-102480000D03*
X129357618Y-77080000D03*
X126817618Y-102480000D03*
X126817618Y-77080000D03*
X124277618Y-102480000D03*
X124277618Y-77080000D03*
X121737618Y-102480000D03*
X121737618Y-77080000D03*
X119197618Y-102480000D03*
X119197618Y-77080000D03*
X111577618Y-102480000D03*
X111577618Y-99940000D03*
X111577618Y-97400000D03*
X111577618Y-94860000D03*
X111577618Y-92320000D03*
X111577618Y-89780000D03*
X111577618Y-87240000D03*
X111577618Y-84700000D03*
X111577618Y-82160000D03*
X111577618Y-79620000D03*
X111577618Y-77080000D03*
X119000000Y-90000000D03*
X122000000Y-90000000D03*
X125000000Y-90000000D03*
X137000000Y-95000000D03*
X137000000Y-85000000D03*
%TD*%
D15*
%TO.N,/IN3+*%
X126310000Y-90750000D02*
X124635000Y-92425000D01*
X114260000Y-92425000D02*
X113110000Y-91275000D01*
X124635000Y-92425000D02*
X114260000Y-92425000D01*
X138650000Y-90750000D02*
X126310000Y-90750000D01*
%TO.N,/IN2+*%
X138650000Y-91250000D02*
X128000000Y-91250000D01*
X125435000Y-93815000D02*
X115650000Y-93815000D01*
X128000000Y-91250000D02*
X125435000Y-93815000D01*
%TO.N,/IN0+*%
X128545000Y-98895000D02*
X115650000Y-98895000D01*
X138650000Y-93250000D02*
X134190000Y-93250000D01*
X134190000Y-93250000D02*
X128545000Y-98895000D01*
%TO.N,/IN5-*%
X125435000Y-86185000D02*
X115650000Y-86185000D01*
X138650000Y-88750000D02*
X128000000Y-88750000D01*
X128000000Y-88750000D02*
X125435000Y-86185000D01*
%TO.N,/IN6-*%
X113110000Y-83645000D02*
X114365000Y-82390000D01*
X127610000Y-82390000D02*
X132470000Y-87250000D01*
X132470000Y-87250000D02*
X138650000Y-87250000D01*
X114365000Y-82390000D02*
X127610000Y-82390000D01*
%TO.N,/IN3-*%
X115650000Y-91275000D02*
X125125000Y-91275000D01*
X126150000Y-90250000D02*
X138650000Y-90250000D01*
X125125000Y-91275000D02*
X126150000Y-90250000D01*
%TO.N,/IN1+*%
X114365000Y-97610000D02*
X127610000Y-97610000D01*
X113110000Y-96355000D02*
X114365000Y-97610000D01*
X127610000Y-97610000D02*
X132470000Y-92750000D01*
X132470000Y-92750000D02*
X138650000Y-92750000D01*
%TO.N,GND*%
X113110000Y-78575000D02*
X115650000Y-78575000D01*
X115650000Y-101425000D02*
X134345000Y-101425000D01*
X115650000Y-101435000D02*
X113110000Y-101435000D01*
X134345000Y-78575000D02*
X138650000Y-82880000D01*
X113110000Y-101425000D02*
X115650000Y-101425000D01*
X134345000Y-101425000D02*
X138650000Y-97120000D01*
X115650000Y-78575000D02*
X134345000Y-78575000D01*
X138650000Y-97120000D02*
X138650000Y-94250000D01*
X138650000Y-82880000D02*
X138650000Y-85750000D01*
%TO.N,/IN5+*%
X129210000Y-88250000D02*
X138650000Y-88250000D01*
X114355000Y-84940000D02*
X125900000Y-84940000D01*
X125900000Y-84940000D02*
X129210000Y-88250000D01*
X113110000Y-86185000D02*
X114355000Y-84940000D01*
%TO.N,/IN6+*%
X138650000Y-87750000D02*
X131370000Y-87750000D01*
X131370000Y-87750000D02*
X127265000Y-83645000D01*
X127265000Y-83645000D02*
X115650000Y-83645000D01*
%TO.N,/IN4+*%
X115650000Y-88725000D02*
X125125000Y-88725000D01*
X126150000Y-89750000D02*
X138650000Y-89750000D01*
X125125000Y-88725000D02*
X126150000Y-89750000D01*
%TO.N,/IN7+*%
X128410000Y-79800000D02*
X134860000Y-86250000D01*
X114415000Y-79800000D02*
X128410000Y-79800000D01*
X134860000Y-86250000D02*
X138650000Y-86250000D01*
X113110000Y-81105000D02*
X114415000Y-79800000D01*
%TO.N,/IN4-*%
X138650000Y-89250000D02*
X126310000Y-89250000D01*
X124635000Y-87575000D02*
X114260000Y-87575000D01*
X126310000Y-89250000D02*
X124635000Y-87575000D01*
X114260000Y-87575000D02*
X113110000Y-88725000D01*
%TO.N,/IN1-*%
X131370000Y-92250000D02*
X127265000Y-96355000D01*
X127265000Y-96355000D02*
X115650000Y-96355000D01*
X138650000Y-92250000D02*
X131370000Y-92250000D01*
%TO.N,/IN2-*%
X114355000Y-95060000D02*
X125900000Y-95060000D01*
X129210000Y-91750000D02*
X138650000Y-91750000D01*
X125900000Y-95060000D02*
X129210000Y-91750000D01*
X113110000Y-93815000D02*
X114355000Y-95060000D01*
%TO.N,/IN0-*%
X134860000Y-93750000D02*
X138650000Y-93750000D01*
X128410000Y-100200000D02*
X134860000Y-93750000D01*
X114415000Y-100200000D02*
X128410000Y-100200000D01*
X113110000Y-98895000D02*
X114415000Y-100200000D01*
%TO.N,/IN7-*%
X138650000Y-86750000D02*
X134190000Y-86750000D01*
X128545000Y-81105000D02*
X115650000Y-81105000D01*
X134190000Y-86750000D02*
X128545000Y-81105000D01*
%TD*%
%TA.AperFunction,Conductor*%
%TO.N,GND*%
G36*
X112236643Y-75225185D02*
G01*
X112282398Y-75277989D01*
X112292342Y-75347147D01*
X112265458Y-75408164D01*
X112232317Y-75448546D01*
X112134769Y-75631043D01*
X112134768Y-75631045D01*
X112134768Y-75631046D01*
X112127898Y-75653692D01*
X112074699Y-75829067D01*
X112054417Y-76035000D01*
X112074699Y-76240932D01*
X112074700Y-76240934D01*
X112134768Y-76438954D01*
X112232315Y-76621450D01*
X112232317Y-76621452D01*
X112363589Y-76781410D01*
X112460209Y-76860702D01*
X112523550Y-76912685D01*
X112706046Y-77010232D01*
X112772551Y-77030405D01*
X112830989Y-77068702D01*
X112859446Y-77132514D01*
X112848887Y-77201581D01*
X112802663Y-77253975D01*
X112768650Y-77268841D01*
X112646514Y-77301567D01*
X112646507Y-77301570D01*
X112432422Y-77401399D01*
X112432420Y-77401400D01*
X112238926Y-77536886D01*
X112238920Y-77536891D01*
X112071891Y-77703920D01*
X112071886Y-77703926D01*
X111936400Y-77897420D01*
X111936399Y-77897422D01*
X111836570Y-78111507D01*
X111836567Y-78111513D01*
X111779364Y-78324999D01*
X111779364Y-78325000D01*
X112676988Y-78325000D01*
X112644075Y-78382007D01*
X112610000Y-78509174D01*
X112610000Y-78640826D01*
X112644075Y-78767993D01*
X112676988Y-78825000D01*
X111779364Y-78825000D01*
X111836567Y-79038486D01*
X111836570Y-79038492D01*
X111936399Y-79252578D01*
X112071894Y-79446082D01*
X112238917Y-79613105D01*
X112432421Y-79748600D01*
X112646507Y-79848429D01*
X112646516Y-79848433D01*
X112768649Y-79881158D01*
X112828310Y-79917523D01*
X112858839Y-79980369D01*
X112850545Y-80049745D01*
X112806059Y-80103623D01*
X112772552Y-80119593D01*
X112706046Y-80139767D01*
X112606898Y-80192764D01*
X112523550Y-80237315D01*
X112523548Y-80237316D01*
X112523547Y-80237317D01*
X112363589Y-80368589D01*
X112232317Y-80528547D01*
X112134769Y-80711043D01*
X112074699Y-80909067D01*
X112054417Y-81115000D01*
X112074699Y-81320932D01*
X112100689Y-81406610D01*
X112134768Y-81518954D01*
X112232315Y-81701450D01*
X112232317Y-81701452D01*
X112363589Y-81861410D01*
X112443991Y-81927393D01*
X112523550Y-81992685D01*
X112706046Y-82090232D01*
X112904066Y-82150300D01*
X112904065Y-82150300D01*
X112922529Y-82152118D01*
X113110000Y-82170583D01*
X113315934Y-82150300D01*
X113513954Y-82090232D01*
X113696450Y-81992685D01*
X113856410Y-81861410D01*
X113987685Y-81701450D01*
X114085232Y-81518954D01*
X114145300Y-81320934D01*
X114165583Y-81115000D01*
X114145300Y-80909066D01*
X114085232Y-80711046D01*
X114074137Y-80690290D01*
X114059895Y-80621889D01*
X114084893Y-80556645D01*
X114095806Y-80544163D01*
X114503152Y-80136819D01*
X114564475Y-80103334D01*
X114590833Y-80100500D01*
X114883702Y-80100500D01*
X114950741Y-80120185D01*
X114996496Y-80172989D01*
X115006440Y-80242147D01*
X114977415Y-80305703D01*
X114962366Y-80320354D01*
X114903589Y-80368589D01*
X114772317Y-80528547D01*
X114674769Y-80711043D01*
X114614699Y-80909067D01*
X114594417Y-81115000D01*
X114614699Y-81320932D01*
X114640689Y-81406610D01*
X114674768Y-81518954D01*
X114772315Y-81701450D01*
X114772317Y-81701452D01*
X114903590Y-81861410D01*
X114913626Y-81869647D01*
X114952960Y-81927393D01*
X114954831Y-81997238D01*
X114918643Y-82057006D01*
X114855887Y-82087722D01*
X114834961Y-82089500D01*
X114325438Y-82089500D01*
X114287224Y-82099739D01*
X114249009Y-82109979D01*
X114249004Y-82109982D01*
X114180495Y-82149535D01*
X114180487Y-82149541D01*
X113667810Y-82662218D01*
X113606487Y-82695703D01*
X113536795Y-82690719D01*
X113521675Y-82683895D01*
X113513957Y-82679769D01*
X113513954Y-82679768D01*
X113315934Y-82619700D01*
X113315932Y-82619699D01*
X113315934Y-82619699D01*
X113110000Y-82599417D01*
X112904067Y-82619699D01*
X112706043Y-82679769D01*
X112617220Y-82727247D01*
X112523550Y-82777315D01*
X112523548Y-82777316D01*
X112523547Y-82777317D01*
X112363589Y-82908589D01*
X112232317Y-83068547D01*
X112134769Y-83251043D01*
X112074699Y-83449067D01*
X112054417Y-83655000D01*
X112074699Y-83860932D01*
X112100689Y-83946610D01*
X112134768Y-84058954D01*
X112232315Y-84241450D01*
X112232317Y-84241452D01*
X112363589Y-84401410D01*
X112403663Y-84434297D01*
X112523550Y-84532685D01*
X112706046Y-84630232D01*
X112904066Y-84690300D01*
X112904065Y-84690300D01*
X112922529Y-84692118D01*
X113110000Y-84710583D01*
X113315934Y-84690300D01*
X113513954Y-84630232D01*
X113696450Y-84532685D01*
X113856410Y-84401410D01*
X113987685Y-84241450D01*
X114085232Y-84058954D01*
X114145300Y-83860934D01*
X114165583Y-83655000D01*
X114145300Y-83449066D01*
X114085232Y-83251046D01*
X114074137Y-83230290D01*
X114059895Y-83161889D01*
X114084893Y-83096645D01*
X114095806Y-83084164D01*
X114453152Y-82726819D01*
X114514475Y-82693334D01*
X114540833Y-82690500D01*
X114822776Y-82690500D01*
X114889815Y-82710185D01*
X114935570Y-82762989D01*
X114945514Y-82832147D01*
X114916489Y-82895703D01*
X114907788Y-82904173D01*
X114907897Y-82904282D01*
X114903592Y-82908586D01*
X114772317Y-83068547D01*
X114674769Y-83251043D01*
X114614699Y-83449067D01*
X114594417Y-83655000D01*
X114614699Y-83860932D01*
X114640689Y-83946610D01*
X114674768Y-84058954D01*
X114772315Y-84241450D01*
X114772317Y-84241452D01*
X114903590Y-84401410D01*
X114925811Y-84419647D01*
X114965145Y-84477393D01*
X114967016Y-84547237D01*
X114930828Y-84607006D01*
X114868072Y-84637721D01*
X114847146Y-84639500D01*
X114315438Y-84639500D01*
X114277224Y-84649739D01*
X114239009Y-84659979D01*
X114239008Y-84659980D01*
X114186493Y-84690300D01*
X114170492Y-84699538D01*
X114170486Y-84699542D01*
X113667810Y-85202218D01*
X113606487Y-85235703D01*
X113536795Y-85230719D01*
X113521675Y-85223895D01*
X113513957Y-85219769D01*
X113513954Y-85219768D01*
X113315934Y-85159700D01*
X113315932Y-85159699D01*
X113315934Y-85159699D01*
X113110000Y-85139417D01*
X112904067Y-85159699D01*
X112706043Y-85219769D01*
X112617220Y-85267247D01*
X112523550Y-85317315D01*
X112523548Y-85317316D01*
X112523547Y-85317317D01*
X112363589Y-85448589D01*
X112232317Y-85608547D01*
X112134769Y-85791043D01*
X112074699Y-85989067D01*
X112054417Y-86195000D01*
X112074699Y-86400932D01*
X112100689Y-86486610D01*
X112134768Y-86598954D01*
X112232315Y-86781450D01*
X112266969Y-86823677D01*
X112363589Y-86941410D01*
X112460209Y-87020702D01*
X112523550Y-87072685D01*
X112706046Y-87170232D01*
X112904066Y-87230300D01*
X112904065Y-87230300D01*
X112922529Y-87232118D01*
X113110000Y-87250583D01*
X113315934Y-87230300D01*
X113513954Y-87170232D01*
X113696450Y-87072685D01*
X113856410Y-86941410D01*
X113987685Y-86781450D01*
X114085232Y-86598954D01*
X114145300Y-86400934D01*
X114165583Y-86195000D01*
X114145300Y-85989066D01*
X114085232Y-85791046D01*
X114074137Y-85770290D01*
X114059895Y-85701889D01*
X114084893Y-85636645D01*
X114095806Y-85624164D01*
X114443152Y-85276819D01*
X114504475Y-85243334D01*
X114530833Y-85240500D01*
X114812317Y-85240500D01*
X114879356Y-85260185D01*
X114925111Y-85312989D01*
X114935055Y-85382147D01*
X114907024Y-85443526D01*
X114907455Y-85443880D01*
X114906119Y-85445507D01*
X114906030Y-85445703D01*
X114905430Y-85446346D01*
X114772317Y-85608547D01*
X114674769Y-85791043D01*
X114614699Y-85989067D01*
X114594417Y-86195000D01*
X114614699Y-86400932D01*
X114640689Y-86486610D01*
X114674768Y-86598954D01*
X114772315Y-86781450D01*
X114806969Y-86823677D01*
X114903589Y-86941410D01*
X115041569Y-87054646D01*
X115080904Y-87112392D01*
X115082775Y-87182237D01*
X115046588Y-87242005D01*
X114983832Y-87272721D01*
X114962905Y-87274500D01*
X114220438Y-87274500D01*
X114144010Y-87294978D01*
X114075489Y-87334540D01*
X114075486Y-87334542D01*
X113667810Y-87742218D01*
X113606487Y-87775703D01*
X113536795Y-87770719D01*
X113521675Y-87763895D01*
X113513957Y-87759769D01*
X113513954Y-87759768D01*
X113315934Y-87699700D01*
X113315932Y-87699699D01*
X113315934Y-87699699D01*
X113110000Y-87679417D01*
X112904067Y-87699699D01*
X112706043Y-87759769D01*
X112632383Y-87799142D01*
X112523550Y-87857315D01*
X112523548Y-87857316D01*
X112523547Y-87857317D01*
X112363589Y-87988589D01*
X112232318Y-88148546D01*
X112232315Y-88148550D01*
X112217298Y-88176645D01*
X112134769Y-88331043D01*
X112074699Y-88529067D01*
X112054417Y-88735000D01*
X112074699Y-88940932D01*
X112100689Y-89026610D01*
X112134768Y-89138954D01*
X112232315Y-89321450D01*
X112232317Y-89321452D01*
X112363589Y-89481410D01*
X112415720Y-89524192D01*
X112523550Y-89612685D01*
X112706046Y-89710232D01*
X112904066Y-89770300D01*
X112904065Y-89770300D01*
X112922529Y-89772118D01*
X113110000Y-89790583D01*
X113315934Y-89770300D01*
X113513954Y-89710232D01*
X113696450Y-89612685D01*
X113856410Y-89481410D01*
X113987685Y-89321450D01*
X114085232Y-89138954D01*
X114145300Y-88940934D01*
X114165583Y-88735000D01*
X114145300Y-88529066D01*
X114085232Y-88331046D01*
X114074137Y-88310290D01*
X114059895Y-88241889D01*
X114084893Y-88176645D01*
X114095798Y-88164171D01*
X114348153Y-87911816D01*
X114409475Y-87878334D01*
X114435833Y-87875500D01*
X114734225Y-87875500D01*
X114801264Y-87895185D01*
X114847019Y-87947989D01*
X114856963Y-88017147D01*
X114830078Y-88078165D01*
X114772317Y-88148546D01*
X114674769Y-88331043D01*
X114614699Y-88529067D01*
X114594417Y-88735000D01*
X114614699Y-88940932D01*
X114640689Y-89026610D01*
X114674768Y-89138954D01*
X114772315Y-89321450D01*
X114772317Y-89321452D01*
X114903589Y-89481410D01*
X114955720Y-89524192D01*
X115063550Y-89612685D01*
X115246046Y-89710232D01*
X115444066Y-89770300D01*
X115444065Y-89770300D01*
X115462529Y-89772118D01*
X115650000Y-89790583D01*
X115855934Y-89770300D01*
X116053954Y-89710232D01*
X116236450Y-89612685D01*
X116396410Y-89481410D01*
X116527685Y-89321450D01*
X116625232Y-89138954D01*
X116632952Y-89113503D01*
X116671249Y-89055066D01*
X116735061Y-89026610D01*
X116751612Y-89025500D01*
X124949167Y-89025500D01*
X125016206Y-89045185D01*
X125036848Y-89061819D01*
X125887347Y-89912318D01*
X125920832Y-89973641D01*
X125915848Y-90043333D01*
X125887347Y-90087680D01*
X125036848Y-90938181D01*
X124975525Y-90971666D01*
X124949167Y-90974500D01*
X116748579Y-90974500D01*
X116681540Y-90954815D01*
X116635785Y-90902011D01*
X116629919Y-90886497D01*
X116629677Y-90885701D01*
X116625232Y-90871046D01*
X116527685Y-90688550D01*
X116438808Y-90580252D01*
X116396410Y-90528589D01*
X116236452Y-90397317D01*
X116236453Y-90397317D01*
X116236450Y-90397315D01*
X116053954Y-90299768D01*
X115855934Y-90239700D01*
X115855932Y-90239699D01*
X115855934Y-90239699D01*
X115650000Y-90219417D01*
X115444067Y-90239699D01*
X115246043Y-90299769D01*
X115135898Y-90358643D01*
X115063550Y-90397315D01*
X115063548Y-90397316D01*
X115063547Y-90397317D01*
X114903589Y-90528589D01*
X114772317Y-90688547D01*
X114674769Y-90871043D01*
X114614699Y-91069067D01*
X114594417Y-91275000D01*
X114614699Y-91480932D01*
X114627087Y-91521769D01*
X114674768Y-91678954D01*
X114729154Y-91780703D01*
X114772317Y-91861453D01*
X114821871Y-91921835D01*
X114849184Y-91986145D01*
X114837393Y-92055013D01*
X114790240Y-92106573D01*
X114726018Y-92124500D01*
X114435833Y-92124500D01*
X114368794Y-92104815D01*
X114348152Y-92088181D01*
X114099298Y-91839327D01*
X114065813Y-91778004D01*
X114070797Y-91708312D01*
X114077618Y-91693197D01*
X114085232Y-91678954D01*
X114145300Y-91480934D01*
X114165583Y-91275000D01*
X114145300Y-91069066D01*
X114085232Y-90871046D01*
X113987685Y-90688550D01*
X113898808Y-90580252D01*
X113856410Y-90528589D01*
X113696452Y-90397317D01*
X113696453Y-90397317D01*
X113696450Y-90397315D01*
X113513954Y-90299768D01*
X113315934Y-90239700D01*
X113315932Y-90239699D01*
X113315934Y-90239699D01*
X113110000Y-90219417D01*
X112904067Y-90239699D01*
X112706043Y-90299769D01*
X112595898Y-90358643D01*
X112523550Y-90397315D01*
X112523548Y-90397316D01*
X112523547Y-90397317D01*
X112363589Y-90528589D01*
X112232317Y-90688547D01*
X112134769Y-90871043D01*
X112074699Y-91069067D01*
X112054417Y-91275000D01*
X112074699Y-91480932D01*
X112087087Y-91521769D01*
X112134768Y-91678954D01*
X112232315Y-91861450D01*
X112266969Y-91903677D01*
X112363589Y-92021410D01*
X112444951Y-92088181D01*
X112523550Y-92152685D01*
X112706046Y-92250232D01*
X112904066Y-92310300D01*
X112904065Y-92310300D01*
X112922529Y-92312118D01*
X113110000Y-92330583D01*
X113315934Y-92310300D01*
X113513954Y-92250232D01*
X113528191Y-92242621D01*
X113596592Y-92228379D01*
X113661837Y-92253377D01*
X113674327Y-92264298D01*
X114075489Y-92665460D01*
X114121712Y-92692147D01*
X114144008Y-92705020D01*
X114144012Y-92705022D01*
X114220438Y-92725500D01*
X114220440Y-92725500D01*
X114975090Y-92725500D01*
X115042129Y-92745185D01*
X115087884Y-92797989D01*
X115097828Y-92867147D01*
X115068803Y-92930703D01*
X115053754Y-92945354D01*
X114903589Y-93068589D01*
X114772317Y-93228547D01*
X114772315Y-93228550D01*
X114754339Y-93262181D01*
X114674769Y-93411043D01*
X114614699Y-93609067D01*
X114594417Y-93815000D01*
X114614699Y-94020932D01*
X114637173Y-94095020D01*
X114674768Y-94218954D01*
X114772315Y-94401450D01*
X114810379Y-94447831D01*
X114899836Y-94556836D01*
X114927148Y-94621146D01*
X114915357Y-94690013D01*
X114868204Y-94741573D01*
X114803982Y-94759500D01*
X114530833Y-94759500D01*
X114463794Y-94739815D01*
X114443152Y-94723181D01*
X114099298Y-94379327D01*
X114065813Y-94318004D01*
X114070797Y-94248312D01*
X114077618Y-94233197D01*
X114085232Y-94218954D01*
X114145300Y-94020934D01*
X114165583Y-93815000D01*
X114145300Y-93609066D01*
X114085232Y-93411046D01*
X113987685Y-93228550D01*
X113901054Y-93122989D01*
X113856410Y-93068589D01*
X113738677Y-92971969D01*
X113696450Y-92937315D01*
X113513954Y-92839768D01*
X113315934Y-92779700D01*
X113315932Y-92779699D01*
X113315934Y-92779699D01*
X113110000Y-92759417D01*
X112904067Y-92779699D01*
X112706043Y-92839769D01*
X112616544Y-92887608D01*
X112523550Y-92937315D01*
X112523548Y-92937316D01*
X112523547Y-92937317D01*
X112363589Y-93068589D01*
X112232317Y-93228547D01*
X112232315Y-93228550D01*
X112214339Y-93262181D01*
X112134769Y-93411043D01*
X112074699Y-93609067D01*
X112054417Y-93815000D01*
X112074699Y-94020932D01*
X112097173Y-94095020D01*
X112134768Y-94218954D01*
X112232315Y-94401450D01*
X112232317Y-94401452D01*
X112363589Y-94561410D01*
X112410612Y-94600000D01*
X112523550Y-94692685D01*
X112706046Y-94790232D01*
X112904066Y-94850300D01*
X112904065Y-94850300D01*
X112922529Y-94852118D01*
X113110000Y-94870583D01*
X113315934Y-94850300D01*
X113513954Y-94790232D01*
X113528191Y-94782621D01*
X113596592Y-94768379D01*
X113661837Y-94793377D01*
X113674327Y-94804298D01*
X114114540Y-95244511D01*
X114170489Y-95300460D01*
X114170491Y-95300461D01*
X114170495Y-95300464D01*
X114239004Y-95340017D01*
X114239011Y-95340021D01*
X114315438Y-95360500D01*
X114394562Y-95360500D01*
X114859331Y-95360500D01*
X114926370Y-95380185D01*
X114972125Y-95432989D01*
X114982069Y-95502147D01*
X114953044Y-95565703D01*
X114937996Y-95580353D01*
X114903590Y-95608589D01*
X114772317Y-95768547D01*
X114674769Y-95951043D01*
X114614699Y-96149067D01*
X114594417Y-96355000D01*
X114614699Y-96560932D01*
X114637173Y-96635020D01*
X114674768Y-96758954D01*
X114772315Y-96941450D01*
X114772317Y-96941452D01*
X114907455Y-97106120D01*
X114905435Y-97107777D01*
X114933483Y-97159142D01*
X114928499Y-97228834D01*
X114886627Y-97284767D01*
X114821163Y-97309184D01*
X114812317Y-97309500D01*
X114540833Y-97309500D01*
X114473794Y-97289815D01*
X114453152Y-97273181D01*
X114099298Y-96919327D01*
X114065813Y-96858004D01*
X114070797Y-96788312D01*
X114077618Y-96773197D01*
X114085232Y-96758954D01*
X114145300Y-96560934D01*
X114165583Y-96355000D01*
X114145300Y-96149066D01*
X114085232Y-95951046D01*
X113987685Y-95768550D01*
X113935702Y-95705209D01*
X113856410Y-95608589D01*
X113696452Y-95477317D01*
X113696453Y-95477317D01*
X113696450Y-95477315D01*
X113513954Y-95379768D01*
X113315934Y-95319700D01*
X113315932Y-95319699D01*
X113315934Y-95319699D01*
X113110000Y-95299417D01*
X112904067Y-95319699D01*
X112706043Y-95379769D01*
X112606477Y-95432989D01*
X112523550Y-95477315D01*
X112523548Y-95477316D01*
X112523547Y-95477317D01*
X112363589Y-95608589D01*
X112232317Y-95768547D01*
X112134769Y-95951043D01*
X112074699Y-96149067D01*
X112054417Y-96355000D01*
X112074699Y-96560932D01*
X112097173Y-96635020D01*
X112134768Y-96758954D01*
X112232315Y-96941450D01*
X112232317Y-96941452D01*
X112363589Y-97101410D01*
X112460209Y-97180702D01*
X112523550Y-97232685D01*
X112706046Y-97330232D01*
X112904066Y-97390300D01*
X112904065Y-97390300D01*
X112922529Y-97392118D01*
X113110000Y-97410583D01*
X113315934Y-97390300D01*
X113513954Y-97330232D01*
X113528191Y-97322621D01*
X113596592Y-97308379D01*
X113661837Y-97333377D01*
X113674327Y-97344298D01*
X114124540Y-97794511D01*
X114180489Y-97850460D01*
X114180491Y-97850461D01*
X114180495Y-97850464D01*
X114196491Y-97859699D01*
X114249011Y-97890021D01*
X114325438Y-97910500D01*
X114404562Y-97910500D01*
X114847146Y-97910500D01*
X114914185Y-97930185D01*
X114959940Y-97982989D01*
X114969884Y-98052147D01*
X114940859Y-98115703D01*
X114925811Y-98130353D01*
X114903590Y-98148589D01*
X114772317Y-98308547D01*
X114674769Y-98491043D01*
X114614699Y-98689067D01*
X114594417Y-98895000D01*
X114614699Y-99100932D01*
X114614700Y-99100934D01*
X114674768Y-99298954D01*
X114772315Y-99481450D01*
X114772317Y-99481452D01*
X114903589Y-99641410D01*
X114950181Y-99679646D01*
X114989516Y-99737392D01*
X114991387Y-99807236D01*
X114955200Y-99867005D01*
X114892445Y-99897721D01*
X114871517Y-99899500D01*
X114590833Y-99899500D01*
X114523794Y-99879815D01*
X114503152Y-99863181D01*
X114099298Y-99459327D01*
X114065813Y-99398004D01*
X114070797Y-99328312D01*
X114077618Y-99313197D01*
X114085232Y-99298954D01*
X114145300Y-99100934D01*
X114165583Y-98895000D01*
X114145300Y-98689066D01*
X114085232Y-98491046D01*
X113987685Y-98308550D01*
X113935702Y-98245209D01*
X113856410Y-98148589D01*
X113696452Y-98017317D01*
X113696453Y-98017317D01*
X113696450Y-98017315D01*
X113513954Y-97919768D01*
X113315934Y-97859700D01*
X113315932Y-97859699D01*
X113315934Y-97859699D01*
X113110000Y-97839417D01*
X112904067Y-97859699D01*
X112706043Y-97919769D01*
X112595898Y-97978643D01*
X112523550Y-98017315D01*
X112523548Y-98017316D01*
X112523547Y-98017317D01*
X112363589Y-98148589D01*
X112232317Y-98308547D01*
X112134769Y-98491043D01*
X112074699Y-98689067D01*
X112054417Y-98895000D01*
X112074699Y-99100932D01*
X112074700Y-99100934D01*
X112134768Y-99298954D01*
X112232315Y-99481450D01*
X112232317Y-99481452D01*
X112363589Y-99641410D01*
X112428033Y-99694297D01*
X112523550Y-99772685D01*
X112706046Y-99870232D01*
X112772551Y-99890405D01*
X112830989Y-99928702D01*
X112859446Y-99992514D01*
X112848887Y-100061581D01*
X112802663Y-100113975D01*
X112768650Y-100128841D01*
X112646514Y-100161567D01*
X112646507Y-100161570D01*
X112432422Y-100261399D01*
X112432420Y-100261400D01*
X112238926Y-100396886D01*
X112238920Y-100396891D01*
X112071891Y-100563920D01*
X112071886Y-100563926D01*
X111936400Y-100757420D01*
X111936399Y-100757422D01*
X111836570Y-100971507D01*
X111836567Y-100971513D01*
X111779364Y-101184999D01*
X111779364Y-101185000D01*
X112676988Y-101185000D01*
X112644075Y-101242007D01*
X112610000Y-101369174D01*
X112610000Y-101500826D01*
X112644075Y-101627993D01*
X112676988Y-101685000D01*
X111779364Y-101685000D01*
X111836567Y-101898486D01*
X111836570Y-101898492D01*
X111936399Y-102112578D01*
X112071894Y-102306082D01*
X112238917Y-102473105D01*
X112432421Y-102608600D01*
X112646507Y-102708429D01*
X112646516Y-102708433D01*
X112768649Y-102741158D01*
X112828310Y-102777523D01*
X112858839Y-102840369D01*
X112850545Y-102909745D01*
X112806059Y-102963623D01*
X112772552Y-102979593D01*
X112706046Y-102999767D01*
X112618112Y-103046770D01*
X112523550Y-103097315D01*
X112523548Y-103097316D01*
X112523547Y-103097317D01*
X112363589Y-103228589D01*
X112232317Y-103388547D01*
X112134769Y-103571043D01*
X112074699Y-103769067D01*
X112054417Y-103975000D01*
X112074699Y-104180932D01*
X112074700Y-104180934D01*
X112134768Y-104378954D01*
X112211081Y-104521725D01*
X112232317Y-104561453D01*
X112265458Y-104601836D01*
X112292770Y-104666146D01*
X112280978Y-104735014D01*
X112233826Y-104786573D01*
X112169604Y-104804500D01*
X110016962Y-104804500D01*
X110003078Y-104803720D01*
X109990553Y-104802308D01*
X109912735Y-104793540D01*
X109885666Y-104787362D01*
X109806462Y-104759648D01*
X109781444Y-104747600D01*
X109710395Y-104702957D01*
X109688686Y-104685644D01*
X109629355Y-104626313D01*
X109612042Y-104604604D01*
X109584928Y-104561453D01*
X109567398Y-104533553D01*
X109555351Y-104508537D01*
X109527637Y-104429333D01*
X109521459Y-104402263D01*
X109511280Y-104311922D01*
X109510500Y-104298038D01*
X109510500Y-75711961D01*
X109511280Y-75698077D01*
X109511280Y-75698076D01*
X109521459Y-75607731D01*
X109527635Y-75580670D01*
X109555353Y-75501456D01*
X109567396Y-75476450D01*
X109612046Y-75405389D01*
X109629351Y-75383690D01*
X109688690Y-75324351D01*
X109710389Y-75307046D01*
X109781450Y-75262396D01*
X109806456Y-75250353D01*
X109885670Y-75222635D01*
X109912733Y-75216459D01*
X109975419Y-75209396D01*
X110003079Y-75206280D01*
X110016962Y-75205500D01*
X110075892Y-75205500D01*
X112169604Y-75205500D01*
X112236643Y-75225185D01*
G37*
%TD.AperFunction*%
%TA.AperFunction,Conductor*%
G36*
X142751922Y-75206280D02*
G01*
X142842266Y-75216459D01*
X142869331Y-75222636D01*
X142948540Y-75250352D01*
X142973553Y-75262398D01*
X143044606Y-75307043D01*
X143066313Y-75324355D01*
X143125644Y-75383686D01*
X143142957Y-75405395D01*
X143187600Y-75476444D01*
X143199648Y-75501462D01*
X143227362Y-75580666D01*
X143233540Y-75607735D01*
X143243720Y-75698076D01*
X143244500Y-75711961D01*
X143244500Y-104298038D01*
X143243720Y-104311923D01*
X143233540Y-104402264D01*
X143227362Y-104429333D01*
X143199648Y-104508537D01*
X143187600Y-104533555D01*
X143142957Y-104604604D01*
X143125644Y-104626313D01*
X143066313Y-104685644D01*
X143044604Y-104702957D01*
X142973555Y-104747600D01*
X142948537Y-104759648D01*
X142869333Y-104787362D01*
X142842264Y-104793540D01*
X142762075Y-104802576D01*
X142751921Y-104803720D01*
X142738038Y-104804500D01*
X116824500Y-104804500D01*
X116757461Y-104784815D01*
X116711706Y-104732011D01*
X116700500Y-104680500D01*
X116700500Y-103105249D01*
X116700499Y-103105247D01*
X116688868Y-103046770D01*
X116688867Y-103046769D01*
X116644552Y-102980447D01*
X116578230Y-102936132D01*
X116578229Y-102936131D01*
X116519752Y-102924500D01*
X116519748Y-102924500D01*
X116209457Y-102924500D01*
X116142418Y-102904815D01*
X116096663Y-102852011D01*
X116086719Y-102782853D01*
X116115744Y-102719297D01*
X116157052Y-102688118D01*
X116327578Y-102608600D01*
X116521082Y-102473105D01*
X116688105Y-102306082D01*
X116823600Y-102112578D01*
X116923429Y-101898492D01*
X116923432Y-101898486D01*
X116980636Y-101685000D01*
X116083012Y-101685000D01*
X116115925Y-101627993D01*
X116150000Y-101500826D01*
X116150000Y-101369174D01*
X116115925Y-101242007D01*
X116083012Y-101185000D01*
X116980636Y-101185000D01*
X116980635Y-101184999D01*
X116923432Y-100971513D01*
X116923429Y-100971507D01*
X116823601Y-100757424D01*
X116780328Y-100695624D01*
X116758001Y-100629418D01*
X116775011Y-100561650D01*
X116825959Y-100513837D01*
X116881903Y-100500500D01*
X128449560Y-100500500D01*
X128449562Y-100500500D01*
X128525989Y-100480021D01*
X128594511Y-100440460D01*
X128650460Y-100384511D01*
X130697127Y-98337844D01*
X138975000Y-98337844D01*
X138981401Y-98397372D01*
X138981403Y-98397379D01*
X139031645Y-98532086D01*
X139031649Y-98532093D01*
X139117809Y-98647187D01*
X139117812Y-98647190D01*
X139232906Y-98733350D01*
X139232913Y-98733354D01*
X139367620Y-98783596D01*
X139367627Y-98783598D01*
X139427155Y-98789999D01*
X139427172Y-98790000D01*
X140725000Y-98790000D01*
X141225000Y-98790000D01*
X142522828Y-98790000D01*
X142522844Y-98789999D01*
X142582372Y-98783598D01*
X142582379Y-98783596D01*
X142717086Y-98733354D01*
X142717093Y-98733350D01*
X142832187Y-98647190D01*
X142832190Y-98647187D01*
X142918350Y-98532093D01*
X142918354Y-98532086D01*
X142968596Y-98397379D01*
X142968598Y-98397372D01*
X142974999Y-98337844D01*
X142975000Y-98337827D01*
X142975000Y-97540000D01*
X141225000Y-97540000D01*
X141225000Y-98790000D01*
X140725000Y-98790000D01*
X140725000Y-97540000D01*
X138975000Y-97540000D01*
X138975000Y-98337844D01*
X130697127Y-98337844D01*
X133087127Y-95947844D01*
X137525000Y-95947844D01*
X137531401Y-96007372D01*
X137531403Y-96007379D01*
X137581645Y-96142086D01*
X137581649Y-96142093D01*
X137667809Y-96257187D01*
X137667812Y-96257190D01*
X137782906Y-96343350D01*
X137782913Y-96343354D01*
X137917620Y-96393596D01*
X137917627Y-96393598D01*
X137977155Y-96399999D01*
X137977172Y-96400000D01*
X138500000Y-96400000D01*
X138500000Y-95900000D01*
X138800000Y-95900000D01*
X138800000Y-96400000D01*
X138851000Y-96400000D01*
X138918039Y-96419685D01*
X138963794Y-96472489D01*
X138975000Y-96524000D01*
X138975000Y-97040000D01*
X140725000Y-97040000D01*
X141225000Y-97040000D01*
X142975000Y-97040000D01*
X142975000Y-96242172D01*
X142974999Y-96242155D01*
X142968598Y-96182627D01*
X142968596Y-96182620D01*
X142918354Y-96047913D01*
X142918350Y-96047906D01*
X142832190Y-95932812D01*
X142832187Y-95932809D01*
X142717093Y-95846649D01*
X142717086Y-95846645D01*
X142582379Y-95796403D01*
X142582372Y-95796401D01*
X142522844Y-95790000D01*
X141225000Y-95790000D01*
X141225000Y-97040000D01*
X140725000Y-97040000D01*
X140725000Y-95790000D01*
X139884362Y-95790000D01*
X139818170Y-95770563D01*
X139818000Y-95770936D01*
X139818000Y-95776000D01*
X139798315Y-95843039D01*
X139745511Y-95888794D01*
X139694000Y-95900000D01*
X138800000Y-95900000D01*
X138500000Y-95900000D01*
X137525000Y-95900000D01*
X137525000Y-95947844D01*
X133087127Y-95947844D01*
X133587136Y-95447835D01*
X137525000Y-95447835D01*
X137529183Y-95486748D01*
X137529183Y-95513252D01*
X137525000Y-95552164D01*
X137525000Y-95600000D01*
X138500000Y-95600000D01*
X138800000Y-95600000D01*
X139708638Y-95600000D01*
X139774829Y-95619436D01*
X139775000Y-95619063D01*
X139775000Y-95552179D01*
X139774999Y-95552168D01*
X139770815Y-95513258D01*
X139770815Y-95486742D01*
X139774999Y-95447831D01*
X139775000Y-95447821D01*
X139775000Y-95400000D01*
X138800000Y-95400000D01*
X138800000Y-95600000D01*
X138500000Y-95600000D01*
X138500000Y-95400000D01*
X137525000Y-95400000D01*
X137525000Y-95447835D01*
X133587136Y-95447835D01*
X134087136Y-94947835D01*
X137525000Y-94947835D01*
X137529183Y-94986748D01*
X137529183Y-95013252D01*
X137525000Y-95052164D01*
X137525000Y-95100000D01*
X138500000Y-95100000D01*
X138800000Y-95100000D01*
X139775000Y-95100000D01*
X139775000Y-95052179D01*
X139774999Y-95052168D01*
X139770815Y-95013258D01*
X139770815Y-94986742D01*
X139774999Y-94947831D01*
X139775000Y-94947821D01*
X139775000Y-94900000D01*
X138800000Y-94900000D01*
X138800000Y-95100000D01*
X138500000Y-95100000D01*
X138500000Y-94900000D01*
X137525000Y-94900000D01*
X137525000Y-94947835D01*
X134087136Y-94947835D01*
X134587136Y-94447835D01*
X137525000Y-94447835D01*
X137529183Y-94486748D01*
X137529183Y-94513252D01*
X137525000Y-94552164D01*
X137525000Y-94600000D01*
X138500000Y-94600000D01*
X138800000Y-94600000D01*
X139775000Y-94600000D01*
X139775000Y-94552179D01*
X139774999Y-94552168D01*
X139770815Y-94513258D01*
X139770815Y-94486742D01*
X139774999Y-94447831D01*
X139775000Y-94447821D01*
X139775000Y-94400000D01*
X138800000Y-94400000D01*
X138800000Y-94600000D01*
X138500000Y-94600000D01*
X138500000Y-94400000D01*
X137525000Y-94400000D01*
X137525000Y-94447835D01*
X134587136Y-94447835D01*
X134948152Y-94086819D01*
X135009475Y-94053334D01*
X135035833Y-94050500D01*
X137424138Y-94050500D01*
X137491177Y-94070185D01*
X137511819Y-94086819D01*
X137525000Y-94100000D01*
X137994084Y-94100000D01*
X138004262Y-94100500D01*
X138005252Y-94100500D01*
X139295738Y-94100500D01*
X139305916Y-94100000D01*
X139775000Y-94100000D01*
X139775000Y-94052172D01*
X139774999Y-94052155D01*
X139768598Y-93992627D01*
X139768596Y-93992620D01*
X139718354Y-93857913D01*
X139718350Y-93857906D01*
X139632190Y-93742812D01*
X139524048Y-93661856D01*
X139482178Y-93605922D01*
X139477587Y-93586048D01*
X139476689Y-93586227D01*
X139464349Y-93524192D01*
X139464349Y-93475808D01*
X139475500Y-93419750D01*
X139475500Y-93080249D01*
X139464349Y-93024192D01*
X139464349Y-92975808D01*
X139475500Y-92919750D01*
X139475500Y-92580249D01*
X139464349Y-92524192D01*
X139464349Y-92475808D01*
X139475500Y-92419750D01*
X139475500Y-92080249D01*
X139464349Y-92024192D01*
X139464349Y-91975808D01*
X139475500Y-91919750D01*
X139475500Y-91580249D01*
X139464349Y-91524192D01*
X139464349Y-91475808D01*
X139475500Y-91419750D01*
X139475500Y-91080249D01*
X139464349Y-91024192D01*
X139464349Y-90975808D01*
X139475500Y-90919750D01*
X139475500Y-90580249D01*
X139464349Y-90524192D01*
X139464349Y-90475808D01*
X139475500Y-90419750D01*
X139475500Y-90080249D01*
X139464349Y-90024192D01*
X139464349Y-89975808D01*
X139475500Y-89919750D01*
X139475500Y-89580249D01*
X139464349Y-89524192D01*
X139464349Y-89475808D01*
X139475500Y-89419750D01*
X139475500Y-89080249D01*
X139464349Y-89024192D01*
X139464349Y-88975808D01*
X139475500Y-88919750D01*
X139475500Y-88580249D01*
X139464349Y-88524192D01*
X139464349Y-88475808D01*
X139475500Y-88419750D01*
X139475500Y-88080249D01*
X139464349Y-88024192D01*
X139464349Y-87975808D01*
X139475500Y-87919750D01*
X139475500Y-87580249D01*
X139464349Y-87524192D01*
X139464349Y-87475808D01*
X139475500Y-87419750D01*
X139475500Y-87080249D01*
X139464349Y-87024192D01*
X139464349Y-86975808D01*
X139475500Y-86919750D01*
X139475500Y-86580249D01*
X139464349Y-86524192D01*
X139464349Y-86475808D01*
X139476689Y-86413773D01*
X139479408Y-86414314D01*
X139501014Y-86360600D01*
X139524049Y-86338142D01*
X139632190Y-86257186D01*
X139718350Y-86142093D01*
X139718354Y-86142086D01*
X139768596Y-86007379D01*
X139768598Y-86007372D01*
X139774999Y-85947844D01*
X139775000Y-85947827D01*
X139775000Y-85900000D01*
X139305916Y-85900000D01*
X139295738Y-85899500D01*
X139294748Y-85899500D01*
X138005252Y-85899500D01*
X138004262Y-85899500D01*
X137994084Y-85900000D01*
X137525000Y-85900000D01*
X137511819Y-85913181D01*
X137450496Y-85946666D01*
X137424138Y-85949500D01*
X135035833Y-85949500D01*
X134968794Y-85929815D01*
X134948152Y-85913181D01*
X134482806Y-85447835D01*
X137525000Y-85447835D01*
X137529183Y-85486748D01*
X137529183Y-85513252D01*
X137525000Y-85552164D01*
X137525000Y-85600000D01*
X138500000Y-85600000D01*
X138800000Y-85600000D01*
X139775000Y-85600000D01*
X139775000Y-85552179D01*
X139774999Y-85552168D01*
X139770815Y-85513258D01*
X139770815Y-85486742D01*
X139774999Y-85447831D01*
X139775000Y-85447821D01*
X139775000Y-85400000D01*
X138800000Y-85400000D01*
X138800000Y-85600000D01*
X138500000Y-85600000D01*
X138500000Y-85400000D01*
X137525000Y-85400000D01*
X137525000Y-85447835D01*
X134482806Y-85447835D01*
X133982806Y-84947835D01*
X137525000Y-84947835D01*
X137529183Y-84986748D01*
X137529183Y-85013252D01*
X137525000Y-85052164D01*
X137525000Y-85100000D01*
X138500000Y-85100000D01*
X138800000Y-85100000D01*
X139775000Y-85100000D01*
X139775000Y-85052179D01*
X139774999Y-85052168D01*
X139770815Y-85013258D01*
X139770815Y-84986742D01*
X139774999Y-84947831D01*
X139775000Y-84947821D01*
X139775000Y-84900000D01*
X138800000Y-84900000D01*
X138800000Y-85100000D01*
X138500000Y-85100000D01*
X138500000Y-84900000D01*
X137525000Y-84900000D01*
X137525000Y-84947835D01*
X133982806Y-84947835D01*
X133482806Y-84447835D01*
X137525000Y-84447835D01*
X137529183Y-84486748D01*
X137529183Y-84513252D01*
X137525000Y-84552164D01*
X137525000Y-84600000D01*
X138500000Y-84600000D01*
X138500000Y-84400000D01*
X138800000Y-84400000D01*
X138800000Y-84600000D01*
X139775000Y-84600000D01*
X139775000Y-84552179D01*
X139774999Y-84552168D01*
X139770815Y-84513258D01*
X139770815Y-84486742D01*
X139774999Y-84447831D01*
X139775000Y-84447821D01*
X139775000Y-84381975D01*
X139773301Y-84378864D01*
X139717484Y-84399684D01*
X139708638Y-84400000D01*
X138800000Y-84400000D01*
X138500000Y-84400000D01*
X137525000Y-84400000D01*
X137525000Y-84447835D01*
X133482806Y-84447835D01*
X133087126Y-84052155D01*
X137525000Y-84052155D01*
X137525000Y-84100000D01*
X138500000Y-84100000D01*
X138500000Y-83600000D01*
X138800000Y-83600000D01*
X138800000Y-84100000D01*
X139694000Y-84100000D01*
X139761039Y-84119685D01*
X139806794Y-84172489D01*
X139818000Y-84224000D01*
X139818000Y-84228024D01*
X139819698Y-84231135D01*
X139875516Y-84210316D01*
X139884362Y-84210000D01*
X140725000Y-84210000D01*
X141225000Y-84210000D01*
X142522828Y-84210000D01*
X142522844Y-84209999D01*
X142582372Y-84203598D01*
X142582379Y-84203596D01*
X142717086Y-84153354D01*
X142717093Y-84153350D01*
X142832187Y-84067190D01*
X142832190Y-84067187D01*
X142918350Y-83952093D01*
X142918354Y-83952086D01*
X142968596Y-83817379D01*
X142968598Y-83817372D01*
X142974999Y-83757844D01*
X142975000Y-83757827D01*
X142975000Y-82960000D01*
X141225000Y-82960000D01*
X141225000Y-84210000D01*
X140725000Y-84210000D01*
X140725000Y-82960000D01*
X138975000Y-82960000D01*
X138975000Y-83476000D01*
X138955315Y-83543039D01*
X138902511Y-83588794D01*
X138851000Y-83600000D01*
X138800000Y-83600000D01*
X138500000Y-83600000D01*
X137977155Y-83600000D01*
X137917627Y-83606401D01*
X137917620Y-83606403D01*
X137782913Y-83656645D01*
X137782906Y-83656649D01*
X137667812Y-83742809D01*
X137667809Y-83742812D01*
X137581649Y-83857906D01*
X137581645Y-83857913D01*
X137531403Y-83992620D01*
X137531401Y-83992627D01*
X137525000Y-84052155D01*
X133087126Y-84052155D01*
X130697126Y-81662155D01*
X138975000Y-81662155D01*
X138975000Y-82460000D01*
X140725000Y-82460000D01*
X141225000Y-82460000D01*
X142975000Y-82460000D01*
X142975000Y-81662172D01*
X142974999Y-81662155D01*
X142968598Y-81602627D01*
X142968596Y-81602620D01*
X142918354Y-81467913D01*
X142918350Y-81467906D01*
X142832190Y-81352812D01*
X142832187Y-81352809D01*
X142717093Y-81266649D01*
X142717086Y-81266645D01*
X142582379Y-81216403D01*
X142582372Y-81216401D01*
X142522844Y-81210000D01*
X141225000Y-81210000D01*
X141225000Y-82460000D01*
X140725000Y-82460000D01*
X140725000Y-81210000D01*
X139427155Y-81210000D01*
X139367627Y-81216401D01*
X139367620Y-81216403D01*
X139232913Y-81266645D01*
X139232906Y-81266649D01*
X139117812Y-81352809D01*
X139117809Y-81352812D01*
X139031649Y-81467906D01*
X139031645Y-81467913D01*
X138981403Y-81602620D01*
X138981401Y-81602627D01*
X138975000Y-81662155D01*
X130697126Y-81662155D01*
X128594512Y-79559541D01*
X128594504Y-79559535D01*
X128525995Y-79519982D01*
X128525990Y-79519979D01*
X128500513Y-79513152D01*
X128449562Y-79499500D01*
X116888906Y-79499500D01*
X116821867Y-79479815D01*
X116776112Y-79427011D01*
X116766168Y-79357853D01*
X116787331Y-79304377D01*
X116823597Y-79252583D01*
X116823599Y-79252579D01*
X116923429Y-79038492D01*
X116923432Y-79038486D01*
X116980636Y-78825000D01*
X116083012Y-78825000D01*
X116115925Y-78767993D01*
X116150000Y-78640826D01*
X116150000Y-78509174D01*
X116115925Y-78382007D01*
X116083012Y-78325000D01*
X116980636Y-78325000D01*
X116980635Y-78324999D01*
X116923432Y-78111513D01*
X116923429Y-78111507D01*
X116823600Y-77897422D01*
X116823599Y-77897420D01*
X116688113Y-77703926D01*
X116688108Y-77703920D01*
X116521082Y-77536894D01*
X116327578Y-77401399D01*
X116113492Y-77301570D01*
X116113486Y-77301567D01*
X115991349Y-77268841D01*
X115931689Y-77232476D01*
X115901160Y-77169629D01*
X115909455Y-77100253D01*
X115953940Y-77046375D01*
X115987444Y-77030407D01*
X116053954Y-77010232D01*
X116236450Y-76912685D01*
X116396410Y-76781410D01*
X116527685Y-76621450D01*
X116625232Y-76438954D01*
X116685300Y-76240934D01*
X116705583Y-76035000D01*
X116685300Y-75829066D01*
X116625232Y-75631046D01*
X116527685Y-75448550D01*
X116527682Y-75448546D01*
X116494542Y-75408164D01*
X116467230Y-75343854D01*
X116479022Y-75274986D01*
X116526174Y-75223427D01*
X116590396Y-75205500D01*
X142679108Y-75205500D01*
X142738038Y-75205500D01*
X142751922Y-75206280D01*
G37*
%TD.AperFunction*%
%TA.AperFunction,Conductor*%
G36*
X115184075Y-101242007D02*
G01*
X115150000Y-101369174D01*
X115150000Y-101500826D01*
X115184075Y-101627993D01*
X115216988Y-101685000D01*
X113543012Y-101685000D01*
X113575925Y-101627993D01*
X113610000Y-101500826D01*
X113610000Y-101369174D01*
X113575925Y-101242007D01*
X113543012Y-101185000D01*
X115216988Y-101185000D01*
X115184075Y-101242007D01*
G37*
%TD.AperFunction*%
%TA.AperFunction,Conductor*%
G36*
X115184075Y-78382007D02*
G01*
X115150000Y-78509174D01*
X115150000Y-78640826D01*
X115184075Y-78767993D01*
X115216988Y-78825000D01*
X113543012Y-78825000D01*
X113575925Y-78767993D01*
X113610000Y-78640826D01*
X113610000Y-78509174D01*
X113575925Y-78382007D01*
X113543012Y-78325000D01*
X115216988Y-78325000D01*
X115184075Y-78382007D01*
G37*
%TD.AperFunction*%
%TD*%
M02*
