M48
; DRILL file {KiCad 8.0.3-8.0.3-0~ubuntu23.10.1} date 2024-10-21T12:14:11-0400
; FORMAT={-:-/ absolute / inch / decimal}
; #@! TF.CreationDate,2024-10-21T12:14:11-04:00
; #@! TF.GenerationSoftware,Kicad,Pcbnew,8.0.3-8.0.3-0~ubuntu23.10.1
; #@! TF.FileFunction,Plated,1,2,PTH
FMAT,2
INCH
; #@! TA.AperFunction,Plated,PTH,ViaDrill
T1C0.0118
%
G90
G05
T1
X4.4523Y-2.6772
X4.4523Y-3.0709
X4.4523Y-3.4646
X4.846Y-2.6772
X4.846Y-3.0709
X5.2397Y-2.6772
X5.2397Y-3.0709
X5.6004Y-4.6654
X5.6334Y-2.6772
X5.6334Y-3.0709
X5.9941Y-4.6654
X6.0271Y-3.0709
X6.4208Y-2.6772
X6.4208Y-3.0709
X6.8145Y-2.6772
X6.8145Y-3.0709
X6.8145Y-3.4646
X7.2082Y-2.6772
X7.2082Y-3.0709
X7.2082Y-3.4646
M30
