%TF.GenerationSoftware,KiCad,Pcbnew,8.0.3-8.0.3-0~ubuntu23.10.1*%
%TF.CreationDate,2024-10-21T12:14:11-04:00*%
%TF.ProjectId,neck_electrode,6e65636b-5f65-46c6-9563-74726f64652e,rev?*%
%TF.SameCoordinates,Original*%
%TF.FileFunction,Profile,NP*%
%FSLAX46Y46*%
G04 Gerber Fmt 4.6, Leading zero omitted, Abs format (unit mm)*
G04 Created by KiCad (PCBNEW 8.0.3-8.0.3-0~ubuntu23.10.1) date 2024-10-21 12:14:11*
%MOMM*%
%LPD*%
G01*
G04 APERTURE LIST*
%TA.AperFunction,Profile*%
%ADD10C,0.050000*%
%TD*%
G04 APERTURE END LIST*
D10*
X138500000Y-94500000D02*
X100000000Y-94500000D01*
X197500000Y-62500000D02*
X197500000Y-92000000D01*
X156000000Y-94500000D02*
X195000000Y-94500000D01*
X100000000Y-60000000D02*
X195000000Y-60000000D01*
X97500000Y-92000000D02*
X97500000Y-62500000D01*
X107500000Y-62500000D02*
G75*
G02*
X110000000Y-65000000I0J-2500000D01*
G01*
X153500000Y-120000000D02*
X153500000Y-97000000D01*
X187500000Y-62500000D02*
X192500000Y-62500000D01*
X141000000Y-120000000D02*
X141000000Y-97000000D01*
X100000000Y-87500000D02*
X100000000Y-65000000D01*
X195000000Y-65000000D02*
X195000000Y-87500000D01*
X185000000Y-65000000D02*
G75*
G02*
X187500000Y-62500000I2500000J0D01*
G01*
X185000000Y-87500000D02*
X185000000Y-65000000D01*
X192500000Y-90000000D02*
X187500000Y-90000000D01*
X192500000Y-62500000D02*
G75*
G02*
X195000000Y-65000000I0J-2500000D01*
G01*
X102500000Y-90000000D02*
G75*
G02*
X100000000Y-87500000I0J2500000D01*
G01*
X97500000Y-62500000D02*
G75*
G02*
X100000000Y-60000000I2500000J0D01*
G01*
X110000000Y-87500000D02*
G75*
G02*
X107500000Y-90000000I-2500000J0D01*
G01*
X107500000Y-90000000D02*
X102500000Y-90000000D01*
X100000000Y-65000000D02*
G75*
G02*
X102500000Y-62500000I2500000J0D01*
G01*
X138500000Y-94500000D02*
G75*
G02*
X141000000Y-97000000I0J-2500000D01*
G01*
X110000000Y-65000000D02*
X110000000Y-87500000D01*
X195000000Y-60000000D02*
G75*
G02*
X197500000Y-62500000I0J-2500000D01*
G01*
X195000000Y-87500000D02*
G75*
G02*
X192500000Y-90000000I-2500000J0D01*
G01*
X187500000Y-90000000D02*
G75*
G02*
X185000000Y-87500000I0J2500000D01*
G01*
X197500000Y-92000000D02*
G75*
G02*
X195000000Y-94500000I-2500000J0D01*
G01*
X100000000Y-94500000D02*
G75*
G02*
X97500000Y-92000000I0J2500000D01*
G01*
X102500000Y-62500000D02*
X107500000Y-62500000D01*
X153500000Y-97000000D02*
G75*
G02*
X156000000Y-94500000I2500000J0D01*
G01*
%TO.C,J1*%
X141000000Y-123700000D02*
X141000000Y-120000000D01*
X153200000Y-124000000D02*
X141300000Y-124000000D01*
X153500000Y-123700000D02*
X153500000Y-120000000D01*
X141300000Y-124000000D02*
G75*
G02*
X141000000Y-123700000I0J300000D01*
G01*
X153500000Y-123700000D02*
G75*
G02*
X153200000Y-124000000I-300000J0D01*
G01*
%TD*%
M02*
