%TF.GenerationSoftware,KiCad,Pcbnew,8.0.3-8.0.3-0~ubuntu23.10.1*%
%TF.CreationDate,2024-10-21T12:16:31-04:00*%
%TF.ProjectId,neck_electrode,6e65636b-5f65-46c6-9563-74726f64652e,rev?*%
%TF.SameCoordinates,Original*%
%TF.FileFunction,Other,User*%
%FSLAX46Y46*%
G04 Gerber Fmt 4.6, Leading zero omitted, Abs format (unit mm)*
G04 Created by KiCad (PCBNEW 8.0.3-8.0.3-0~ubuntu23.10.1) date 2024-10-21 12:16:31*
%MOMM*%
%LPD*%
G01*
G04 APERTURE LIST*
%ADD10C,0.100000*%
%ADD11C,0.150000*%
G04 APERTURE END LIST*
D10*
X185000000Y-94500000D02*
G75*
G02*
X182500000Y-92000000I0J2500000D01*
G01*
X100000000Y-94500000D02*
G75*
G02*
X97500000Y-92000000I0J2500000D01*
G01*
X195000000Y-60000000D02*
G75*
G02*
X197500000Y-62500000I0J-2500000D01*
G01*
X199000000Y-76000000D02*
X200000000Y-77000000D01*
X112500000Y-62500000D02*
X112500000Y-92000000D01*
X200000000Y-75000000D02*
X199000000Y-76000000D01*
X197500000Y-92000000D02*
G75*
G02*
X195000000Y-94500000I-2500000J0D01*
G01*
X90000000Y-77000000D02*
X96000000Y-77000000D01*
X155000000Y-119000000D02*
X156000000Y-118000000D01*
X205000000Y-76000000D02*
X199000000Y-76000000D01*
X182500000Y-92000000D02*
X182500000Y-62500000D01*
X185000000Y-60000000D02*
X195000000Y-60000000D01*
X199000000Y-76000000D02*
X200000000Y-75000000D01*
X110000000Y-60000000D02*
G75*
G02*
X112500000Y-62500000I0J-2500000D01*
G01*
X96000000Y-77000000D02*
X95000000Y-78000000D01*
X110000000Y-94500000D02*
X100000000Y-94500000D01*
X195000000Y-94500000D02*
X185000000Y-94500000D01*
X100000000Y-60000000D02*
X110000000Y-60000000D01*
X197500000Y-62500000D02*
X197500000Y-92000000D01*
X97500000Y-62500000D02*
G75*
G02*
X100000000Y-60000000I2500000J0D01*
G01*
X95000000Y-78000000D02*
X96000000Y-77000000D01*
X96000000Y-77000000D02*
X95000000Y-76000000D01*
X155000000Y-119000000D02*
X156000000Y-120000000D01*
X112500000Y-92000000D02*
G75*
G02*
X110000000Y-94500000I-2500000J0D01*
G01*
X161000000Y-119000000D02*
X155000000Y-119000000D01*
X182500000Y-62500000D02*
G75*
G02*
X185000000Y-60000000I2500000J0D01*
G01*
X156000000Y-118000000D02*
X155000000Y-119000000D01*
X97500000Y-92000000D02*
X97500000Y-62500000D01*
D11*
X162309524Y-118454819D02*
X162880952Y-118454819D01*
X162595238Y-119454819D02*
X162595238Y-118454819D01*
X163214286Y-119454819D02*
X163214286Y-118454819D01*
X163214286Y-118931009D02*
X163785714Y-118931009D01*
X163785714Y-119454819D02*
X163785714Y-118454819D01*
X164261905Y-119454819D02*
X164261905Y-118454819D01*
X165309523Y-119359580D02*
X165261904Y-119407200D01*
X165261904Y-119407200D02*
X165119047Y-119454819D01*
X165119047Y-119454819D02*
X165023809Y-119454819D01*
X165023809Y-119454819D02*
X164880952Y-119407200D01*
X164880952Y-119407200D02*
X164785714Y-119311961D01*
X164785714Y-119311961D02*
X164738095Y-119216723D01*
X164738095Y-119216723D02*
X164690476Y-119026247D01*
X164690476Y-119026247D02*
X164690476Y-118883390D01*
X164690476Y-118883390D02*
X164738095Y-118692914D01*
X164738095Y-118692914D02*
X164785714Y-118597676D01*
X164785714Y-118597676D02*
X164880952Y-118502438D01*
X164880952Y-118502438D02*
X165023809Y-118454819D01*
X165023809Y-118454819D02*
X165119047Y-118454819D01*
X165119047Y-118454819D02*
X165261904Y-118502438D01*
X165261904Y-118502438D02*
X165309523Y-118550057D01*
X165738095Y-119454819D02*
X165738095Y-118454819D01*
X166309523Y-119454819D02*
X165880952Y-118883390D01*
X166309523Y-118454819D02*
X165738095Y-119026247D01*
X166738095Y-119454819D02*
X166738095Y-118454819D01*
X166738095Y-118454819D02*
X167309523Y-119454819D01*
X167309523Y-119454819D02*
X167309523Y-118454819D01*
X167785714Y-118931009D02*
X168119047Y-118931009D01*
X168261904Y-119454819D02*
X167785714Y-119454819D01*
X167785714Y-119454819D02*
X167785714Y-118454819D01*
X167785714Y-118454819D02*
X168261904Y-118454819D01*
X168642857Y-119407200D02*
X168785714Y-119454819D01*
X168785714Y-119454819D02*
X169023809Y-119454819D01*
X169023809Y-119454819D02*
X169119047Y-119407200D01*
X169119047Y-119407200D02*
X169166666Y-119359580D01*
X169166666Y-119359580D02*
X169214285Y-119264342D01*
X169214285Y-119264342D02*
X169214285Y-119169104D01*
X169214285Y-119169104D02*
X169166666Y-119073866D01*
X169166666Y-119073866D02*
X169119047Y-119026247D01*
X169119047Y-119026247D02*
X169023809Y-118978628D01*
X169023809Y-118978628D02*
X168833333Y-118931009D01*
X168833333Y-118931009D02*
X168738095Y-118883390D01*
X168738095Y-118883390D02*
X168690476Y-118835771D01*
X168690476Y-118835771D02*
X168642857Y-118740533D01*
X168642857Y-118740533D02*
X168642857Y-118645295D01*
X168642857Y-118645295D02*
X168690476Y-118550057D01*
X168690476Y-118550057D02*
X168738095Y-118502438D01*
X168738095Y-118502438D02*
X168833333Y-118454819D01*
X168833333Y-118454819D02*
X169071428Y-118454819D01*
X169071428Y-118454819D02*
X169214285Y-118502438D01*
X169595238Y-119407200D02*
X169738095Y-119454819D01*
X169738095Y-119454819D02*
X169976190Y-119454819D01*
X169976190Y-119454819D02*
X170071428Y-119407200D01*
X170071428Y-119407200D02*
X170119047Y-119359580D01*
X170119047Y-119359580D02*
X170166666Y-119264342D01*
X170166666Y-119264342D02*
X170166666Y-119169104D01*
X170166666Y-119169104D02*
X170119047Y-119073866D01*
X170119047Y-119073866D02*
X170071428Y-119026247D01*
X170071428Y-119026247D02*
X169976190Y-118978628D01*
X169976190Y-118978628D02*
X169785714Y-118931009D01*
X169785714Y-118931009D02*
X169690476Y-118883390D01*
X169690476Y-118883390D02*
X169642857Y-118835771D01*
X169642857Y-118835771D02*
X169595238Y-118740533D01*
X169595238Y-118740533D02*
X169595238Y-118645295D01*
X169595238Y-118645295D02*
X169642857Y-118550057D01*
X169642857Y-118550057D02*
X169690476Y-118502438D01*
X169690476Y-118502438D02*
X169785714Y-118454819D01*
X169785714Y-118454819D02*
X170023809Y-118454819D01*
X170023809Y-118454819D02*
X170166666Y-118502438D01*
X171357143Y-118931009D02*
X172119048Y-118931009D01*
X172119048Y-119216723D02*
X171357143Y-119216723D01*
X173547619Y-118454819D02*
X173642857Y-118454819D01*
X173642857Y-118454819D02*
X173738095Y-118502438D01*
X173738095Y-118502438D02*
X173785714Y-118550057D01*
X173785714Y-118550057D02*
X173833333Y-118645295D01*
X173833333Y-118645295D02*
X173880952Y-118835771D01*
X173880952Y-118835771D02*
X173880952Y-119073866D01*
X173880952Y-119073866D02*
X173833333Y-119264342D01*
X173833333Y-119264342D02*
X173785714Y-119359580D01*
X173785714Y-119359580D02*
X173738095Y-119407200D01*
X173738095Y-119407200D02*
X173642857Y-119454819D01*
X173642857Y-119454819D02*
X173547619Y-119454819D01*
X173547619Y-119454819D02*
X173452381Y-119407200D01*
X173452381Y-119407200D02*
X173404762Y-119359580D01*
X173404762Y-119359580D02*
X173357143Y-119264342D01*
X173357143Y-119264342D02*
X173309524Y-119073866D01*
X173309524Y-119073866D02*
X173309524Y-118835771D01*
X173309524Y-118835771D02*
X173357143Y-118645295D01*
X173357143Y-118645295D02*
X173404762Y-118550057D01*
X173404762Y-118550057D02*
X173452381Y-118502438D01*
X173452381Y-118502438D02*
X173547619Y-118454819D01*
X174309524Y-119359580D02*
X174357143Y-119407200D01*
X174357143Y-119407200D02*
X174309524Y-119454819D01*
X174309524Y-119454819D02*
X174261905Y-119407200D01*
X174261905Y-119407200D02*
X174309524Y-119359580D01*
X174309524Y-119359580D02*
X174309524Y-119454819D01*
X174690476Y-118454819D02*
X175309523Y-118454819D01*
X175309523Y-118454819D02*
X174976190Y-118835771D01*
X174976190Y-118835771D02*
X175119047Y-118835771D01*
X175119047Y-118835771D02*
X175214285Y-118883390D01*
X175214285Y-118883390D02*
X175261904Y-118931009D01*
X175261904Y-118931009D02*
X175309523Y-119026247D01*
X175309523Y-119026247D02*
X175309523Y-119264342D01*
X175309523Y-119264342D02*
X175261904Y-119359580D01*
X175261904Y-119359580D02*
X175214285Y-119407200D01*
X175214285Y-119407200D02*
X175119047Y-119454819D01*
X175119047Y-119454819D02*
X174833333Y-119454819D01*
X174833333Y-119454819D02*
X174738095Y-119407200D01*
X174738095Y-119407200D02*
X174690476Y-119359580D01*
X175738095Y-119454819D02*
X175738095Y-118454819D01*
X175738095Y-118454819D02*
X176071428Y-119169104D01*
X176071428Y-119169104D02*
X176404761Y-118454819D01*
X176404761Y-118454819D02*
X176404761Y-119454819D01*
X176880952Y-119454819D02*
X176880952Y-118454819D01*
X176880952Y-118454819D02*
X177214285Y-119169104D01*
X177214285Y-119169104D02*
X177547618Y-118454819D01*
X177547618Y-118454819D02*
X177547618Y-119454819D01*
X206309524Y-75454819D02*
X206880952Y-75454819D01*
X206595238Y-76454819D02*
X206595238Y-75454819D01*
X207214286Y-76454819D02*
X207214286Y-75454819D01*
X207214286Y-75931009D02*
X207785714Y-75931009D01*
X207785714Y-76454819D02*
X207785714Y-75454819D01*
X208261905Y-76454819D02*
X208261905Y-75454819D01*
X209309523Y-76359580D02*
X209261904Y-76407200D01*
X209261904Y-76407200D02*
X209119047Y-76454819D01*
X209119047Y-76454819D02*
X209023809Y-76454819D01*
X209023809Y-76454819D02*
X208880952Y-76407200D01*
X208880952Y-76407200D02*
X208785714Y-76311961D01*
X208785714Y-76311961D02*
X208738095Y-76216723D01*
X208738095Y-76216723D02*
X208690476Y-76026247D01*
X208690476Y-76026247D02*
X208690476Y-75883390D01*
X208690476Y-75883390D02*
X208738095Y-75692914D01*
X208738095Y-75692914D02*
X208785714Y-75597676D01*
X208785714Y-75597676D02*
X208880952Y-75502438D01*
X208880952Y-75502438D02*
X209023809Y-75454819D01*
X209023809Y-75454819D02*
X209119047Y-75454819D01*
X209119047Y-75454819D02*
X209261904Y-75502438D01*
X209261904Y-75502438D02*
X209309523Y-75550057D01*
X209738095Y-76454819D02*
X209738095Y-75454819D01*
X210309523Y-76454819D02*
X209880952Y-75883390D01*
X210309523Y-75454819D02*
X209738095Y-76026247D01*
X210738095Y-76454819D02*
X210738095Y-75454819D01*
X210738095Y-75454819D02*
X211309523Y-76454819D01*
X211309523Y-76454819D02*
X211309523Y-75454819D01*
X211785714Y-75931009D02*
X212119047Y-75931009D01*
X212261904Y-76454819D02*
X211785714Y-76454819D01*
X211785714Y-76454819D02*
X211785714Y-75454819D01*
X211785714Y-75454819D02*
X212261904Y-75454819D01*
X212642857Y-76407200D02*
X212785714Y-76454819D01*
X212785714Y-76454819D02*
X213023809Y-76454819D01*
X213023809Y-76454819D02*
X213119047Y-76407200D01*
X213119047Y-76407200D02*
X213166666Y-76359580D01*
X213166666Y-76359580D02*
X213214285Y-76264342D01*
X213214285Y-76264342D02*
X213214285Y-76169104D01*
X213214285Y-76169104D02*
X213166666Y-76073866D01*
X213166666Y-76073866D02*
X213119047Y-76026247D01*
X213119047Y-76026247D02*
X213023809Y-75978628D01*
X213023809Y-75978628D02*
X212833333Y-75931009D01*
X212833333Y-75931009D02*
X212738095Y-75883390D01*
X212738095Y-75883390D02*
X212690476Y-75835771D01*
X212690476Y-75835771D02*
X212642857Y-75740533D01*
X212642857Y-75740533D02*
X212642857Y-75645295D01*
X212642857Y-75645295D02*
X212690476Y-75550057D01*
X212690476Y-75550057D02*
X212738095Y-75502438D01*
X212738095Y-75502438D02*
X212833333Y-75454819D01*
X212833333Y-75454819D02*
X213071428Y-75454819D01*
X213071428Y-75454819D02*
X213214285Y-75502438D01*
X213595238Y-76407200D02*
X213738095Y-76454819D01*
X213738095Y-76454819D02*
X213976190Y-76454819D01*
X213976190Y-76454819D02*
X214071428Y-76407200D01*
X214071428Y-76407200D02*
X214119047Y-76359580D01*
X214119047Y-76359580D02*
X214166666Y-76264342D01*
X214166666Y-76264342D02*
X214166666Y-76169104D01*
X214166666Y-76169104D02*
X214119047Y-76073866D01*
X214119047Y-76073866D02*
X214071428Y-76026247D01*
X214071428Y-76026247D02*
X213976190Y-75978628D01*
X213976190Y-75978628D02*
X213785714Y-75931009D01*
X213785714Y-75931009D02*
X213690476Y-75883390D01*
X213690476Y-75883390D02*
X213642857Y-75835771D01*
X213642857Y-75835771D02*
X213595238Y-75740533D01*
X213595238Y-75740533D02*
X213595238Y-75645295D01*
X213595238Y-75645295D02*
X213642857Y-75550057D01*
X213642857Y-75550057D02*
X213690476Y-75502438D01*
X213690476Y-75502438D02*
X213785714Y-75454819D01*
X213785714Y-75454819D02*
X214023809Y-75454819D01*
X214023809Y-75454819D02*
X214166666Y-75502438D01*
X215357143Y-75931009D02*
X216119048Y-75931009D01*
X216119048Y-76216723D02*
X215357143Y-76216723D01*
X217547619Y-75454819D02*
X217642857Y-75454819D01*
X217642857Y-75454819D02*
X217738095Y-75502438D01*
X217738095Y-75502438D02*
X217785714Y-75550057D01*
X217785714Y-75550057D02*
X217833333Y-75645295D01*
X217833333Y-75645295D02*
X217880952Y-75835771D01*
X217880952Y-75835771D02*
X217880952Y-76073866D01*
X217880952Y-76073866D02*
X217833333Y-76264342D01*
X217833333Y-76264342D02*
X217785714Y-76359580D01*
X217785714Y-76359580D02*
X217738095Y-76407200D01*
X217738095Y-76407200D02*
X217642857Y-76454819D01*
X217642857Y-76454819D02*
X217547619Y-76454819D01*
X217547619Y-76454819D02*
X217452381Y-76407200D01*
X217452381Y-76407200D02*
X217404762Y-76359580D01*
X217404762Y-76359580D02*
X217357143Y-76264342D01*
X217357143Y-76264342D02*
X217309524Y-76073866D01*
X217309524Y-76073866D02*
X217309524Y-75835771D01*
X217309524Y-75835771D02*
X217357143Y-75645295D01*
X217357143Y-75645295D02*
X217404762Y-75550057D01*
X217404762Y-75550057D02*
X217452381Y-75502438D01*
X217452381Y-75502438D02*
X217547619Y-75454819D01*
X218309524Y-76359580D02*
X218357143Y-76407200D01*
X218357143Y-76407200D02*
X218309524Y-76454819D01*
X218309524Y-76454819D02*
X218261905Y-76407200D01*
X218261905Y-76407200D02*
X218309524Y-76359580D01*
X218309524Y-76359580D02*
X218309524Y-76454819D01*
X218690476Y-75454819D02*
X219309523Y-75454819D01*
X219309523Y-75454819D02*
X218976190Y-75835771D01*
X218976190Y-75835771D02*
X219119047Y-75835771D01*
X219119047Y-75835771D02*
X219214285Y-75883390D01*
X219214285Y-75883390D02*
X219261904Y-75931009D01*
X219261904Y-75931009D02*
X219309523Y-76026247D01*
X219309523Y-76026247D02*
X219309523Y-76264342D01*
X219309523Y-76264342D02*
X219261904Y-76359580D01*
X219261904Y-76359580D02*
X219214285Y-76407200D01*
X219214285Y-76407200D02*
X219119047Y-76454819D01*
X219119047Y-76454819D02*
X218833333Y-76454819D01*
X218833333Y-76454819D02*
X218738095Y-76407200D01*
X218738095Y-76407200D02*
X218690476Y-76359580D01*
X219738095Y-76454819D02*
X219738095Y-75454819D01*
X219738095Y-75454819D02*
X220071428Y-76169104D01*
X220071428Y-76169104D02*
X220404761Y-75454819D01*
X220404761Y-75454819D02*
X220404761Y-76454819D01*
X220880952Y-76454819D02*
X220880952Y-75454819D01*
X220880952Y-75454819D02*
X221214285Y-76169104D01*
X221214285Y-76169104D02*
X221547618Y-75454819D01*
X221547618Y-75454819D02*
X221547618Y-76454819D01*
X73309524Y-76454819D02*
X73880952Y-76454819D01*
X73595238Y-77454819D02*
X73595238Y-76454819D01*
X74214286Y-77454819D02*
X74214286Y-76454819D01*
X74214286Y-76931009D02*
X74785714Y-76931009D01*
X74785714Y-77454819D02*
X74785714Y-76454819D01*
X75261905Y-77454819D02*
X75261905Y-76454819D01*
X76309523Y-77359580D02*
X76261904Y-77407200D01*
X76261904Y-77407200D02*
X76119047Y-77454819D01*
X76119047Y-77454819D02*
X76023809Y-77454819D01*
X76023809Y-77454819D02*
X75880952Y-77407200D01*
X75880952Y-77407200D02*
X75785714Y-77311961D01*
X75785714Y-77311961D02*
X75738095Y-77216723D01*
X75738095Y-77216723D02*
X75690476Y-77026247D01*
X75690476Y-77026247D02*
X75690476Y-76883390D01*
X75690476Y-76883390D02*
X75738095Y-76692914D01*
X75738095Y-76692914D02*
X75785714Y-76597676D01*
X75785714Y-76597676D02*
X75880952Y-76502438D01*
X75880952Y-76502438D02*
X76023809Y-76454819D01*
X76023809Y-76454819D02*
X76119047Y-76454819D01*
X76119047Y-76454819D02*
X76261904Y-76502438D01*
X76261904Y-76502438D02*
X76309523Y-76550057D01*
X76738095Y-77454819D02*
X76738095Y-76454819D01*
X77309523Y-77454819D02*
X76880952Y-76883390D01*
X77309523Y-76454819D02*
X76738095Y-77026247D01*
X77738095Y-77454819D02*
X77738095Y-76454819D01*
X77738095Y-76454819D02*
X78309523Y-77454819D01*
X78309523Y-77454819D02*
X78309523Y-76454819D01*
X78785714Y-76931009D02*
X79119047Y-76931009D01*
X79261904Y-77454819D02*
X78785714Y-77454819D01*
X78785714Y-77454819D02*
X78785714Y-76454819D01*
X78785714Y-76454819D02*
X79261904Y-76454819D01*
X79642857Y-77407200D02*
X79785714Y-77454819D01*
X79785714Y-77454819D02*
X80023809Y-77454819D01*
X80023809Y-77454819D02*
X80119047Y-77407200D01*
X80119047Y-77407200D02*
X80166666Y-77359580D01*
X80166666Y-77359580D02*
X80214285Y-77264342D01*
X80214285Y-77264342D02*
X80214285Y-77169104D01*
X80214285Y-77169104D02*
X80166666Y-77073866D01*
X80166666Y-77073866D02*
X80119047Y-77026247D01*
X80119047Y-77026247D02*
X80023809Y-76978628D01*
X80023809Y-76978628D02*
X79833333Y-76931009D01*
X79833333Y-76931009D02*
X79738095Y-76883390D01*
X79738095Y-76883390D02*
X79690476Y-76835771D01*
X79690476Y-76835771D02*
X79642857Y-76740533D01*
X79642857Y-76740533D02*
X79642857Y-76645295D01*
X79642857Y-76645295D02*
X79690476Y-76550057D01*
X79690476Y-76550057D02*
X79738095Y-76502438D01*
X79738095Y-76502438D02*
X79833333Y-76454819D01*
X79833333Y-76454819D02*
X80071428Y-76454819D01*
X80071428Y-76454819D02*
X80214285Y-76502438D01*
X80595238Y-77407200D02*
X80738095Y-77454819D01*
X80738095Y-77454819D02*
X80976190Y-77454819D01*
X80976190Y-77454819D02*
X81071428Y-77407200D01*
X81071428Y-77407200D02*
X81119047Y-77359580D01*
X81119047Y-77359580D02*
X81166666Y-77264342D01*
X81166666Y-77264342D02*
X81166666Y-77169104D01*
X81166666Y-77169104D02*
X81119047Y-77073866D01*
X81119047Y-77073866D02*
X81071428Y-77026247D01*
X81071428Y-77026247D02*
X80976190Y-76978628D01*
X80976190Y-76978628D02*
X80785714Y-76931009D01*
X80785714Y-76931009D02*
X80690476Y-76883390D01*
X80690476Y-76883390D02*
X80642857Y-76835771D01*
X80642857Y-76835771D02*
X80595238Y-76740533D01*
X80595238Y-76740533D02*
X80595238Y-76645295D01*
X80595238Y-76645295D02*
X80642857Y-76550057D01*
X80642857Y-76550057D02*
X80690476Y-76502438D01*
X80690476Y-76502438D02*
X80785714Y-76454819D01*
X80785714Y-76454819D02*
X81023809Y-76454819D01*
X81023809Y-76454819D02*
X81166666Y-76502438D01*
X82357143Y-76931009D02*
X83119048Y-76931009D01*
X83119048Y-77216723D02*
X82357143Y-77216723D01*
X84547619Y-76454819D02*
X84642857Y-76454819D01*
X84642857Y-76454819D02*
X84738095Y-76502438D01*
X84738095Y-76502438D02*
X84785714Y-76550057D01*
X84785714Y-76550057D02*
X84833333Y-76645295D01*
X84833333Y-76645295D02*
X84880952Y-76835771D01*
X84880952Y-76835771D02*
X84880952Y-77073866D01*
X84880952Y-77073866D02*
X84833333Y-77264342D01*
X84833333Y-77264342D02*
X84785714Y-77359580D01*
X84785714Y-77359580D02*
X84738095Y-77407200D01*
X84738095Y-77407200D02*
X84642857Y-77454819D01*
X84642857Y-77454819D02*
X84547619Y-77454819D01*
X84547619Y-77454819D02*
X84452381Y-77407200D01*
X84452381Y-77407200D02*
X84404762Y-77359580D01*
X84404762Y-77359580D02*
X84357143Y-77264342D01*
X84357143Y-77264342D02*
X84309524Y-77073866D01*
X84309524Y-77073866D02*
X84309524Y-76835771D01*
X84309524Y-76835771D02*
X84357143Y-76645295D01*
X84357143Y-76645295D02*
X84404762Y-76550057D01*
X84404762Y-76550057D02*
X84452381Y-76502438D01*
X84452381Y-76502438D02*
X84547619Y-76454819D01*
X85309524Y-77359580D02*
X85357143Y-77407200D01*
X85357143Y-77407200D02*
X85309524Y-77454819D01*
X85309524Y-77454819D02*
X85261905Y-77407200D01*
X85261905Y-77407200D02*
X85309524Y-77359580D01*
X85309524Y-77359580D02*
X85309524Y-77454819D01*
X85690476Y-76454819D02*
X86309523Y-76454819D01*
X86309523Y-76454819D02*
X85976190Y-76835771D01*
X85976190Y-76835771D02*
X86119047Y-76835771D01*
X86119047Y-76835771D02*
X86214285Y-76883390D01*
X86214285Y-76883390D02*
X86261904Y-76931009D01*
X86261904Y-76931009D02*
X86309523Y-77026247D01*
X86309523Y-77026247D02*
X86309523Y-77264342D01*
X86309523Y-77264342D02*
X86261904Y-77359580D01*
X86261904Y-77359580D02*
X86214285Y-77407200D01*
X86214285Y-77407200D02*
X86119047Y-77454819D01*
X86119047Y-77454819D02*
X85833333Y-77454819D01*
X85833333Y-77454819D02*
X85738095Y-77407200D01*
X85738095Y-77407200D02*
X85690476Y-77359580D01*
X86738095Y-77454819D02*
X86738095Y-76454819D01*
X86738095Y-76454819D02*
X87071428Y-77169104D01*
X87071428Y-77169104D02*
X87404761Y-76454819D01*
X87404761Y-76454819D02*
X87404761Y-77454819D01*
X87880952Y-77454819D02*
X87880952Y-76454819D01*
X87880952Y-76454819D02*
X88214285Y-77169104D01*
X88214285Y-77169104D02*
X88547618Y-76454819D01*
X88547618Y-76454819D02*
X88547618Y-77454819D01*
D10*
%TO.C,J1*%
X141000000Y-118000000D02*
X153500000Y-118000000D01*
X141000000Y-123700000D02*
X141000000Y-118000000D01*
X153200000Y-124000000D02*
X141300000Y-124000000D01*
X153500000Y-118000000D02*
X153500000Y-123700000D01*
X141300000Y-124000000D02*
G75*
G02*
X141000000Y-123700000I0J300000D01*
G01*
X153500000Y-123700000D02*
G75*
G02*
X153200000Y-124000000I-300000J0D01*
G01*
%TD*%
M02*
