%TF.GenerationSoftware,KiCad,Pcbnew,8.0.3-8.0.3-0~ubuntu23.10.1*%
%TF.CreationDate,2024-10-21T12:14:11-04:00*%
%TF.ProjectId,neck_electrode,6e65636b-5f65-46c6-9563-74726f64652e,rev?*%
%TF.SameCoordinates,Original*%
%TF.FileFunction,Paste,Top*%
%TF.FilePolarity,Positive*%
%FSLAX46Y46*%
G04 Gerber Fmt 4.6, Leading zero omitted, Abs format (unit mm)*
G04 Created by KiCad (PCBNEW 8.0.3-8.0.3-0~ubuntu23.10.1) date 2024-10-21 12:14:11*
%MOMM*%
%LPD*%
G01*
G04 APERTURE LIST*
%ADD10C,3.600000*%
%ADD11R,0.300000X4.000000*%
G04 APERTURE END LIST*
D10*
%TO.C,TP10*%
X127500000Y-87500000D03*
%TD*%
%TO.C,TP4*%
X140000000Y-70000000D03*
%TD*%
%TO.C,TP6*%
X155000000Y-70000000D03*
%TD*%
%TO.C,TP3*%
X140000000Y-65000000D03*
%TD*%
%TO.C,TP8*%
X167500000Y-70000000D03*
%TD*%
%TO.C,TP11*%
X140000000Y-82500000D03*
%TD*%
%TO.C,TP13*%
X155000000Y-82500000D03*
%TD*%
%TO.C,TP9*%
X127500000Y-82500000D03*
%TD*%
%TO.C,TP14*%
X155000000Y-87500000D03*
%TD*%
%TO.C,TP5*%
X155000000Y-65000000D03*
%TD*%
%TO.C,TP7*%
X167500000Y-65000000D03*
%TD*%
%TO.C,TP1*%
X127500000Y-65000000D03*
%TD*%
%TO.C,TP15*%
X167500000Y-82500000D03*
%TD*%
%TO.C,TP2*%
X127500000Y-70000000D03*
%TD*%
D11*
%TO.C,J1*%
X153000000Y-122000000D03*
X152500000Y-122000000D03*
X152000000Y-122000000D03*
X151500000Y-122000000D03*
X151000000Y-122000000D03*
X150500000Y-122000000D03*
X150000000Y-122000000D03*
X149500000Y-122000000D03*
X149000000Y-122000000D03*
X148500000Y-122000000D03*
X148000000Y-122000000D03*
X147500000Y-122000000D03*
X147000000Y-122000000D03*
X146500000Y-122000000D03*
X146000000Y-122000000D03*
X145500000Y-122000000D03*
X145000000Y-122000000D03*
X144500000Y-122000000D03*
X144000000Y-122000000D03*
X143500000Y-122000000D03*
X143000000Y-122000000D03*
X142500000Y-122000000D03*
X142000000Y-122000000D03*
X141500000Y-122000000D03*
%TD*%
D10*
%TO.C,TP16*%
X167500000Y-87500000D03*
%TD*%
%TO.C,TP12*%
X140000000Y-87500000D03*
%TD*%
M02*
