%TF.GenerationSoftware,KiCad,Pcbnew,8.0.3-8.0.3-0~ubuntu23.10.1*%
%TF.CreationDate,2024-08-03T00:22:19-04:00*%
%TF.ProjectId,ADS131M08_Arduino,41445331-3331-44d3-9038-5f4172647569,rev?*%
%TF.SameCoordinates,Original*%
%TF.FileFunction,Copper,L2,Inr*%
%TF.FilePolarity,Positive*%
%FSLAX46Y46*%
G04 Gerber Fmt 4.6, Leading zero omitted, Abs format (unit mm)*
G04 Created by KiCad (PCBNEW 8.0.3-8.0.3-0~ubuntu23.10.1) date 2024-08-03 00:22:19*
%MOMM*%
%LPD*%
G01*
G04 APERTURE LIST*
%TA.AperFunction,ComponentPad*%
%ADD10R,1.700000X1.700000*%
%TD*%
%TA.AperFunction,ComponentPad*%
%ADD11O,1.700000X1.700000*%
%TD*%
%TA.AperFunction,ViaPad*%
%ADD12C,0.600000*%
%TD*%
G04 APERTURE END LIST*
D10*
%TO.N,/SDA{slash}A4*%
%TO.C,J5*%
X12875000Y40670000D03*
D11*
%TO.N,/SCL{slash}A5*%
X10335000Y40670000D03*
%TO.N,GND*%
X12875000Y38130000D03*
X10335000Y38130000D03*
%TO.N,/IN0+*%
X12875000Y35590000D03*
%TO.N,/IN0-*%
X10335000Y35590000D03*
%TO.N,/IN1-*%
X12875000Y33050000D03*
%TO.N,/IN1+*%
X10335000Y33050000D03*
%TO.N,/IN2+*%
X12875000Y30510000D03*
%TO.N,/IN2-*%
X10335000Y30510000D03*
%TO.N,/IN3-*%
X12875000Y27970000D03*
%TO.N,/IN3+*%
X10335000Y27970000D03*
%TO.N,/IN4+*%
X12875000Y25430000D03*
%TO.N,/IN4-*%
X10335000Y25430000D03*
%TO.N,/IN5-*%
X12875000Y22890000D03*
%TO.N,/IN5+*%
X10335000Y22890000D03*
%TO.N,/IN6+*%
X12875000Y20350000D03*
%TO.N,/IN6-*%
X10335000Y20350000D03*
%TO.N,/IN7-*%
X12875000Y17810000D03*
%TO.N,/IN7+*%
X10335000Y17810000D03*
%TO.N,GND*%
X12875000Y15270000D03*
X10335000Y15270000D03*
%TO.N,/A0*%
X12875000Y12730000D03*
%TO.N,+5V*%
X10335000Y12730000D03*
%TD*%
D10*
%TO.N,unconnected-(J1-Pin_1-Pad1)*%
%TO.C,J1*%
X27940000Y2540000D03*
D11*
%TO.N,/IOREF*%
X30480000Y2540000D03*
%TO.N,/~{RESET}*%
X33020000Y2540000D03*
%TO.N,+3V3*%
X35560000Y2540000D03*
%TO.N,+5V*%
X38100000Y2540000D03*
%TO.N,GND*%
X40640000Y2540000D03*
X43180000Y2540000D03*
%TO.N,VCC*%
X45720000Y2540000D03*
%TD*%
D10*
%TO.N,/A0*%
%TO.C,J3*%
X50800000Y2540000D03*
D11*
%TO.N,/A1*%
X53340000Y2540000D03*
%TO.N,/A2*%
X55880000Y2540000D03*
%TO.N,/A3*%
X58420000Y2540000D03*
%TO.N,unconnected-(J3-Pin_5-Pad5)*%
X60960000Y2540000D03*
%TO.N,unconnected-(J3-Pin_6-Pad6)*%
X63500000Y2540000D03*
%TD*%
D10*
%TO.N,/SCL{slash}A5*%
%TO.C,J2*%
X18796000Y50800000D03*
D11*
%TO.N,/SDA{slash}A4*%
X21336000Y50800000D03*
%TO.N,/AREF*%
X23876000Y50800000D03*
%TO.N,GND*%
X26416000Y50800000D03*
%TO.N,/13*%
X28956000Y50800000D03*
%TO.N,/12*%
X31496000Y50800000D03*
%TO.N,/\u002A11*%
X34036000Y50800000D03*
%TO.N,/\u002A10*%
X36576000Y50800000D03*
%TO.N,/\u002A9*%
X39116000Y50800000D03*
%TO.N,/8*%
X41656000Y50800000D03*
%TD*%
D10*
%TO.N,/7*%
%TO.C,J4*%
X45720000Y50800000D03*
D11*
%TO.N,/\u002A6*%
X48260000Y50800000D03*
%TO.N,/\u002A5*%
X50800000Y50800000D03*
%TO.N,/4*%
X53340000Y50800000D03*
%TO.N,/\u002A3*%
X55880000Y50800000D03*
%TO.N,/2*%
X58420000Y50800000D03*
%TO.N,/TX{slash}1*%
X60960000Y50800000D03*
%TO.N,/RX{slash}0*%
X63500000Y50800000D03*
%TD*%
D12*
%TO.N,GND*%
X37870000Y45310000D03*
X37200000Y13600000D03*
X40290000Y29770000D03*
X38780000Y30040000D03*
X32820000Y47710000D03*
X34450000Y26670000D03*
X35120000Y35480000D03*
X34700000Y28700000D03*
X36650000Y32050000D03*
X41660000Y35490000D03*
X35190000Y20290000D03*
X39030000Y40830000D03*
X36200000Y28700000D03*
X37790000Y21890000D03*
X37220000Y20130000D03*
X40430000Y47680000D03*
X30270000Y47680000D03*
X30270000Y45280000D03*
X32640000Y45530000D03*
X32820000Y43080000D03*
X40300000Y45260000D03*
X34700000Y24600000D03*
X38050000Y42430000D03*
X43690000Y28980000D03*
X38000000Y47780000D03*
X40450000Y42530000D03*
X11770000Y43400000D03*
X35400000Y45380000D03*
X35470000Y42500000D03*
X35450000Y47760000D03*
%TO.N,+5V*%
X37670000Y15730000D03*
X41710000Y34520000D03*
%TO.N,+3.3V*%
X43690000Y28020000D03*
X35700000Y33220000D03*
%TO.N,/IN1+*%
X14400000Y33840000D03*
%TO.N,/IN5+*%
X14400000Y23680000D03*
%TO.N,/IN7+*%
X14400000Y18600000D03*
%TO.N,/IN3+*%
X14400000Y28760000D03*
%TD*%
%TA.AperFunction,Conductor*%
%TO.N,GND*%
G36*
X42714075Y2732993D02*
G01*
X42680000Y2605826D01*
X42680000Y2474174D01*
X42714075Y2347007D01*
X42746988Y2290000D01*
X41073012Y2290000D01*
X41105925Y2347007D01*
X41140000Y2474174D01*
X41140000Y2605826D01*
X41105925Y2732993D01*
X41073012Y2790000D01*
X42746988Y2790000D01*
X42714075Y2732993D01*
G37*
%TD.AperFunction*%
%TA.AperFunction,Conductor*%
G36*
X12409075Y15462993D02*
G01*
X12375000Y15335826D01*
X12375000Y15204174D01*
X12409075Y15077007D01*
X12441988Y15020000D01*
X10768012Y15020000D01*
X10800925Y15077007D01*
X10835000Y15204174D01*
X10835000Y15335826D01*
X10800925Y15462993D01*
X10768012Y15520000D01*
X12441988Y15520000D01*
X12409075Y15462993D01*
G37*
%TD.AperFunction*%
%TA.AperFunction,Conductor*%
G36*
X12409075Y38322993D02*
G01*
X12375000Y38195826D01*
X12375000Y38064174D01*
X12409075Y37937007D01*
X12441988Y37880000D01*
X10768012Y37880000D01*
X10800925Y37937007D01*
X10835000Y38064174D01*
X10835000Y38195826D01*
X10800925Y38322993D01*
X10768012Y38380000D01*
X12441988Y38380000D01*
X12409075Y38322993D01*
G37*
%TD.AperFunction*%
%TA.AperFunction,Conductor*%
G36*
X65281056Y53264199D02*
G01*
X65405806Y53251913D01*
X65417814Y53249524D01*
X65534828Y53214028D01*
X65546138Y53209343D01*
X65653968Y53151707D01*
X65664156Y53144900D01*
X65758670Y53067334D01*
X65767333Y53058671D01*
X65844899Y52964157D01*
X65851706Y52953969D01*
X65909340Y52846143D01*
X65914029Y52834824D01*
X65949522Y52717820D01*
X65951912Y52705803D01*
X65964199Y52581057D01*
X65964500Y52574931D01*
X65964500Y40934595D01*
X65964520Y40934385D01*
X65964519Y40889727D01*
X65964519Y40889719D01*
X65985136Y40759518D01*
X66014219Y40670000D01*
X66025867Y40634146D01*
X66085710Y40516688D01*
X66163191Y40410038D01*
X66209797Y40363430D01*
X66209798Y40363429D01*
X66235929Y40337296D01*
X66235935Y40337292D01*
X68301251Y38271976D01*
X68305372Y38267430D01*
X68384895Y38170524D01*
X68391701Y38160336D01*
X68449330Y38052510D01*
X68454018Y38041191D01*
X68489506Y37924191D01*
X68491896Y37912173D01*
X68504198Y37787207D01*
X68504499Y37781082D01*
X68504498Y37747416D01*
X68504500Y37747407D01*
X68504500Y3649439D01*
X68504499Y3649429D01*
X68504499Y3620695D01*
X68504198Y3614571D01*
X68491916Y3489830D01*
X68489526Y3477811D01*
X68454033Y3360806D01*
X68449343Y3349485D01*
X68391710Y3241667D01*
X68384902Y3231479D01*
X68305321Y3134520D01*
X68301203Y3129976D01*
X68286085Y3114859D01*
X65450544Y279317D01*
X65450505Y279278D01*
X65449937Y278711D01*
X65445430Y274629D01*
X65348526Y195108D01*
X65338339Y188302D01*
X65230509Y130669D01*
X65219189Y125981D01*
X65102191Y90494D01*
X65090173Y88104D01*
X64965206Y75802D01*
X64959081Y75501D01*
X64925416Y75502D01*
X64925406Y75500D01*
X765070Y75500D01*
X758944Y75801D01*
X634197Y88088D01*
X622180Y90478D01*
X505176Y125971D01*
X493857Y130660D01*
X386031Y188294D01*
X375843Y195101D01*
X281329Y272667D01*
X272666Y281330D01*
X195100Y375844D01*
X188293Y386032D01*
X130659Y493858D01*
X125972Y505172D01*
X90476Y622186D01*
X88087Y634198D01*
X75801Y758944D01*
X75500Y765070D01*
X75500Y3409749D01*
X26889500Y3409749D01*
X26889500Y1670252D01*
X26901132Y1611770D01*
X26901133Y1611768D01*
X26945447Y1545448D01*
X27011767Y1501134D01*
X27011769Y1501133D01*
X27070252Y1489500D01*
X28809748Y1489500D01*
X28868231Y1501133D01*
X28934552Y1545448D01*
X28978867Y1611769D01*
X28990500Y1670252D01*
X28990500Y2540001D01*
X29424417Y2540001D01*
X29424417Y2540000D01*
X29444699Y2334070D01*
X29444700Y2334065D01*
X29504766Y2136051D01*
X29504768Y2136046D01*
X29602311Y1953556D01*
X29602313Y1953552D01*
X29602315Y1953550D01*
X29733590Y1793590D01*
X29893550Y1662315D01*
X29893553Y1662314D01*
X29893555Y1662312D01*
X29968912Y1622033D01*
X30076046Y1564768D01*
X30274066Y1504700D01*
X30480000Y1484417D01*
X30685934Y1504700D01*
X30883954Y1564768D01*
X31066450Y1662315D01*
X31226410Y1793590D01*
X31357685Y1953550D01*
X31455232Y2136046D01*
X31515300Y2334066D01*
X31535583Y2540000D01*
X31535583Y2540001D01*
X31964417Y2540001D01*
X31964417Y2540000D01*
X31984699Y2334070D01*
X31984700Y2334065D01*
X32044766Y2136051D01*
X32044768Y2136046D01*
X32142311Y1953556D01*
X32142313Y1953552D01*
X32142315Y1953550D01*
X32273590Y1793590D01*
X32433550Y1662315D01*
X32433553Y1662314D01*
X32433555Y1662312D01*
X32508912Y1622033D01*
X32616046Y1564768D01*
X32814066Y1504700D01*
X33020000Y1484417D01*
X33225934Y1504700D01*
X33423954Y1564768D01*
X33606450Y1662315D01*
X33766410Y1793590D01*
X33897685Y1953550D01*
X33995232Y2136046D01*
X34055300Y2334066D01*
X34075583Y2540000D01*
X34075583Y2540001D01*
X34504417Y2540001D01*
X34504417Y2540000D01*
X34524699Y2334070D01*
X34524700Y2334065D01*
X34584766Y2136051D01*
X34584768Y2136046D01*
X34682311Y1953556D01*
X34682313Y1953552D01*
X34682315Y1953550D01*
X34813590Y1793590D01*
X34973550Y1662315D01*
X34973553Y1662314D01*
X34973555Y1662312D01*
X35048912Y1622033D01*
X35156046Y1564768D01*
X35354066Y1504700D01*
X35560000Y1484417D01*
X35765934Y1504700D01*
X35963954Y1564768D01*
X36146450Y1662315D01*
X36306410Y1793590D01*
X36437685Y1953550D01*
X36535232Y2136046D01*
X36595300Y2334066D01*
X36615583Y2540000D01*
X36615583Y2540001D01*
X37044417Y2540001D01*
X37044417Y2540000D01*
X37064699Y2334070D01*
X37064700Y2334065D01*
X37124766Y2136051D01*
X37124768Y2136046D01*
X37222311Y1953556D01*
X37222313Y1953552D01*
X37222315Y1953550D01*
X37353590Y1793590D01*
X37513550Y1662315D01*
X37513553Y1662314D01*
X37513555Y1662312D01*
X37588912Y1622033D01*
X37696046Y1564768D01*
X37894066Y1504700D01*
X38100000Y1484417D01*
X38305934Y1504700D01*
X38503954Y1564768D01*
X38686450Y1662315D01*
X38846410Y1793590D01*
X38977685Y1953550D01*
X39075232Y2136046D01*
X39135300Y2334066D01*
X39155583Y2540000D01*
X39135300Y2745934D01*
X39121932Y2790002D01*
X39309363Y2790002D01*
X39309364Y2790000D01*
X40206988Y2790000D01*
X40174075Y2732993D01*
X40140000Y2605826D01*
X40140000Y2474174D01*
X40174075Y2347007D01*
X40206988Y2290000D01*
X39309364Y2290000D01*
X39309363Y2289999D01*
X39366567Y2076513D01*
X39366568Y2076511D01*
X39466398Y1862425D01*
X39601892Y1668919D01*
X39768918Y1501893D01*
X39962426Y1366397D01*
X40176503Y1266572D01*
X40176519Y1266566D01*
X40389998Y1209365D01*
X40390000Y1209366D01*
X40390000Y2106988D01*
X40447007Y2074075D01*
X40574174Y2040000D01*
X40705826Y2040000D01*
X40832993Y2074075D01*
X40890000Y2106988D01*
X40890000Y1209366D01*
X40890001Y1209365D01*
X41103480Y1266566D01*
X41103496Y1266572D01*
X41317573Y1366397D01*
X41511081Y1501893D01*
X41678107Y1668919D01*
X41813603Y1862427D01*
X41853356Y1947678D01*
X41888623Y1979996D01*
X41936413Y1977909D01*
X41966644Y1947678D01*
X42006396Y1862427D01*
X42141892Y1668919D01*
X42308918Y1501893D01*
X42502426Y1366397D01*
X42716503Y1266572D01*
X42716519Y1266566D01*
X42929998Y1209365D01*
X42930000Y1209366D01*
X42930000Y2106988D01*
X42987007Y2074075D01*
X43114174Y2040000D01*
X43245826Y2040000D01*
X43372993Y2074075D01*
X43430000Y2106988D01*
X43430000Y1209366D01*
X43430001Y1209365D01*
X43643480Y1266566D01*
X43643496Y1266572D01*
X43857573Y1366397D01*
X44051081Y1501893D01*
X44218107Y1668919D01*
X44353601Y1862425D01*
X44453431Y2076511D01*
X44453432Y2076513D01*
X44510636Y2289999D01*
X44510636Y2290000D01*
X43613012Y2290000D01*
X43645925Y2347007D01*
X43680000Y2474174D01*
X43680000Y2540001D01*
X44664417Y2540001D01*
X44664417Y2540000D01*
X44684699Y2334070D01*
X44684700Y2334065D01*
X44744766Y2136051D01*
X44744768Y2136046D01*
X44842311Y1953556D01*
X44842313Y1953552D01*
X44842315Y1953550D01*
X44973590Y1793590D01*
X45133550Y1662315D01*
X45133553Y1662314D01*
X45133555Y1662312D01*
X45208912Y1622033D01*
X45316046Y1564768D01*
X45514066Y1504700D01*
X45720000Y1484417D01*
X45925934Y1504700D01*
X46123954Y1564768D01*
X46306450Y1662315D01*
X46466410Y1793590D01*
X46597685Y1953550D01*
X46695232Y2136046D01*
X46755300Y2334066D01*
X46775583Y2540000D01*
X46755300Y2745934D01*
X46695232Y2943954D01*
X46597685Y3126450D01*
X46522899Y3217578D01*
X46466411Y3286409D01*
X46466408Y3286412D01*
X46316120Y3409749D01*
X49749500Y3409749D01*
X49749500Y1670252D01*
X49761132Y1611770D01*
X49761133Y1611768D01*
X49805447Y1545448D01*
X49871767Y1501134D01*
X49871769Y1501133D01*
X49930252Y1489500D01*
X51669748Y1489500D01*
X51728231Y1501133D01*
X51794552Y1545448D01*
X51838867Y1611769D01*
X51850500Y1670252D01*
X51850500Y2540001D01*
X52284417Y2540001D01*
X52284417Y2540000D01*
X52304699Y2334070D01*
X52304700Y2334065D01*
X52364766Y2136051D01*
X52364768Y2136046D01*
X52462311Y1953556D01*
X52462313Y1953552D01*
X52462315Y1953550D01*
X52593590Y1793590D01*
X52753550Y1662315D01*
X52753553Y1662314D01*
X52753555Y1662312D01*
X52828912Y1622033D01*
X52936046Y1564768D01*
X53134066Y1504700D01*
X53340000Y1484417D01*
X53545934Y1504700D01*
X53743954Y1564768D01*
X53926450Y1662315D01*
X54086410Y1793590D01*
X54217685Y1953550D01*
X54315232Y2136046D01*
X54375300Y2334066D01*
X54395583Y2540000D01*
X54395583Y2540001D01*
X54824417Y2540001D01*
X54824417Y2540000D01*
X54844699Y2334070D01*
X54844700Y2334065D01*
X54904766Y2136051D01*
X54904768Y2136046D01*
X55002311Y1953556D01*
X55002313Y1953552D01*
X55002315Y1953550D01*
X55133590Y1793590D01*
X55293550Y1662315D01*
X55293553Y1662314D01*
X55293555Y1662312D01*
X55368912Y1622033D01*
X55476046Y1564768D01*
X55674066Y1504700D01*
X55880000Y1484417D01*
X56085934Y1504700D01*
X56283954Y1564768D01*
X56466450Y1662315D01*
X56626410Y1793590D01*
X56757685Y1953550D01*
X56855232Y2136046D01*
X56915300Y2334066D01*
X56935583Y2540000D01*
X56935583Y2540001D01*
X57364417Y2540001D01*
X57364417Y2540000D01*
X57384699Y2334070D01*
X57384700Y2334065D01*
X57444766Y2136051D01*
X57444768Y2136046D01*
X57542311Y1953556D01*
X57542313Y1953552D01*
X57542315Y1953550D01*
X57673590Y1793590D01*
X57833550Y1662315D01*
X57833553Y1662314D01*
X57833555Y1662312D01*
X57908912Y1622033D01*
X58016046Y1564768D01*
X58214066Y1504700D01*
X58420000Y1484417D01*
X58625934Y1504700D01*
X58823954Y1564768D01*
X59006450Y1662315D01*
X59166410Y1793590D01*
X59297685Y1953550D01*
X59395232Y2136046D01*
X59455300Y2334066D01*
X59475583Y2540000D01*
X59475583Y2540001D01*
X59904417Y2540001D01*
X59904417Y2540000D01*
X59924699Y2334070D01*
X59924700Y2334065D01*
X59984766Y2136051D01*
X59984768Y2136046D01*
X60082311Y1953556D01*
X60082313Y1953552D01*
X60082315Y1953550D01*
X60213590Y1793590D01*
X60373550Y1662315D01*
X60373553Y1662314D01*
X60373555Y1662312D01*
X60448912Y1622033D01*
X60556046Y1564768D01*
X60754066Y1504700D01*
X60960000Y1484417D01*
X61165934Y1504700D01*
X61363954Y1564768D01*
X61546450Y1662315D01*
X61706410Y1793590D01*
X61837685Y1953550D01*
X61935232Y2136046D01*
X61995300Y2334066D01*
X62015583Y2540000D01*
X62015583Y2540001D01*
X62444417Y2540001D01*
X62444417Y2540000D01*
X62464699Y2334070D01*
X62464700Y2334065D01*
X62524766Y2136051D01*
X62524768Y2136046D01*
X62622311Y1953556D01*
X62622313Y1953552D01*
X62622315Y1953550D01*
X62753590Y1793590D01*
X62913550Y1662315D01*
X62913553Y1662314D01*
X62913555Y1662312D01*
X62988912Y1622033D01*
X63096046Y1564768D01*
X63294066Y1504700D01*
X63500000Y1484417D01*
X63705934Y1504700D01*
X63903954Y1564768D01*
X64086450Y1662315D01*
X64246410Y1793590D01*
X64377685Y1953550D01*
X64475232Y2136046D01*
X64535300Y2334066D01*
X64555583Y2540000D01*
X64535300Y2745934D01*
X64475232Y2943954D01*
X64377685Y3126450D01*
X64302899Y3217578D01*
X64246411Y3286409D01*
X64246408Y3286412D01*
X64086455Y3417681D01*
X64086453Y3417682D01*
X64086450Y3417685D01*
X64086448Y3417687D01*
X64086444Y3417689D01*
X63903954Y3515232D01*
X63903949Y3515234D01*
X63705935Y3575300D01*
X63705930Y3575301D01*
X63500000Y3595583D01*
X63294069Y3575301D01*
X63294064Y3575300D01*
X63096050Y3515234D01*
X63096045Y3515232D01*
X62913555Y3417689D01*
X62913544Y3417681D01*
X62753591Y3286412D01*
X62753588Y3286409D01*
X62622319Y3126456D01*
X62622311Y3126445D01*
X62524768Y2943955D01*
X62524766Y2943950D01*
X62464700Y2745936D01*
X62464699Y2745931D01*
X62444417Y2540001D01*
X62015583Y2540001D01*
X61995300Y2745934D01*
X61935232Y2943954D01*
X61837685Y3126450D01*
X61762899Y3217578D01*
X61706411Y3286409D01*
X61706408Y3286412D01*
X61546455Y3417681D01*
X61546453Y3417682D01*
X61546450Y3417685D01*
X61546448Y3417687D01*
X61546444Y3417689D01*
X61363954Y3515232D01*
X61363949Y3515234D01*
X61165935Y3575300D01*
X61165930Y3575301D01*
X60960000Y3595583D01*
X60754069Y3575301D01*
X60754064Y3575300D01*
X60556050Y3515234D01*
X60556045Y3515232D01*
X60373555Y3417689D01*
X60373544Y3417681D01*
X60213591Y3286412D01*
X60213588Y3286409D01*
X60082319Y3126456D01*
X60082311Y3126445D01*
X59984768Y2943955D01*
X59984766Y2943950D01*
X59924700Y2745936D01*
X59924699Y2745931D01*
X59904417Y2540001D01*
X59475583Y2540001D01*
X59455300Y2745934D01*
X59395232Y2943954D01*
X59297685Y3126450D01*
X59222899Y3217578D01*
X59166411Y3286409D01*
X59166408Y3286412D01*
X59006455Y3417681D01*
X59006453Y3417682D01*
X59006450Y3417685D01*
X59006448Y3417687D01*
X59006444Y3417689D01*
X58823954Y3515232D01*
X58823949Y3515234D01*
X58625935Y3575300D01*
X58625930Y3575301D01*
X58420000Y3595583D01*
X58214069Y3575301D01*
X58214064Y3575300D01*
X58016050Y3515234D01*
X58016045Y3515232D01*
X57833555Y3417689D01*
X57833544Y3417681D01*
X57673591Y3286412D01*
X57673588Y3286409D01*
X57542319Y3126456D01*
X57542311Y3126445D01*
X57444768Y2943955D01*
X57444766Y2943950D01*
X57384700Y2745936D01*
X57384699Y2745931D01*
X57364417Y2540001D01*
X56935583Y2540001D01*
X56915300Y2745934D01*
X56855232Y2943954D01*
X56757685Y3126450D01*
X56682899Y3217578D01*
X56626411Y3286409D01*
X56626408Y3286412D01*
X56466455Y3417681D01*
X56466453Y3417682D01*
X56466450Y3417685D01*
X56466448Y3417687D01*
X56466444Y3417689D01*
X56283954Y3515232D01*
X56283949Y3515234D01*
X56085935Y3575300D01*
X56085930Y3575301D01*
X55880000Y3595583D01*
X55674069Y3575301D01*
X55674064Y3575300D01*
X55476050Y3515234D01*
X55476045Y3515232D01*
X55293555Y3417689D01*
X55293544Y3417681D01*
X55133591Y3286412D01*
X55133588Y3286409D01*
X55002319Y3126456D01*
X55002311Y3126445D01*
X54904768Y2943955D01*
X54904766Y2943950D01*
X54844700Y2745936D01*
X54844699Y2745931D01*
X54824417Y2540001D01*
X54395583Y2540001D01*
X54375300Y2745934D01*
X54315232Y2943954D01*
X54217685Y3126450D01*
X54142899Y3217578D01*
X54086411Y3286409D01*
X54086408Y3286412D01*
X53926455Y3417681D01*
X53926453Y3417682D01*
X53926450Y3417685D01*
X53926448Y3417687D01*
X53926444Y3417689D01*
X53743954Y3515232D01*
X53743949Y3515234D01*
X53545935Y3575300D01*
X53545930Y3575301D01*
X53340000Y3595583D01*
X53134069Y3575301D01*
X53134064Y3575300D01*
X52936050Y3515234D01*
X52936045Y3515232D01*
X52753555Y3417689D01*
X52753544Y3417681D01*
X52593591Y3286412D01*
X52593588Y3286409D01*
X52462319Y3126456D01*
X52462311Y3126445D01*
X52364768Y2943955D01*
X52364766Y2943950D01*
X52304700Y2745936D01*
X52304699Y2745931D01*
X52284417Y2540001D01*
X51850500Y2540001D01*
X51850500Y3409748D01*
X51838867Y3468231D01*
X51824435Y3489830D01*
X51794552Y3534553D01*
X51728232Y3578867D01*
X51728230Y3578868D01*
X51669748Y3590500D01*
X49930252Y3590500D01*
X49871769Y3578868D01*
X49871767Y3578867D01*
X49805447Y3534553D01*
X49761133Y3468233D01*
X49761132Y3468231D01*
X49749500Y3409749D01*
X46316120Y3409749D01*
X46306455Y3417681D01*
X46306453Y3417682D01*
X46306450Y3417685D01*
X46306448Y3417687D01*
X46306444Y3417689D01*
X46123954Y3515232D01*
X46123949Y3515234D01*
X45925935Y3575300D01*
X45925930Y3575301D01*
X45720000Y3595583D01*
X45514069Y3575301D01*
X45514064Y3575300D01*
X45316050Y3515234D01*
X45316045Y3515232D01*
X45133555Y3417689D01*
X45133544Y3417681D01*
X44973591Y3286412D01*
X44973588Y3286409D01*
X44842319Y3126456D01*
X44842311Y3126445D01*
X44744768Y2943955D01*
X44744766Y2943950D01*
X44684700Y2745936D01*
X44684699Y2745931D01*
X44664417Y2540001D01*
X43680000Y2540001D01*
X43680000Y2605826D01*
X43645925Y2732993D01*
X43613012Y2790000D01*
X44510636Y2790000D01*
X44510636Y2790002D01*
X44453432Y3003488D01*
X44453431Y3003490D01*
X44353600Y3217578D01*
X44218109Y3411080D01*
X44051081Y3578108D01*
X43857575Y3713602D01*
X43643489Y3813432D01*
X43643487Y3813433D01*
X43430001Y3870637D01*
X43430000Y3870636D01*
X43430000Y2973012D01*
X43372993Y3005925D01*
X43245826Y3040000D01*
X43114174Y3040000D01*
X42987007Y3005925D01*
X42930000Y2973012D01*
X42930000Y3870636D01*
X42929998Y3870637D01*
X42716512Y3813433D01*
X42716510Y3813432D01*
X42502422Y3713601D01*
X42308920Y3578110D01*
X42141890Y3411080D01*
X42006399Y3217578D01*
X41966644Y3132322D01*
X41931376Y3100005D01*
X41883586Y3102092D01*
X41853356Y3132322D01*
X41813600Y3217578D01*
X41678109Y3411080D01*
X41511081Y3578108D01*
X41317575Y3713602D01*
X41103489Y3813432D01*
X41103487Y3813433D01*
X40890001Y3870637D01*
X40890000Y3870636D01*
X40890000Y2973012D01*
X40832993Y3005925D01*
X40705826Y3040000D01*
X40574174Y3040000D01*
X40447007Y3005925D01*
X40390000Y2973012D01*
X40390000Y3870636D01*
X40389998Y3870637D01*
X40176512Y3813433D01*
X40176510Y3813432D01*
X39962422Y3713601D01*
X39768920Y3578110D01*
X39601890Y3411080D01*
X39466399Y3217578D01*
X39366568Y3003490D01*
X39366567Y3003488D01*
X39309363Y2790002D01*
X39121932Y2790002D01*
X39075232Y2943954D01*
X38977685Y3126450D01*
X38902899Y3217578D01*
X38846411Y3286409D01*
X38846408Y3286412D01*
X38686455Y3417681D01*
X38686453Y3417682D01*
X38686450Y3417685D01*
X38686448Y3417687D01*
X38686444Y3417689D01*
X38503954Y3515232D01*
X38503949Y3515234D01*
X38305935Y3575300D01*
X38305930Y3575301D01*
X38100000Y3595583D01*
X37894069Y3575301D01*
X37894064Y3575300D01*
X37696050Y3515234D01*
X37696045Y3515232D01*
X37513555Y3417689D01*
X37513544Y3417681D01*
X37353591Y3286412D01*
X37353588Y3286409D01*
X37222319Y3126456D01*
X37222311Y3126445D01*
X37124768Y2943955D01*
X37124766Y2943950D01*
X37064700Y2745936D01*
X37064699Y2745931D01*
X37044417Y2540001D01*
X36615583Y2540001D01*
X36595300Y2745934D01*
X36535232Y2943954D01*
X36437685Y3126450D01*
X36362899Y3217578D01*
X36306411Y3286409D01*
X36306408Y3286412D01*
X36146455Y3417681D01*
X36146453Y3417682D01*
X36146450Y3417685D01*
X36146448Y3417687D01*
X36146444Y3417689D01*
X35963954Y3515232D01*
X35963949Y3515234D01*
X35765935Y3575300D01*
X35765930Y3575301D01*
X35560000Y3595583D01*
X35354069Y3575301D01*
X35354064Y3575300D01*
X35156050Y3515234D01*
X35156045Y3515232D01*
X34973555Y3417689D01*
X34973544Y3417681D01*
X34813591Y3286412D01*
X34813588Y3286409D01*
X34682319Y3126456D01*
X34682311Y3126445D01*
X34584768Y2943955D01*
X34584766Y2943950D01*
X34524700Y2745936D01*
X34524699Y2745931D01*
X34504417Y2540001D01*
X34075583Y2540001D01*
X34055300Y2745934D01*
X33995232Y2943954D01*
X33897685Y3126450D01*
X33822899Y3217578D01*
X33766411Y3286409D01*
X33766408Y3286412D01*
X33606455Y3417681D01*
X33606453Y3417682D01*
X33606450Y3417685D01*
X33606448Y3417687D01*
X33606444Y3417689D01*
X33423954Y3515232D01*
X33423949Y3515234D01*
X33225935Y3575300D01*
X33225930Y3575301D01*
X33020000Y3595583D01*
X32814069Y3575301D01*
X32814064Y3575300D01*
X32616050Y3515234D01*
X32616045Y3515232D01*
X32433555Y3417689D01*
X32433544Y3417681D01*
X32273591Y3286412D01*
X32273588Y3286409D01*
X32142319Y3126456D01*
X32142311Y3126445D01*
X32044768Y2943955D01*
X32044766Y2943950D01*
X31984700Y2745936D01*
X31984699Y2745931D01*
X31964417Y2540001D01*
X31535583Y2540001D01*
X31515300Y2745934D01*
X31455232Y2943954D01*
X31357685Y3126450D01*
X31282899Y3217578D01*
X31226411Y3286409D01*
X31226408Y3286412D01*
X31066455Y3417681D01*
X31066453Y3417682D01*
X31066450Y3417685D01*
X31066448Y3417687D01*
X31066444Y3417689D01*
X30883954Y3515232D01*
X30883949Y3515234D01*
X30685935Y3575300D01*
X30685930Y3575301D01*
X30480000Y3595583D01*
X30274069Y3575301D01*
X30274064Y3575300D01*
X30076050Y3515234D01*
X30076045Y3515232D01*
X29893555Y3417689D01*
X29893544Y3417681D01*
X29733591Y3286412D01*
X29733588Y3286409D01*
X29602319Y3126456D01*
X29602311Y3126445D01*
X29504768Y2943955D01*
X29504766Y2943950D01*
X29444700Y2745936D01*
X29444699Y2745931D01*
X29424417Y2540001D01*
X28990500Y2540001D01*
X28990500Y3409748D01*
X28978867Y3468231D01*
X28964435Y3489830D01*
X28934552Y3534553D01*
X28868232Y3578867D01*
X28868230Y3578868D01*
X28809748Y3590500D01*
X27070252Y3590500D01*
X27011769Y3578868D01*
X27011767Y3578867D01*
X26945447Y3534553D01*
X26901133Y3468233D01*
X26901132Y3468231D01*
X26889500Y3409749D01*
X75500Y3409749D01*
X75500Y12730001D01*
X9279417Y12730001D01*
X9279417Y12730000D01*
X9299699Y12524070D01*
X9299700Y12524065D01*
X9359766Y12326051D01*
X9359768Y12326046D01*
X9457311Y12143556D01*
X9457313Y12143552D01*
X9457315Y12143550D01*
X9588590Y11983590D01*
X9748550Y11852315D01*
X9748553Y11852314D01*
X9748555Y11852312D01*
X9823912Y11812033D01*
X9931046Y11754768D01*
X10129066Y11694700D01*
X10335000Y11674417D01*
X10540934Y11694700D01*
X10738954Y11754768D01*
X10921450Y11852315D01*
X11081410Y11983590D01*
X11212685Y12143550D01*
X11310232Y12326046D01*
X11370300Y12524066D01*
X11390583Y12730000D01*
X11390583Y12730001D01*
X11819417Y12730001D01*
X11819417Y12730000D01*
X11839699Y12524070D01*
X11839700Y12524065D01*
X11899766Y12326051D01*
X11899768Y12326046D01*
X11997311Y12143556D01*
X11997313Y12143552D01*
X11997315Y12143550D01*
X12128590Y11983590D01*
X12288550Y11852315D01*
X12288553Y11852314D01*
X12288555Y11852312D01*
X12363912Y11812033D01*
X12471046Y11754768D01*
X12669066Y11694700D01*
X12875000Y11674417D01*
X13080934Y11694700D01*
X13278954Y11754768D01*
X13461450Y11852315D01*
X13621410Y11983590D01*
X13752685Y12143550D01*
X13850232Y12326046D01*
X13910300Y12524066D01*
X13930583Y12730000D01*
X13910300Y12935934D01*
X13850232Y13133954D01*
X13752685Y13316450D01*
X13621410Y13476410D01*
X13461450Y13607685D01*
X13461448Y13607687D01*
X13461444Y13607689D01*
X13278954Y13705232D01*
X13278949Y13705234D01*
X13080935Y13765300D01*
X13080930Y13765301D01*
X12875000Y13785583D01*
X12669069Y13765301D01*
X12669064Y13765300D01*
X12471050Y13705234D01*
X12471045Y13705232D01*
X12288555Y13607689D01*
X12288544Y13607681D01*
X12128591Y13476412D01*
X12128588Y13476409D01*
X11997319Y13316456D01*
X11997311Y13316445D01*
X11899768Y13133955D01*
X11899766Y13133950D01*
X11839700Y12935936D01*
X11839699Y12935931D01*
X11819417Y12730001D01*
X11390583Y12730001D01*
X11370300Y12935934D01*
X11310232Y13133954D01*
X11212685Y13316450D01*
X11081410Y13476410D01*
X10921450Y13607685D01*
X10921448Y13607687D01*
X10921444Y13607689D01*
X10738954Y13705232D01*
X10738949Y13705234D01*
X10540935Y13765300D01*
X10540930Y13765301D01*
X10335000Y13785583D01*
X10129069Y13765301D01*
X10129064Y13765300D01*
X9931050Y13705234D01*
X9931045Y13705232D01*
X9748555Y13607689D01*
X9748544Y13607681D01*
X9588591Y13476412D01*
X9588588Y13476409D01*
X9457319Y13316456D01*
X9457311Y13316445D01*
X9359768Y13133955D01*
X9359766Y13133950D01*
X9299700Y12935936D01*
X9299699Y12935931D01*
X9279417Y12730001D01*
X75500Y12730001D01*
X75500Y15520002D01*
X9004363Y15520002D01*
X9004364Y15520000D01*
X9901988Y15520000D01*
X9869075Y15462993D01*
X9835000Y15335826D01*
X9835000Y15204174D01*
X9869075Y15077007D01*
X9901988Y15020000D01*
X9004364Y15020000D01*
X9004363Y15019999D01*
X9061567Y14806513D01*
X9061568Y14806511D01*
X9161398Y14592425D01*
X9296892Y14398919D01*
X9463918Y14231893D01*
X9657426Y14096397D01*
X9871503Y13996572D01*
X9871519Y13996566D01*
X10084998Y13939365D01*
X10085000Y13939366D01*
X10085000Y14836988D01*
X10142007Y14804075D01*
X10269174Y14770000D01*
X10400826Y14770000D01*
X10527993Y14804075D01*
X10585000Y14836988D01*
X10585000Y13939366D01*
X10585001Y13939365D01*
X10798480Y13996566D01*
X10798496Y13996572D01*
X11012573Y14096397D01*
X11206081Y14231893D01*
X11373107Y14398919D01*
X11508603Y14592427D01*
X11548356Y14677678D01*
X11583623Y14709996D01*
X11631413Y14707909D01*
X11661644Y14677678D01*
X11701396Y14592427D01*
X11836892Y14398919D01*
X12003918Y14231893D01*
X12197426Y14096397D01*
X12411503Y13996572D01*
X12411519Y13996566D01*
X12624998Y13939365D01*
X12625000Y13939366D01*
X12625000Y14836988D01*
X12682007Y14804075D01*
X12809174Y14770000D01*
X12940826Y14770000D01*
X13067993Y14804075D01*
X13125000Y14836988D01*
X13125000Y13939366D01*
X13125001Y13939365D01*
X13338480Y13996566D01*
X13338496Y13996572D01*
X13552573Y14096397D01*
X13746081Y14231893D01*
X13913107Y14398919D01*
X14048601Y14592425D01*
X14148431Y14806511D01*
X14148432Y14806513D01*
X14205636Y15019999D01*
X14205636Y15020000D01*
X13308012Y15020000D01*
X13340925Y15077007D01*
X13375000Y15204174D01*
X13375000Y15335826D01*
X13340925Y15462993D01*
X13308012Y15520000D01*
X14205636Y15520000D01*
X14205636Y15520002D01*
X14149367Y15730000D01*
X37164353Y15730000D01*
X37184834Y15587545D01*
X37244623Y15456628D01*
X37244623Y15456626D01*
X37338871Y15347858D01*
X37338872Y15347857D01*
X37459947Y15270047D01*
X37459949Y15270047D01*
X37459950Y15270046D01*
X37598036Y15229501D01*
X37598038Y15229500D01*
X37598039Y15229500D01*
X37741962Y15229500D01*
X37741962Y15229501D01*
X37880053Y15270047D01*
X38001128Y15347857D01*
X38095377Y15456627D01*
X38155165Y15587543D01*
X38175647Y15730000D01*
X38155165Y15872457D01*
X38095377Y16003373D01*
X38095376Y16003375D01*
X38001128Y16112143D01*
X37956101Y16141080D01*
X37880053Y16189953D01*
X37880051Y16189954D01*
X37880049Y16189955D01*
X37741963Y16230500D01*
X37741961Y16230500D01*
X37598039Y16230500D01*
X37598037Y16230500D01*
X37459950Y16189955D01*
X37338871Y16112143D01*
X37244623Y16003375D01*
X37244623Y16003373D01*
X37184834Y15872456D01*
X37164353Y15730000D01*
X14149367Y15730000D01*
X14148432Y15733488D01*
X14148431Y15733490D01*
X14048600Y15947578D01*
X13913109Y16141080D01*
X13746081Y16308108D01*
X13552575Y16443602D01*
X13338489Y16543432D01*
X13338487Y16543433D01*
X13125001Y16600637D01*
X13125000Y16600636D01*
X13125000Y15703012D01*
X13067993Y15735925D01*
X12940826Y15770000D01*
X12809174Y15770000D01*
X12682007Y15735925D01*
X12625000Y15703012D01*
X12625000Y16600636D01*
X12624998Y16600637D01*
X12411512Y16543433D01*
X12411510Y16543432D01*
X12197422Y16443601D01*
X12003920Y16308110D01*
X11836890Y16141080D01*
X11701399Y15947578D01*
X11661644Y15862322D01*
X11626376Y15830005D01*
X11578586Y15832092D01*
X11548356Y15862322D01*
X11508600Y15947578D01*
X11373109Y16141080D01*
X11206081Y16308108D01*
X11012575Y16443602D01*
X10798489Y16543432D01*
X10798487Y16543433D01*
X10585001Y16600637D01*
X10585000Y16600636D01*
X10585000Y15703012D01*
X10527993Y15735925D01*
X10400826Y15770000D01*
X10269174Y15770000D01*
X10142007Y15735925D01*
X10085000Y15703012D01*
X10085000Y16600636D01*
X10084998Y16600637D01*
X9871512Y16543433D01*
X9871510Y16543432D01*
X9657422Y16443601D01*
X9463920Y16308110D01*
X9296890Y16141080D01*
X9161399Y15947578D01*
X9061568Y15733490D01*
X9061567Y15733488D01*
X9004363Y15520002D01*
X75500Y15520002D01*
X75500Y17810001D01*
X9279417Y17810001D01*
X9279417Y17810000D01*
X9299699Y17604070D01*
X9299700Y17604065D01*
X9359766Y17406051D01*
X9359768Y17406046D01*
X9457311Y17223556D01*
X9457313Y17223552D01*
X9457315Y17223550D01*
X9588590Y17063590D01*
X9748550Y16932315D01*
X9748553Y16932314D01*
X9748555Y16932312D01*
X9823912Y16892033D01*
X9931046Y16834768D01*
X10129066Y16774700D01*
X10335000Y16754417D01*
X10540934Y16774700D01*
X10738954Y16834768D01*
X10921450Y16932315D01*
X11081410Y17063590D01*
X11212685Y17223550D01*
X11310232Y17406046D01*
X11370300Y17604066D01*
X11390583Y17810000D01*
X11390583Y17810001D01*
X11819417Y17810001D01*
X11819417Y17810000D01*
X11839699Y17604070D01*
X11839700Y17604065D01*
X11899766Y17406051D01*
X11899768Y17406046D01*
X11997311Y17223556D01*
X11997313Y17223552D01*
X11997315Y17223550D01*
X12128590Y17063590D01*
X12288550Y16932315D01*
X12288553Y16932314D01*
X12288555Y16932312D01*
X12363912Y16892033D01*
X12471046Y16834768D01*
X12669066Y16774700D01*
X12875000Y16754417D01*
X13080934Y16774700D01*
X13278954Y16834768D01*
X13461450Y16932315D01*
X13621410Y17063590D01*
X13752685Y17223550D01*
X13850232Y17406046D01*
X13910300Y17604066D01*
X13930583Y17810000D01*
X13910300Y18015934D01*
X13850232Y18213954D01*
X13790007Y18326626D01*
X13752688Y18396445D01*
X13752686Y18396447D01*
X13752685Y18396450D01*
X13621410Y18556410D01*
X13568295Y18600000D01*
X13894353Y18600000D01*
X13914834Y18457545D01*
X13974623Y18326628D01*
X13974623Y18326626D01*
X14068871Y18217858D01*
X14068872Y18217857D01*
X14189947Y18140047D01*
X14189949Y18140047D01*
X14189950Y18140046D01*
X14328036Y18099501D01*
X14328038Y18099500D01*
X14328039Y18099500D01*
X14471962Y18099500D01*
X14471962Y18099501D01*
X14610053Y18140047D01*
X14731128Y18217857D01*
X14825377Y18326627D01*
X14885165Y18457543D01*
X14905647Y18600000D01*
X14885165Y18742457D01*
X14825377Y18873373D01*
X14825376Y18873375D01*
X14731128Y18982143D01*
X14610053Y19059953D01*
X14610051Y19059954D01*
X14610049Y19059955D01*
X14471963Y19100500D01*
X14471961Y19100500D01*
X14328039Y19100500D01*
X14328037Y19100500D01*
X14189950Y19059955D01*
X14068871Y18982143D01*
X13974623Y18873375D01*
X13974623Y18873373D01*
X13914834Y18742456D01*
X13894353Y18600000D01*
X13568295Y18600000D01*
X13461450Y18687685D01*
X13461448Y18687687D01*
X13461444Y18687689D01*
X13278954Y18785232D01*
X13278949Y18785234D01*
X13080935Y18845300D01*
X13080930Y18845301D01*
X12875000Y18865583D01*
X12669069Y18845301D01*
X12669064Y18845300D01*
X12471050Y18785234D01*
X12471045Y18785232D01*
X12288555Y18687689D01*
X12288544Y18687681D01*
X12128591Y18556412D01*
X12128588Y18556409D01*
X11997319Y18396456D01*
X11997311Y18396445D01*
X11899768Y18213955D01*
X11899766Y18213950D01*
X11839700Y18015936D01*
X11839699Y18015931D01*
X11819417Y17810001D01*
X11390583Y17810001D01*
X11370300Y18015934D01*
X11310232Y18213954D01*
X11250007Y18326626D01*
X11212688Y18396445D01*
X11212686Y18396447D01*
X11212685Y18396450D01*
X11081410Y18556410D01*
X10921450Y18687685D01*
X10921448Y18687687D01*
X10921444Y18687689D01*
X10738954Y18785232D01*
X10738949Y18785234D01*
X10540935Y18845300D01*
X10540930Y18845301D01*
X10335000Y18865583D01*
X10129069Y18845301D01*
X10129064Y18845300D01*
X9931050Y18785234D01*
X9931045Y18785232D01*
X9748555Y18687689D01*
X9748544Y18687681D01*
X9588591Y18556412D01*
X9588588Y18556409D01*
X9457319Y18396456D01*
X9457311Y18396445D01*
X9359768Y18213955D01*
X9359766Y18213950D01*
X9299700Y18015936D01*
X9299699Y18015931D01*
X9279417Y17810001D01*
X75500Y17810001D01*
X75500Y20350001D01*
X9279417Y20350001D01*
X9279417Y20350000D01*
X9299699Y20144070D01*
X9299700Y20144065D01*
X9359766Y19946051D01*
X9359768Y19946046D01*
X9457311Y19763556D01*
X9457313Y19763552D01*
X9457315Y19763550D01*
X9588590Y19603590D01*
X9748550Y19472315D01*
X9748553Y19472314D01*
X9748555Y19472312D01*
X9823912Y19432033D01*
X9931046Y19374768D01*
X10129066Y19314700D01*
X10335000Y19294417D01*
X10540934Y19314700D01*
X10738954Y19374768D01*
X10921450Y19472315D01*
X11081410Y19603590D01*
X11212685Y19763550D01*
X11310232Y19946046D01*
X11370300Y20144066D01*
X11390583Y20350000D01*
X11390583Y20350001D01*
X11819417Y20350001D01*
X11819417Y20350000D01*
X11839699Y20144070D01*
X11839700Y20144065D01*
X11899766Y19946051D01*
X11899768Y19946046D01*
X11997311Y19763556D01*
X11997313Y19763552D01*
X11997315Y19763550D01*
X12128590Y19603590D01*
X12288550Y19472315D01*
X12288553Y19472314D01*
X12288555Y19472312D01*
X12363912Y19432033D01*
X12471046Y19374768D01*
X12669066Y19314700D01*
X12875000Y19294417D01*
X13080934Y19314700D01*
X13278954Y19374768D01*
X13461450Y19472315D01*
X13621410Y19603590D01*
X13752685Y19763550D01*
X13850232Y19946046D01*
X13910300Y20144066D01*
X13930583Y20350000D01*
X13910300Y20555934D01*
X13850232Y20753954D01*
X13752685Y20936450D01*
X13621410Y21096410D01*
X13461450Y21227685D01*
X13461448Y21227687D01*
X13461444Y21227689D01*
X13278954Y21325232D01*
X13278949Y21325234D01*
X13080935Y21385300D01*
X13080930Y21385301D01*
X12875000Y21405583D01*
X12669069Y21385301D01*
X12669064Y21385300D01*
X12471050Y21325234D01*
X12471045Y21325232D01*
X12288555Y21227689D01*
X12288544Y21227681D01*
X12128591Y21096412D01*
X12128588Y21096409D01*
X11997319Y20936456D01*
X11997311Y20936445D01*
X11899768Y20753955D01*
X11899766Y20753950D01*
X11839700Y20555936D01*
X11839699Y20555931D01*
X11819417Y20350001D01*
X11390583Y20350001D01*
X11370300Y20555934D01*
X11310232Y20753954D01*
X11212685Y20936450D01*
X11081410Y21096410D01*
X10921450Y21227685D01*
X10921448Y21227687D01*
X10921444Y21227689D01*
X10738954Y21325232D01*
X10738949Y21325234D01*
X10540935Y21385300D01*
X10540930Y21385301D01*
X10335000Y21405583D01*
X10129069Y21385301D01*
X10129064Y21385300D01*
X9931050Y21325234D01*
X9931045Y21325232D01*
X9748555Y21227689D01*
X9748544Y21227681D01*
X9588591Y21096412D01*
X9588588Y21096409D01*
X9457319Y20936456D01*
X9457311Y20936445D01*
X9359768Y20753955D01*
X9359766Y20753950D01*
X9299700Y20555936D01*
X9299699Y20555931D01*
X9279417Y20350001D01*
X75500Y20350001D01*
X75500Y22890001D01*
X9279417Y22890001D01*
X9279417Y22890000D01*
X9299699Y22684070D01*
X9299700Y22684065D01*
X9359766Y22486051D01*
X9359768Y22486046D01*
X9457311Y22303556D01*
X9457313Y22303552D01*
X9457315Y22303550D01*
X9588590Y22143590D01*
X9748550Y22012315D01*
X9748553Y22012314D01*
X9748555Y22012312D01*
X9823912Y21972033D01*
X9931046Y21914768D01*
X10129066Y21854700D01*
X10335000Y21834417D01*
X10540934Y21854700D01*
X10738954Y21914768D01*
X10921450Y22012315D01*
X11081410Y22143590D01*
X11212685Y22303550D01*
X11310232Y22486046D01*
X11370300Y22684066D01*
X11390583Y22890000D01*
X11390583Y22890001D01*
X11819417Y22890001D01*
X11819417Y22890000D01*
X11839699Y22684070D01*
X11839700Y22684065D01*
X11899766Y22486051D01*
X11899768Y22486046D01*
X11997311Y22303556D01*
X11997313Y22303552D01*
X11997315Y22303550D01*
X12128590Y22143590D01*
X12288550Y22012315D01*
X12288553Y22012314D01*
X12288555Y22012312D01*
X12363912Y21972033D01*
X12471046Y21914768D01*
X12669066Y21854700D01*
X12875000Y21834417D01*
X13080934Y21854700D01*
X13278954Y21914768D01*
X13461450Y22012315D01*
X13621410Y22143590D01*
X13752685Y22303550D01*
X13850232Y22486046D01*
X13910300Y22684066D01*
X13930583Y22890000D01*
X13910300Y23095934D01*
X13850232Y23293954D01*
X13790007Y23406626D01*
X13752688Y23476445D01*
X13752686Y23476447D01*
X13752685Y23476450D01*
X13621410Y23636410D01*
X13568295Y23680000D01*
X13894353Y23680000D01*
X13914834Y23537545D01*
X13974623Y23406628D01*
X13974623Y23406626D01*
X14068871Y23297858D01*
X14068872Y23297857D01*
X14189947Y23220047D01*
X14189949Y23220047D01*
X14189950Y23220046D01*
X14328036Y23179501D01*
X14328038Y23179500D01*
X14328039Y23179500D01*
X14471962Y23179500D01*
X14471962Y23179501D01*
X14610053Y23220047D01*
X14731128Y23297857D01*
X14825377Y23406627D01*
X14885165Y23537543D01*
X14905647Y23680000D01*
X14885165Y23822457D01*
X14825377Y23953373D01*
X14825376Y23953375D01*
X14731128Y24062143D01*
X14610053Y24139953D01*
X14610051Y24139954D01*
X14610049Y24139955D01*
X14471963Y24180500D01*
X14471961Y24180500D01*
X14328039Y24180500D01*
X14328037Y24180500D01*
X14189950Y24139955D01*
X14068871Y24062143D01*
X13974623Y23953375D01*
X13974623Y23953373D01*
X13914834Y23822456D01*
X13894353Y23680000D01*
X13568295Y23680000D01*
X13461450Y23767685D01*
X13461448Y23767687D01*
X13461444Y23767689D01*
X13278954Y23865232D01*
X13278949Y23865234D01*
X13080935Y23925300D01*
X13080930Y23925301D01*
X12875000Y23945583D01*
X12669069Y23925301D01*
X12669064Y23925300D01*
X12471050Y23865234D01*
X12471045Y23865232D01*
X12288555Y23767689D01*
X12288544Y23767681D01*
X12128591Y23636412D01*
X12128588Y23636409D01*
X11997319Y23476456D01*
X11997311Y23476445D01*
X11899768Y23293955D01*
X11899766Y23293950D01*
X11839700Y23095936D01*
X11839699Y23095931D01*
X11819417Y22890001D01*
X11390583Y22890001D01*
X11370300Y23095934D01*
X11310232Y23293954D01*
X11250007Y23406626D01*
X11212688Y23476445D01*
X11212686Y23476447D01*
X11212685Y23476450D01*
X11081410Y23636410D01*
X10921450Y23767685D01*
X10921448Y23767687D01*
X10921444Y23767689D01*
X10738954Y23865232D01*
X10738949Y23865234D01*
X10540935Y23925300D01*
X10540930Y23925301D01*
X10335000Y23945583D01*
X10129069Y23925301D01*
X10129064Y23925300D01*
X9931050Y23865234D01*
X9931045Y23865232D01*
X9748555Y23767689D01*
X9748544Y23767681D01*
X9588591Y23636412D01*
X9588588Y23636409D01*
X9457319Y23476456D01*
X9457311Y23476445D01*
X9359768Y23293955D01*
X9359766Y23293950D01*
X9299700Y23095936D01*
X9299699Y23095931D01*
X9279417Y22890001D01*
X75500Y22890001D01*
X75500Y25430001D01*
X9279417Y25430001D01*
X9279417Y25430000D01*
X9299699Y25224070D01*
X9299700Y25224065D01*
X9359766Y25026051D01*
X9359768Y25026046D01*
X9457311Y24843556D01*
X9457313Y24843552D01*
X9457315Y24843550D01*
X9588590Y24683590D01*
X9748550Y24552315D01*
X9748553Y24552314D01*
X9748555Y24552312D01*
X9823912Y24512033D01*
X9931046Y24454768D01*
X10129066Y24394700D01*
X10335000Y24374417D01*
X10540934Y24394700D01*
X10738954Y24454768D01*
X10921450Y24552315D01*
X11081410Y24683590D01*
X11212685Y24843550D01*
X11310232Y25026046D01*
X11370300Y25224066D01*
X11390583Y25430000D01*
X11390583Y25430001D01*
X11819417Y25430001D01*
X11819417Y25430000D01*
X11839699Y25224070D01*
X11839700Y25224065D01*
X11899766Y25026051D01*
X11899768Y25026046D01*
X11997311Y24843556D01*
X11997313Y24843552D01*
X11997315Y24843550D01*
X12128590Y24683590D01*
X12288550Y24552315D01*
X12288553Y24552314D01*
X12288555Y24552312D01*
X12363912Y24512033D01*
X12471046Y24454768D01*
X12669066Y24394700D01*
X12875000Y24374417D01*
X13080934Y24394700D01*
X13278954Y24454768D01*
X13461450Y24552315D01*
X13621410Y24683590D01*
X13752685Y24843550D01*
X13850232Y25026046D01*
X13910300Y25224066D01*
X13930583Y25430000D01*
X13910300Y25635934D01*
X13850232Y25833954D01*
X13752685Y26016450D01*
X13621410Y26176410D01*
X13461450Y26307685D01*
X13461448Y26307687D01*
X13461444Y26307689D01*
X13278954Y26405232D01*
X13278949Y26405234D01*
X13080935Y26465300D01*
X13080930Y26465301D01*
X12875000Y26485583D01*
X12669069Y26465301D01*
X12669064Y26465300D01*
X12471050Y26405234D01*
X12471045Y26405232D01*
X12288555Y26307689D01*
X12288544Y26307681D01*
X12128591Y26176412D01*
X12128588Y26176409D01*
X11997319Y26016456D01*
X11997311Y26016445D01*
X11899768Y25833955D01*
X11899766Y25833950D01*
X11839700Y25635936D01*
X11839699Y25635931D01*
X11819417Y25430001D01*
X11390583Y25430001D01*
X11370300Y25635934D01*
X11310232Y25833954D01*
X11212685Y26016450D01*
X11081410Y26176410D01*
X10921450Y26307685D01*
X10921448Y26307687D01*
X10921444Y26307689D01*
X10738954Y26405232D01*
X10738949Y26405234D01*
X10540935Y26465300D01*
X10540930Y26465301D01*
X10335000Y26485583D01*
X10129069Y26465301D01*
X10129064Y26465300D01*
X9931050Y26405234D01*
X9931045Y26405232D01*
X9748555Y26307689D01*
X9748544Y26307681D01*
X9588591Y26176412D01*
X9588588Y26176409D01*
X9457319Y26016456D01*
X9457311Y26016445D01*
X9359768Y25833955D01*
X9359766Y25833950D01*
X9299700Y25635936D01*
X9299699Y25635931D01*
X9279417Y25430001D01*
X75500Y25430001D01*
X75500Y27970001D01*
X9279417Y27970001D01*
X9279417Y27970000D01*
X9299699Y27764070D01*
X9299700Y27764065D01*
X9359766Y27566051D01*
X9359768Y27566046D01*
X9457311Y27383556D01*
X9457313Y27383552D01*
X9457315Y27383550D01*
X9588590Y27223590D01*
X9748550Y27092315D01*
X9748553Y27092314D01*
X9748555Y27092312D01*
X9823912Y27052033D01*
X9931046Y26994768D01*
X10129066Y26934700D01*
X10335000Y26914417D01*
X10540934Y26934700D01*
X10738954Y26994768D01*
X10921450Y27092315D01*
X11081410Y27223590D01*
X11212685Y27383550D01*
X11310232Y27566046D01*
X11370300Y27764066D01*
X11390583Y27970000D01*
X11390583Y27970001D01*
X11819417Y27970001D01*
X11819417Y27970000D01*
X11839699Y27764070D01*
X11839700Y27764065D01*
X11899766Y27566051D01*
X11899768Y27566046D01*
X11997311Y27383556D01*
X11997313Y27383552D01*
X11997315Y27383550D01*
X12128590Y27223590D01*
X12288550Y27092315D01*
X12288553Y27092314D01*
X12288555Y27092312D01*
X12363912Y27052033D01*
X12471046Y26994768D01*
X12669066Y26934700D01*
X12875000Y26914417D01*
X13080934Y26934700D01*
X13278954Y26994768D01*
X13461450Y27092315D01*
X13621410Y27223590D01*
X13752685Y27383550D01*
X13850232Y27566046D01*
X13910300Y27764066D01*
X13930583Y27970000D01*
X13925658Y28020000D01*
X43184353Y28020000D01*
X43204834Y27877545D01*
X43204835Y27877543D01*
X43256659Y27764065D01*
X43264623Y27746628D01*
X43264623Y27746626D01*
X43358871Y27637858D01*
X43358872Y27637857D01*
X43479947Y27560047D01*
X43479949Y27560047D01*
X43479950Y27560046D01*
X43618036Y27519501D01*
X43618038Y27519500D01*
X43618039Y27519500D01*
X43761962Y27519500D01*
X43761962Y27519501D01*
X43900053Y27560047D01*
X44021128Y27637857D01*
X44115377Y27746627D01*
X44175165Y27877543D01*
X44195647Y28020000D01*
X44175165Y28162457D01*
X44115377Y28293373D01*
X44115376Y28293375D01*
X44021128Y28402143D01*
X43900053Y28479953D01*
X43900051Y28479954D01*
X43900049Y28479955D01*
X43761963Y28520500D01*
X43761961Y28520500D01*
X43618039Y28520500D01*
X43618037Y28520500D01*
X43479950Y28479955D01*
X43358871Y28402143D01*
X43264623Y28293375D01*
X43264623Y28293373D01*
X43204834Y28162456D01*
X43184353Y28020000D01*
X13925658Y28020000D01*
X13910300Y28175934D01*
X13850232Y28373954D01*
X13790007Y28486626D01*
X13752688Y28556445D01*
X13752686Y28556447D01*
X13752685Y28556450D01*
X13621410Y28716410D01*
X13568295Y28760000D01*
X13894353Y28760000D01*
X13914834Y28617545D01*
X13974623Y28486628D01*
X13974623Y28486626D01*
X14047828Y28402143D01*
X14068872Y28377857D01*
X14189947Y28300047D01*
X14189949Y28300047D01*
X14189950Y28300046D01*
X14328036Y28259501D01*
X14328038Y28259500D01*
X14328039Y28259500D01*
X14471962Y28259500D01*
X14471962Y28259501D01*
X14610053Y28300047D01*
X14731128Y28377857D01*
X14825377Y28486627D01*
X14885165Y28617543D01*
X14905647Y28760000D01*
X14885165Y28902457D01*
X14825377Y29033373D01*
X14825376Y29033375D01*
X14731128Y29142143D01*
X14610053Y29219953D01*
X14610051Y29219954D01*
X14610049Y29219955D01*
X14471963Y29260500D01*
X14471961Y29260500D01*
X14328039Y29260500D01*
X14328037Y29260500D01*
X14189950Y29219955D01*
X14068871Y29142143D01*
X13974623Y29033375D01*
X13974623Y29033373D01*
X13914834Y28902456D01*
X13894353Y28760000D01*
X13568295Y28760000D01*
X13461450Y28847685D01*
X13461448Y28847687D01*
X13461444Y28847689D01*
X13278954Y28945232D01*
X13278949Y28945234D01*
X13080935Y29005300D01*
X13080930Y29005301D01*
X12875000Y29025583D01*
X12669069Y29005301D01*
X12669064Y29005300D01*
X12471050Y28945234D01*
X12471045Y28945232D01*
X12288555Y28847689D01*
X12288544Y28847681D01*
X12128591Y28716412D01*
X12128588Y28716409D01*
X11997319Y28556456D01*
X11997311Y28556445D01*
X11899768Y28373955D01*
X11899766Y28373950D01*
X11839700Y28175936D01*
X11839699Y28175931D01*
X11819417Y27970001D01*
X11390583Y27970001D01*
X11370300Y28175934D01*
X11310232Y28373954D01*
X11250007Y28486626D01*
X11212688Y28556445D01*
X11212686Y28556447D01*
X11212685Y28556450D01*
X11081410Y28716410D01*
X10921450Y28847685D01*
X10921448Y28847687D01*
X10921444Y28847689D01*
X10738954Y28945232D01*
X10738949Y28945234D01*
X10540935Y29005300D01*
X10540930Y29005301D01*
X10335000Y29025583D01*
X10129069Y29005301D01*
X10129064Y29005300D01*
X9931050Y28945234D01*
X9931045Y28945232D01*
X9748555Y28847689D01*
X9748544Y28847681D01*
X9588591Y28716412D01*
X9588588Y28716409D01*
X9457319Y28556456D01*
X9457311Y28556445D01*
X9359768Y28373955D01*
X9359766Y28373950D01*
X9299700Y28175936D01*
X9299699Y28175931D01*
X9279417Y27970001D01*
X75500Y27970001D01*
X75500Y30510001D01*
X9279417Y30510001D01*
X9279417Y30510000D01*
X9299699Y30304070D01*
X9299700Y30304065D01*
X9359766Y30106051D01*
X9359768Y30106046D01*
X9457311Y29923556D01*
X9457313Y29923552D01*
X9457315Y29923550D01*
X9588590Y29763590D01*
X9748550Y29632315D01*
X9748553Y29632314D01*
X9748555Y29632312D01*
X9823912Y29592033D01*
X9931046Y29534768D01*
X10129066Y29474700D01*
X10335000Y29454417D01*
X10540934Y29474700D01*
X10738954Y29534768D01*
X10921450Y29632315D01*
X11081410Y29763590D01*
X11212685Y29923550D01*
X11310232Y30106046D01*
X11370300Y30304066D01*
X11390583Y30510000D01*
X11390583Y30510001D01*
X11819417Y30510001D01*
X11819417Y30510000D01*
X11839699Y30304070D01*
X11839700Y30304065D01*
X11899766Y30106051D01*
X11899768Y30106046D01*
X11997311Y29923556D01*
X11997313Y29923552D01*
X11997315Y29923550D01*
X12128590Y29763590D01*
X12288550Y29632315D01*
X12288553Y29632314D01*
X12288555Y29632312D01*
X12363912Y29592033D01*
X12471046Y29534768D01*
X12669066Y29474700D01*
X12875000Y29454417D01*
X13080934Y29474700D01*
X13278954Y29534768D01*
X13461450Y29632315D01*
X13621410Y29763590D01*
X13752685Y29923550D01*
X13850232Y30106046D01*
X13910300Y30304066D01*
X13930583Y30510000D01*
X13910300Y30715934D01*
X13850232Y30913954D01*
X13752685Y31096450D01*
X13621410Y31256410D01*
X13461450Y31387685D01*
X13461448Y31387687D01*
X13461444Y31387689D01*
X13278954Y31485232D01*
X13278949Y31485234D01*
X13080935Y31545300D01*
X13080930Y31545301D01*
X12875000Y31565583D01*
X12669069Y31545301D01*
X12669064Y31545300D01*
X12471050Y31485234D01*
X12471045Y31485232D01*
X12288555Y31387689D01*
X12288544Y31387681D01*
X12128591Y31256412D01*
X12128588Y31256409D01*
X11997319Y31096456D01*
X11997311Y31096445D01*
X11899768Y30913955D01*
X11899766Y30913950D01*
X11839700Y30715936D01*
X11839699Y30715931D01*
X11819417Y30510001D01*
X11390583Y30510001D01*
X11370300Y30715934D01*
X11310232Y30913954D01*
X11212685Y31096450D01*
X11081410Y31256410D01*
X10921450Y31387685D01*
X10921448Y31387687D01*
X10921444Y31387689D01*
X10738954Y31485232D01*
X10738949Y31485234D01*
X10540935Y31545300D01*
X10540930Y31545301D01*
X10335000Y31565583D01*
X10129069Y31545301D01*
X10129064Y31545300D01*
X9931050Y31485234D01*
X9931045Y31485232D01*
X9748555Y31387689D01*
X9748544Y31387681D01*
X9588591Y31256412D01*
X9588588Y31256409D01*
X9457319Y31096456D01*
X9457311Y31096445D01*
X9359768Y30913955D01*
X9359766Y30913950D01*
X9299700Y30715936D01*
X9299699Y30715931D01*
X9279417Y30510001D01*
X75500Y30510001D01*
X75500Y33050001D01*
X9279417Y33050001D01*
X9279417Y33050000D01*
X9299699Y32844070D01*
X9299700Y32844065D01*
X9359766Y32646051D01*
X9359768Y32646046D01*
X9457311Y32463556D01*
X9457313Y32463552D01*
X9457315Y32463550D01*
X9588590Y32303590D01*
X9748550Y32172315D01*
X9748553Y32172314D01*
X9748555Y32172312D01*
X9823912Y32132033D01*
X9931046Y32074768D01*
X10129066Y32014700D01*
X10335000Y31994417D01*
X10540934Y32014700D01*
X10738954Y32074768D01*
X10921450Y32172315D01*
X11081410Y32303590D01*
X11212685Y32463550D01*
X11310232Y32646046D01*
X11370300Y32844066D01*
X11390583Y33050000D01*
X11390583Y33050001D01*
X11819417Y33050001D01*
X11819417Y33050000D01*
X11839699Y32844070D01*
X11839700Y32844065D01*
X11899766Y32646051D01*
X11899768Y32646046D01*
X11997311Y32463556D01*
X11997313Y32463552D01*
X11997315Y32463550D01*
X12128590Y32303590D01*
X12288550Y32172315D01*
X12288553Y32172314D01*
X12288555Y32172312D01*
X12363912Y32132033D01*
X12471046Y32074768D01*
X12669066Y32014700D01*
X12875000Y31994417D01*
X13080934Y32014700D01*
X13278954Y32074768D01*
X13461450Y32172315D01*
X13621410Y32303590D01*
X13752685Y32463550D01*
X13850232Y32646046D01*
X13910300Y32844066D01*
X13930583Y33050000D01*
X13913839Y33220000D01*
X35194353Y33220000D01*
X35214834Y33077545D01*
X35274623Y32946628D01*
X35274623Y32946626D01*
X35363488Y32844070D01*
X35368872Y32837857D01*
X35489947Y32760047D01*
X35489949Y32760047D01*
X35489950Y32760046D01*
X35628036Y32719501D01*
X35628038Y32719500D01*
X35628039Y32719500D01*
X35771962Y32719500D01*
X35771962Y32719501D01*
X35910053Y32760047D01*
X36031128Y32837857D01*
X36125377Y32946627D01*
X36185165Y33077543D01*
X36205647Y33220000D01*
X36185165Y33362457D01*
X36125377Y33493373D01*
X36125376Y33493375D01*
X36031128Y33602143D01*
X35977745Y33636450D01*
X35910053Y33679953D01*
X35910051Y33679954D01*
X35910049Y33679955D01*
X35771963Y33720500D01*
X35771961Y33720500D01*
X35628039Y33720500D01*
X35628037Y33720500D01*
X35489950Y33679955D01*
X35368871Y33602143D01*
X35274623Y33493375D01*
X35274623Y33493373D01*
X35214834Y33362456D01*
X35194353Y33220000D01*
X13913839Y33220000D01*
X13910300Y33255934D01*
X13850232Y33453954D01*
X13790007Y33566626D01*
X13752688Y33636445D01*
X13752686Y33636447D01*
X13752685Y33636450D01*
X13621410Y33796410D01*
X13568295Y33840000D01*
X13894353Y33840000D01*
X13914834Y33697545D01*
X13914835Y33697543D01*
X13958403Y33602143D01*
X13974623Y33566628D01*
X13974623Y33566626D01*
X14038097Y33493373D01*
X14068872Y33457857D01*
X14189947Y33380047D01*
X14189949Y33380047D01*
X14189950Y33380046D01*
X14328036Y33339501D01*
X14328038Y33339500D01*
X14328039Y33339500D01*
X14471962Y33339500D01*
X14471962Y33339501D01*
X14610053Y33380047D01*
X14731128Y33457857D01*
X14825377Y33566627D01*
X14885165Y33697543D01*
X14905647Y33840000D01*
X14885165Y33982457D01*
X14825377Y34113373D01*
X14825376Y34113375D01*
X14731128Y34222143D01*
X14610053Y34299953D01*
X14610051Y34299954D01*
X14610049Y34299955D01*
X14471963Y34340500D01*
X14471961Y34340500D01*
X14328039Y34340500D01*
X14328037Y34340500D01*
X14189950Y34299955D01*
X14068871Y34222143D01*
X13974623Y34113375D01*
X13974623Y34113373D01*
X13914834Y33982456D01*
X13894353Y33840000D01*
X13568295Y33840000D01*
X13461450Y33927685D01*
X13461448Y33927687D01*
X13461444Y33927689D01*
X13278954Y34025232D01*
X13278949Y34025234D01*
X13080935Y34085300D01*
X13080930Y34085301D01*
X12875000Y34105583D01*
X12669069Y34085301D01*
X12669064Y34085300D01*
X12471050Y34025234D01*
X12471045Y34025232D01*
X12288555Y33927689D01*
X12288544Y33927681D01*
X12128591Y33796412D01*
X12128588Y33796409D01*
X11997319Y33636456D01*
X11997311Y33636445D01*
X11899768Y33453955D01*
X11899766Y33453950D01*
X11839700Y33255936D01*
X11839699Y33255931D01*
X11819417Y33050001D01*
X11390583Y33050001D01*
X11370300Y33255934D01*
X11310232Y33453954D01*
X11250007Y33566626D01*
X11212688Y33636445D01*
X11212686Y33636447D01*
X11212685Y33636450D01*
X11081410Y33796410D01*
X10921450Y33927685D01*
X10921448Y33927687D01*
X10921444Y33927689D01*
X10738954Y34025232D01*
X10738949Y34025234D01*
X10540935Y34085300D01*
X10540930Y34085301D01*
X10335000Y34105583D01*
X10129069Y34085301D01*
X10129064Y34085300D01*
X9931050Y34025234D01*
X9931045Y34025232D01*
X9748555Y33927689D01*
X9748544Y33927681D01*
X9588591Y33796412D01*
X9588588Y33796409D01*
X9457319Y33636456D01*
X9457311Y33636445D01*
X9359768Y33453955D01*
X9359766Y33453950D01*
X9299700Y33255936D01*
X9299699Y33255931D01*
X9279417Y33050001D01*
X75500Y33050001D01*
X75500Y34520000D01*
X41204353Y34520000D01*
X41224834Y34377545D01*
X41284623Y34246628D01*
X41284623Y34246626D01*
X41305838Y34222143D01*
X41378872Y34137857D01*
X41499947Y34060047D01*
X41618517Y34025232D01*
X41638036Y34019501D01*
X41638038Y34019500D01*
X41638039Y34019500D01*
X41781962Y34019500D01*
X41781962Y34019501D01*
X41920053Y34060047D01*
X42041128Y34137857D01*
X42135377Y34246627D01*
X42195165Y34377543D01*
X42215647Y34520000D01*
X42195165Y34662457D01*
X42135377Y34793373D01*
X42135376Y34793375D01*
X42041128Y34902143D01*
X41920053Y34979953D01*
X41920051Y34979954D01*
X41920049Y34979955D01*
X41781963Y35020500D01*
X41781961Y35020500D01*
X41638039Y35020500D01*
X41638037Y35020500D01*
X41499950Y34979955D01*
X41378871Y34902143D01*
X41284623Y34793375D01*
X41284623Y34793373D01*
X41224834Y34662456D01*
X41204353Y34520000D01*
X75500Y34520000D01*
X75500Y35590001D01*
X9279417Y35590001D01*
X9279417Y35590000D01*
X9299699Y35384070D01*
X9299700Y35384065D01*
X9359766Y35186051D01*
X9359768Y35186046D01*
X9457311Y35003556D01*
X9457319Y35003545D01*
X9588588Y34843592D01*
X9588591Y34843589D01*
X9649780Y34793373D01*
X9748550Y34712315D01*
X9748553Y34712314D01*
X9748555Y34712312D01*
X9823912Y34672033D01*
X9931046Y34614768D01*
X10129066Y34554700D01*
X10335000Y34534417D01*
X10540934Y34554700D01*
X10738954Y34614768D01*
X10921450Y34712315D01*
X11081410Y34843590D01*
X11212685Y35003550D01*
X11310232Y35186046D01*
X11370300Y35384066D01*
X11390583Y35590000D01*
X11390583Y35590001D01*
X11819417Y35590001D01*
X11819417Y35590000D01*
X11839699Y35384070D01*
X11839700Y35384065D01*
X11899766Y35186051D01*
X11899768Y35186046D01*
X11997311Y35003556D01*
X11997319Y35003545D01*
X12128588Y34843592D01*
X12128591Y34843589D01*
X12189780Y34793373D01*
X12288550Y34712315D01*
X12288553Y34712314D01*
X12288555Y34712312D01*
X12363912Y34672033D01*
X12471046Y34614768D01*
X12669066Y34554700D01*
X12875000Y34534417D01*
X13080934Y34554700D01*
X13278954Y34614768D01*
X13461450Y34712315D01*
X13621410Y34843590D01*
X13752685Y35003550D01*
X13850232Y35186046D01*
X13910300Y35384066D01*
X13930583Y35590000D01*
X13910300Y35795934D01*
X13850232Y35993954D01*
X13752685Y36176450D01*
X13621410Y36336410D01*
X13461450Y36467685D01*
X13461448Y36467687D01*
X13461444Y36467689D01*
X13278954Y36565232D01*
X13278949Y36565234D01*
X13080935Y36625300D01*
X13080930Y36625301D01*
X12875000Y36645583D01*
X12669069Y36625301D01*
X12669064Y36625300D01*
X12471050Y36565234D01*
X12471045Y36565232D01*
X12288555Y36467689D01*
X12288544Y36467681D01*
X12128591Y36336412D01*
X12128588Y36336409D01*
X11997319Y36176456D01*
X11997311Y36176445D01*
X11899768Y35993955D01*
X11899766Y35993950D01*
X11839700Y35795936D01*
X11839699Y35795931D01*
X11819417Y35590001D01*
X11390583Y35590001D01*
X11370300Y35795934D01*
X11310232Y35993954D01*
X11212685Y36176450D01*
X11081410Y36336410D01*
X10921450Y36467685D01*
X10921448Y36467687D01*
X10921444Y36467689D01*
X10738954Y36565232D01*
X10738949Y36565234D01*
X10540935Y36625300D01*
X10540930Y36625301D01*
X10335000Y36645583D01*
X10129069Y36625301D01*
X10129064Y36625300D01*
X9931050Y36565234D01*
X9931045Y36565232D01*
X9748555Y36467689D01*
X9748544Y36467681D01*
X9588591Y36336412D01*
X9588588Y36336409D01*
X9457319Y36176456D01*
X9457311Y36176445D01*
X9359768Y35993955D01*
X9359766Y35993950D01*
X9299700Y35795936D01*
X9299699Y35795931D01*
X9279417Y35590001D01*
X75500Y35590001D01*
X75500Y38380002D01*
X9004363Y38380002D01*
X9004364Y38380000D01*
X9901988Y38380000D01*
X9869075Y38322993D01*
X9835000Y38195826D01*
X9835000Y38064174D01*
X9869075Y37937007D01*
X9901988Y37880000D01*
X9004364Y37880000D01*
X9004363Y37879999D01*
X9061567Y37666513D01*
X9061568Y37666511D01*
X9161398Y37452425D01*
X9296892Y37258919D01*
X9463918Y37091893D01*
X9657426Y36956397D01*
X9871503Y36856572D01*
X9871519Y36856566D01*
X10084998Y36799365D01*
X10085000Y36799366D01*
X10085000Y37696988D01*
X10142007Y37664075D01*
X10269174Y37630000D01*
X10400826Y37630000D01*
X10527993Y37664075D01*
X10585000Y37696988D01*
X10585000Y36799366D01*
X10585001Y36799365D01*
X10798480Y36856566D01*
X10798496Y36856572D01*
X11012573Y36956397D01*
X11206081Y37091893D01*
X11373107Y37258919D01*
X11508603Y37452427D01*
X11548356Y37537678D01*
X11583623Y37569996D01*
X11631413Y37567909D01*
X11661644Y37537678D01*
X11701396Y37452427D01*
X11836892Y37258919D01*
X12003918Y37091893D01*
X12197426Y36956397D01*
X12411503Y36856572D01*
X12411519Y36856566D01*
X12624998Y36799365D01*
X12625000Y36799366D01*
X12625000Y37696988D01*
X12682007Y37664075D01*
X12809174Y37630000D01*
X12940826Y37630000D01*
X13067993Y37664075D01*
X13125000Y37696988D01*
X13125000Y36799366D01*
X13125001Y36799365D01*
X13338480Y36856566D01*
X13338496Y36856572D01*
X13552573Y36956397D01*
X13746081Y37091893D01*
X13913107Y37258919D01*
X14048601Y37452425D01*
X14148431Y37666511D01*
X14148432Y37666513D01*
X14205636Y37879999D01*
X14205636Y37880000D01*
X13308012Y37880000D01*
X13340925Y37937007D01*
X13375000Y38064174D01*
X13375000Y38195826D01*
X13340925Y38322993D01*
X13308012Y38380000D01*
X14205636Y38380000D01*
X14205636Y38380002D01*
X14148432Y38593488D01*
X14148431Y38593490D01*
X14048600Y38807578D01*
X13913109Y39001080D01*
X13746081Y39168108D01*
X13552575Y39303602D01*
X13338489Y39403432D01*
X13338487Y39403433D01*
X13125001Y39460637D01*
X13125000Y39460636D01*
X13125000Y38563012D01*
X13067993Y38595925D01*
X12940826Y38630000D01*
X12809174Y38630000D01*
X12682007Y38595925D01*
X12625000Y38563012D01*
X12625000Y39460636D01*
X12624998Y39460637D01*
X12411512Y39403433D01*
X12411510Y39403432D01*
X12197422Y39303601D01*
X12003920Y39168110D01*
X11836890Y39001080D01*
X11701399Y38807578D01*
X11661644Y38722322D01*
X11626376Y38690005D01*
X11578586Y38692092D01*
X11548356Y38722322D01*
X11508600Y38807578D01*
X11373109Y39001080D01*
X11206081Y39168108D01*
X11012575Y39303602D01*
X10798489Y39403432D01*
X10798487Y39403433D01*
X10585001Y39460637D01*
X10585000Y39460636D01*
X10585000Y38563012D01*
X10527993Y38595925D01*
X10400826Y38630000D01*
X10269174Y38630000D01*
X10142007Y38595925D01*
X10085000Y38563012D01*
X10085000Y39460636D01*
X10084998Y39460637D01*
X9871512Y39403433D01*
X9871510Y39403432D01*
X9657422Y39303601D01*
X9463920Y39168110D01*
X9296890Y39001080D01*
X9161399Y38807578D01*
X9061568Y38593490D01*
X9061567Y38593488D01*
X9004363Y38380002D01*
X75500Y38380002D01*
X75500Y40670001D01*
X9279417Y40670001D01*
X9279417Y40670000D01*
X9299699Y40464070D01*
X9299700Y40464065D01*
X9359766Y40266051D01*
X9359768Y40266046D01*
X9457311Y40083556D01*
X9457313Y40083552D01*
X9457315Y40083550D01*
X9588590Y39923590D01*
X9748550Y39792315D01*
X9748553Y39792314D01*
X9748555Y39792312D01*
X9823912Y39752033D01*
X9931046Y39694768D01*
X10129066Y39634700D01*
X10335000Y39614417D01*
X10540934Y39634700D01*
X10738954Y39694768D01*
X10921450Y39792315D01*
X11081410Y39923590D01*
X11212685Y40083550D01*
X11310232Y40266046D01*
X11370300Y40464066D01*
X11390583Y40670000D01*
X11370300Y40875934D01*
X11310232Y41073954D01*
X11212685Y41256450D01*
X11081410Y41416410D01*
X10931120Y41539749D01*
X11824500Y41539749D01*
X11824500Y39800252D01*
X11836132Y39741770D01*
X11836133Y39741768D01*
X11880447Y39675448D01*
X11946767Y39631134D01*
X11946769Y39631133D01*
X12005252Y39619500D01*
X13744748Y39619500D01*
X13803231Y39631133D01*
X13869552Y39675448D01*
X13913867Y39741769D01*
X13925500Y39800252D01*
X13925500Y41539748D01*
X13913867Y41598231D01*
X13913866Y41598233D01*
X13869552Y41664553D01*
X13803232Y41708867D01*
X13803230Y41708868D01*
X13744748Y41720500D01*
X12005252Y41720500D01*
X11946769Y41708868D01*
X11946767Y41708867D01*
X11880447Y41664553D01*
X11836133Y41598233D01*
X11836132Y41598231D01*
X11824500Y41539749D01*
X10931120Y41539749D01*
X10921450Y41547685D01*
X10921448Y41547687D01*
X10921444Y41547689D01*
X10738954Y41645232D01*
X10738949Y41645234D01*
X10540935Y41705300D01*
X10540930Y41705301D01*
X10335000Y41725583D01*
X10129069Y41705301D01*
X10129064Y41705300D01*
X9931050Y41645234D01*
X9931045Y41645232D01*
X9748555Y41547689D01*
X9748544Y41547681D01*
X9588591Y41416412D01*
X9588588Y41416409D01*
X9457319Y41256456D01*
X9457311Y41256445D01*
X9359768Y41073955D01*
X9359766Y41073950D01*
X9299700Y40875936D01*
X9299699Y40875931D01*
X9279417Y40670001D01*
X75500Y40670001D01*
X75500Y51669749D01*
X17745500Y51669749D01*
X17745500Y49930252D01*
X17757132Y49871770D01*
X17757133Y49871768D01*
X17801447Y49805448D01*
X17867767Y49761134D01*
X17867769Y49761133D01*
X17926252Y49749500D01*
X19665748Y49749500D01*
X19724231Y49761133D01*
X19790552Y49805448D01*
X19834867Y49871769D01*
X19846500Y49930252D01*
X19846500Y50800001D01*
X20280417Y50800001D01*
X20280417Y50800000D01*
X20300699Y50594070D01*
X20300700Y50594065D01*
X20360766Y50396051D01*
X20360768Y50396046D01*
X20458311Y50213556D01*
X20458313Y50213552D01*
X20458315Y50213550D01*
X20589590Y50053590D01*
X20749550Y49922315D01*
X20749553Y49922314D01*
X20749555Y49922312D01*
X20824912Y49882033D01*
X20932046Y49824768D01*
X21130066Y49764700D01*
X21336000Y49744417D01*
X21541934Y49764700D01*
X21739954Y49824768D01*
X21922450Y49922315D01*
X22082410Y50053590D01*
X22213685Y50213550D01*
X22311232Y50396046D01*
X22371300Y50594066D01*
X22391583Y50800000D01*
X22391583Y50800001D01*
X22820417Y50800001D01*
X22820417Y50800000D01*
X22840699Y50594070D01*
X22840700Y50594065D01*
X22900766Y50396051D01*
X22900768Y50396046D01*
X22998311Y50213556D01*
X22998313Y50213552D01*
X22998315Y50213550D01*
X23129590Y50053590D01*
X23289550Y49922315D01*
X23289553Y49922314D01*
X23289555Y49922312D01*
X23364912Y49882033D01*
X23472046Y49824768D01*
X23670066Y49764700D01*
X23876000Y49744417D01*
X24081934Y49764700D01*
X24279954Y49824768D01*
X24462450Y49922315D01*
X24622410Y50053590D01*
X24753685Y50213550D01*
X24851232Y50396046D01*
X24911300Y50594066D01*
X24931583Y50800000D01*
X24911300Y51005934D01*
X24897932Y51050002D01*
X25085363Y51050002D01*
X25085364Y51050000D01*
X25982988Y51050000D01*
X25950075Y50992993D01*
X25916000Y50865826D01*
X25916000Y50734174D01*
X25950075Y50607007D01*
X25982988Y50550000D01*
X25085364Y50550000D01*
X25085363Y50549999D01*
X25142567Y50336513D01*
X25142568Y50336511D01*
X25242398Y50122425D01*
X25377892Y49928919D01*
X25544918Y49761893D01*
X25738426Y49626397D01*
X25952503Y49526572D01*
X25952519Y49526566D01*
X26165998Y49469365D01*
X26166000Y49469366D01*
X26166000Y50366988D01*
X26223007Y50334075D01*
X26350174Y50300000D01*
X26481826Y50300000D01*
X26608993Y50334075D01*
X26666000Y50366988D01*
X26666000Y49469366D01*
X26666001Y49469365D01*
X26879480Y49526566D01*
X26879496Y49526572D01*
X27093573Y49626397D01*
X27287081Y49761893D01*
X27454107Y49928919D01*
X27589601Y50122425D01*
X27689431Y50336511D01*
X27689432Y50336513D01*
X27746636Y50549999D01*
X27746636Y50550000D01*
X26849012Y50550000D01*
X26881925Y50607007D01*
X26916000Y50734174D01*
X26916000Y50800001D01*
X27900417Y50800001D01*
X27900417Y50800000D01*
X27920699Y50594070D01*
X27920700Y50594065D01*
X27980766Y50396051D01*
X27980768Y50396046D01*
X28078311Y50213556D01*
X28078313Y50213552D01*
X28078315Y50213550D01*
X28209590Y50053590D01*
X28369550Y49922315D01*
X28369553Y49922314D01*
X28369555Y49922312D01*
X28444912Y49882033D01*
X28552046Y49824768D01*
X28750066Y49764700D01*
X28956000Y49744417D01*
X29161934Y49764700D01*
X29359954Y49824768D01*
X29542450Y49922315D01*
X29702410Y50053590D01*
X29833685Y50213550D01*
X29931232Y50396046D01*
X29991300Y50594066D01*
X30011583Y50800000D01*
X30011583Y50800001D01*
X30440417Y50800001D01*
X30440417Y50800000D01*
X30460699Y50594070D01*
X30460700Y50594065D01*
X30520766Y50396051D01*
X30520768Y50396046D01*
X30618311Y50213556D01*
X30618313Y50213552D01*
X30618315Y50213550D01*
X30749590Y50053590D01*
X30909550Y49922315D01*
X30909553Y49922314D01*
X30909555Y49922312D01*
X30984912Y49882033D01*
X31092046Y49824768D01*
X31290066Y49764700D01*
X31496000Y49744417D01*
X31701934Y49764700D01*
X31899954Y49824768D01*
X32082450Y49922315D01*
X32242410Y50053590D01*
X32373685Y50213550D01*
X32471232Y50396046D01*
X32531300Y50594066D01*
X32551583Y50800000D01*
X32551583Y50800001D01*
X32980417Y50800001D01*
X32980417Y50800000D01*
X33000699Y50594070D01*
X33000700Y50594065D01*
X33060766Y50396051D01*
X33060768Y50396046D01*
X33158311Y50213556D01*
X33158313Y50213552D01*
X33158315Y50213550D01*
X33289590Y50053590D01*
X33449550Y49922315D01*
X33449553Y49922314D01*
X33449555Y49922312D01*
X33524912Y49882033D01*
X33632046Y49824768D01*
X33830066Y49764700D01*
X34036000Y49744417D01*
X34241934Y49764700D01*
X34439954Y49824768D01*
X34622450Y49922315D01*
X34782410Y50053590D01*
X34913685Y50213550D01*
X35011232Y50396046D01*
X35071300Y50594066D01*
X35091583Y50800000D01*
X35091583Y50800001D01*
X35520417Y50800001D01*
X35520417Y50800000D01*
X35540699Y50594070D01*
X35540700Y50594065D01*
X35600766Y50396051D01*
X35600768Y50396046D01*
X35698311Y50213556D01*
X35698313Y50213552D01*
X35698315Y50213550D01*
X35829590Y50053590D01*
X35989550Y49922315D01*
X35989553Y49922314D01*
X35989555Y49922312D01*
X36064912Y49882033D01*
X36172046Y49824768D01*
X36370066Y49764700D01*
X36576000Y49744417D01*
X36781934Y49764700D01*
X36979954Y49824768D01*
X37162450Y49922315D01*
X37322410Y50053590D01*
X37453685Y50213550D01*
X37551232Y50396046D01*
X37611300Y50594066D01*
X37631583Y50800000D01*
X37631583Y50800001D01*
X38060417Y50800001D01*
X38060417Y50800000D01*
X38080699Y50594070D01*
X38080700Y50594065D01*
X38140766Y50396051D01*
X38140768Y50396046D01*
X38238311Y50213556D01*
X38238313Y50213552D01*
X38238315Y50213550D01*
X38369590Y50053590D01*
X38529550Y49922315D01*
X38529553Y49922314D01*
X38529555Y49922312D01*
X38604912Y49882033D01*
X38712046Y49824768D01*
X38910066Y49764700D01*
X39116000Y49744417D01*
X39321934Y49764700D01*
X39519954Y49824768D01*
X39702450Y49922315D01*
X39862410Y50053590D01*
X39993685Y50213550D01*
X40091232Y50396046D01*
X40151300Y50594066D01*
X40171583Y50800000D01*
X40171583Y50800001D01*
X40600417Y50800001D01*
X40600417Y50800000D01*
X40620699Y50594070D01*
X40620700Y50594065D01*
X40680766Y50396051D01*
X40680768Y50396046D01*
X40778311Y50213556D01*
X40778313Y50213552D01*
X40778315Y50213550D01*
X40909590Y50053590D01*
X41069550Y49922315D01*
X41069553Y49922314D01*
X41069555Y49922312D01*
X41144912Y49882033D01*
X41252046Y49824768D01*
X41450066Y49764700D01*
X41656000Y49744417D01*
X41861934Y49764700D01*
X42059954Y49824768D01*
X42242450Y49922315D01*
X42402410Y50053590D01*
X42533685Y50213550D01*
X42631232Y50396046D01*
X42691300Y50594066D01*
X42711583Y50800000D01*
X42691300Y51005934D01*
X42631232Y51203954D01*
X42533685Y51386450D01*
X42402410Y51546410D01*
X42252120Y51669749D01*
X44669500Y51669749D01*
X44669500Y49930252D01*
X44681132Y49871770D01*
X44681133Y49871768D01*
X44725447Y49805448D01*
X44791767Y49761134D01*
X44791769Y49761133D01*
X44850252Y49749500D01*
X46589748Y49749500D01*
X46648231Y49761133D01*
X46714552Y49805448D01*
X46758867Y49871769D01*
X46770500Y49930252D01*
X46770500Y50800001D01*
X47204417Y50800001D01*
X47204417Y50800000D01*
X47224699Y50594070D01*
X47224700Y50594065D01*
X47284766Y50396051D01*
X47284768Y50396046D01*
X47382311Y50213556D01*
X47382313Y50213552D01*
X47382315Y50213550D01*
X47513590Y50053590D01*
X47673550Y49922315D01*
X47673553Y49922314D01*
X47673555Y49922312D01*
X47748912Y49882033D01*
X47856046Y49824768D01*
X48054066Y49764700D01*
X48260000Y49744417D01*
X48465934Y49764700D01*
X48663954Y49824768D01*
X48846450Y49922315D01*
X49006410Y50053590D01*
X49137685Y50213550D01*
X49235232Y50396046D01*
X49295300Y50594066D01*
X49315583Y50800000D01*
X49315583Y50800001D01*
X49744417Y50800001D01*
X49744417Y50800000D01*
X49764699Y50594070D01*
X49764700Y50594065D01*
X49824766Y50396051D01*
X49824768Y50396046D01*
X49922311Y50213556D01*
X49922313Y50213552D01*
X49922315Y50213550D01*
X50053590Y50053590D01*
X50213550Y49922315D01*
X50213553Y49922314D01*
X50213555Y49922312D01*
X50288912Y49882033D01*
X50396046Y49824768D01*
X50594066Y49764700D01*
X50800000Y49744417D01*
X51005934Y49764700D01*
X51203954Y49824768D01*
X51386450Y49922315D01*
X51546410Y50053590D01*
X51677685Y50213550D01*
X51775232Y50396046D01*
X51835300Y50594066D01*
X51855583Y50800000D01*
X51855583Y50800001D01*
X52284417Y50800001D01*
X52284417Y50800000D01*
X52304699Y50594070D01*
X52304700Y50594065D01*
X52364766Y50396051D01*
X52364768Y50396046D01*
X52462311Y50213556D01*
X52462313Y50213552D01*
X52462315Y50213550D01*
X52593590Y50053590D01*
X52753550Y49922315D01*
X52753553Y49922314D01*
X52753555Y49922312D01*
X52828912Y49882033D01*
X52936046Y49824768D01*
X53134066Y49764700D01*
X53340000Y49744417D01*
X53545934Y49764700D01*
X53743954Y49824768D01*
X53926450Y49922315D01*
X54086410Y50053590D01*
X54217685Y50213550D01*
X54315232Y50396046D01*
X54375300Y50594066D01*
X54395583Y50800000D01*
X54395583Y50800001D01*
X54824417Y50800001D01*
X54824417Y50800000D01*
X54844699Y50594070D01*
X54844700Y50594065D01*
X54904766Y50396051D01*
X54904768Y50396046D01*
X55002311Y50213556D01*
X55002313Y50213552D01*
X55002315Y50213550D01*
X55133590Y50053590D01*
X55293550Y49922315D01*
X55293553Y49922314D01*
X55293555Y49922312D01*
X55368912Y49882033D01*
X55476046Y49824768D01*
X55674066Y49764700D01*
X55880000Y49744417D01*
X56085934Y49764700D01*
X56283954Y49824768D01*
X56466450Y49922315D01*
X56626410Y50053590D01*
X56757685Y50213550D01*
X56855232Y50396046D01*
X56915300Y50594066D01*
X56935583Y50800000D01*
X56935583Y50800001D01*
X57364417Y50800001D01*
X57364417Y50800000D01*
X57384699Y50594070D01*
X57384700Y50594065D01*
X57444766Y50396051D01*
X57444768Y50396046D01*
X57542311Y50213556D01*
X57542313Y50213552D01*
X57542315Y50213550D01*
X57673590Y50053590D01*
X57833550Y49922315D01*
X57833553Y49922314D01*
X57833555Y49922312D01*
X57908912Y49882033D01*
X58016046Y49824768D01*
X58214066Y49764700D01*
X58420000Y49744417D01*
X58625934Y49764700D01*
X58823954Y49824768D01*
X59006450Y49922315D01*
X59166410Y50053590D01*
X59297685Y50213550D01*
X59395232Y50396046D01*
X59455300Y50594066D01*
X59475583Y50800000D01*
X59475583Y50800001D01*
X59904417Y50800001D01*
X59904417Y50800000D01*
X59924699Y50594070D01*
X59924700Y50594065D01*
X59984766Y50396051D01*
X59984768Y50396046D01*
X60082311Y50213556D01*
X60082313Y50213552D01*
X60082315Y50213550D01*
X60213590Y50053590D01*
X60373550Y49922315D01*
X60373553Y49922314D01*
X60373555Y49922312D01*
X60448912Y49882033D01*
X60556046Y49824768D01*
X60754066Y49764700D01*
X60960000Y49744417D01*
X61165934Y49764700D01*
X61363954Y49824768D01*
X61546450Y49922315D01*
X61706410Y50053590D01*
X61837685Y50213550D01*
X61935232Y50396046D01*
X61995300Y50594066D01*
X62015583Y50800000D01*
X62015583Y50800001D01*
X62444417Y50800001D01*
X62444417Y50800000D01*
X62464699Y50594070D01*
X62464700Y50594065D01*
X62524766Y50396051D01*
X62524768Y50396046D01*
X62622311Y50213556D01*
X62622313Y50213552D01*
X62622315Y50213550D01*
X62753590Y50053590D01*
X62913550Y49922315D01*
X62913553Y49922314D01*
X62913555Y49922312D01*
X62988912Y49882033D01*
X63096046Y49824768D01*
X63294066Y49764700D01*
X63500000Y49744417D01*
X63705934Y49764700D01*
X63903954Y49824768D01*
X64086450Y49922315D01*
X64246410Y50053590D01*
X64377685Y50213550D01*
X64475232Y50396046D01*
X64535300Y50594066D01*
X64555583Y50800000D01*
X64535300Y51005934D01*
X64475232Y51203954D01*
X64377685Y51386450D01*
X64246410Y51546410D01*
X64086450Y51677685D01*
X64086448Y51677687D01*
X64086444Y51677689D01*
X63903954Y51775232D01*
X63903949Y51775234D01*
X63705935Y51835300D01*
X63705930Y51835301D01*
X63500000Y51855583D01*
X63294069Y51835301D01*
X63294064Y51835300D01*
X63096050Y51775234D01*
X63096045Y51775232D01*
X62913555Y51677689D01*
X62913544Y51677681D01*
X62753591Y51546412D01*
X62753588Y51546409D01*
X62622319Y51386456D01*
X62622311Y51386445D01*
X62524768Y51203955D01*
X62524766Y51203950D01*
X62464700Y51005936D01*
X62464699Y51005931D01*
X62444417Y50800001D01*
X62015583Y50800001D01*
X61995300Y51005934D01*
X61935232Y51203954D01*
X61837685Y51386450D01*
X61706410Y51546410D01*
X61546450Y51677685D01*
X61546448Y51677687D01*
X61546444Y51677689D01*
X61363954Y51775232D01*
X61363949Y51775234D01*
X61165935Y51835300D01*
X61165930Y51835301D01*
X60960000Y51855583D01*
X60754069Y51835301D01*
X60754064Y51835300D01*
X60556050Y51775234D01*
X60556045Y51775232D01*
X60373555Y51677689D01*
X60373544Y51677681D01*
X60213591Y51546412D01*
X60213588Y51546409D01*
X60082319Y51386456D01*
X60082311Y51386445D01*
X59984768Y51203955D01*
X59984766Y51203950D01*
X59924700Y51005936D01*
X59924699Y51005931D01*
X59904417Y50800001D01*
X59475583Y50800001D01*
X59455300Y51005934D01*
X59395232Y51203954D01*
X59297685Y51386450D01*
X59166410Y51546410D01*
X59006450Y51677685D01*
X59006448Y51677687D01*
X59006444Y51677689D01*
X58823954Y51775232D01*
X58823949Y51775234D01*
X58625935Y51835300D01*
X58625930Y51835301D01*
X58420000Y51855583D01*
X58214069Y51835301D01*
X58214064Y51835300D01*
X58016050Y51775234D01*
X58016045Y51775232D01*
X57833555Y51677689D01*
X57833544Y51677681D01*
X57673591Y51546412D01*
X57673588Y51546409D01*
X57542319Y51386456D01*
X57542311Y51386445D01*
X57444768Y51203955D01*
X57444766Y51203950D01*
X57384700Y51005936D01*
X57384699Y51005931D01*
X57364417Y50800001D01*
X56935583Y50800001D01*
X56915300Y51005934D01*
X56855232Y51203954D01*
X56757685Y51386450D01*
X56626410Y51546410D01*
X56466450Y51677685D01*
X56466448Y51677687D01*
X56466444Y51677689D01*
X56283954Y51775232D01*
X56283949Y51775234D01*
X56085935Y51835300D01*
X56085930Y51835301D01*
X55880000Y51855583D01*
X55674069Y51835301D01*
X55674064Y51835300D01*
X55476050Y51775234D01*
X55476045Y51775232D01*
X55293555Y51677689D01*
X55293544Y51677681D01*
X55133591Y51546412D01*
X55133588Y51546409D01*
X55002319Y51386456D01*
X55002311Y51386445D01*
X54904768Y51203955D01*
X54904766Y51203950D01*
X54844700Y51005936D01*
X54844699Y51005931D01*
X54824417Y50800001D01*
X54395583Y50800001D01*
X54375300Y51005934D01*
X54315232Y51203954D01*
X54217685Y51386450D01*
X54086410Y51546410D01*
X53926450Y51677685D01*
X53926448Y51677687D01*
X53926444Y51677689D01*
X53743954Y51775232D01*
X53743949Y51775234D01*
X53545935Y51835300D01*
X53545930Y51835301D01*
X53340000Y51855583D01*
X53134069Y51835301D01*
X53134064Y51835300D01*
X52936050Y51775234D01*
X52936045Y51775232D01*
X52753555Y51677689D01*
X52753544Y51677681D01*
X52593591Y51546412D01*
X52593588Y51546409D01*
X52462319Y51386456D01*
X52462311Y51386445D01*
X52364768Y51203955D01*
X52364766Y51203950D01*
X52304700Y51005936D01*
X52304699Y51005931D01*
X52284417Y50800001D01*
X51855583Y50800001D01*
X51835300Y51005934D01*
X51775232Y51203954D01*
X51677685Y51386450D01*
X51546410Y51546410D01*
X51386450Y51677685D01*
X51386448Y51677687D01*
X51386444Y51677689D01*
X51203954Y51775232D01*
X51203949Y51775234D01*
X51005935Y51835300D01*
X51005930Y51835301D01*
X50800000Y51855583D01*
X50594069Y51835301D01*
X50594064Y51835300D01*
X50396050Y51775234D01*
X50396045Y51775232D01*
X50213555Y51677689D01*
X50213544Y51677681D01*
X50053591Y51546412D01*
X50053588Y51546409D01*
X49922319Y51386456D01*
X49922311Y51386445D01*
X49824768Y51203955D01*
X49824766Y51203950D01*
X49764700Y51005936D01*
X49764699Y51005931D01*
X49744417Y50800001D01*
X49315583Y50800001D01*
X49295300Y51005934D01*
X49235232Y51203954D01*
X49137685Y51386450D01*
X49006410Y51546410D01*
X48846450Y51677685D01*
X48846448Y51677687D01*
X48846444Y51677689D01*
X48663954Y51775232D01*
X48663949Y51775234D01*
X48465935Y51835300D01*
X48465930Y51835301D01*
X48260000Y51855583D01*
X48054069Y51835301D01*
X48054064Y51835300D01*
X47856050Y51775234D01*
X47856045Y51775232D01*
X47673555Y51677689D01*
X47673544Y51677681D01*
X47513591Y51546412D01*
X47513588Y51546409D01*
X47382319Y51386456D01*
X47382311Y51386445D01*
X47284768Y51203955D01*
X47284766Y51203950D01*
X47224700Y51005936D01*
X47224699Y51005931D01*
X47204417Y50800001D01*
X46770500Y50800001D01*
X46770500Y51669748D01*
X46758867Y51728231D01*
X46758866Y51728233D01*
X46714552Y51794553D01*
X46648232Y51838867D01*
X46648230Y51838868D01*
X46589748Y51850500D01*
X44850252Y51850500D01*
X44791769Y51838868D01*
X44791767Y51838867D01*
X44725447Y51794553D01*
X44681133Y51728233D01*
X44681132Y51728231D01*
X44669500Y51669749D01*
X42252120Y51669749D01*
X42242450Y51677685D01*
X42242448Y51677687D01*
X42242444Y51677689D01*
X42059954Y51775232D01*
X42059949Y51775234D01*
X41861935Y51835300D01*
X41861930Y51835301D01*
X41656000Y51855583D01*
X41450069Y51835301D01*
X41450064Y51835300D01*
X41252050Y51775234D01*
X41252045Y51775232D01*
X41069555Y51677689D01*
X41069544Y51677681D01*
X40909591Y51546412D01*
X40909588Y51546409D01*
X40778319Y51386456D01*
X40778311Y51386445D01*
X40680768Y51203955D01*
X40680766Y51203950D01*
X40620700Y51005936D01*
X40620699Y51005931D01*
X40600417Y50800001D01*
X40171583Y50800001D01*
X40151300Y51005934D01*
X40091232Y51203954D01*
X39993685Y51386450D01*
X39862410Y51546410D01*
X39702450Y51677685D01*
X39702448Y51677687D01*
X39702444Y51677689D01*
X39519954Y51775232D01*
X39519949Y51775234D01*
X39321935Y51835300D01*
X39321930Y51835301D01*
X39116000Y51855583D01*
X38910069Y51835301D01*
X38910064Y51835300D01*
X38712050Y51775234D01*
X38712045Y51775232D01*
X38529555Y51677689D01*
X38529544Y51677681D01*
X38369591Y51546412D01*
X38369588Y51546409D01*
X38238319Y51386456D01*
X38238311Y51386445D01*
X38140768Y51203955D01*
X38140766Y51203950D01*
X38080700Y51005936D01*
X38080699Y51005931D01*
X38060417Y50800001D01*
X37631583Y50800001D01*
X37611300Y51005934D01*
X37551232Y51203954D01*
X37453685Y51386450D01*
X37322410Y51546410D01*
X37162450Y51677685D01*
X37162448Y51677687D01*
X37162444Y51677689D01*
X36979954Y51775232D01*
X36979949Y51775234D01*
X36781935Y51835300D01*
X36781930Y51835301D01*
X36576000Y51855583D01*
X36370069Y51835301D01*
X36370064Y51835300D01*
X36172050Y51775234D01*
X36172045Y51775232D01*
X35989555Y51677689D01*
X35989544Y51677681D01*
X35829591Y51546412D01*
X35829588Y51546409D01*
X35698319Y51386456D01*
X35698311Y51386445D01*
X35600768Y51203955D01*
X35600766Y51203950D01*
X35540700Y51005936D01*
X35540699Y51005931D01*
X35520417Y50800001D01*
X35091583Y50800001D01*
X35071300Y51005934D01*
X35011232Y51203954D01*
X34913685Y51386450D01*
X34782410Y51546410D01*
X34622450Y51677685D01*
X34622448Y51677687D01*
X34622444Y51677689D01*
X34439954Y51775232D01*
X34439949Y51775234D01*
X34241935Y51835300D01*
X34241930Y51835301D01*
X34036000Y51855583D01*
X33830069Y51835301D01*
X33830064Y51835300D01*
X33632050Y51775234D01*
X33632045Y51775232D01*
X33449555Y51677689D01*
X33449544Y51677681D01*
X33289591Y51546412D01*
X33289588Y51546409D01*
X33158319Y51386456D01*
X33158311Y51386445D01*
X33060768Y51203955D01*
X33060766Y51203950D01*
X33000700Y51005936D01*
X33000699Y51005931D01*
X32980417Y50800001D01*
X32551583Y50800001D01*
X32531300Y51005934D01*
X32471232Y51203954D01*
X32373685Y51386450D01*
X32242410Y51546410D01*
X32082450Y51677685D01*
X32082448Y51677687D01*
X32082444Y51677689D01*
X31899954Y51775232D01*
X31899949Y51775234D01*
X31701935Y51835300D01*
X31701930Y51835301D01*
X31496000Y51855583D01*
X31290069Y51835301D01*
X31290064Y51835300D01*
X31092050Y51775234D01*
X31092045Y51775232D01*
X30909555Y51677689D01*
X30909544Y51677681D01*
X30749591Y51546412D01*
X30749588Y51546409D01*
X30618319Y51386456D01*
X30618311Y51386445D01*
X30520768Y51203955D01*
X30520766Y51203950D01*
X30460700Y51005936D01*
X30460699Y51005931D01*
X30440417Y50800001D01*
X30011583Y50800001D01*
X29991300Y51005934D01*
X29931232Y51203954D01*
X29833685Y51386450D01*
X29702410Y51546410D01*
X29542450Y51677685D01*
X29542448Y51677687D01*
X29542444Y51677689D01*
X29359954Y51775232D01*
X29359949Y51775234D01*
X29161935Y51835300D01*
X29161930Y51835301D01*
X28956000Y51855583D01*
X28750069Y51835301D01*
X28750064Y51835300D01*
X28552050Y51775234D01*
X28552045Y51775232D01*
X28369555Y51677689D01*
X28369544Y51677681D01*
X28209591Y51546412D01*
X28209588Y51546409D01*
X28078319Y51386456D01*
X28078311Y51386445D01*
X27980768Y51203955D01*
X27980766Y51203950D01*
X27920700Y51005936D01*
X27920699Y51005931D01*
X27900417Y50800001D01*
X26916000Y50800001D01*
X26916000Y50865826D01*
X26881925Y50992993D01*
X26849012Y51050000D01*
X27746636Y51050000D01*
X27746636Y51050002D01*
X27689432Y51263488D01*
X27689431Y51263490D01*
X27589600Y51477578D01*
X27454109Y51671080D01*
X27287081Y51838108D01*
X27093575Y51973602D01*
X26879489Y52073432D01*
X26879487Y52073433D01*
X26666001Y52130637D01*
X26666000Y52130636D01*
X26666000Y51233012D01*
X26608993Y51265925D01*
X26481826Y51300000D01*
X26350174Y51300000D01*
X26223007Y51265925D01*
X26166000Y51233012D01*
X26166000Y52130636D01*
X26165998Y52130637D01*
X25952512Y52073433D01*
X25952510Y52073432D01*
X25738422Y51973601D01*
X25544920Y51838110D01*
X25377890Y51671080D01*
X25242399Y51477578D01*
X25142568Y51263490D01*
X25142567Y51263488D01*
X25085363Y51050002D01*
X24897932Y51050002D01*
X24851232Y51203954D01*
X24753685Y51386450D01*
X24622410Y51546410D01*
X24462450Y51677685D01*
X24462448Y51677687D01*
X24462444Y51677689D01*
X24279954Y51775232D01*
X24279949Y51775234D01*
X24081935Y51835300D01*
X24081930Y51835301D01*
X23876000Y51855583D01*
X23670069Y51835301D01*
X23670064Y51835300D01*
X23472050Y51775234D01*
X23472045Y51775232D01*
X23289555Y51677689D01*
X23289544Y51677681D01*
X23129591Y51546412D01*
X23129588Y51546409D01*
X22998319Y51386456D01*
X22998311Y51386445D01*
X22900768Y51203955D01*
X22900766Y51203950D01*
X22840700Y51005936D01*
X22840699Y51005931D01*
X22820417Y50800001D01*
X22391583Y50800001D01*
X22371300Y51005934D01*
X22311232Y51203954D01*
X22213685Y51386450D01*
X22082410Y51546410D01*
X21922450Y51677685D01*
X21922448Y51677687D01*
X21922444Y51677689D01*
X21739954Y51775232D01*
X21739949Y51775234D01*
X21541935Y51835300D01*
X21541930Y51835301D01*
X21336000Y51855583D01*
X21130069Y51835301D01*
X21130064Y51835300D01*
X20932050Y51775234D01*
X20932045Y51775232D01*
X20749555Y51677689D01*
X20749544Y51677681D01*
X20589591Y51546412D01*
X20589588Y51546409D01*
X20458319Y51386456D01*
X20458311Y51386445D01*
X20360768Y51203955D01*
X20360766Y51203950D01*
X20300700Y51005936D01*
X20300699Y51005931D01*
X20280417Y50800001D01*
X19846500Y50800001D01*
X19846500Y51669748D01*
X19834867Y51728231D01*
X19834866Y51728233D01*
X19790552Y51794553D01*
X19724232Y51838867D01*
X19724230Y51838868D01*
X19665748Y51850500D01*
X17926252Y51850500D01*
X17867769Y51838868D01*
X17867767Y51838867D01*
X17801447Y51794553D01*
X17757133Y51728233D01*
X17757132Y51728231D01*
X17745500Y51669749D01*
X75500Y51669749D01*
X75500Y52574931D01*
X75801Y52581057D01*
X83624Y52660487D01*
X88088Y52705809D01*
X90475Y52717814D01*
X125973Y52834832D01*
X130655Y52846136D01*
X188296Y52953974D01*
X195096Y52964152D01*
X272667Y53058673D01*
X281329Y53067334D01*
X375848Y53144904D01*
X386026Y53151704D01*
X493864Y53209345D01*
X505168Y53214027D01*
X622186Y53249525D01*
X634191Y53251912D01*
X758944Y53264199D01*
X765070Y53264500D01*
X786531Y53264500D01*
X65253469Y53264500D01*
X65274930Y53264500D01*
X65281056Y53264199D01*
G37*
%TD.AperFunction*%
%TD*%
M02*
