M48
; DRILL file {KiCad 8.0.3-8.0.3-0~ubuntu23.10.1} date 2024-08-03T00:22:19-0400
; FORMAT={-:-/ absolute / inch / decimal}
; #@! TF.CreationDate,2024-08-03T00:22:19-04:00
; #@! TF.GenerationSoftware,Kicad,Pcbnew,8.0.3-8.0.3-0~ubuntu23.10.1
; #@! TF.FileFunction,Plated,1,4,PTH
FMAT,2
INCH
; #@! TA.AperFunction,Plated,PTH,ViaDrill
T1C0.0118
; #@! TA.AperFunction,Plated,PTH,ComponentDrill
T2C0.0394
%
G90
G05
T1
X0.4634Y1.7087
X0.5669Y1.3323
X0.5669Y1.1323
X0.5669Y0.9323
X0.5669Y0.7323
X1.1917Y1.8772
X1.1917Y1.7827
X1.285Y1.7925
X1.2921Y1.8783
X1.2921Y1.6961
X1.3563Y1.05
X1.3661Y1.1299
X1.3661Y0.9685
X1.3827Y1.3969
X1.3854Y0.7988
X1.3937Y1.7866
X1.3957Y1.8803
X1.3965Y1.6732
X1.4055Y1.3079
X1.4252Y1.1299
X1.4429Y1.2618
X1.4646Y0.5354
X1.4654Y0.7925
X1.4831Y0.6193
X1.4878Y0.8618
X1.4909Y1.7839
X1.4961Y1.8811
X1.498Y1.6705
X1.5268Y1.1827
X1.5366Y1.6075
X1.5862Y1.172
X1.5866Y1.7819
X1.5917Y1.8772
X1.5925Y1.6744
X1.6402Y1.3972
X1.6421Y1.3591
X1.7201Y1.1409
X1.7201Y1.1031
T2
X0.4069Y1.6012
X0.4069Y1.5012
X0.4069Y1.4012
X0.4069Y1.3012
X0.4069Y1.2012
X0.4069Y1.1012
X0.4069Y1.0012
X0.4069Y0.9012
X0.4069Y0.8012
X0.4069Y0.7012
X0.4069Y0.6012
X0.4069Y0.5012
X0.5069Y1.6012
X0.5069Y1.5012
X0.5069Y1.4012
X0.5069Y1.3012
X0.5069Y1.2012
X0.5069Y1.1012
X0.5069Y1.0012
X0.5069Y0.9012
X0.5069Y0.8012
X0.5069Y0.7012
X0.5069Y0.6012
X0.5069Y0.5012
X0.74Y2.0
X0.84Y2.0
X0.94Y2.0
X1.04Y2.0
X1.1Y0.1
X1.14Y2.0
X1.2Y0.1
X1.24Y2.0
X1.3Y0.1
X1.34Y2.0
X1.4Y0.1
X1.44Y2.0
X1.5Y0.1
X1.54Y2.0
X1.6Y0.1
X1.64Y2.0
X1.7Y0.1
X1.8Y2.0
X1.8Y0.1
X1.9Y2.0
X2.0Y2.0
X2.0Y0.1
X2.1Y2.0
X2.1Y0.1
X2.2Y2.0
X2.2Y0.1
X2.3Y2.0
X2.3Y0.1
X2.4Y2.0
X2.4Y0.1
X2.5Y2.0
X2.5Y0.1
M30
