%TF.GenerationSoftware,KiCad,Pcbnew,8.0.3-8.0.3-0~ubuntu23.10.1*%
%TF.CreationDate,2024-08-03T00:22:19-04:00*%
%TF.ProjectId,ADS131M08_Arduino,41445331-3331-44d3-9038-5f4172647569,rev?*%
%TF.SameCoordinates,Original*%
%TF.FileFunction,Legend,Top*%
%TF.FilePolarity,Positive*%
%FSLAX46Y46*%
G04 Gerber Fmt 4.6, Leading zero omitted, Abs format (unit mm)*
G04 Created by KiCad (PCBNEW 8.0.3-8.0.3-0~ubuntu23.10.1) date 2024-08-03 00:22:19*
%MOMM*%
%LPD*%
G01*
G04 APERTURE LIST*
G04 Aperture macros list*
%AMRoundRect*
0 Rectangle with rounded corners*
0 $1 Rounding radius*
0 $2 $3 $4 $5 $6 $7 $8 $9 X,Y pos of 4 corners*
0 Add a 4 corners polygon primitive as box body*
4,1,4,$2,$3,$4,$5,$6,$7,$8,$9,$2,$3,0*
0 Add four circle primitives for the rounded corners*
1,1,$1+$1,$2,$3*
1,1,$1+$1,$4,$5*
1,1,$1+$1,$6,$7*
1,1,$1+$1,$8,$9*
0 Add four rect primitives between the rounded corners*
20,1,$1+$1,$2,$3,$4,$5,0*
20,1,$1+$1,$4,$5,$6,$7,0*
20,1,$1+$1,$6,$7,$8,$9,0*
20,1,$1+$1,$8,$9,$2,$3,0*%
G04 Aperture macros list end*
%ADD10C,0.300000*%
%ADD11C,0.120000*%
%ADD12RoundRect,0.140000X-0.140000X-0.170000X0.140000X-0.170000X0.140000X0.170000X-0.140000X0.170000X0*%
%ADD13RoundRect,0.140000X-0.170000X0.140000X-0.170000X-0.140000X0.170000X-0.140000X0.170000X0.140000X0*%
%ADD14R,1.700000X1.700000*%
%ADD15O,1.700000X1.700000*%
%ADD16R,0.500000X0.320000*%
%ADD17RoundRect,0.140000X0.170000X-0.140000X0.170000X0.140000X-0.170000X0.140000X-0.170000X-0.140000X0*%
%ADD18R,0.900000X0.800000*%
%ADD19C,3.200000*%
%ADD20RoundRect,0.075000X-0.675000X-0.075000X0.675000X-0.075000X0.675000X0.075000X-0.675000X0.075000X0*%
%ADD21RoundRect,0.075000X-0.075000X-0.675000X0.075000X-0.675000X0.075000X0.675000X-0.075000X0.675000X0*%
%ADD22RoundRect,0.150000X-0.512500X-0.150000X0.512500X-0.150000X0.512500X0.150000X-0.512500X0.150000X0*%
%ADD23RoundRect,0.150000X-0.150000X0.512500X-0.150000X-0.512500X0.150000X-0.512500X0.150000X0.512500X0*%
G04 APERTURE END LIST*
D10*
X57532299Y20420002D02*
X57532299Y21134287D01*
X57960870Y20277145D02*
X56460870Y20777145D01*
X56460870Y20777145D02*
X57960870Y21277145D01*
X57960870Y21777144D02*
X56460870Y21777144D01*
X56460870Y21777144D02*
X56460870Y22134287D01*
X56460870Y22134287D02*
X56532299Y22348573D01*
X56532299Y22348573D02*
X56675156Y22491430D01*
X56675156Y22491430D02*
X56818013Y22562859D01*
X56818013Y22562859D02*
X57103727Y22634287D01*
X57103727Y22634287D02*
X57318013Y22634287D01*
X57318013Y22634287D02*
X57603727Y22562859D01*
X57603727Y22562859D02*
X57746584Y22491430D01*
X57746584Y22491430D02*
X57889442Y22348573D01*
X57889442Y22348573D02*
X57960870Y22134287D01*
X57960870Y22134287D02*
X57960870Y21777144D01*
X57889442Y23205716D02*
X57960870Y23420001D01*
X57960870Y23420001D02*
X57960870Y23777144D01*
X57960870Y23777144D02*
X57889442Y23920001D01*
X57889442Y23920001D02*
X57818013Y23991430D01*
X57818013Y23991430D02*
X57675156Y24062859D01*
X57675156Y24062859D02*
X57532299Y24062859D01*
X57532299Y24062859D02*
X57389442Y23991430D01*
X57389442Y23991430D02*
X57318013Y23920001D01*
X57318013Y23920001D02*
X57246584Y23777144D01*
X57246584Y23777144D02*
X57175156Y23491430D01*
X57175156Y23491430D02*
X57103727Y23348573D01*
X57103727Y23348573D02*
X57032299Y23277144D01*
X57032299Y23277144D02*
X56889442Y23205716D01*
X56889442Y23205716D02*
X56746584Y23205716D01*
X56746584Y23205716D02*
X56603727Y23277144D01*
X56603727Y23277144D02*
X56532299Y23348573D01*
X56532299Y23348573D02*
X56460870Y23491430D01*
X56460870Y23491430D02*
X56460870Y23848573D01*
X56460870Y23848573D02*
X56532299Y24062859D01*
X57960870Y25491430D02*
X57960870Y24634287D01*
X57960870Y25062858D02*
X56460870Y25062858D01*
X56460870Y25062858D02*
X56675156Y24920001D01*
X56675156Y24920001D02*
X56818013Y24777144D01*
X56818013Y24777144D02*
X56889442Y24634287D01*
X56460870Y25991429D02*
X56460870Y26920001D01*
X56460870Y26920001D02*
X57032299Y26420001D01*
X57032299Y26420001D02*
X57032299Y26634286D01*
X57032299Y26634286D02*
X57103727Y26777143D01*
X57103727Y26777143D02*
X57175156Y26848572D01*
X57175156Y26848572D02*
X57318013Y26920001D01*
X57318013Y26920001D02*
X57675156Y26920001D01*
X57675156Y26920001D02*
X57818013Y26848572D01*
X57818013Y26848572D02*
X57889442Y26777143D01*
X57889442Y26777143D02*
X57960870Y26634286D01*
X57960870Y26634286D02*
X57960870Y26205715D01*
X57960870Y26205715D02*
X57889442Y26062858D01*
X57889442Y26062858D02*
X57818013Y25991429D01*
X57960870Y28348572D02*
X57960870Y27491429D01*
X57960870Y27920000D02*
X56460870Y27920000D01*
X56460870Y27920000D02*
X56675156Y27777143D01*
X56675156Y27777143D02*
X56818013Y27634286D01*
X56818013Y27634286D02*
X56889442Y27491429D01*
X57960870Y28991428D02*
X56460870Y28991428D01*
X56460870Y28991428D02*
X57532299Y29491428D01*
X57532299Y29491428D02*
X56460870Y29991428D01*
X56460870Y29991428D02*
X57960870Y29991428D01*
X56460870Y30991429D02*
X56460870Y31134286D01*
X56460870Y31134286D02*
X56532299Y31277143D01*
X56532299Y31277143D02*
X56603727Y31348571D01*
X56603727Y31348571D02*
X56746584Y31420000D01*
X56746584Y31420000D02*
X57032299Y31491429D01*
X57032299Y31491429D02*
X57389442Y31491429D01*
X57389442Y31491429D02*
X57675156Y31420000D01*
X57675156Y31420000D02*
X57818013Y31348571D01*
X57818013Y31348571D02*
X57889442Y31277143D01*
X57889442Y31277143D02*
X57960870Y31134286D01*
X57960870Y31134286D02*
X57960870Y30991429D01*
X57960870Y30991429D02*
X57889442Y30848571D01*
X57889442Y30848571D02*
X57818013Y30777143D01*
X57818013Y30777143D02*
X57675156Y30705714D01*
X57675156Y30705714D02*
X57389442Y30634286D01*
X57389442Y30634286D02*
X57032299Y30634286D01*
X57032299Y30634286D02*
X56746584Y30705714D01*
X56746584Y30705714D02*
X56603727Y30777143D01*
X56603727Y30777143D02*
X56532299Y30848571D01*
X56532299Y30848571D02*
X56460870Y30991429D01*
X57103727Y32348571D02*
X57032299Y32205714D01*
X57032299Y32205714D02*
X56960870Y32134285D01*
X56960870Y32134285D02*
X56818013Y32062857D01*
X56818013Y32062857D02*
X56746584Y32062857D01*
X56746584Y32062857D02*
X56603727Y32134285D01*
X56603727Y32134285D02*
X56532299Y32205714D01*
X56532299Y32205714D02*
X56460870Y32348571D01*
X56460870Y32348571D02*
X56460870Y32634285D01*
X56460870Y32634285D02*
X56532299Y32777142D01*
X56532299Y32777142D02*
X56603727Y32848571D01*
X56603727Y32848571D02*
X56746584Y32920000D01*
X56746584Y32920000D02*
X56818013Y32920000D01*
X56818013Y32920000D02*
X56960870Y32848571D01*
X56960870Y32848571D02*
X57032299Y32777142D01*
X57032299Y32777142D02*
X57103727Y32634285D01*
X57103727Y32634285D02*
X57103727Y32348571D01*
X57103727Y32348571D02*
X57175156Y32205714D01*
X57175156Y32205714D02*
X57246584Y32134285D01*
X57246584Y32134285D02*
X57389442Y32062857D01*
X57389442Y32062857D02*
X57675156Y32062857D01*
X57675156Y32062857D02*
X57818013Y32134285D01*
X57818013Y32134285D02*
X57889442Y32205714D01*
X57889442Y32205714D02*
X57960870Y32348571D01*
X57960870Y32348571D02*
X57960870Y32634285D01*
X57960870Y32634285D02*
X57889442Y32777142D01*
X57889442Y32777142D02*
X57818013Y32848571D01*
X57818013Y32848571D02*
X57675156Y32920000D01*
X57675156Y32920000D02*
X57389442Y32920000D01*
X57389442Y32920000D02*
X57246584Y32848571D01*
X57246584Y32848571D02*
X57175156Y32777142D01*
X57175156Y32777142D02*
X57103727Y32634285D01*
X59018643Y11920002D02*
X58947215Y11991430D01*
X58947215Y11991430D02*
X58875786Y12134287D01*
X58875786Y12134287D02*
X58875786Y12491430D01*
X58875786Y12491430D02*
X58947215Y12634287D01*
X58947215Y12634287D02*
X59018643Y12705716D01*
X59018643Y12705716D02*
X59161500Y12777145D01*
X59161500Y12777145D02*
X59304358Y12777145D01*
X59304358Y12777145D02*
X59518643Y12705716D01*
X59518643Y12705716D02*
X60375786Y11848573D01*
X60375786Y11848573D02*
X60375786Y12777145D01*
X59375786Y14062858D02*
X60375786Y14062858D01*
X58804358Y13705716D02*
X59875786Y13348573D01*
X59875786Y13348573D02*
X59875786Y14277144D01*
X59804358Y14848572D02*
X59804358Y15991429D01*
X60375786Y16705715D02*
X58875786Y16705715D01*
X59447215Y16705715D02*
X59375786Y16848572D01*
X59375786Y16848572D02*
X59375786Y17134287D01*
X59375786Y17134287D02*
X59447215Y17277144D01*
X59447215Y17277144D02*
X59518643Y17348572D01*
X59518643Y17348572D02*
X59661500Y17420001D01*
X59661500Y17420001D02*
X60090072Y17420001D01*
X60090072Y17420001D02*
X60232929Y17348572D01*
X60232929Y17348572D02*
X60304358Y17277144D01*
X60304358Y17277144D02*
X60375786Y17134287D01*
X60375786Y17134287D02*
X60375786Y16848572D01*
X60375786Y16848572D02*
X60304358Y16705715D01*
X60375786Y18062858D02*
X59375786Y18062858D01*
X58875786Y18062858D02*
X58947215Y17991430D01*
X58947215Y17991430D02*
X59018643Y18062858D01*
X59018643Y18062858D02*
X58947215Y18134287D01*
X58947215Y18134287D02*
X58875786Y18062858D01*
X58875786Y18062858D02*
X59018643Y18062858D01*
X59375786Y18562859D02*
X59375786Y19134287D01*
X58875786Y18777144D02*
X60161500Y18777144D01*
X60161500Y18777144D02*
X60304358Y18848573D01*
X60304358Y18848573D02*
X60375786Y18991430D01*
X60375786Y18991430D02*
X60375786Y19134287D01*
X59518643Y20991430D02*
X59447215Y20848573D01*
X59447215Y20848573D02*
X59375786Y20777144D01*
X59375786Y20777144D02*
X59232929Y20705716D01*
X59232929Y20705716D02*
X59161500Y20705716D01*
X59161500Y20705716D02*
X59018643Y20777144D01*
X59018643Y20777144D02*
X58947215Y20848573D01*
X58947215Y20848573D02*
X58875786Y20991430D01*
X58875786Y20991430D02*
X58875786Y21277144D01*
X58875786Y21277144D02*
X58947215Y21420001D01*
X58947215Y21420001D02*
X59018643Y21491430D01*
X59018643Y21491430D02*
X59161500Y21562859D01*
X59161500Y21562859D02*
X59232929Y21562859D01*
X59232929Y21562859D02*
X59375786Y21491430D01*
X59375786Y21491430D02*
X59447215Y21420001D01*
X59447215Y21420001D02*
X59518643Y21277144D01*
X59518643Y21277144D02*
X59518643Y20991430D01*
X59518643Y20991430D02*
X59590072Y20848573D01*
X59590072Y20848573D02*
X59661500Y20777144D01*
X59661500Y20777144D02*
X59804358Y20705716D01*
X59804358Y20705716D02*
X60090072Y20705716D01*
X60090072Y20705716D02*
X60232929Y20777144D01*
X60232929Y20777144D02*
X60304358Y20848573D01*
X60304358Y20848573D02*
X60375786Y20991430D01*
X60375786Y20991430D02*
X60375786Y21277144D01*
X60375786Y21277144D02*
X60304358Y21420001D01*
X60304358Y21420001D02*
X60232929Y21491430D01*
X60232929Y21491430D02*
X60090072Y21562859D01*
X60090072Y21562859D02*
X59804358Y21562859D01*
X59804358Y21562859D02*
X59661500Y21491430D01*
X59661500Y21491430D02*
X59590072Y21420001D01*
X59590072Y21420001D02*
X59518643Y21277144D01*
X59804358Y22205715D02*
X59804358Y23348572D01*
X60304358Y24705715D02*
X60375786Y24562858D01*
X60375786Y24562858D02*
X60375786Y24277144D01*
X60375786Y24277144D02*
X60304358Y24134287D01*
X60304358Y24134287D02*
X60232929Y24062858D01*
X60232929Y24062858D02*
X60090072Y23991430D01*
X60090072Y23991430D02*
X59661500Y23991430D01*
X59661500Y23991430D02*
X59518643Y24062858D01*
X59518643Y24062858D02*
X59447215Y24134287D01*
X59447215Y24134287D02*
X59375786Y24277144D01*
X59375786Y24277144D02*
X59375786Y24562858D01*
X59375786Y24562858D02*
X59447215Y24705715D01*
X60375786Y25348572D02*
X58875786Y25348572D01*
X60375786Y25991429D02*
X59590072Y25991429D01*
X59590072Y25991429D02*
X59447215Y25920001D01*
X59447215Y25920001D02*
X59375786Y25777144D01*
X59375786Y25777144D02*
X59375786Y25562858D01*
X59375786Y25562858D02*
X59447215Y25420001D01*
X59447215Y25420001D02*
X59518643Y25348572D01*
X60375786Y27348572D02*
X59590072Y27348572D01*
X59590072Y27348572D02*
X59447215Y27277144D01*
X59447215Y27277144D02*
X59375786Y27134287D01*
X59375786Y27134287D02*
X59375786Y26848572D01*
X59375786Y26848572D02*
X59447215Y26705715D01*
X60304358Y27348572D02*
X60375786Y27205715D01*
X60375786Y27205715D02*
X60375786Y26848572D01*
X60375786Y26848572D02*
X60304358Y26705715D01*
X60304358Y26705715D02*
X60161500Y26634287D01*
X60161500Y26634287D02*
X60018643Y26634287D01*
X60018643Y26634287D02*
X59875786Y26705715D01*
X59875786Y26705715D02*
X59804358Y26848572D01*
X59804358Y26848572D02*
X59804358Y27205715D01*
X59804358Y27205715D02*
X59732929Y27348572D01*
X59375786Y28062858D02*
X60375786Y28062858D01*
X59518643Y28062858D02*
X59447215Y28134287D01*
X59447215Y28134287D02*
X59375786Y28277144D01*
X59375786Y28277144D02*
X59375786Y28491430D01*
X59375786Y28491430D02*
X59447215Y28634287D01*
X59447215Y28634287D02*
X59590072Y28705715D01*
X59590072Y28705715D02*
X60375786Y28705715D01*
X59375786Y29420001D02*
X60375786Y29420001D01*
X59518643Y29420001D02*
X59447215Y29491430D01*
X59447215Y29491430D02*
X59375786Y29634287D01*
X59375786Y29634287D02*
X59375786Y29848573D01*
X59375786Y29848573D02*
X59447215Y29991430D01*
X59447215Y29991430D02*
X59590072Y30062858D01*
X59590072Y30062858D02*
X60375786Y30062858D01*
X60304358Y31348573D02*
X60375786Y31205716D01*
X60375786Y31205716D02*
X60375786Y30920001D01*
X60375786Y30920001D02*
X60304358Y30777144D01*
X60304358Y30777144D02*
X60161500Y30705716D01*
X60161500Y30705716D02*
X59590072Y30705716D01*
X59590072Y30705716D02*
X59447215Y30777144D01*
X59447215Y30777144D02*
X59375786Y30920001D01*
X59375786Y30920001D02*
X59375786Y31205716D01*
X59375786Y31205716D02*
X59447215Y31348573D01*
X59447215Y31348573D02*
X59590072Y31420001D01*
X59590072Y31420001D02*
X59732929Y31420001D01*
X59732929Y31420001D02*
X59875786Y30705716D01*
X60375786Y32277144D02*
X60304358Y32134287D01*
X60304358Y32134287D02*
X60161500Y32062858D01*
X60161500Y32062858D02*
X58875786Y32062858D01*
X60375786Y33777144D02*
X58875786Y34277144D01*
X58875786Y34277144D02*
X60375786Y34777144D01*
X60375786Y34777144D02*
X60375786Y33777144D01*
X60375786Y35991429D02*
X60375786Y35205715D01*
X60375786Y35205715D02*
X59590072Y35705715D01*
X59590072Y35705715D02*
X58875786Y35205715D01*
X58875786Y35205715D02*
X58875786Y35991429D01*
X59947215Y37705715D02*
X59947215Y38420000D01*
X60375786Y37562858D02*
X58875786Y38062858D01*
X58875786Y38062858D02*
X60375786Y38562858D01*
X60375786Y39062857D02*
X58875786Y39062857D01*
X58875786Y39062857D02*
X58875786Y39420000D01*
X58875786Y39420000D02*
X58947215Y39634286D01*
X58947215Y39634286D02*
X59090072Y39777143D01*
X59090072Y39777143D02*
X59232929Y39848572D01*
X59232929Y39848572D02*
X59518643Y39920000D01*
X59518643Y39920000D02*
X59732929Y39920000D01*
X59732929Y39920000D02*
X60018643Y39848572D01*
X60018643Y39848572D02*
X60161500Y39777143D01*
X60161500Y39777143D02*
X60304358Y39634286D01*
X60304358Y39634286D02*
X60375786Y39420000D01*
X60375786Y39420000D02*
X60375786Y39062857D01*
X60232929Y41420000D02*
X60304358Y41348572D01*
X60304358Y41348572D02*
X60375786Y41134286D01*
X60375786Y41134286D02*
X60375786Y40991429D01*
X60375786Y40991429D02*
X60304358Y40777143D01*
X60304358Y40777143D02*
X60161500Y40634286D01*
X60161500Y40634286D02*
X60018643Y40562857D01*
X60018643Y40562857D02*
X59732929Y40491429D01*
X59732929Y40491429D02*
X59518643Y40491429D01*
X59518643Y40491429D02*
X59232929Y40562857D01*
X59232929Y40562857D02*
X59090072Y40634286D01*
X59090072Y40634286D02*
X58947215Y40777143D01*
X58947215Y40777143D02*
X58875786Y40991429D01*
X58875786Y40991429D02*
X58875786Y41134286D01*
X58875786Y41134286D02*
X58947215Y41348572D01*
X58947215Y41348572D02*
X59018643Y41420000D01*
D11*
%TO.C,C2*%
X36592164Y22260000D02*
X36807836Y22260000D01*
X36592164Y21540000D02*
X36807836Y21540000D01*
%TO.C,C3*%
X34840000Y21507836D02*
X34840000Y21292164D01*
X35560000Y21507836D02*
X35560000Y21292164D01*
%TO.C,J5*%
X245000Y42000000D02*
X245000Y11400000D01*
X245000Y42000000D02*
X8875000Y42000000D01*
X245000Y41880000D02*
X8875000Y41880000D01*
X245000Y41761905D02*
X8875000Y41761905D01*
X245000Y41643810D02*
X8875000Y41643810D01*
X245000Y41525715D02*
X8875000Y41525715D01*
X245000Y41407620D02*
X8875000Y41407620D01*
X245000Y41289525D02*
X8875000Y41289525D01*
X245000Y41171430D02*
X8875000Y41171430D01*
X245000Y41053335D02*
X8875000Y41053335D01*
X245000Y40935240D02*
X8875000Y40935240D01*
X245000Y40817145D02*
X8875000Y40817145D01*
X245000Y40699050D02*
X8875000Y40699050D01*
X245000Y40580955D02*
X8875000Y40580955D01*
X245000Y40462860D02*
X8875000Y40462860D01*
X245000Y40344765D02*
X8875000Y40344765D01*
X245000Y40226670D02*
X8875000Y40226670D01*
X245000Y40108575D02*
X8875000Y40108575D01*
X245000Y39990480D02*
X8875000Y39990480D01*
X245000Y39872385D02*
X8875000Y39872385D01*
X245000Y39754290D02*
X8875000Y39754290D01*
X245000Y39636195D02*
X8875000Y39636195D01*
X245000Y39518100D02*
X8875000Y39518100D01*
X245000Y39400000D02*
X8875000Y39400000D01*
X245000Y36860000D02*
X8875000Y36860000D01*
X245000Y34320000D02*
X8875000Y34320000D01*
X245000Y31780000D02*
X8875000Y31780000D01*
X245000Y29240000D02*
X8875000Y29240000D01*
X245000Y26700000D02*
X8875000Y26700000D01*
X245000Y24160000D02*
X8875000Y24160000D01*
X245000Y21620000D02*
X8875000Y21620000D01*
X245000Y19080000D02*
X8875000Y19080000D01*
X245000Y16540000D02*
X8875000Y16540000D01*
X245000Y14000000D02*
X8875000Y14000000D01*
X245000Y11400000D02*
X8875000Y11400000D01*
X8875000Y42000000D02*
X8875000Y11400000D01*
X8875000Y41030000D02*
X9285000Y41030000D01*
X8875000Y40310000D02*
X9285000Y40310000D01*
X8875000Y38490000D02*
X9285000Y38490000D01*
X8875000Y37770000D02*
X9285000Y37770000D01*
X8875000Y35950000D02*
X9285000Y35950000D01*
X8875000Y35230000D02*
X9285000Y35230000D01*
X8875000Y33410000D02*
X9285000Y33410000D01*
X8875000Y32690000D02*
X9285000Y32690000D01*
X8875000Y30870000D02*
X9285000Y30870000D01*
X8875000Y30150000D02*
X9285000Y30150000D01*
X8875000Y28330000D02*
X9285000Y28330000D01*
X8875000Y27610000D02*
X9285000Y27610000D01*
X8875000Y25790000D02*
X9285000Y25790000D01*
X8875000Y25070000D02*
X9285000Y25070000D01*
X8875000Y23250000D02*
X9285000Y23250000D01*
X8875000Y22530000D02*
X9285000Y22530000D01*
X8875000Y20710000D02*
X9285000Y20710000D01*
X8875000Y19990000D02*
X9285000Y19990000D01*
X8875000Y18170000D02*
X9285000Y18170000D01*
X8875000Y17450000D02*
X9285000Y17450000D01*
X8875000Y15630000D02*
X9285000Y15630000D01*
X8875000Y14910000D02*
X9285000Y14910000D01*
X8875000Y13090000D02*
X9285000Y13090000D01*
X8875000Y12370000D02*
X9285000Y12370000D01*
X11385000Y41030000D02*
X11765000Y41030000D01*
X11385000Y40310000D02*
X11765000Y40310000D01*
X11385000Y38490000D02*
X11825000Y38490000D01*
X11385000Y37770000D02*
X11825000Y37770000D01*
X11385000Y35950000D02*
X11825000Y35950000D01*
X11385000Y35230000D02*
X11825000Y35230000D01*
X11385000Y33410000D02*
X11825000Y33410000D01*
X11385000Y32690000D02*
X11825000Y32690000D01*
X11385000Y30870000D02*
X11825000Y30870000D01*
X11385000Y30150000D02*
X11825000Y30150000D01*
X11385000Y28330000D02*
X11825000Y28330000D01*
X11385000Y27610000D02*
X11825000Y27610000D01*
X11385000Y25790000D02*
X11825000Y25790000D01*
X11385000Y25070000D02*
X11825000Y25070000D01*
X11385000Y23250000D02*
X11825000Y23250000D01*
X11385000Y22530000D02*
X11825000Y22530000D01*
X11385000Y20710000D02*
X11825000Y20710000D01*
X11385000Y19990000D02*
X11825000Y19990000D01*
X11385000Y18170000D02*
X11825000Y18170000D01*
X11385000Y17450000D02*
X11825000Y17450000D01*
X11385000Y15630000D02*
X11825000Y15630000D01*
X11385000Y14910000D02*
X11825000Y14910000D01*
X11385000Y13090000D02*
X11825000Y13090000D01*
X11385000Y12370000D02*
X11825000Y12370000D01*
X12875000Y42000000D02*
X13985000Y42000000D01*
X13985000Y42000000D02*
X13985000Y40670000D01*
%TO.C,RN3*%
X15750000Y35460000D02*
X16250000Y35460000D01*
X15750000Y33180000D02*
X16250000Y33180000D01*
%TO.C,RN1*%
X15750000Y30380000D02*
X16250000Y30380000D01*
X15750000Y28100000D02*
X16250000Y28100000D01*
%TO.C,C5*%
X42640000Y28392164D02*
X42640000Y28607836D01*
X43360000Y28392164D02*
X43360000Y28607836D01*
%TO.C,C10*%
X17240000Y25267836D02*
X17240000Y25052164D01*
X17960000Y25267836D02*
X17960000Y25052164D01*
%TO.C,C7*%
X17240000Y33212164D02*
X17240000Y33427836D01*
X17960000Y33212164D02*
X17960000Y33427836D01*
%TO.C,C12*%
X17240000Y20187836D02*
X17240000Y19972164D01*
X17960000Y20187836D02*
X17960000Y19972164D01*
%TO.C,C13*%
X17240000Y17972164D02*
X17240000Y18187836D01*
X17960000Y17972164D02*
X17960000Y18187836D01*
%TO.C,C9*%
X17240000Y28132164D02*
X17240000Y28347836D01*
X17960000Y28132164D02*
X17960000Y28347836D01*
%TO.C,X1*%
X42350000Y29650000D02*
X39650000Y29650000D01*
X42350000Y27350000D02*
X42350000Y29650000D01*
%TO.C,C17*%
X36622164Y19860000D02*
X36837836Y19860000D01*
X36622164Y19140000D02*
X36837836Y19140000D01*
%TO.C,C15*%
X35390000Y34892164D02*
X35390000Y35107836D01*
X36110000Y34892164D02*
X36110000Y35107836D01*
%TO.C,C1*%
X36072164Y31760000D02*
X36287836Y31760000D01*
X36072164Y31040000D02*
X36287836Y31040000D01*
%TO.C,U1*%
X31840000Y29280000D02*
X31840000Y28830000D01*
X31840000Y24060000D02*
X31840000Y24510000D01*
X32290000Y29280000D02*
X31840000Y29280000D01*
X32290000Y24060000D02*
X31840000Y24060000D01*
X36610000Y29280000D02*
X37060000Y29280000D01*
X36610000Y24060000D02*
X37060000Y24060000D01*
X37060000Y29280000D02*
X37060000Y28830000D01*
X37060000Y24060000D02*
X37060000Y24510000D01*
X31237500Y28830000D02*
X30897500Y29300000D01*
X31577500Y29300000D01*
X31237500Y28830000D01*
G36*
X31237500Y28830000D02*
G01*
X30897500Y29300000D01*
X31577500Y29300000D01*
X31237500Y28830000D01*
G37*
%TO.C,RN4*%
X15750000Y20220000D02*
X16250000Y20220000D01*
X15750000Y17940000D02*
X16250000Y17940000D01*
%TO.C,C16*%
X40650000Y34892164D02*
X40650000Y35107836D01*
X41370000Y34892164D02*
X41370000Y35107836D01*
%TO.C,U2*%
X38380000Y36560000D02*
X37580000Y36560000D01*
X38380000Y36560000D02*
X39180000Y36560000D01*
X38380000Y33440000D02*
X37580000Y33440000D01*
X38380000Y33440000D02*
X39180000Y33440000D01*
X37080000Y36510000D02*
X36840000Y36840000D01*
X37320000Y36840000D01*
X37080000Y36510000D01*
G36*
X37080000Y36510000D02*
G01*
X36840000Y36840000D01*
X37320000Y36840000D01*
X37080000Y36510000D01*
G37*
%TO.C,C6*%
X17240000Y35337836D02*
X17240000Y35122164D01*
X17960000Y35337836D02*
X17960000Y35122164D01*
%TO.C,C11*%
X17240000Y23052164D02*
X17240000Y23267836D01*
X17960000Y23052164D02*
X17960000Y23267836D01*
%TO.C,C14*%
X36622164Y14600000D02*
X36837836Y14600000D01*
X36622164Y13880000D02*
X36837836Y13880000D01*
%TO.C,C4*%
X38192164Y29760000D02*
X38407836Y29760000D01*
X38192164Y29040000D02*
X38407836Y29040000D01*
%TO.C,C8*%
X17240000Y30347836D02*
X17240000Y30132164D01*
X17960000Y30347836D02*
X17960000Y30132164D01*
%TO.C,RN2*%
X15750000Y25300000D02*
X16250000Y25300000D01*
X15750000Y23020000D02*
X16250000Y23020000D01*
%TO.C,U3*%
X35170000Y16870000D02*
X35170000Y17670000D01*
X35170000Y16870000D02*
X35170000Y16070000D01*
X38290000Y16870000D02*
X38290000Y17670000D01*
X38290000Y16870000D02*
X38290000Y16070000D01*
X38570000Y17930000D02*
X38240000Y18170000D01*
X38570000Y18410000D01*
X38570000Y17930000D01*
G36*
X38570000Y17930000D02*
G01*
X38240000Y18170000D01*
X38570000Y18410000D01*
X38570000Y17930000D01*
G37*
%TD*%
%LPC*%
D12*
%TO.C,C2*%
X36220000Y21900000D03*
X37180000Y21900000D03*
%TD*%
D13*
%TO.C,C3*%
X35200000Y21880000D03*
X35200000Y20920000D03*
%TD*%
D14*
%TO.C,J5*%
X12875000Y40670000D03*
D15*
X10335000Y40670000D03*
X12875000Y38130000D03*
X10335000Y38130000D03*
X12875000Y35590000D03*
X10335000Y35590000D03*
X12875000Y33050000D03*
X10335000Y33050000D03*
X12875000Y30510000D03*
X10335000Y30510000D03*
X12875000Y27970000D03*
X10335000Y27970000D03*
X12875000Y25430000D03*
X10335000Y25430000D03*
X12875000Y22890000D03*
X10335000Y22890000D03*
X12875000Y20350000D03*
X10335000Y20350000D03*
X12875000Y17810000D03*
X10335000Y17810000D03*
X12875000Y15270000D03*
X10335000Y15270000D03*
X12875000Y12730000D03*
X10335000Y12730000D03*
%TD*%
D16*
%TO.C,RN3*%
X16500000Y33570000D03*
X16500000Y34070000D03*
X16500000Y34570000D03*
X16500000Y35070000D03*
X15500000Y35070000D03*
X15500000Y34570000D03*
X15500000Y34070000D03*
X15500000Y33570000D03*
%TD*%
%TO.C,RN1*%
X16500000Y28490000D03*
X16500000Y28990000D03*
X16500000Y29490000D03*
X16500000Y29990000D03*
X15500000Y29990000D03*
X15500000Y29490000D03*
X15500000Y28990000D03*
X15500000Y28490000D03*
%TD*%
D17*
%TO.C,C5*%
X43000000Y28020000D03*
X43000000Y28980000D03*
%TD*%
D13*
%TO.C,C10*%
X17600000Y25640000D03*
X17600000Y24680000D03*
%TD*%
D17*
%TO.C,C7*%
X17600000Y32840000D03*
X17600000Y33800000D03*
%TD*%
D13*
%TO.C,C12*%
X17600000Y20560000D03*
X17600000Y19600000D03*
%TD*%
D17*
%TO.C,C13*%
X17600000Y17600000D03*
X17600000Y18560000D03*
%TD*%
%TO.C,C9*%
X17600000Y27760000D03*
X17600000Y28720000D03*
%TD*%
D18*
%TO.C,X1*%
X41700000Y29050000D03*
X40300000Y29050000D03*
X40300000Y27950000D03*
X41700000Y27950000D03*
%TD*%
D12*
%TO.C,C17*%
X36250000Y19500000D03*
X37210000Y19500000D03*
%TD*%
D19*
%TO.C,MH1*%
X15240000Y50800000D03*
%TD*%
D17*
%TO.C,C15*%
X35750000Y34520000D03*
X35750000Y35480000D03*
%TD*%
D12*
%TO.C,C1*%
X35700000Y31400000D03*
X36660000Y31400000D03*
%TD*%
D20*
%TO.C,U1*%
X31275000Y28420000D03*
X31275000Y27920000D03*
X31275000Y27420000D03*
X31275000Y26920000D03*
X31275000Y26420000D03*
X31275000Y25920000D03*
X31275000Y25420000D03*
X31275000Y24920000D03*
D21*
X32700000Y23495000D03*
X33200000Y23495000D03*
X33700000Y23495000D03*
X34200000Y23495000D03*
X34700000Y23495000D03*
X35200000Y23495000D03*
X35700000Y23495000D03*
X36200000Y23495000D03*
D20*
X37625000Y24920000D03*
X37625000Y25420000D03*
X37625000Y25920000D03*
X37625000Y26420000D03*
X37625000Y26920000D03*
X37625000Y27420000D03*
X37625000Y27920000D03*
X37625000Y28420000D03*
D21*
X36200000Y29845000D03*
X35700000Y29845000D03*
X35200000Y29845000D03*
X34700000Y29845000D03*
X34200000Y29845000D03*
X33700000Y29845000D03*
X33200000Y29845000D03*
X32700000Y29845000D03*
%TD*%
D16*
%TO.C,RN4*%
X16500000Y18330000D03*
X16500000Y18830000D03*
X16500000Y19330000D03*
X16500000Y19830000D03*
X15500000Y19830000D03*
X15500000Y19330000D03*
X15500000Y18830000D03*
X15500000Y18330000D03*
%TD*%
D17*
%TO.C,C16*%
X41010000Y34520000D03*
X41010000Y35480000D03*
%TD*%
D22*
%TO.C,U2*%
X37242500Y35950000D03*
X37242500Y34050000D03*
X39517500Y35000000D03*
%TD*%
D13*
%TO.C,C6*%
X17600000Y35710000D03*
X17600000Y34750000D03*
%TD*%
D17*
%TO.C,C11*%
X17600000Y22680000D03*
X17600000Y23640000D03*
%TD*%
D12*
%TO.C,C14*%
X36250000Y14240000D03*
X37210000Y14240000D03*
%TD*%
%TO.C,C4*%
X37820000Y29400000D03*
X38780000Y29400000D03*
%TD*%
D13*
%TO.C,C8*%
X17600000Y30720000D03*
X17600000Y29760000D03*
%TD*%
D19*
%TO.C,MH2*%
X13970000Y2540000D03*
%TD*%
%TO.C,MH3*%
X66040000Y35560000D03*
%TD*%
%TO.C,MH4*%
X66040000Y7620000D03*
%TD*%
D16*
%TO.C,RN2*%
X16500000Y23410000D03*
X16500000Y23910000D03*
X16500000Y24410000D03*
X16500000Y24910000D03*
X15500000Y24910000D03*
X15500000Y24410000D03*
X15500000Y23910000D03*
X15500000Y23410000D03*
%TD*%
D23*
%TO.C,U3*%
X37680000Y18007500D03*
X35780000Y18007500D03*
X36730000Y15732500D03*
%TD*%
D14*
%TO.C,J1*%
X27940000Y2540000D03*
D15*
X30480000Y2540000D03*
X33020000Y2540000D03*
X35560000Y2540000D03*
X38100000Y2540000D03*
X40640000Y2540000D03*
X43180000Y2540000D03*
X45720000Y2540000D03*
%TD*%
D14*
%TO.C,J3*%
X50800000Y2540000D03*
D15*
X53340000Y2540000D03*
X55880000Y2540000D03*
X58420000Y2540000D03*
X60960000Y2540000D03*
X63500000Y2540000D03*
%TD*%
D14*
%TO.C,J2*%
X18796000Y50800000D03*
D15*
X21336000Y50800000D03*
X23876000Y50800000D03*
X26416000Y50800000D03*
X28956000Y50800000D03*
X31496000Y50800000D03*
X34036000Y50800000D03*
X36576000Y50800000D03*
X39116000Y50800000D03*
X41656000Y50800000D03*
%TD*%
D14*
%TO.C,J4*%
X45720000Y50800000D03*
D15*
X48260000Y50800000D03*
X50800000Y50800000D03*
X53340000Y50800000D03*
X55880000Y50800000D03*
X58420000Y50800000D03*
X60960000Y50800000D03*
X63500000Y50800000D03*
%TD*%
%LPD*%
M02*
