%TF.GenerationSoftware,KiCad,Pcbnew,8.0.3-8.0.3-0~ubuntu23.10.1*%
%TF.CreationDate,2024-08-03T00:22:19-04:00*%
%TF.ProjectId,ADS131M08_Arduino,41445331-3331-44d3-9038-5f4172647569,rev?*%
%TF.SameCoordinates,Original*%
%TF.FileFunction,Soldermask,Bot*%
%TF.FilePolarity,Negative*%
%FSLAX46Y46*%
G04 Gerber Fmt 4.6, Leading zero omitted, Abs format (unit mm)*
G04 Created by KiCad (PCBNEW 8.0.3-8.0.3-0~ubuntu23.10.1) date 2024-08-03 00:22:19*
%MOMM*%
%LPD*%
G01*
G04 APERTURE LIST*
%ADD10R,1.700000X1.700000*%
%ADD11O,1.700000X1.700000*%
%ADD12C,3.200000*%
G04 APERTURE END LIST*
D10*
%TO.C,J5*%
X12875000Y40670000D03*
D11*
X10335000Y40670000D03*
X12875000Y38130000D03*
X10335000Y38130000D03*
X12875000Y35590000D03*
X10335000Y35590000D03*
X12875000Y33050000D03*
X10335000Y33050000D03*
X12875000Y30510000D03*
X10335000Y30510000D03*
X12875000Y27970000D03*
X10335000Y27970000D03*
X12875000Y25430000D03*
X10335000Y25430000D03*
X12875000Y22890000D03*
X10335000Y22890000D03*
X12875000Y20350000D03*
X10335000Y20350000D03*
X12875000Y17810000D03*
X10335000Y17810000D03*
X12875000Y15270000D03*
X10335000Y15270000D03*
X12875000Y12730000D03*
X10335000Y12730000D03*
%TD*%
D12*
%TO.C,MH1*%
X15240000Y50800000D03*
%TD*%
%TO.C,MH2*%
X13970000Y2540000D03*
%TD*%
%TO.C,MH3*%
X66040000Y35560000D03*
%TD*%
%TO.C,MH4*%
X66040000Y7620000D03*
%TD*%
D10*
%TO.C,J1*%
X27940000Y2540000D03*
D11*
X30480000Y2540000D03*
X33020000Y2540000D03*
X35560000Y2540000D03*
X38100000Y2540000D03*
X40640000Y2540000D03*
X43180000Y2540000D03*
X45720000Y2540000D03*
%TD*%
D10*
%TO.C,J3*%
X50800000Y2540000D03*
D11*
X53340000Y2540000D03*
X55880000Y2540000D03*
X58420000Y2540000D03*
X60960000Y2540000D03*
X63500000Y2540000D03*
%TD*%
D10*
%TO.C,J2*%
X18796000Y50800000D03*
D11*
X21336000Y50800000D03*
X23876000Y50800000D03*
X26416000Y50800000D03*
X28956000Y50800000D03*
X31496000Y50800000D03*
X34036000Y50800000D03*
X36576000Y50800000D03*
X39116000Y50800000D03*
X41656000Y50800000D03*
%TD*%
D10*
%TO.C,J4*%
X45720000Y50800000D03*
D11*
X48260000Y50800000D03*
X50800000Y50800000D03*
X53340000Y50800000D03*
X55880000Y50800000D03*
X58420000Y50800000D03*
X60960000Y50800000D03*
X63500000Y50800000D03*
%TD*%
M02*
