%TF.GenerationSoftware,KiCad,Pcbnew,8.0.3-8.0.3-0~ubuntu23.10.1*%
%TF.CreationDate,2024-08-03T00:22:19-04:00*%
%TF.ProjectId,ADS131M08_Arduino,41445331-3331-44d3-9038-5f4172647569,rev?*%
%TF.SameCoordinates,Original*%
%TF.FileFunction,Soldermask,Top*%
%TF.FilePolarity,Negative*%
%FSLAX46Y46*%
G04 Gerber Fmt 4.6, Leading zero omitted, Abs format (unit mm)*
G04 Created by KiCad (PCBNEW 8.0.3-8.0.3-0~ubuntu23.10.1) date 2024-08-03 00:22:19*
%MOMM*%
%LPD*%
G01*
G04 APERTURE LIST*
G04 Aperture macros list*
%AMRoundRect*
0 Rectangle with rounded corners*
0 $1 Rounding radius*
0 $2 $3 $4 $5 $6 $7 $8 $9 X,Y pos of 4 corners*
0 Add a 4 corners polygon primitive as box body*
4,1,4,$2,$3,$4,$5,$6,$7,$8,$9,$2,$3,0*
0 Add four circle primitives for the rounded corners*
1,1,$1+$1,$2,$3*
1,1,$1+$1,$4,$5*
1,1,$1+$1,$6,$7*
1,1,$1+$1,$8,$9*
0 Add four rect primitives between the rounded corners*
20,1,$1+$1,$2,$3,$4,$5,0*
20,1,$1+$1,$4,$5,$6,$7,0*
20,1,$1+$1,$6,$7,$8,$9,0*
20,1,$1+$1,$8,$9,$2,$3,0*%
G04 Aperture macros list end*
%ADD10RoundRect,0.140000X-0.140000X-0.170000X0.140000X-0.170000X0.140000X0.170000X-0.140000X0.170000X0*%
%ADD11RoundRect,0.140000X-0.170000X0.140000X-0.170000X-0.140000X0.170000X-0.140000X0.170000X0.140000X0*%
%ADD12R,1.700000X1.700000*%
%ADD13O,1.700000X1.700000*%
%ADD14R,0.500000X0.320000*%
%ADD15RoundRect,0.140000X0.170000X-0.140000X0.170000X0.140000X-0.170000X0.140000X-0.170000X-0.140000X0*%
%ADD16R,0.900000X0.800000*%
%ADD17C,3.200000*%
%ADD18RoundRect,0.075000X-0.675000X-0.075000X0.675000X-0.075000X0.675000X0.075000X-0.675000X0.075000X0*%
%ADD19RoundRect,0.075000X-0.075000X-0.675000X0.075000X-0.675000X0.075000X0.675000X-0.075000X0.675000X0*%
%ADD20RoundRect,0.150000X-0.512500X-0.150000X0.512500X-0.150000X0.512500X0.150000X-0.512500X0.150000X0*%
%ADD21RoundRect,0.150000X-0.150000X0.512500X-0.150000X-0.512500X0.150000X-0.512500X0.150000X0.512500X0*%
G04 APERTURE END LIST*
D10*
%TO.C,C2*%
X36220000Y21900000D03*
X37180000Y21900000D03*
%TD*%
D11*
%TO.C,C3*%
X35200000Y21880000D03*
X35200000Y20920000D03*
%TD*%
D12*
%TO.C,J5*%
X12875000Y40670000D03*
D13*
X10335000Y40670000D03*
X12875000Y38130000D03*
X10335000Y38130000D03*
X12875000Y35590000D03*
X10335000Y35590000D03*
X12875000Y33050000D03*
X10335000Y33050000D03*
X12875000Y30510000D03*
X10335000Y30510000D03*
X12875000Y27970000D03*
X10335000Y27970000D03*
X12875000Y25430000D03*
X10335000Y25430000D03*
X12875000Y22890000D03*
X10335000Y22890000D03*
X12875000Y20350000D03*
X10335000Y20350000D03*
X12875000Y17810000D03*
X10335000Y17810000D03*
X12875000Y15270000D03*
X10335000Y15270000D03*
X12875000Y12730000D03*
X10335000Y12730000D03*
%TD*%
D14*
%TO.C,RN3*%
X16500000Y33570000D03*
X16500000Y34070000D03*
X16500000Y34570000D03*
X16500000Y35070000D03*
X15500000Y35070000D03*
X15500000Y34570000D03*
X15500000Y34070000D03*
X15500000Y33570000D03*
%TD*%
%TO.C,RN1*%
X16500000Y28490000D03*
X16500000Y28990000D03*
X16500000Y29490000D03*
X16500000Y29990000D03*
X15500000Y29990000D03*
X15500000Y29490000D03*
X15500000Y28990000D03*
X15500000Y28490000D03*
%TD*%
D15*
%TO.C,C5*%
X43000000Y28020000D03*
X43000000Y28980000D03*
%TD*%
D11*
%TO.C,C10*%
X17600000Y25640000D03*
X17600000Y24680000D03*
%TD*%
D15*
%TO.C,C7*%
X17600000Y32840000D03*
X17600000Y33800000D03*
%TD*%
D11*
%TO.C,C12*%
X17600000Y20560000D03*
X17600000Y19600000D03*
%TD*%
D15*
%TO.C,C13*%
X17600000Y17600000D03*
X17600000Y18560000D03*
%TD*%
%TO.C,C9*%
X17600000Y27760000D03*
X17600000Y28720000D03*
%TD*%
D16*
%TO.C,X1*%
X41700000Y29050000D03*
X40300000Y29050000D03*
X40300000Y27950000D03*
X41700000Y27950000D03*
%TD*%
D10*
%TO.C,C17*%
X36250000Y19500000D03*
X37210000Y19500000D03*
%TD*%
D17*
%TO.C,MH1*%
X15240000Y50800000D03*
%TD*%
D15*
%TO.C,C15*%
X35750000Y34520000D03*
X35750000Y35480000D03*
%TD*%
D10*
%TO.C,C1*%
X35700000Y31400000D03*
X36660000Y31400000D03*
%TD*%
D18*
%TO.C,U1*%
X31275000Y28420000D03*
X31275000Y27920000D03*
X31275000Y27420000D03*
X31275000Y26920000D03*
X31275000Y26420000D03*
X31275000Y25920000D03*
X31275000Y25420000D03*
X31275000Y24920000D03*
D19*
X32700000Y23495000D03*
X33200000Y23495000D03*
X33700000Y23495000D03*
X34200000Y23495000D03*
X34700000Y23495000D03*
X35200000Y23495000D03*
X35700000Y23495000D03*
X36200000Y23495000D03*
D18*
X37625000Y24920000D03*
X37625000Y25420000D03*
X37625000Y25920000D03*
X37625000Y26420000D03*
X37625000Y26920000D03*
X37625000Y27420000D03*
X37625000Y27920000D03*
X37625000Y28420000D03*
D19*
X36200000Y29845000D03*
X35700000Y29845000D03*
X35200000Y29845000D03*
X34700000Y29845000D03*
X34200000Y29845000D03*
X33700000Y29845000D03*
X33200000Y29845000D03*
X32700000Y29845000D03*
%TD*%
D14*
%TO.C,RN4*%
X16500000Y18330000D03*
X16500000Y18830000D03*
X16500000Y19330000D03*
X16500000Y19830000D03*
X15500000Y19830000D03*
X15500000Y19330000D03*
X15500000Y18830000D03*
X15500000Y18330000D03*
%TD*%
D15*
%TO.C,C16*%
X41010000Y34520000D03*
X41010000Y35480000D03*
%TD*%
D20*
%TO.C,U2*%
X37242500Y35950000D03*
X37242500Y34050000D03*
X39517500Y35000000D03*
%TD*%
D11*
%TO.C,C6*%
X17600000Y35710000D03*
X17600000Y34750000D03*
%TD*%
D15*
%TO.C,C11*%
X17600000Y22680000D03*
X17600000Y23640000D03*
%TD*%
D10*
%TO.C,C14*%
X36250000Y14240000D03*
X37210000Y14240000D03*
%TD*%
%TO.C,C4*%
X37820000Y29400000D03*
X38780000Y29400000D03*
%TD*%
D11*
%TO.C,C8*%
X17600000Y30720000D03*
X17600000Y29760000D03*
%TD*%
D17*
%TO.C,MH2*%
X13970000Y2540000D03*
%TD*%
%TO.C,MH3*%
X66040000Y35560000D03*
%TD*%
%TO.C,MH4*%
X66040000Y7620000D03*
%TD*%
D14*
%TO.C,RN2*%
X16500000Y23410000D03*
X16500000Y23910000D03*
X16500000Y24410000D03*
X16500000Y24910000D03*
X15500000Y24910000D03*
X15500000Y24410000D03*
X15500000Y23910000D03*
X15500000Y23410000D03*
%TD*%
D21*
%TO.C,U3*%
X37680000Y18007500D03*
X35780000Y18007500D03*
X36730000Y15732500D03*
%TD*%
D12*
%TO.C,J1*%
X27940000Y2540000D03*
D13*
X30480000Y2540000D03*
X33020000Y2540000D03*
X35560000Y2540000D03*
X38100000Y2540000D03*
X40640000Y2540000D03*
X43180000Y2540000D03*
X45720000Y2540000D03*
%TD*%
D12*
%TO.C,J3*%
X50800000Y2540000D03*
D13*
X53340000Y2540000D03*
X55880000Y2540000D03*
X58420000Y2540000D03*
X60960000Y2540000D03*
X63500000Y2540000D03*
%TD*%
D12*
%TO.C,J2*%
X18796000Y50800000D03*
D13*
X21336000Y50800000D03*
X23876000Y50800000D03*
X26416000Y50800000D03*
X28956000Y50800000D03*
X31496000Y50800000D03*
X34036000Y50800000D03*
X36576000Y50800000D03*
X39116000Y50800000D03*
X41656000Y50800000D03*
%TD*%
D12*
%TO.C,J4*%
X45720000Y50800000D03*
D13*
X48260000Y50800000D03*
X50800000Y50800000D03*
X53340000Y50800000D03*
X55880000Y50800000D03*
X58420000Y50800000D03*
X60960000Y50800000D03*
X63500000Y50800000D03*
%TD*%
M02*
