%TF.GenerationSoftware,KiCad,Pcbnew,8.0.3-8.0.3-0~ubuntu23.10.1*%
%TF.CreationDate,2024-08-04T16:00:46-04:00*%
%TF.ProjectId,BandPassFilter,42616e64-5061-4737-9346-696c7465722e,rev?*%
%TF.SameCoordinates,Original*%
%TF.FileFunction,Copper,L2,Bot*%
%TF.FilePolarity,Positive*%
%FSLAX46Y46*%
G04 Gerber Fmt 4.6, Leading zero omitted, Abs format (unit mm)*
G04 Created by KiCad (PCBNEW 8.0.3-8.0.3-0~ubuntu23.10.1) date 2024-08-04 16:00:46*
%MOMM*%
%LPD*%
G01*
G04 APERTURE LIST*
%TA.AperFunction,ComponentPad*%
%ADD10R,1.700000X1.700000*%
%TD*%
%TA.AperFunction,ComponentPad*%
%ADD11O,1.700000X1.700000*%
%TD*%
%TA.AperFunction,ViaPad*%
%ADD12C,0.600000*%
%TD*%
%TA.AperFunction,Conductor*%
%ADD13C,0.200000*%
%TD*%
G04 APERTURE END LIST*
D10*
%TO.P,J1,1,Pin_1*%
%TO.N,/SDA{slash}A4*%
X142850000Y-126025000D03*
D11*
%TO.P,J1,2,Pin_2*%
%TO.N,/SCL{slash}A5*%
X145390000Y-126025000D03*
%TO.P,J1,3,Pin_3*%
%TO.N,GND*%
X142850000Y-128565000D03*
%TO.P,J1,4,Pin_4*%
X145390000Y-128565000D03*
%TO.P,J1,5,Pin_5*%
%TO.N,/IN0+*%
X142850000Y-131105000D03*
%TO.P,J1,6,Pin_6*%
%TO.N,/IN0-*%
X145390000Y-131105000D03*
%TO.P,J1,7,Pin_7*%
%TO.N,/IN1-*%
X142850000Y-133645000D03*
%TO.P,J1,8,Pin_8*%
%TO.N,/IN1+*%
X145390000Y-133645000D03*
%TO.P,J1,9,Pin_9*%
%TO.N,/IN2+*%
X142850000Y-136185000D03*
%TO.P,J1,10,Pin_10*%
%TO.N,/IN2-*%
X145390000Y-136185000D03*
%TO.P,J1,11,Pin_11*%
%TO.N,/IN3-*%
X142850000Y-138725000D03*
%TO.P,J1,12,Pin_12*%
%TO.N,/IN3+*%
X145390000Y-138725000D03*
%TO.P,J1,13,Pin_13*%
%TO.N,/IN4+*%
X142850000Y-141265000D03*
%TO.P,J1,14,Pin_14*%
%TO.N,/IN4-*%
X145390000Y-141265000D03*
%TO.P,J1,15,Pin_15*%
%TO.N,/IN5-*%
X142850000Y-143805000D03*
%TO.P,J1,16,Pin_16*%
%TO.N,/IN5+*%
X145390000Y-143805000D03*
%TO.P,J1,17,Pin_17*%
%TO.N,/IN6+*%
X142850000Y-146345000D03*
%TO.P,J1,18,Pin_18*%
%TO.N,/IN6-*%
X145390000Y-146345000D03*
%TO.P,J1,19,Pin_19*%
%TO.N,/IN7-*%
X142850000Y-148885000D03*
%TO.P,J1,20,Pin_20*%
%TO.N,/IN7+*%
X145390000Y-148885000D03*
%TO.P,J1,21,Pin_21*%
%TO.N,GND*%
X142850000Y-151425000D03*
%TO.P,J1,22,Pin_22*%
X145390000Y-151425000D03*
%TO.P,J1,23,Pin_23*%
%TO.N,/A0*%
X142850000Y-153965000D03*
%TO.P,J1,24,Pin_24*%
%TO.N,VIN*%
X145390000Y-153965000D03*
%TD*%
D12*
%TO.N,GND*%
X134920000Y-152170000D03*
X134920000Y-141610000D03*
X134930000Y-131150000D03*
%TD*%
D13*
%TO.N,GND*%
X142850000Y-128565000D02*
X141495000Y-128565000D01*
X141495000Y-128565000D02*
X137230000Y-124300000D01*
X137230000Y-124300000D02*
X125500000Y-124300000D01*
X125500000Y-124300000D02*
X123300000Y-126500000D01*
X123300000Y-126500000D02*
X123300000Y-131600000D01*
X123300000Y-131600000D02*
X124100000Y-132400000D01*
X124100000Y-132400000D02*
X132200000Y-132400000D01*
X132200000Y-132400000D02*
X133450000Y-131150000D01*
X133450000Y-131150000D02*
X134930000Y-131150000D01*
X134920000Y-141610000D02*
X127060000Y-141610000D01*
X123260000Y-153140000D02*
X124030000Y-153910000D01*
X127060000Y-141610000D02*
X123260000Y-145410000D01*
X132170000Y-152170000D02*
X134920000Y-152170000D01*
X123260000Y-145410000D02*
X123260000Y-153140000D01*
X124030000Y-153910000D02*
X130430000Y-153910000D01*
X130430000Y-153910000D02*
X132170000Y-152170000D01*
X145390000Y-128565000D02*
X142850000Y-128565000D01*
X145390000Y-151425000D02*
X142850000Y-151425000D01*
X135665000Y-151425000D02*
X142850000Y-151425000D01*
X134920000Y-152170000D02*
X135665000Y-151425000D01*
%TD*%
M02*
