M48
; DRILL file {KiCad 8.0.3-8.0.3-0~ubuntu23.10.1} date 2024-08-04T16:00:46-0400
; FORMAT={-:-/ absolute / inch / decimal}
; #@! TF.CreationDate,2024-08-04T16:00:46-04:00
; #@! TF.GenerationSoftware,Kicad,Pcbnew,8.0.3-8.0.3-0~ubuntu23.10.1
; #@! TF.FileFunction,Plated,1,2,PTH
FMAT,2
INCH
; #@! TA.AperFunction,Plated,PTH,ViaDrill
T1C0.0118
; #@! TA.AperFunction,Plated,PTH,ComponentDrill
T2C0.0394
%
G90
G05
T1
X5.3118Y-5.5752
X5.3118Y-5.9909
X5.3122Y-5.1634
T2
X5.624Y-4.9616
X5.624Y-5.0616
X5.624Y-5.1616
X5.624Y-5.2616
X5.624Y-5.3616
X5.624Y-5.4616
X5.624Y-5.5616
X5.624Y-5.6616
X5.624Y-5.7616
X5.624Y-5.8616
X5.624Y-5.9616
X5.624Y-6.0616
X5.724Y-4.9616
X5.724Y-5.0616
X5.724Y-5.1616
X5.724Y-5.2616
X5.724Y-5.3616
X5.724Y-5.4616
X5.724Y-5.5616
X5.724Y-5.6616
X5.724Y-5.7616
X5.724Y-5.8616
X5.724Y-5.9616
X5.724Y-6.0616
M30
